<?xml version="1.0" encoding="UTF-8" standalone="no"?>
<svg
   xmlns:dc="http://purl.org/dc/elements/1.1/"
   xmlns:cc="http://creativecommons.org/ns#"
   xmlns:rdf="http://www.w3.org/1999/02/22-rdf-syntax-ns#"
   xmlns:svg="http://www.w3.org/2000/svg"
   xmlns="http://www.w3.org/2000/svg"
   viewBox="0 0 720 540"
   height="540"
   width="720"
   xml:space="preserve"
   version="1.1"
   id="svg8194"><metadata
     id="metadata8200"><rdf:RDF><cc:Work
         rdf:about=""><dc:format>image/svg+xml</dc:format><dc:type
           rdf:resource="http://purl.org/dc/dcmitype/StillImage" /><dc:title></dc:title></cc:Work></rdf:RDF></metadata><defs
     id="defs8198"><clipPath
       id="clipPath8354"
       clipPathUnits="userSpaceOnUse"><path
         id="path8356"
         d="m 86.4,64.8 432,0 0,315.36 -432,0 0,-315.36 z" /></clipPath></defs><g
     transform="matrix(1.25,0,0,-1.25,0,540)"
     id="g8202"><path
       id="path8204"
       style="fill:#ffffff;fill-opacity:1;fill-rule:nonzero;stroke:none"
       d="M 0,0 576,0 576,432 0,432 0,0 Z" /><path
       id="path8206"
       style="fill:#ffffff;fill-opacity:1;fill-rule:nonzero;stroke:none"
       d="m 86.4,64.8 432,0 0,315.36 -432,0 0,-315.36 z" /><path
       id="path8208"
       style="fill:#000000;fill-opacity:1;fill-rule:nonzero;stroke:#000000;stroke-width:0.80000001;stroke-linecap:butt;stroke-linejoin:round;stroke-miterlimit:10;stroke-dasharray:none;stroke-opacity:1"
       d="m 86.4,64.8 0,3.5" /><path
       id="path8210"
       style="fill:#000000;fill-opacity:1;fill-rule:nonzero;stroke:#000000;stroke-width:0.80000001;stroke-linecap:butt;stroke-linejoin:round;stroke-miterlimit:10;stroke-dasharray:none;stroke-opacity:1"
       d="m 86.4,380.16 0,-3.5" /><text
       id="text8212"
       style="font-variant:normal;font-weight:normal;font-size:10px;font-family:'DejaVu Serif';-inkscape-font-specification:DejaVuSerif;writing-mode:lr-tb;fill:#000000;fill-opacity:1;fill-rule:nonzero;stroke:none"
       transform="matrix(1,0,0,-1,83.220312,53.70625)"><tspan
         id="tspan8214"
         y="0"
         x="0">0</tspan></text>
<path
       id="path8216"
       style="fill:#000000;fill-opacity:1;fill-rule:nonzero;stroke:#000000;stroke-width:0.80000001;stroke-linecap:butt;stroke-linejoin:round;stroke-miterlimit:10;stroke-dasharray:none;stroke-opacity:1"
       d="m 140.67136,64.8 0,3.5" /><path
       id="path8218"
       style="fill:#000000;fill-opacity:1;fill-rule:nonzero;stroke:#000000;stroke-width:0.80000001;stroke-linecap:butt;stroke-linejoin:round;stroke-miterlimit:10;stroke-dasharray:none;stroke-opacity:1"
       d="m 140.67136,380.16 0,-3.5" /><text
       id="text8220"
       style="font-variant:normal;font-weight:normal;font-size:10px;font-family:'DejaVu Serif';-inkscape-font-specification:DejaVuSerif;writing-mode:lr-tb;fill:#000000;fill-opacity:1;fill-rule:nonzero;stroke:none"
       transform="matrix(1,0,0,-1,131.13229,53.70625)"><tspan
         id="tspan8222"
         y="0"
         x="0 6.3600001 12.72">250</tspan></text>
<path
       id="path8224"
       style="fill:#000000;fill-opacity:1;fill-rule:nonzero;stroke:#000000;stroke-width:0.80000001;stroke-linecap:butt;stroke-linejoin:round;stroke-miterlimit:10;stroke-dasharray:none;stroke-opacity:1"
       d="m 194.94271,64.8 0,3.5" /><path
       id="path8226"
       style="fill:#000000;fill-opacity:1;fill-rule:nonzero;stroke:#000000;stroke-width:0.80000001;stroke-linecap:butt;stroke-linejoin:round;stroke-miterlimit:10;stroke-dasharray:none;stroke-opacity:1"
       d="m 194.94271,380.16 0,-3.5" /><text
       id="text8228"
       style="font-variant:normal;font-weight:normal;font-size:10px;font-family:'DejaVu Serif';-inkscape-font-specification:DejaVuSerif;writing-mode:lr-tb;fill:#000000;fill-opacity:1;fill-rule:nonzero;stroke:none"
       transform="matrix(1,0,0,-1,185.40365,53.70625)"><tspan
         id="tspan8230"
         y="0"
         x="0 6.3600001 12.72">500</tspan></text>
<path
       id="path8232"
       style="fill:#000000;fill-opacity:1;fill-rule:nonzero;stroke:#000000;stroke-width:0.80000001;stroke-linecap:butt;stroke-linejoin:round;stroke-miterlimit:10;stroke-dasharray:none;stroke-opacity:1"
       d="m 249.21407,64.8 0,3.5" /><path
       id="path8234"
       style="fill:#000000;fill-opacity:1;fill-rule:nonzero;stroke:#000000;stroke-width:0.80000001;stroke-linecap:butt;stroke-linejoin:round;stroke-miterlimit:10;stroke-dasharray:none;stroke-opacity:1"
       d="m 249.21407,380.16 0,-3.5" /><text
       id="text8236"
       style="font-variant:normal;font-weight:normal;font-size:10px;font-family:'DejaVu Serif';-inkscape-font-specification:DejaVuSerif;writing-mode:lr-tb;fill:#000000;fill-opacity:1;fill-rule:nonzero;stroke:none"
       transform="matrix(1,0,0,-1,239.67501,53.70625)"><tspan
         id="tspan8238"
         y="0"
         x="0 6.3600001 12.72">750</tspan></text>
<path
       id="path8240"
       style="fill:#000000;fill-opacity:1;fill-rule:nonzero;stroke:#000000;stroke-width:0.80000001;stroke-linecap:butt;stroke-linejoin:round;stroke-miterlimit:10;stroke-dasharray:none;stroke-opacity:1"
       d="m 303.48543,64.8 0,3.5" /><path
       id="path8242"
       style="fill:#000000;fill-opacity:1;fill-rule:nonzero;stroke:#000000;stroke-width:0.80000001;stroke-linecap:butt;stroke-linejoin:round;stroke-miterlimit:10;stroke-dasharray:none;stroke-opacity:1"
       d="m 303.48543,380.16 0,-3.5" /><text
       id="text8244"
       style="font-variant:normal;font-weight:normal;font-size:10px;font-family:'DejaVu Serif';-inkscape-font-specification:DejaVuSerif;writing-mode:lr-tb;fill:#000000;fill-opacity:1;fill-rule:nonzero;stroke:none"
       transform="matrix(1,0,0,-1,290.76668,53.70625)"><tspan
         id="tspan8246"
         y="0"
         x="0 6.3600001 12.72 19.08">1000</tspan></text>
<path
       id="path8248"
       style="fill:#000000;fill-opacity:1;fill-rule:nonzero;stroke:#000000;stroke-width:0.80000001;stroke-linecap:butt;stroke-linejoin:round;stroke-miterlimit:10;stroke-dasharray:none;stroke-opacity:1"
       d="m 357.75678,64.8 0,3.5" /><path
       id="path8250"
       style="fill:#000000;fill-opacity:1;fill-rule:nonzero;stroke:#000000;stroke-width:0.80000001;stroke-linecap:butt;stroke-linejoin:round;stroke-miterlimit:10;stroke-dasharray:none;stroke-opacity:1"
       d="m 357.75678,380.16 0,-3.5" /><text
       id="text8252"
       style="font-variant:normal;font-weight:normal;font-size:10px;font-family:'DejaVu Serif';-inkscape-font-specification:DejaVuSerif;writing-mode:lr-tb;fill:#000000;fill-opacity:1;fill-rule:nonzero;stroke:none"
       transform="matrix(1,0,0,-1,345.03803,53.70625)"><tspan
         id="tspan8254"
         y="0"
         x="0 6.3600001 12.72 19.08">1250</tspan></text>
<path
       id="path8256"
       style="fill:#000000;fill-opacity:1;fill-rule:nonzero;stroke:#000000;stroke-width:0.80000001;stroke-linecap:butt;stroke-linejoin:round;stroke-miterlimit:10;stroke-dasharray:none;stroke-opacity:1"
       d="m 412.02814,64.8 0,3.5" /><path
       id="path8258"
       style="fill:#000000;fill-opacity:1;fill-rule:nonzero;stroke:#000000;stroke-width:0.80000001;stroke-linecap:butt;stroke-linejoin:round;stroke-miterlimit:10;stroke-dasharray:none;stroke-opacity:1"
       d="m 412.02814,380.16 0,-3.5" /><text
       id="text8260"
       style="font-variant:normal;font-weight:normal;font-size:10px;font-family:'DejaVu Serif';-inkscape-font-specification:DejaVuSerif;writing-mode:lr-tb;fill:#000000;fill-opacity:1;fill-rule:nonzero;stroke:none"
       transform="matrix(1,0,0,-1,399.30939,53.70625)"><tspan
         id="tspan8262"
         y="0"
         x="0 6.3600001 12.72 19.08">1500</tspan></text>
<path
       id="path8264"
       style="fill:#000000;fill-opacity:1;fill-rule:nonzero;stroke:#000000;stroke-width:0.80000001;stroke-linecap:butt;stroke-linejoin:round;stroke-miterlimit:10;stroke-dasharray:none;stroke-opacity:1"
       d="m 466.2995,64.8 0,3.5" /><path
       id="path8266"
       style="fill:#000000;fill-opacity:1;fill-rule:nonzero;stroke:#000000;stroke-width:0.80000001;stroke-linecap:butt;stroke-linejoin:round;stroke-miterlimit:10;stroke-dasharray:none;stroke-opacity:1"
       d="m 466.2995,380.16 0,-3.5" /><text
       id="text8268"
       style="font-variant:normal;font-weight:normal;font-size:10px;font-family:'DejaVu Serif';-inkscape-font-specification:DejaVuSerif;writing-mode:lr-tb;fill:#000000;fill-opacity:1;fill-rule:nonzero;stroke:none"
       transform="matrix(1,0,0,-1,453.58075,53.70625)"><tspan
         id="tspan8270"
         y="0"
         x="0 6.3600001 12.72 19.08">1750</tspan></text>
<text
       id="text8272"
       style="font-variant:normal;font-weight:normal;font-size:18px;font-family:'DejaVu Serif';-inkscape-font-specification:DejaVuSerif;writing-mode:lr-tb;fill:#000000;fill-opacity:1;fill-rule:nonzero;stroke:none"
       transform="matrix(1,0,0,-1,226.11875,33.95625)"><tspan
         id="tspan8274"
         y="0"
         x="0 12.006 22.662001 39.726002 51.245998 61.902 70.505997 81.234001 88.470001 100.062 108.666 119.322 125.046 132.06599 145.51199">Temperature (K)</tspan></text>
<path
       id="path8276"
       style="fill:#000000;fill-opacity:1;fill-rule:nonzero;stroke:#000000;stroke-width:0.80000001;stroke-linecap:butt;stroke-linejoin:round;stroke-miterlimit:10;stroke-dasharray:none;stroke-opacity:1"
       d="m 86.4,79.533012 3.5,0" /><path
       id="path8278"
       style="fill:#000000;fill-opacity:1;fill-rule:nonzero;stroke:#000000;stroke-width:0.80000001;stroke-linecap:butt;stroke-linejoin:round;stroke-miterlimit:10;stroke-dasharray:none;stroke-opacity:1"
       d="m 518.4,79.533012 -3.5,0" /><text
       id="text8280"
       style="font-variant:normal;font-weight:normal;font-size:10px;font-family:'DejaVu Serif';-inkscape-font-specification:DejaVuSerif;writing-mode:lr-tb;fill:#000000;fill-opacity:1;fill-rule:nonzero;stroke:none"
       transform="matrix(1,0,0,-1,76.540625,75.736137)"><tspan
         id="tspan8282"
         y="0"
         x="0">0</tspan></text>
<path
       id="path8284"
       style="fill:#000000;fill-opacity:1;fill-rule:nonzero;stroke:#000000;stroke-width:0.80000001;stroke-linecap:butt;stroke-linejoin:round;stroke-miterlimit:10;stroke-dasharray:none;stroke-opacity:1"
       d="m 86.4,130.48556 3.5,0" /><path
       id="path8286"
       style="fill:#000000;fill-opacity:1;fill-rule:nonzero;stroke:#000000;stroke-width:0.80000001;stroke-linecap:butt;stroke-linejoin:round;stroke-miterlimit:10;stroke-dasharray:none;stroke-opacity:1"
       d="m 518.4,130.48556 -3.5,0" /><text
       id="text8288"
       style="font-variant:normal;font-weight:normal;font-size:10px;font-family:'DejaVu Serif';-inkscape-font-specification:DejaVuSerif;writing-mode:lr-tb;fill:#000000;fill-opacity:1;fill-rule:nonzero;stroke:none"
       transform="matrix(1,0,0,-1,70.18125,126.68868)"><tspan
         id="tspan8290"
         y="0"
         x="0 6.3600001">10</tspan></text>
<path
       id="path8292"
       style="fill:#000000;fill-opacity:1;fill-rule:nonzero;stroke:#000000;stroke-width:0.80000001;stroke-linecap:butt;stroke-linejoin:round;stroke-miterlimit:10;stroke-dasharray:none;stroke-opacity:1"
       d="m 86.4,181.43811 3.5,0" /><path
       id="path8294"
       style="fill:#000000;fill-opacity:1;fill-rule:nonzero;stroke:#000000;stroke-width:0.80000001;stroke-linecap:butt;stroke-linejoin:round;stroke-miterlimit:10;stroke-dasharray:none;stroke-opacity:1"
       d="m 518.4,181.43811 -3.5,0" /><text
       id="text8296"
       style="font-variant:normal;font-weight:normal;font-size:10px;font-family:'DejaVu Serif';-inkscape-font-specification:DejaVuSerif;writing-mode:lr-tb;fill:#000000;fill-opacity:1;fill-rule:nonzero;stroke:none"
       transform="matrix(1,0,0,-1,70.18125,177.64123)"><tspan
         id="tspan8298"
         y="0"
         x="0 6.3600001">20</tspan></text>
<path
       id="path8300"
       style="fill:#000000;fill-opacity:1;fill-rule:nonzero;stroke:#000000;stroke-width:0.80000001;stroke-linecap:butt;stroke-linejoin:round;stroke-miterlimit:10;stroke-dasharray:none;stroke-opacity:1"
       d="m 86.4,232.39065 3.5,0" /><path
       id="path8302"
       style="fill:#000000;fill-opacity:1;fill-rule:nonzero;stroke:#000000;stroke-width:0.80000001;stroke-linecap:butt;stroke-linejoin:round;stroke-miterlimit:10;stroke-dasharray:none;stroke-opacity:1"
       d="m 518.4,232.39065 -3.5,0" /><text
       id="text8304"
       style="font-variant:normal;font-weight:normal;font-size:10px;font-family:'DejaVu Serif';-inkscape-font-specification:DejaVuSerif;writing-mode:lr-tb;fill:#000000;fill-opacity:1;fill-rule:nonzero;stroke:none"
       transform="matrix(1,0,0,-1,70.18125,228.59378)"><tspan
         id="tspan8306"
         y="0"
         x="0 6.3600001">30</tspan></text>
<path
       id="path8308"
       style="fill:#000000;fill-opacity:1;fill-rule:nonzero;stroke:#000000;stroke-width:0.80000001;stroke-linecap:butt;stroke-linejoin:round;stroke-miterlimit:10;stroke-dasharray:none;stroke-opacity:1"
       d="m 86.4,283.3432 3.5,0" /><path
       id="path8310"
       style="fill:#000000;fill-opacity:1;fill-rule:nonzero;stroke:#000000;stroke-width:0.80000001;stroke-linecap:butt;stroke-linejoin:round;stroke-miterlimit:10;stroke-dasharray:none;stroke-opacity:1"
       d="m 518.4,283.3432 -3.5,0" /><text
       id="text8312"
       style="font-variant:normal;font-weight:normal;font-size:10px;font-family:'DejaVu Serif';-inkscape-font-specification:DejaVuSerif;writing-mode:lr-tb;fill:#000000;fill-opacity:1;fill-rule:nonzero;stroke:none"
       transform="matrix(1,0,0,-1,70.18125,279.54633)"><tspan
         id="tspan8314"
         y="0"
         x="0 6.3600001">40</tspan></text>
<path
       id="path8316"
       style="fill:#000000;fill-opacity:1;fill-rule:nonzero;stroke:#000000;stroke-width:0.80000001;stroke-linecap:butt;stroke-linejoin:round;stroke-miterlimit:10;stroke-dasharray:none;stroke-opacity:1"
       d="m 86.4,334.29575 3.5,0" /><path
       id="path8318"
       style="fill:#000000;fill-opacity:1;fill-rule:nonzero;stroke:#000000;stroke-width:0.80000001;stroke-linecap:butt;stroke-linejoin:round;stroke-miterlimit:10;stroke-dasharray:none;stroke-opacity:1"
       d="m 518.4,334.29575 -3.5,0" /><text
       id="text8320"
       style="font-variant:normal;font-weight:normal;font-size:10px;font-family:'DejaVu Serif';-inkscape-font-specification:DejaVuSerif;writing-mode:lr-tb;fill:#000000;fill-opacity:1;fill-rule:nonzero;stroke:none"
       transform="matrix(1,0,0,-1,70.18125,330.49887)"><tspan
         id="tspan8322"
         y="0"
         x="0 6.3600001">50</tspan></text>
<g
       transform="matrix(0,1,-1,0,62.18125,86.48)"
       id="g8324"><text
         id="text8326"
         style="font-variant:normal;font-weight:normal;font-size:18px;font-family:'DejaVu Serif';-inkscape-font-specification:DejaVuSerif;writing-mode:lr-tb;fill:#000000;fill-opacity:1;fill-rule:nonzero;stroke:none"
         transform="matrix(1,0,0,-1,0,0.7578125)"><tspan
           id="tspan8328"
           y="0"
           x="0 12.005859 23.598633 34.250977 42.855469 59.923828 70.655273 76.412109 82.133789 92.786133 102.9375 114.45996 125.19141 136.78418 146.02148 151.77832 162.61523 174.20801">Thermal expansion </tspan></text>
<text
         id="text8330"
         style="font-variant:normal;font-weight:normal;font-size:18px;font-family:'DejaVu Sans';-inkscape-font-specification:DejaVuSans;writing-mode:lr-tb;fill:#000000;fill-opacity:1;fill-rule:nonzero;stroke:none"
         transform="matrix(1,0,0,-1,179.92969,0.7578125)"><tspan
           id="tspan8332"
           y="0"
           x="0 15.082031 26.53418">×10</tspan></text>
<text
         id="text8334"
         style="font-variant:normal;font-weight:normal;font-size:12.60000038px;font-family:'DejaVu Sans';-inkscape-font-specification:DejaVuSans;writing-mode:lr-tb;fill:#000000;fill-opacity:1;fill-rule:nonzero;stroke:none"
         transform="matrix(1,0,0,-1,218.08828,7.6484375)"><tspan
           id="tspan8336"
           y="0"
           x="0">6</tspan></text>
<text
         id="text8338"
         style="font-variant:normal;font-weight:normal;font-size:18px;font-family:'DejaVu Sans';-inkscape-font-specification:DejaVuSans;writing-mode:lr-tb;fill:#000000;fill-opacity:1;fill-rule:nonzero;stroke:none"
         transform="matrix(1,0,0,-1,226.59697,0.7578125)"><tspan
           id="tspan8340"
           y="0"
           x="0 7.0224609">(K</tspan></text>
<text
         id="text8342"
         style="font-variant:normal;font-weight:normal;font-size:12.60000038px;font-family:'DejaVu Sans';-inkscape-font-specification:DejaVuSans;writing-mode:lr-tb;fill:#000000;fill-opacity:1;fill-rule:nonzero;stroke:none"
         transform="matrix(1,0,0,-1,245.59541,7.6484375)"><tspan
           id="tspan8344"
           y="0"
           x="0 10.557422">−1</tspan></text>
<text
         id="text8346"
         style="font-variant:normal;font-weight:normal;font-size:18px;font-family:'DejaVu Sans';-inkscape-font-specification:DejaVuSans;writing-mode:lr-tb;fill:#000000;fill-opacity:1;fill-rule:nonzero;stroke:none"
         transform="matrix(1,0,0,-1,264.66152,0.7578125)"><tspan
           id="tspan8348"
           y="0"
           x="0">)</tspan></text>
</g><g
       id="g8350"><g
         clip-path="url(#clipPath8354)"
         id="g8352"><path
           id="path8358"
           style="fill:none;stroke:#ff0000;stroke-width:1.5;stroke-linecap:square;stroke-linejoin:round;stroke-miterlimit:10;stroke-dasharray:none;stroke-opacity:1"
           d="m 86.4,79.533012 4.341709,-0.398467 2.170854,0.410706 2.170854,1.498633 2.170854,2.486831 2.170855,3.091454 4.341704,6.845001 19.53769,31.40272 4.34171,6.53387 4.34171,6.12498 4.34171,5.66555 4.34171,5.19193 4.3417,4.73223 4.34171,4.3026 4.34171,3.91071 4.34171,3.55805 4.34171,3.24605 4.34171,2.97102 4.34171,2.72946 4.3417,2.5191 6.51257,3.44277 6.51256,3.10742 6.51256,2.83669 6.51257,2.61814 8.68341,3.22385 8.68342,2.99243 10.85427,3.51065 15.19598,4.6486 54.27136,16.33736 15.19598,4.95051 13.02512,4.49295 10.85427,3.95697 10.85428,4.18049 10.85427,4.43424 10.85427,4.71922 8.68342,4.00382 8.68341,4.22781 8.68342,4.47241 8.68342,4.74 8.68341,5.03233 8.68342,5.3526 6.51256,4.24275 6.51257,4.45414 6.51256,4.68121 6.51256,4.92441 6.51257,5.18676 6.51256,5.46871 6.51256,5.77241 6.51256,6.10042 6.51257,6.45563 6.51256,6.83996 6.51256,7.2568 6.51257,7.70973 6.51256,8.20319 4.34171,5.76442 4.34171,6.01919 2.17085,3.10902 0,0" /></g></g><g
       id="g8360"><path
         id="path8362"
         style="fill:none;stroke:#000000;stroke-width:0.80000001;stroke-linecap:square;stroke-linejoin:miter;stroke-miterlimit:10;stroke-dasharray:none;stroke-opacity:1"
         d="m 86.4,64.8 0,315.36" /><path
         id="path8364"
         style="fill:none;stroke:#000000;stroke-width:0.80000001;stroke-linecap:square;stroke-linejoin:miter;stroke-miterlimit:10;stroke-dasharray:none;stroke-opacity:1"
         d="m 518.4,64.8 0,315.36" /><path
         id="path8366"
         style="fill:none;stroke:#000000;stroke-width:0.80000001;stroke-linecap:square;stroke-linejoin:miter;stroke-miterlimit:10;stroke-dasharray:none;stroke-opacity:1"
         d="m 86.4,64.8 432,0" /><path
         id="path8368"
         style="fill:none;stroke:#000000;stroke-width:0.80000001;stroke-linecap:square;stroke-linejoin:miter;stroke-miterlimit:10;stroke-dasharray:none;stroke-opacity:1"
         d="m 86.4,380.16 432,0" /></g></g></svg>