<?xml version="1.0" encoding="UTF-8" standalone="no"?>
<svg
   xmlns:dc="http://purl.org/dc/elements/1.1/"
   xmlns:cc="http://creativecommons.org/ns#"
   xmlns:rdf="http://www.w3.org/1999/02/22-rdf-syntax-ns#"
   xmlns:svg="http://www.w3.org/2000/svg"
   xmlns="http://www.w3.org/2000/svg"
   viewBox="0 0 498.85391 498.84491"
   height="498.84491"
   width="498.85391"
   xml:space="preserve"
   version="1.1"
   id="svg4387"><metadata
     id="metadata4393"><rdf:RDF><cc:Work
         rdf:about=""><dc:format>image/svg+xml</dc:format><dc:type
           rdf:resource="http://purl.org/dc/dcmitype/StillImage" /><dc:title></dc:title></cc:Work></rdf:RDF></metadata><defs
     id="defs4391"><clipPath
       id="clipPath4405"
       clipPathUnits="userSpaceOnUse"><path
         id="path4407"
         d="m 59.746875,34.075 249.102185,0 0,357.80094 -249.102185,0 0,-357.80094 z" /></clipPath><clipPath
       id="clipPath4415"
       clipPathUnits="userSpaceOnUse"><path
         id="path4417"
         d="m 59.746875,34.075 249.102185,0 0,357.80094 -249.102185,0 0,-357.80094 z" /></clipPath><clipPath
       id="clipPath4425"
       clipPathUnits="userSpaceOnUse"><path
         id="path4427"
         d="m 59.746875,34.075 249.102185,0 0,357.80094 -249.102185,0 0,-357.80094 z" /></clipPath><clipPath
       id="clipPath4435"
       clipPathUnits="userSpaceOnUse"><path
         id="path4437"
         d="m 59.746875,34.075 249.102185,0 0,357.80094 -249.102185,0 0,-357.80094 z" /></clipPath><clipPath
       id="clipPath4445"
       clipPathUnits="userSpaceOnUse"><path
         id="path4447"
         d="m 59.746875,34.075 249.102185,0 0,357.80094 -249.102185,0 0,-357.80094 z" /></clipPath><clipPath
       id="clipPath4455"
       clipPathUnits="userSpaceOnUse"><path
         id="path4457"
         d="m 59.746875,34.075 249.102185,0 0,357.80094 -249.102185,0 0,-357.80094 z" /></clipPath><clipPath
       id="clipPath4465"
       clipPathUnits="userSpaceOnUse"><path
         id="path4467"
         d="m 59.746875,34.075 249.102185,0 0,357.80094 -249.102185,0 0,-357.80094 z" /></clipPath><clipPath
       id="clipPath4475"
       clipPathUnits="userSpaceOnUse"><path
         id="path4477"
         d="m 59.746875,34.075 249.102185,0 0,357.80094 -249.102185,0 0,-357.80094 z" /></clipPath><clipPath
       id="clipPath4485"
       clipPathUnits="userSpaceOnUse"><path
         id="path4487"
         d="m 59.746875,34.075 249.102185,0 0,357.80094 -249.102185,0 0,-357.80094 z" /></clipPath><clipPath
       id="clipPath4495"
       clipPathUnits="userSpaceOnUse"><path
         id="path4497"
         d="m 59.746875,34.075 249.102185,0 0,357.80094 -249.102185,0 0,-357.80094 z" /></clipPath><clipPath
       id="clipPath4505"
       clipPathUnits="userSpaceOnUse"><path
         id="path4507"
         d="m 59.746875,34.075 249.102185,0 0,357.80094 -249.102185,0 0,-357.80094 z" /></clipPath><clipPath
       id="clipPath4515"
       clipPathUnits="userSpaceOnUse"><path
         id="path4517"
         d="m 59.746875,34.075 249.102185,0 0,357.80094 -249.102185,0 0,-357.80094 z" /></clipPath><clipPath
       id="clipPath4525"
       clipPathUnits="userSpaceOnUse"><path
         id="path4527"
         d="m 59.746875,34.075 249.102185,0 0,357.80094 -249.102185,0 0,-357.80094 z" /></clipPath><clipPath
       id="clipPath4535"
       clipPathUnits="userSpaceOnUse"><path
         id="path4537"
         d="m 59.746875,34.075 249.102185,0 0,357.80094 -249.102185,0 0,-357.80094 z" /></clipPath><clipPath
       id="clipPath4545"
       clipPathUnits="userSpaceOnUse"><path
         id="path4547"
         d="m 59.746875,34.075 249.102185,0 0,357.80094 -249.102185,0 0,-357.80094 z" /></clipPath><clipPath
       id="clipPath4555"
       clipPathUnits="userSpaceOnUse"><path
         id="path4557"
         d="m 59.746875,34.075 249.102185,0 0,357.80094 -249.102185,0 0,-357.80094 z" /></clipPath><clipPath
       id="clipPath4565"
       clipPathUnits="userSpaceOnUse"><path
         id="path4567"
         d="m 59.746875,34.075 249.102185,0 0,357.80094 -249.102185,0 0,-357.80094 z" /></clipPath><clipPath
       id="clipPath4575"
       clipPathUnits="userSpaceOnUse"><path
         id="path4577"
         d="m 59.746875,34.075 249.102185,0 0,357.80094 -249.102185,0 0,-357.80094 z" /></clipPath><clipPath
       id="clipPath4585"
       clipPathUnits="userSpaceOnUse"><path
         id="path4587"
         d="m 59.746875,34.075 249.102185,0 0,357.80094 -249.102185,0 0,-357.80094 z" /></clipPath><clipPath
       id="clipPath4595"
       clipPathUnits="userSpaceOnUse"><path
         id="path4597"
         d="m 59.746875,34.075 249.102185,0 0,357.80094 -249.102185,0 0,-357.80094 z" /></clipPath><clipPath
       id="clipPath4605"
       clipPathUnits="userSpaceOnUse"><path
         id="path4607"
         d="m 59.746875,34.075 249.102185,0 0,357.80094 -249.102185,0 0,-357.80094 z" /></clipPath><clipPath
       id="clipPath4615"
       clipPathUnits="userSpaceOnUse"><path
         id="path4617"
         d="m 59.746875,34.075 249.102185,0 0,357.80094 -249.102185,0 0,-357.80094 z" /></clipPath><clipPath
       id="clipPath4625"
       clipPathUnits="userSpaceOnUse"><path
         id="path4627"
         d="m 59.746875,34.075 249.102185,0 0,357.80094 -249.102185,0 0,-357.80094 z" /></clipPath><clipPath
       id="clipPath4635"
       clipPathUnits="userSpaceOnUse"><path
         id="path4637"
         d="m 59.746875,34.075 249.102185,0 0,357.80094 -249.102185,0 0,-357.80094 z" /></clipPath><clipPath
       id="clipPath4645"
       clipPathUnits="userSpaceOnUse"><path
         id="path4647"
         d="m 59.746875,34.075 249.102185,0 0,357.80094 -249.102185,0 0,-357.80094 z" /></clipPath><clipPath
       id="clipPath4663"
       clipPathUnits="userSpaceOnUse"><path
         id="path4665"
         d="m 59.746875,34.075 249.102185,0 0,357.80094 -249.102185,0 0,-357.80094 z" /></clipPath><clipPath
       id="clipPath4679"
       clipPathUnits="userSpaceOnUse"><path
         id="path4681"
         d="m 59.746875,34.075 249.102185,0 0,357.80094 -249.102185,0 0,-357.80094 z" /></clipPath><clipPath
       id="clipPath4695"
       clipPathUnits="userSpaceOnUse"><path
         id="path4697"
         d="m 59.746875,34.075 249.102185,0 0,357.80094 -249.102185,0 0,-357.80094 z" /></clipPath><clipPath
       id="clipPath4711"
       clipPathUnits="userSpaceOnUse"><path
         id="path4713"
         d="m 59.746875,34.075 249.102185,0 0,357.80094 -249.102185,0 0,-357.80094 z" /></clipPath><clipPath
       id="clipPath4781"
       clipPathUnits="userSpaceOnUse"><path
         id="path4783"
         d="m 59.746875,34.075 249.102185,0 0,357.80094 -249.102185,0 0,-357.80094 z" /></clipPath><clipPath
       id="clipPath4811"
       clipPathUnits="userSpaceOnUse"><path
         id="path4813"
         d="m 308.84906,34.075 83.03407,0 0,357.80094 -83.03407,0 0,-357.80094 z" /></clipPath><clipPath
       id="clipPath4851"
       clipPathUnits="userSpaceOnUse"><path
         id="path4853"
         d="m 308.84906,34.075 83.03407,0 0,357.80094 -83.03407,0 0,-357.80094 z" /></clipPath></defs><g
     transform="matrix(1.25,0,0,-1.25,0,498.84492)"
     id="g4395"><path
       id="path4397"
       style="fill:#ffffff;fill-opacity:1;fill-rule:nonzero;stroke:none"
       d="m 0,0 399.08312,0 0,399.07594 L 0,399.07594 0,0 Z" /><path
       id="path4399"
       style="fill:#ffffff;fill-opacity:1;fill-rule:nonzero;stroke:none"
       d="m 59.746875,34.075 249.102185,0 0,357.80094 -249.102185,0 0,-357.80094 z" /><g
       id="g4401"><g
         clip-path="url(#clipPath4405)"
         id="g4403"><path
           id="path4409"
           style="fill:none;stroke:#2ca02c;stroke-width:2;stroke-linecap:square;stroke-linejoin:round;stroke-miterlimit:10;stroke-dasharray:none;stroke-opacity:1"
           d="m 59.746875,34.074997 1.15079,3.217476 1.150789,2.695263 1.150804,2.765198 1.15079,2.798067 1.15079,2.808397 1.150789,2.810151 1.15079,2.807495 1.150804,2.802018 1.150789,2.794428 1.15079,2.785072 1.15079,2.774134 1.150804,2.761713 1.150789,2.747865 1.15079,2.732614 1.15079,2.71597 1.150789,2.697932 1.150804,2.67849 1.15079,2.657628 1.15079,2.635326 1.150789,2.61156 1.15079,2.586304 1.150804,2.559525 1.150789,2.531196 1.15079,2.501279 1.15079,2.469742 1.150804,2.43654 1.150789,2.40164 1.15079,2.365 1.15079,2.32658 1.150789,2.28633 1.150804,2.24423 1.15079,2.20021 1.15079,2.15424 1.150789,2.10629 1.150787,2.05629 1.15081,2.00423 1.15079,1.95006 1.15079,1.89375 1.15079,1.83528 1.1508,1.77462 1.15079,1.71174 1.15079,1.64664 1.15079,1.57933 1.15079,1.50977 1.1508,1.43802 1.15079,1.36408 1.15079,1.28798 1.15079,1.20979 1.15079,1.12955 1.15081,1.04734 1.15078,0.96324 1.15079,0.87736 1.15079,0.78981 1.15081,0.70074 1.15079,0.61025 1.15079,0.51855 1.15079,0.42576 1.15079,0.33209 1.1508,0.23771 1.15079,0.14284 1.15079,0.0476" /></g></g><g
       id="g4411"><g
         clip-path="url(#clipPath4415)"
         id="g4413"><path
           id="path4419"
           style="fill:none;stroke:#2ca02c;stroke-width:2;stroke-linecap:square;stroke-linejoin:round;stroke-miterlimit:10;stroke-dasharray:none;stroke-opacity:1"
           d="m 59.746875,34.075001 1.15079,3.217473 1.150789,3.216523 1.150804,3.214625 1.15079,3.211773 1.15079,3.207966 1.150789,3.203197 1.15079,3.197461 1.150804,3.190749 1.150789,3.183053 1.15079,3.174362 1.15079,3.164666 1.150804,3.153946 1.150789,3.142192 1.15079,3.129383 1.15079,3.115501 1.150789,3.100523 1.150804,3.084425 1.15079,3.067182 1.15079,3.048761 1.150789,3.029131 1.15079,3.008257 1.150804,2.9861 1.150789,2.96261 1.15079,2.93775 1.15079,2.91146 1.150804,2.88368 1.150789,2.85434 1.15079,2.82341 1.15079,2.79075 1.150789,2.75634 1.150804,2.72004 1.15079,2.68178 1.15079,2.64144 1.150789,2.59891 1.150787,2.55406 1.15081,2.50673 1.15079,2.45681 1.15079,2.40411 1.15079,2.34847 1.1508,2.28969 1.15079,2.22762 1.15079,2.162 1.15079,2.09266 1.15079,2.01937 1.1508,1.94192 1.15079,1.86009 1.15079,1.77369 1.15079,1.68252 1.15079,1.58642 1.15081,1.48526 1.15078,1.37898 1.15079,1.26754 1.15079,1.15099 1.15081,1.0295 1.15079,0.90326 1.15079,0.77261 1.15079,0.63802 1.15079,0.5 1.1508,0.3592 1.15079,0.21636 1.15079,0.0723" /></g></g><g
       id="g4421"><g
         clip-path="url(#clipPath4425)"
         id="g4423"><path
           id="path4429"
           style="fill:none;stroke:#2ca02c;stroke-width:2;stroke-linecap:square;stroke-linejoin:round;stroke-miterlimit:10;stroke-dasharray:none;stroke-opacity:1"
           d="m 59.746875,35.701021 1.15079,1.649093 1.150789,3.158885 1.150804,3.214625 1.15079,3.211775 1.15079,3.207967 1.150789,3.203197 1.15079,3.197462 1.150804,3.19075 1.150789,3.183054 1.15079,3.174363 1.15079,3.164667 1.150804,3.153947 1.150789,3.142193 1.15079,3.129384 1.15079,3.115502 1.150789,3.100524 1.150804,3.084426 1.15079,3.067182 1.15079,3.048762 1.150789,3.029133 1.15079,3.008258 1.150804,2.9861 1.150789,2.96261 1.15079,2.93775 1.15079,2.91146 1.150804,2.88368 1.150789,2.85435 1.15079,2.8234 1.15079,2.79076 1.150789,2.75634 1.150804,2.72004 1.15079,2.68178 1.15079,2.64144 1.150789,2.59891 1.150787,2.55406 1.15081,2.50673 1.15079,2.45681 1.15079,2.40411 1.15079,2.34847 1.1508,2.2897 1.15079,2.22761 1.15079,2.16201 1.15079,2.09266 1.15079,2.01937 1.1508,1.94192 1.15079,1.8601 1.15079,1.77369 1.15079,1.68251 1.15079,1.58642 1.15081,1.48527 1.15078,1.37897 1.15079,1.26754 1.15079,1.151 1.15081,1.0295 1.15079,0.90325 1.15079,0.77262 1.15079,0.63802 1.15079,0.5 1.1508,0.3592 1.15079,0.21636 1.15079,0.0723" /></g></g><g
       id="g4431"><g
         clip-path="url(#clipPath4435)"
         id="g4433"><path
           id="path4439"
           style="fill:none;stroke:#2ca02c;stroke-width:2;stroke-linecap:square;stroke-linejoin:round;stroke-miterlimit:10;stroke-dasharray:none;stroke-opacity:1"
           d="m 59.746875,313.84041 1.15079,-0.0165 1.150789,-0.0494 1.150804,-0.0822 1.15079,-0.11505 1.15079,-0.14779 1.150789,-0.18044 1.15079,-0.21297 1.150804,-0.24537 1.150789,-0.27758 1.15079,-0.30963 1.15079,-0.34144 1.150804,-0.37302 1.150789,-0.40432 1.15079,-0.43532 1.15079,-0.466 1.150789,-0.49629 1.150804,-0.52618 1.15079,-0.55563 1.15079,-0.58459 1.150789,-0.61303 1.15079,-0.64087 1.150804,-0.6681 1.150789,-0.69463 1.15079,-0.72042 1.15079,-0.74539 1.150804,-0.76948 1.150789,-0.79262 1.15079,-0.8147 1.15079,-0.83567 1.150789,-0.8554 1.150804,-0.87381 1.15079,-0.89076 1.15079,-0.90616 1.150789,-0.91985 1.150787,-0.93171 1.15081,-0.94156 1.15079,-0.94927 1.15079,-0.95464 1.15079,-0.95748 1.1508,-0.95761 1.15079,-0.95481 1.15079,-0.94886 1.15079,-0.93954 1.15079,-0.9266 1.1508,-0.90984 1.15079,-0.889 1.15079,-0.86387 1.15079,-0.83426 1.15079,-0.79995 1.15081,-0.76084 1.15078,-0.71682 1.15079,-0.66783 1.15079,-0.61393 1.15081,-0.55523 1.15079,-0.49194 1.15079,-0.42436 1.15079,-0.35294 1.15079,-0.27818 1.1508,-0.20072 1.15079,-0.12125 1.15079,-0.0405" /></g></g><g
       id="g4441"><g
         clip-path="url(#clipPath4445)"
         id="g4443"><path
           id="path4449"
           style="fill:none;stroke:#2ca02c;stroke-width:2;stroke-linecap:square;stroke-linejoin:round;stroke-miterlimit:10;stroke-dasharray:none;stroke-opacity:1"
           d="m 59.746875,313.84041 1.15079,-0.0165 1.150789,-0.0494 1.150804,-0.0822 1.15079,-0.11505 1.15079,-0.14779 1.150789,-0.18044 1.15079,-0.21297 1.150804,-0.24537 1.150789,-0.27758 1.15079,-0.30963 1.15079,-0.34144 1.150804,-0.37302 1.150789,-0.40432 1.15079,-0.43532 1.15079,-0.466 1.150789,-0.49629 1.150804,-0.52618 1.15079,-0.55563 1.15079,-0.58459 1.150789,-0.61303 1.15079,-0.64087 1.150804,-0.6681 1.150789,-0.69463 1.15079,-0.72042 1.15079,-0.74539 1.150804,-0.76948 1.150789,-0.79261 1.15079,-0.81471 1.15079,-0.83567 1.150789,-0.8554 1.150804,-0.87381 1.15079,-0.89076 1.15079,-0.90616 1.150789,-0.91985 1.150787,-0.9317 1.15081,-0.94157 1.15079,-0.94927 1.15079,-0.95463 1.15079,-0.95749 1.1508,-0.95761 1.15079,-0.9548 1.15079,-0.94886 1.15079,-0.93954 1.15079,-0.92661 1.1508,-0.90983 1.15079,-0.889 1.15079,-0.86387 1.15079,-0.83426 1.15079,-0.79995 1.15081,-0.76084 1.15078,-0.71682 1.15079,-0.66783 1.15079,-0.61393 1.15081,-0.55523 1.15079,-0.49194 1.15079,-0.42436 1.15079,-0.35294 1.15079,-0.27818 1.1508,-0.20071 1.15079,-0.12125 1.15079,-0.0406" /></g></g><g
       id="g4451"><g
         clip-path="url(#clipPath4455)"
         id="g4453"><path
           id="path4459"
           style="fill:none;stroke:#2ca02c;stroke-width:2;stroke-linecap:square;stroke-linejoin:round;stroke-miterlimit:10;stroke-dasharray:none;stroke-opacity:1"
           d="m 59.746875,374.8378 1.15079,-0.0154 1.150789,-0.0461 1.150804,-0.0767 1.15079,-0.10719 1.15079,-0.13751 1.150789,-0.16762 1.15079,-0.19746 1.150804,-0.22695 1.150789,-0.25609 1.15079,-0.28479 1.15079,-0.31301 1.150804,-0.34071 1.150789,-0.36782 1.15079,-0.39429 1.15079,-0.42008 1.150789,-0.44513 1.150804,-0.46936 1.15079,-0.49276 1.15079,-0.51523 1.150789,-0.53675 1.15079,-0.55723 1.150804,-0.57663 1.150789,-0.59489 1.15079,-0.61195 1.15079,-0.62774 1.150804,-0.64221 1.150789,-0.65531 1.15079,-0.66695 1.15079,-0.67708 1.150789,-0.68567 1.150804,-0.69261 1.15079,-0.69787 1.15079,-0.70139 1.150789,-0.70312 1.150787,-0.70298 1.15081,-0.70094 1.15079,-0.69695 1.15079,-0.69096 1.15079,-0.68292 1.1508,-0.67283 1.15079,-0.66062 1.15079,-0.64629 1.15079,-0.62982 1.15079,-0.61122 1.1508,-0.59048 1.15079,-0.56761 1.15079,-0.54267 1.15079,-0.51566 1.15079,-0.48667 1.15081,-0.45575 1.15078,-0.42297 1.15079,-0.38846 1.15079,-0.3523 1.15081,-0.31463 1.15079,-0.2756 1.15079,-0.23534 1.15079,-0.19402 1.15079,-0.15184 1.1508,-0.10896 1.15079,-0.0656 1.15079,-0.0219" /></g></g><g
       id="g4461"><g
         clip-path="url(#clipPath4465)"
         id="g4463"><path
           id="path4469"
           style="fill:none;stroke:#2ca02c;stroke-width:2;stroke-linecap:square;stroke-linejoin:round;stroke-miterlimit:10;stroke-dasharray:none;stroke-opacity:1"
           d="m 129.94523,153.62536 1.14633,0.0223 1.14634,0.0668 1.14633,0.11123 1.14634,0.15548 1.14633,0.19951 1.14633,0.24322 1.14634,0.28659 1.14633,0.32954 1.14634,0.372 1.14633,0.41392 1.14634,0.45525 1.14633,0.49591 1.14634,0.53586 1.14633,0.575 1.14633,0.6133 1.14634,0.65066 1.14633,0.68701 1.14634,0.72226 1.14633,0.75633 1.14634,0.78911 1.14633,0.82052 1.14633,0.85043 1.14634,0.87876 1.14633,0.90537 1.14634,0.93016 1.14633,0.95302 1.14634,0.97383 1.14633,0.99244 1.14633,1.00878 1.14634,1.02269 1.14633,1.03407 1.14634,1.04277 1.14633,1.04868 1.14634,1.05165 1.14633,1.05153 1.14633,1.04818 1.14634,1.04137 1.14633,1.03093 1.14634,1.01653 1.14633,0.99786 1.14634,0.9744 1.14633,0.94547 1.14634,0.91003 1.14633,0.86644 1.14633,0.81206 1.14634,0.74244 1.14633,0.65015 1.14634,0.52369 1.14633,0.34947 1.14634,0.12441" /></g></g><g
       id="g4471"><g
         clip-path="url(#clipPath4475)"
         id="g4473"><path
           id="path4479"
           style="fill:none;stroke:#2ca02c;stroke-width:2;stroke-linecap:square;stroke-linejoin:round;stroke-miterlimit:10;stroke-dasharray:none;stroke-opacity:1"
           d="m 129.94523,178.36491 1.14633,0.0248 1.14634,0.0744 1.14633,0.12344 1.14634,0.17173 1.14633,0.21898 1.14633,0.26499 1.14634,0.30949 1.14633,0.3523 1.14634,0.39318 1.14633,0.43194 1.14634,0.46836 1.14633,0.50226 1.14634,0.53343 1.14633,0.56172 1.14633,0.58692 1.14634,0.60891 1.14633,0.62751 1.14634,0.64259 1.14633,0.65402 1.14634,0.66167 1.14633,0.66544 1.14633,0.66522 1.14634,0.66095 1.14633,0.65252 1.14634,0.6399 1.14633,0.62304 1.14634,0.60192 1.14633,0.57656 1.14633,0.54697 1.14634,0.51325 1.14633,0.47547 1.14634,0.4338 1.14633,0.38846 1.14634,0.33968 1.14633,0.28778 1.14633,0.23316 1.14634,0.17629 1.14633,0.11768 1.14634,0.058 1.14633,-0.002 1.14634,-0.0614 1.14633,-0.11907 1.14634,-0.17353 1.14633,-0.22269 1.14633,-0.26346 1.14634,-0.29098 1.14633,-0.29742 1.14634,-0.2709 1.14633,-0.19746 1.14634,-0.0737" /></g></g><g
       id="g4481"><g
         clip-path="url(#clipPath4485)"
         id="g4483"><path
           id="path4489"
           style="fill:none;stroke:#2ca02c;stroke-width:2;stroke-linecap:square;stroke-linejoin:round;stroke-miterlimit:10;stroke-dasharray:none;stroke-opacity:1"
           d="m 129.94523,178.36496 1.14633,0.0257 1.14634,0.077 1.14633,0.1283 1.14634,0.17952 1.14633,0.2306 1.14633,0.28141 1.14634,0.33181 1.14633,0.38169 1.14634,0.43085 1.14633,0.47916 1.14634,0.52645 1.14633,0.5725 1.14634,0.61715 1.14633,0.66017 1.14633,0.70136 1.14634,0.74051 1.14633,0.77739 1.14634,0.81178 1.14633,0.84346 1.14634,0.87223 1.14633,0.89787 1.14633,0.92015 1.14634,0.93893 1.14633,0.95398 1.14634,0.96516 1.14633,0.97232 1.14634,0.97531 1.14633,0.97404 1.14633,0.96844 1.14634,0.95842 1.14633,0.944 1.14634,0.92517 1.14633,0.90198 1.14634,0.87453 1.14633,0.84293 1.14633,0.80735 1.14634,0.768 1.14633,0.72507 1.14634,0.67884 1.14633,0.62957 1.14634,0.57755 1.14633,0.52306 1.14634,0.4664 1.14633,0.40786 1.14633,0.34773 1.14634,0.28625 1.14633,0.22372 1.14634,0.16038 1.14633,0.0964 1.14634,0.0322" /></g></g><g
       id="g4491"><g
         clip-path="url(#clipPath4495)"
         id="g4493"><path
           id="path4499"
           style="fill:none;stroke:#2ca02c;stroke-width:2;stroke-linecap:square;stroke-linejoin:round;stroke-miterlimit:10;stroke-dasharray:none;stroke-opacity:1"
           d="m 129.94523,277.29626 1.14633,-0.01 1.14634,-0.0292 1.14633,-0.0485 1.14634,-0.0675 1.14633,-0.0862 1.14633,-0.10421 1.14634,-0.12163 1.14633,-0.13827 1.14634,-0.15399 1.14633,-0.16867 1.14634,-0.18216 1.14633,-0.19433 1.14634,-0.20501 1.14633,-0.21404 1.14633,-0.22128 1.14634,-0.22655 1.14633,-0.22966 1.14634,-0.23043 1.14633,-0.22869 1.14634,-0.22424 1.14633,-0.21687 1.14633,-0.20641 1.14634,-0.19264 1.14633,-0.17541 1.14634,-0.15452 1.14633,-0.12981 1.14634,-0.10116 1.14633,-0.0685 1.14633,-0.0316 1.14634,0.009 1.14633,0.0544 1.14634,0.1034 1.14633,0.15627 1.14634,0.2127 1.14633,0.27234 1.14633,0.33476 1.14634,0.39945 1.14633,0.46573 1.14634,0.53293 1.14633,0.60016 1.14634,0.6665 1.14633,0.73081 1.14634,0.79177 1.14633,0.84773 1.14633,0.89657 1.14634,0.93528 1.14633,0.95937 1.14634,0.96112 1.14633,0.92039 1.14634,0.61654" /></g></g><g
       id="g4501"><g
         clip-path="url(#clipPath4505)"
         id="g4503"><path
           id="path4509"
           style="fill:none;stroke:#2ca02c;stroke-width:2;stroke-linecap:square;stroke-linejoin:round;stroke-miterlimit:10;stroke-dasharray:none;stroke-opacity:1"
           d="m 129.94523,277.29627 1.14633,0.0156 1.14634,0.0466 1.14633,0.0773 1.14634,0.10737 1.14633,0.13657 1.14633,0.1647 1.14634,0.19156 1.14633,0.21693 1.14634,0.24067 1.14633,0.26262 1.14634,0.28266 1.14633,0.30068 1.14634,0.31659 1.14633,0.33037 1.14633,0.34195 1.14634,0.35135 1.14633,0.35855 1.14634,0.36362 1.14633,0.36658 1.14634,0.3675 1.14633,0.36648 1.14633,0.36357 1.14634,0.35892 1.14633,0.35262 1.14634,0.34476 1.14633,0.33551 1.14634,0.32495 1.14633,0.31321 1.14633,0.30041 1.14634,0.28664 1.14633,0.27201 1.14634,0.25658 1.14633,0.24042 1.14634,0.22354 1.14633,0.20593 1.14633,0.18752 1.14634,0.16814 1.14633,0.14753 1.14634,0.12522 1.14633,0.10052 1.14634,0.0723 1.14633,0.0388 1.14634,-0.003 1.14633,-0.0564 1.14633,-0.12802 1.14634,-0.22442 1.14633,-0.34974 1.14634,-0.49695 1.14633,-0.63344 1.14634,-0.52013" /></g></g><g
       id="g4511"><g
         clip-path="url(#clipPath4515)"
         id="g4513"><path
           id="path4519"
           style="fill:none;stroke:#2ca02c;stroke-width:2;stroke-linecap:square;stroke-linejoin:round;stroke-miterlimit:10;stroke-dasharray:none;stroke-opacity:1"
           d="m 129.94523,347.55032 1.14633,-0.0364 1.14634,-0.10896 1.14633,-0.18135 1.14634,-0.25336 1.14633,-0.32483 1.14633,-0.39562 1.14634,-0.46558 1.14633,-0.53457 1.14634,-0.60246 1.14633,-0.66911 1.14634,-0.7344 1.14633,-0.79819 1.14634,-0.86039 1.14633,-0.92085 1.14633,-0.9795 1.14634,-1.03623 1.14633,-1.09094 1.14634,-1.14353 1.14633,-1.19393 1.14634,-1.24205 1.14633,-1.28781 1.14633,-1.33115 1.14634,-1.37197 1.14633,-1.41021 1.14634,-1.4458 1.14633,-1.47865 1.14634,-1.5087 1.14633,-1.53584 1.14633,-1.56 1.14634,-1.58106 1.14633,-1.59891 1.14634,-1.6134 1.14633,-1.62436 1.14634,-1.63161 1.14633,-1.63487 1.14633,-1.63383 1.14634,-1.62806 1.14633,-1.61699 1.14634,-1.59983 1.14633,-1.57548 1.14634,-1.54234 1.14633,-1.49802 1.14634,-1.439 1.14633,-1.35996 1.14633,-1.25344 1.14634,-1.11006 1.14633,-0.92163 1.14634,-0.68783 1.14633,-0.42144 1.14634,-0.1413" /></g></g><g
       id="g4521"><g
         clip-path="url(#clipPath4525)"
         id="g4523"><path
           id="path4529"
           style="fill:none;stroke:#2ca02c;stroke-width:2;stroke-linecap:square;stroke-linejoin:round;stroke-miterlimit:10;stroke-dasharray:none;stroke-opacity:1"
           d="m 187.26195,188.70475 1.1258,1.2e-4 1.12581,3.7e-4 1.1258,6e-4 1.12582,8.5e-4 1.12579,0.001 1.12582,10e-4 1.1258,0.002 1.12582,0.002 1.1258,0.002 1.12579,0.002 1.12582,0.002 1.1258,0.002 1.12582,0.002 1.12579,0.003 1.12582,0.003 1.1258,0.003 1.12582,0.003 1.12579,0.003 1.1258,0.003 1.12582,0.003 1.1258,0.003 1.12581,0.003 1.1258,0.003 1.12582,0.002 1.1258,0.002 1.12582,0.002 1.12579,0.002 1.1258,0.002 1.12582,0.002 1.1258,0.001 1.12581,0.001 1.1258,10e-4 1.12582,8.4e-4 1.1258,6e-4 1.12581,3.6e-4 1.1258,1.3e-4" /></g></g><g
       id="g4531"><g
         clip-path="url(#clipPath4535)"
         id="g4533"><path
           id="path4539"
           style="fill:none;stroke:#2ca02c;stroke-width:2;stroke-linecap:square;stroke-linejoin:round;stroke-miterlimit:10;stroke-dasharray:none;stroke-opacity:1"
           d="m 187.26195,193.26111 1.1258,-0.0129 1.12581,-0.0383 1.1258,-0.0629 1.12582,-0.0861 1.12579,-0.10761 1.12582,-0.12697 1.1258,-0.14401 1.12582,-0.15864 1.1258,-0.17082 1.12579,-0.18061 1.12582,-0.18809 1.1258,-0.19341 1.12582,-0.19672 1.12579,-0.19818 1.12582,-0.19796 1.1258,-0.19622 1.12582,-0.19311 1.12579,-0.18878 1.1258,-0.18335 1.12582,-0.17695 1.1258,-0.16968 1.12581,-0.16167 1.1258,-0.15295 1.12582,-0.14367 1.1258,-0.13384 1.12582,-0.12356 1.12579,-0.11288 1.1258,-0.10185 1.12582,-0.0905 1.1258,-0.0789 1.12581,-0.0671 1.1258,-0.0552 1.12582,-0.043 1.1258,-0.0308 1.12581,-0.0185 1.1258,-0.006" /></g></g><g
       id="g4541"><g
         clip-path="url(#clipPath4545)"
         id="g4543"><path
           id="path4549"
           style="fill:none;stroke:#2ca02c;stroke-width:2;stroke-linecap:square;stroke-linejoin:round;stroke-miterlimit:10;stroke-dasharray:none;stroke-opacity:1"
           d="m 187.26195,208.77759 1.1258,0.0215 1.12581,0.0641 1.1258,0.10576 1.12582,0.14581 1.12579,0.18371 1.12582,0.21909 1.1258,0.25161 1.12582,0.2811 1.1258,0.3074 1.12579,0.33049 1.12582,0.35035 1.1258,0.36704 1.12582,0.38061 1.12579,0.39114 1.12582,0.3987 1.1258,0.40339 1.12582,0.40526 1.12579,0.4044 1.1258,0.40086 1.12582,0.39473 1.1258,0.38604 1.12581,0.37488 1.1258,0.36132 1.12582,0.34541 1.1258,0.32726 1.12582,0.30695 1.12579,0.28458 1.1258,0.2603 1.12582,0.23421 1.1258,0.2065 1.12581,0.17733 1.1258,0.14688 1.12582,0.11538 1.1258,0.083 1.12581,0.0501 1.1258,0.0167" /></g></g><g
       id="g4551"><g
         clip-path="url(#clipPath4555)"
         id="g4553"><path
           id="path4559"
           style="fill:none;stroke:#2ca02c;stroke-width:2;stroke-linecap:square;stroke-linejoin:round;stroke-miterlimit:10;stroke-dasharray:none;stroke-opacity:1"
           d="m 187.26195,284.40243 1.1258,-0.0143 1.12581,-0.0426 1.1258,-0.0695 1.12582,-0.0946 1.12579,-0.11728 1.12582,-0.13718 1.1258,-0.15421 1.12582,-0.16836 1.1258,-0.17973 1.12579,-0.1885 1.12582,-0.19487 1.1258,-0.19908 1.12582,-0.20131 1.12579,-0.20181 1.12582,-0.20074 1.1258,-0.19828 1.12582,-0.19458 1.12579,-0.18978 1.1258,-0.184 1.12582,-0.17733 1.1258,-0.16988 1.12581,-0.16174 1.1258,-0.15297 1.12582,-0.14364 1.1258,-0.13381 1.12582,-0.12354 1.12579,-0.11289 1.1258,-0.10187 1.12582,-0.0906 1.1258,-0.079 1.12581,-0.0672 1.1258,-0.0552 1.12582,-0.0431 1.1258,-0.0309 1.12581,-0.0186 1.1258,-0.006" /></g></g><g
       id="g4561"><g
         clip-path="url(#clipPath4565)"
         id="g4563"><path
           id="path4569"
           style="fill:none;stroke:#2ca02c;stroke-width:2;stroke-linecap:square;stroke-linejoin:round;stroke-miterlimit:10;stroke-dasharray:none;stroke-opacity:1"
           d="m 187.26195,285.10979 1.1258,-0.009 1.12581,-0.0276 1.1258,-0.0458 1.12582,-0.0637 1.12579,-0.0813 1.12582,-0.0984 1.1258,-0.11492 1.12582,-0.13076 1.1258,-0.14579 1.12579,-0.15994 1.12582,-0.17309 1.1258,-0.18516 1.12582,-0.19601 1.12579,-0.2056 1.12582,-0.21381 1.1258,-0.22055 1.12582,-0.22575 1.12579,-0.22934 1.1258,-0.23124 1.12582,-0.23141 1.1258,-0.22979 1.12581,-0.22636 1.1258,-0.22109 1.12582,-0.21399 1.1258,-0.20507 1.12582,-0.19435 1.12579,-0.1819 1.1258,-0.16779 1.12582,-0.15212 1.1258,-0.135 1.12581,-0.11659 1.1258,-0.097 1.12582,-0.0765 1.1258,-0.0552 1.12581,-0.0333 1.1258,-0.011" /></g></g><g
       id="g4571"><g
         clip-path="url(#clipPath4575)"
         id="g4573"><path
           id="path4579"
           style="fill:none;stroke:#2ca02c;stroke-width:2;stroke-linecap:square;stroke-linejoin:round;stroke-miterlimit:10;stroke-dasharray:none;stroke-opacity:1"
           d="m 187.26195,292.93457 1.1258,0.0161 1.12581,0.0479 1.1258,0.0785 1.12582,0.10701 1.12579,0.13305 1.12582,0.15622 1.1258,0.17637 1.12582,0.19347 1.1258,0.20762 1.12579,0.21894 1.12582,0.22764 1.1258,0.23393 1.12582,0.23799 1.12579,0.24003 1.12582,0.24021 1.1258,0.23871 1.12582,0.23565 1.12579,0.2312 1.1258,0.22543 1.12582,0.21848 1.1258,0.21042 1.12581,0.20137 1.1258,0.19137 1.12582,0.18053 1.1258,0.1689 1.12582,0.15657 1.12579,0.14359 1.1258,0.13002 1.12582,0.11594 1.1258,0.1014 1.12581,0.0865 1.1258,0.0712 1.12582,0.0557 1.1258,0.0399 1.12581,0.024 1.1258,0.008" /></g></g><g
       id="g4581"><g
         clip-path="url(#clipPath4585)"
         id="g4583"><path
           id="path4589"
           style="fill:none;stroke:#2ca02c;stroke-width:2;stroke-linecap:square;stroke-linejoin:round;stroke-miterlimit:10;stroke-dasharray:none;stroke-opacity:1"
           d="m 227.79098,188.76887 1.14167,-0.0564 1.14166,-0.16897 1.14167,-0.28078 1.14166,-0.39137 1.14166,-0.50029 1.14166,-0.60714 1.14167,-0.71158 1.14165,-0.81328 1.14167,-0.91203 1.14166,-1.00763 1.14167,-1.09995 1.14165,-1.18891 1.14167,-1.27447 1.14166,-1.35664 1.14167,-1.43545 1.14167,-1.51097 1.14165,-1.58326 1.14168,-1.65245 1.14165,-1.71864 1.14167,-1.78194 1.14165,-1.84248 1.14168,-1.90039 1.14165,-1.95579 1.14167,-2.00879 1.14165,-2.05953 1.14168,-2.10809 1.14165,-2.15461 1.14167,-2.19917 1.14167,-2.24187 1.14166,-2.28281 1.14167,-2.32206 1.14165,-2.3597 1.14167,-2.39581 1.14166,-2.43045 1.14167,-2.46368 1.14165,-2.49556 1.14167,-2.52615 1.14166,-2.55548 1.14167,-2.58363 1.14165,-2.6106 1.14167,-2.63645 1.14166,-2.66121 1.14167,-2.68492 1.14167,-2.70761 1.14165,-2.72929 1.14167,-2.74999 1.14166,-2.76976 1.14167,-2.78859 1.14165,-2.806517 1.14167,-2.823549 1.14166,-2.839711 1.14167,-2.855015 1.14165,-2.869476 1.14167,-2.883107 1.14166,-2.895921 1.14167,-2.907927 1.14167,-2.919138 1.14165,-2.929562 1.14167,-2.939208 1.14166,-2.948083 1.14167,-2.956194 1.14165,-2.96355 1.14167,-2.970153 1.14166,-2.97601 1.14167,-2.981127 1.14165,-2.985504 1.14167,-2.989147 1.14166,-2.992059 1.14167,-2.99424 1.14165,-2.995694 1.14167,-2.996345" /></g></g><g
       id="g4591"><g
         clip-path="url(#clipPath4595)"
         id="g4593"><path
           id="path4599"
           style="fill:none;stroke:#2ca02c;stroke-width:2;stroke-linecap:square;stroke-linejoin:round;stroke-miterlimit:10;stroke-dasharray:none;stroke-opacity:1"
           d="m 227.79098,188.76895 1.14167,-0.0564 1.14166,-0.16897 1.14167,-0.28078 1.14166,-0.39137 1.14166,-0.50029 1.14166,-0.60714 1.14167,-0.71158 1.14165,-0.81328 1.14167,-0.91203 1.14166,-1.00762 1.14167,-1.09995 1.14165,-1.18891 1.14167,-1.27447 1.14166,-1.35664 1.14167,-1.43545 1.14167,-1.51096 1.14165,-1.58326 1.14168,-1.65245 1.14165,-1.71863 1.14167,-1.78194 1.14165,-1.84248 1.14168,-1.9004 1.14165,-1.95578 1.14167,-2.00879 1.14165,-2.05953 1.14168,-2.10809 1.14165,-2.15461 1.14167,-2.19916 1.14167,-2.24188 1.14166,-2.2828 1.14167,-2.32206 1.14165,-2.3597 1.14167,-2.39581 1.14166,-2.43044 1.14167,-2.46368 1.14165,-2.49556 1.14167,-2.52615 1.14166,-2.55549 1.14167,-2.58362 1.14165,-2.6106 1.14167,-2.63645 1.14166,-2.66121 1.14167,-2.68492 1.14167,-2.70761 1.14165,-2.72928 1.14167,-2.75 1.14166,-2.76976 1.14167,-2.78859 1.14165,-2.806514 1.14167,-2.82355 1.14166,-2.83971 1.14167,-2.855015 1.14165,-2.869476 1.14167,-2.883107 1.14166,-2.89592 1.14167,-2.907927 1.14167,-2.919138 1.14165,-2.929562 1.14167,-2.939207 1.14166,-2.948083 1.14167,-2.956194 1.14165,-2.96355 1.14167,-2.970153 1.14166,-2.97601 1.14167,-2.981126 1.14165,-2.985504 1.14167,-2.989148 1.14166,-2.992059 1.14167,-2.99424 1.14165,-2.995694 1.14167,-2.996488" /></g></g><g
       id="g4601"><g
         clip-path="url(#clipPath4605)"
         id="g4603"><path
           id="path4609"
           style="fill:none;stroke:#2ca02c;stroke-width:2;stroke-linecap:square;stroke-linejoin:round;stroke-miterlimit:10;stroke-dasharray:none;stroke-opacity:1"
           d="m 227.79098,218.26151 1.14167,-0.10314 1.14166,-0.30804 1.14167,-0.50894 1.14166,-0.70341 1.14166,-0.88952 1.14166,-1.06572 1.14167,-1.23103 1.14165,-1.3849 1.14167,-1.5272 1.14166,-1.65814 1.14167,-1.77813 1.14165,-1.88782 1.14167,-1.98787 1.14166,-2.07908 1.14167,-2.16218 1.14167,-2.23791 1.14165,-2.307 1.14168,-2.37007 1.14165,-2.42774 1.14167,-2.48056 1.14165,-2.52902 1.14168,-2.57356 1.14165,-2.61457 1.14167,-2.65241 1.14165,-2.6874 1.14168,-2.7198 1.14165,-2.74988 1.14167,-2.77784 1.14167,-2.80388 1.14166,-2.82818 1.14167,-2.8509 1.14165,-2.87216 1.14167,-2.89209 1.14166,-2.9108 1.14167,-2.92839 1.14165,-2.94495 1.14167,-2.96055 1.14166,-2.97527 1.14167,-2.98915 1.14165,-3.00227 1.14167,-3.01467 1.14166,-3.0264 1.14167,-3.03749 1.14167,-3.04799 1.14165,-3.05792 1.14167,-3.06731 1.14166,-3.0762 1.14167,-3.08458 1.14165,-3.09251 1.14167,-3.09998 1.14166,-3.107019 1.14167,-3.113623 1.14165,-3.119819 1.14167,-3.125606 1.14166,-3.130994 1.14167,-3.135982 1.14167,-3.14057 1.14165,-3.144751 1.14167,-3.148514 1.14166,-3.151837 1.14167,-3.154682 1.14165,-3.15699 1.14167,-3.158661 1.14166,-3.159521 1.14167,-3.159247 1.14165,-3.157194 1.14167,-3.151924 1.14166,-3.139658 1.14167,-3.107635 1.14165,-2.988099 1.14167,-1.941733" /></g></g><g
       id="g4611"><g
         clip-path="url(#clipPath4615)"
         id="g4613"><path
           id="path4619"
           style="fill:none;stroke:#2ca02c;stroke-width:2;stroke-linecap:square;stroke-linejoin:round;stroke-miterlimit:10;stroke-dasharray:none;stroke-opacity:1"
           d="m 227.79098,279.80312 1.14167,0.0291 1.14166,0.087 1.14167,0.14425 1.14166,0.2003 1.14166,0.25475 1.14166,0.30723 1.14167,0.35738 1.14165,0.40495 1.14167,0.44971 1.14166,0.49149 1.14167,0.53017 1.14165,0.5657 1.14167,0.59805 1.14166,0.62726 1.14167,0.65336 1.14167,0.67644 1.14165,0.6966 1.14168,0.71395 1.14165,0.72863 1.14167,0.74076 1.14165,0.75049 1.14168,0.75794 1.14165,0.76326 1.14167,0.76658 1.14165,0.76805 1.14168,0.76775 1.14165,0.76584 1.14167,0.7624 1.14167,0.75757 1.14166,0.75143 1.14167,0.74406 1.14165,0.73557 1.14167,0.72603 1.14166,0.71552 1.14167,0.70409 1.14165,0.69184 1.14167,0.67881 1.14166,0.66504 1.14167,0.6506 1.14165,0.63554 1.14167,0.6199 1.14166,0.60372 1.14167,0.58703 1.14167,0.56987 1.14165,0.55227 1.14167,0.53428 1.14166,0.5159 1.14167,0.49716 1.14165,0.47811 1.14167,0.45875 1.14166,0.43909 1.14167,0.41919 1.14165,0.39903 1.14167,0.37864 1.14166,0.35806 1.14167,0.33726 1.14167,0.31629 1.14165,0.29517 1.14167,0.27388 1.14166,0.25246 1.14167,0.2309 1.14165,0.20926 1.14167,0.18749 1.14166,0.16563 1.14167,0.14371 1.14165,0.12172 1.14167,0.0997 1.14166,0.0776 1.14167,0.0554 1.14165,0.0333 1.14167,0.0111" /></g></g><g
       id="g4621"><g
         clip-path="url(#clipPath4625)"
         id="g4623"><path
           id="path4629"
           style="fill:none;stroke:#2ca02c;stroke-width:2;stroke-linecap:square;stroke-linejoin:round;stroke-miterlimit:10;stroke-dasharray:none;stroke-opacity:1"
           d="m 227.79098,279.80325 1.14167,0.0291 1.14166,0.087 1.14167,0.14425 1.14166,0.2003 1.14166,0.25475 1.14166,0.30723 1.14167,0.35738 1.14165,0.40495 1.14167,0.44971 1.14166,0.49148 1.14167,0.53017 1.14165,0.5657 1.14167,0.59805 1.14166,0.62726 1.14167,0.65335 1.14167,0.67644 1.14165,0.6966 1.14168,0.71395 1.14165,0.72863 1.14167,0.74075 1.14165,0.75049 1.14168,0.75793 1.14165,0.76326 1.14167,0.76659 1.14165,0.76804 1.14168,0.76775 1.14165,0.76583 1.14167,0.76241 1.14167,0.75757 1.14166,0.75142 1.14167,0.74406 1.14165,0.73556 1.14167,0.72603 1.14166,0.71551 1.14167,0.7041 1.14165,0.69184 1.14167,0.6788 1.14166,0.66503 1.14167,0.65061 1.14165,0.63554 1.14167,0.6199 1.14166,0.60371 1.14167,0.58702 1.14167,0.56987 1.14165,0.55228 1.14167,0.53427 1.14166,0.5159 1.14167,0.49716 1.14165,0.47811 1.14167,0.45874 1.14166,0.4391 1.14167,0.41918 1.14165,0.39903 1.14167,0.37864 1.14166,0.35805 1.14167,0.33726 1.14167,0.3163 1.14165,0.29516 1.14167,0.27388 1.14166,0.25245 1.14167,0.23091 1.14165,0.20925 1.14167,0.18749 1.14166,0.16564 1.14167,0.1437 1.14165,0.12172 1.14167,0.0997 1.14166,0.0776 1.14167,0.0554 1.14165,0.0333 1.14167,0.0111" /></g></g><g
       id="g4631"><g
         clip-path="url(#clipPath4635)"
         id="g4633"><path
           id="path4639"
           style="fill:none;stroke:#2ca02c;stroke-width:2;stroke-linecap:square;stroke-linejoin:round;stroke-miterlimit:10;stroke-dasharray:none;stroke-opacity:1"
           d="m 227.79098,298.48438 1.14167,0.0839 1.14166,0.25036 1.14167,0.41275 1.14166,0.56869 1.14166,0.71619 1.14166,0.85371 1.14167,0.98022 1.14165,1.09519 1.14167,1.19845 1.14166,1.29019 1.14167,1.37083 1.14165,1.44096 1.14167,1.50129 1.14166,1.55253 1.14167,1.59546 1.14167,1.63079 1.14165,1.65921 1.14168,1.68137 1.14165,1.69786 1.14167,1.70924 1.14165,1.71595 1.14168,1.71848 1.14165,1.71717 1.14167,1.71241 1.14165,1.70448 1.14168,1.69368 1.14165,1.68024 1.14167,1.66439 1.14167,1.64632 1.14166,1.62622 1.14167,1.60422 1.14165,1.58049 1.14167,1.55514 1.14166,1.5283 1.14167,1.50006 1.14165,1.47052 1.14167,1.43978 1.14166,1.4079 1.14167,1.37496 1.14165,1.34102 1.14167,1.30617 1.14166,1.27044 1.14167,1.23388 1.14167,1.19657 1.14165,1.15851 1.14167,1.1198 1.14166,1.08043 1.14167,1.04047 1.14165,0.99995 1.14167,0.95889 1.14166,0.91734 1.14167,0.87534 1.14165,0.83288 1.14167,0.79003 1.14166,0.7468 1.14167,0.70323 1.14167,0.65931 1.14165,0.6151 1.14167,0.57062 1.14166,0.52588 1.14167,0.48091 1.14165,0.43573 1.14167,0.39035 1.14166,0.34483 1.14167,0.29913 1.14165,0.25333 1.14167,0.20742 1.14166,0.16141 1.14167,0.11534 1.14165,0.0692 1.14167,0.0231" /></g></g><g
       id="g4641"><g
         clip-path="url(#clipPath4645)"
         id="g4643"><path
           id="path4649"
           style="fill:none;stroke:#000000;stroke-width:1.5;stroke-linecap:square;stroke-linejoin:round;stroke-miterlimit:10;stroke-dasharray:none;stroke-opacity:1"
           d="m 59.746875,34.075 0,357.80094" /></g></g><g
       id="g4651"><g
         transform="translate(53.746875,11.2625)"
         id="g4653"><text
           id="text4655"
           style="font-variant:normal;font-weight:normal;font-size:22px;font-family:STIXNonUnicode;-inkscape-font-specification:STIXNonUnicode-Regular;writing-mode:lr-tb;fill:#000000;fill-opacity:1;fill-rule:nonzero;stroke:none"
           transform="matrix(1,0,0,-1,0,0.4375)"><tspan
             id="tspan4657"
             y="0"
             x="0"></tspan></text>
</g></g><g
       id="g4659"><g
         clip-path="url(#clipPath4663)"
         id="g4661"><path
           id="path4667"
           style="fill:none;stroke:#000000;stroke-width:1.5;stroke-linecap:square;stroke-linejoin:round;stroke-miterlimit:10;stroke-dasharray:none;stroke-opacity:1"
           d="m 129.94523,34.075 0,357.80094" /></g></g><text
       y="-11.2625"
       x="124.82023"
       transform="scale(1,-1)"
       style="font-variant:normal;font-weight:normal;font-size:18px;font-family:sans-serif;-inkscape-font-specification:'sans-serif, Normal';writing-mode:lr;fill:#000000;fill-opacity:1;fill-rule:nonzero;stroke:none;font-style:normal;font-stretch:normal;text-anchor:start;text-align:start;line-height:125%;"
       id="text4671"><tspan
         style="-inkscape-font-specification:'sans-serif, Normal';font-family:sans-serif;font-weight:normal;font-style:normal;font-stretch:normal;font-variant:normal;font-size:18px;text-anchor:start;text-align:start;writing-mode:lr;line-height:125%;"
         x="124.82023"
         y="-11.2625"
         id="tspan4673">L</tspan></text>
<g
       id="g4675"><g
         clip-path="url(#clipPath4679)"
         id="g4677"><path
           id="path4683"
           style="fill:none;stroke:#000000;stroke-width:1.5;stroke-linecap:square;stroke-linejoin:round;stroke-miterlimit:10;stroke-dasharray:none;stroke-opacity:1"
           d="m 187.26195,34.075 0,357.80094" /></g></g><text
       y="-11.2625"
       x="175.97289"
       transform="scale(1,-1)"
       style="font-variant:normal;font-weight:normal;font-size:18px;font-family:sans-serif;-inkscape-font-specification:'sans-serif, Normal';writing-mode:lr;fill:#000000;fill-opacity:1;fill-rule:nonzero;stroke:none;font-style:normal;font-stretch:normal;text-anchor:start;text-align:start;line-height:125%;"
       id="text4687"><tspan
         style="-inkscape-font-specification:'sans-serif, Normal';font-family:sans-serif;font-weight:normal;font-style:normal;font-stretch:normal;font-variant:normal;font-size:18px;text-anchor:start;text-align:start;writing-mode:lr;line-height:125%;"
         x="175.97289"
         y="-11.2625"
         id="tspan4689">W</tspan></text>
<g
       id="g4691"><g
         clip-path="url(#clipPath4695)"
         id="g4693"><path
           id="path4699"
           style="fill:none;stroke:#000000;stroke-width:1.5;stroke-linecap:square;stroke-linejoin:round;stroke-miterlimit:10;stroke-dasharray:none;stroke-opacity:1"
           d="m 227.79098,34.075 0,357.80094" /></g></g><text
       y="-11.2625"
       x="220.80661"
       transform="scale(1,-1)"
       style="font-variant:normal;font-weight:normal;font-size:18px;font-family:sans-serif;-inkscape-font-specification:'sans-serif, Normal';writing-mode:lr;fill:#000000;fill-opacity:1;fill-rule:nonzero;stroke:none;font-style:normal;font-stretch:normal;text-anchor:start;text-align:start;line-height:125%;"
       id="text4703"><tspan
         style="-inkscape-font-specification:'sans-serif, Normal';font-family:sans-serif;font-weight:normal;font-style:normal;font-stretch:normal;font-variant:normal;font-size:18px;text-anchor:start;text-align:start;writing-mode:lr;line-height:125%;"
         x="220.80661"
         y="-11.2625"
         id="tspan4705">X</tspan></text>
<g
       id="g4707"><g
         clip-path="url(#clipPath4711)"
         id="g4709"><path
           id="path4715"
           style="fill:none;stroke:#000000;stroke-width:1.5;stroke-linecap:square;stroke-linejoin:round;stroke-miterlimit:10;stroke-dasharray:none;stroke-opacity:1"
           d="m 308.84906,34.075 0,357.80094" /></g></g><g
       id="g4717"><g
         transform="translate(302.84906,11.2625)"
         id="g4719"><text
           id="text4721"
           style="font-variant:normal;font-weight:normal;font-size:22px;font-family:STIXNonUnicode;-inkscape-font-specification:STIXNonUnicode-Regular;writing-mode:lr-tb;fill:#000000;fill-opacity:1;fill-rule:nonzero;stroke:none"
           transform="matrix(1,0,0,-1,0,0.4375)"><tspan
             id="tspan4723"
             y="0"
             x="0"></tspan></text>
</g><path
         id="path4725"
         style="fill:#000000;fill-opacity:1;fill-rule:nonzero;stroke:#000000;stroke-width:1.5;stroke-linecap:butt;stroke-linejoin:round;stroke-miterlimit:10;stroke-dasharray:none;stroke-opacity:1"
         d="m 59.746875,34.075 15,0" /><path
         id="path4727"
         style="fill:#000000;fill-opacity:1;fill-rule:nonzero;stroke:#000000;stroke-width:1.5;stroke-linecap:butt;stroke-linejoin:round;stroke-miterlimit:10;stroke-dasharray:none;stroke-opacity:1"
         d="m 308.84906,34.075 -15,0" /><text
         id="text4729"
         style="font-variant:normal;font-weight:normal;font-size:18px;font-family:sans-serif;-inkscape-font-specification:'sans-serif, Normal';writing-mode:lr;fill:#000000;fill-opacity:1;fill-rule:nonzero;stroke:none;font-style:normal;font-stretch:normal;text-anchor:start;text-align:start;line-height:125%;"
         transform="matrix(1,0,0,-1,39.2,26.16875)"><tspan
           style="-inkscape-font-specification:'sans-serif, Normal';font-family:sans-serif;font-weight:normal;font-style:normal;font-stretch:normal;font-variant:normal;font-size:18px;text-anchor:start;text-align:start;writing-mode:lr;line-height:125%;"
           id="tspan4731"
           y="0"
           x="0">0</tspan></text>
<path
         id="path4733"
         style="fill:#000000;fill-opacity:1;fill-rule:nonzero;stroke:#000000;stroke-width:1.5;stroke-linecap:butt;stroke-linejoin:round;stroke-miterlimit:10;stroke-dasharray:none;stroke-opacity:1"
         d="m 59.746875,101.02079 15,0" /><path
         id="path4735"
         style="fill:#000000;fill-opacity:1;fill-rule:nonzero;stroke:#000000;stroke-width:1.5;stroke-linecap:butt;stroke-linejoin:round;stroke-miterlimit:10;stroke-dasharray:none;stroke-opacity:1"
         d="m 308.84906,101.02079 -15,0" /><text
         id="text4737"
         style="font-variant:normal;font-weight:normal;font-size:18px;font-family:sans-serif;-inkscape-font-specification:'sans-serif, Normal';writing-mode:lr;fill:#000000;fill-opacity:1;fill-rule:nonzero;stroke:none;font-style:normal;font-stretch:normal;text-anchor:start;text-align:start;line-height:125%;"
         transform="matrix(1,0,0,-1,40.98125,93.114537)"><tspan
           style="-inkscape-font-specification:'sans-serif, Normal';font-family:sans-serif;font-weight:normal;font-style:normal;font-stretch:normal;font-variant:normal;font-size:18px;text-anchor:start;text-align:start;writing-mode:lr;line-height:125%;"
           id="tspan4739"
           y="0"
           x="0">2</tspan></text>
<path
         id="path4741"
         style="fill:#000000;fill-opacity:1;fill-rule:nonzero;stroke:#000000;stroke-width:1.5;stroke-linecap:butt;stroke-linejoin:round;stroke-miterlimit:10;stroke-dasharray:none;stroke-opacity:1"
         d="m 59.746875,167.96657 15,0" /><path
         id="path4743"
         style="fill:#000000;fill-opacity:1;fill-rule:nonzero;stroke:#000000;stroke-width:1.5;stroke-linecap:butt;stroke-linejoin:round;stroke-miterlimit:10;stroke-dasharray:none;stroke-opacity:1"
         d="m 308.84906,167.96657 -15,0" /><text
         id="text4745"
         style="font-variant:normal;font-weight:normal;font-size:18px;font-family:sans-serif;-inkscape-font-specification:'sans-serif, Normal';writing-mode:lr;fill:#000000;fill-opacity:1;fill-rule:nonzero;stroke:none;font-style:normal;font-stretch:normal;text-anchor:start;text-align:start;line-height:125%;"
         transform="matrix(1,0,0,-1,39.7,160.06032)"><tspan
           style="-inkscape-font-specification:'sans-serif, Normal';font-family:sans-serif;font-weight:normal;font-style:normal;font-stretch:normal;font-variant:normal;font-size:18px;text-anchor:start;text-align:start;writing-mode:lr;line-height:125%;"
           id="tspan4747"
           y="0"
           x="0">4</tspan></text>
<path
         id="path4749"
         style="fill:#000000;fill-opacity:1;fill-rule:nonzero;stroke:#000000;stroke-width:1.5;stroke-linecap:butt;stroke-linejoin:round;stroke-miterlimit:10;stroke-dasharray:none;stroke-opacity:1"
         d="m 59.746875,234.91236 15,0" /><path
         id="path4751"
         style="fill:#000000;fill-opacity:1;fill-rule:nonzero;stroke:#000000;stroke-width:1.5;stroke-linecap:butt;stroke-linejoin:round;stroke-miterlimit:10;stroke-dasharray:none;stroke-opacity:1"
         d="m 308.84906,234.91236 -15,0" /><text
         id="text4753"
         style="font-variant:normal;font-weight:normal;font-size:18px;font-family:sans-serif;-inkscape-font-specification:'sans-serif, Normal';writing-mode:lr;fill:#000000;fill-opacity:1;fill-rule:nonzero;stroke:none;font-style:normal;font-stretch:normal;text-anchor:start;text-align:start;line-height:125%;"
         transform="matrix(1,0,0,-1,40.246875,227.00611)"><tspan
           style="-inkscape-font-specification:'sans-serif, Normal';font-family:sans-serif;font-weight:normal;font-style:normal;font-stretch:normal;font-variant:normal;font-size:18px;text-anchor:start;text-align:start;writing-mode:lr;line-height:125%;"
           id="tspan4755"
           y="0"
           x="0">6</tspan></text>
<path
         id="path4757"
         style="fill:#000000;fill-opacity:1;fill-rule:nonzero;stroke:#000000;stroke-width:1.5;stroke-linecap:butt;stroke-linejoin:round;stroke-miterlimit:10;stroke-dasharray:none;stroke-opacity:1"
         d="m 59.746875,301.85815 15,0" /><path
         id="path4759"
         style="fill:#000000;fill-opacity:1;fill-rule:nonzero;stroke:#000000;stroke-width:1.5;stroke-linecap:butt;stroke-linejoin:round;stroke-miterlimit:10;stroke-dasharray:none;stroke-opacity:1"
         d="m 308.84906,301.85815 -15,0" /><text
         id="text4761"
         style="font-variant:normal;font-weight:normal;font-size:18px;font-family:sans-serif;-inkscape-font-specification:'sans-serif, Normal';writing-mode:lr;fill:#000000;fill-opacity:1;fill-rule:nonzero;stroke:none;font-style:normal;font-stretch:normal;text-anchor:start;text-align:start;line-height:125%;"
         transform="matrix(1,0,0,-1,40.184375,293.9519)"><tspan
           style="-inkscape-font-specification:'sans-serif, Normal';font-family:sans-serif;font-weight:normal;font-style:normal;font-stretch:normal;font-variant:normal;font-size:18px;text-anchor:start;text-align:start;writing-mode:lr;line-height:125%;"
           id="tspan4763"
           y="0"
           x="0">8</tspan></text>
<path
         id="path4765"
         style="fill:#000000;fill-opacity:1;fill-rule:nonzero;stroke:#000000;stroke-width:1.5;stroke-linecap:butt;stroke-linejoin:round;stroke-miterlimit:10;stroke-dasharray:none;stroke-opacity:1"
         d="m 59.746875,368.80394 15,0" /><path
         id="path4767"
         style="fill:#000000;fill-opacity:1;fill-rule:nonzero;stroke:#000000;stroke-width:1.5;stroke-linecap:butt;stroke-linejoin:round;stroke-miterlimit:10;stroke-dasharray:none;stroke-opacity:1"
         d="m 308.84906,368.80394 -15,0" /><text
         id="text4769"
         style="font-variant:normal;font-weight:normal;font-size:18px;font-family:sans-serif;-inkscape-font-specification:'sans-serif, Normal';writing-mode:lr;fill:#000000;fill-opacity:1;fill-rule:nonzero;stroke:none;font-style:normal;font-stretch:normal;text-anchor:start;text-align:start;line-height:125%;"
         transform="matrix(1,0,0,-1,31.3875,360.89769)"><tspan
           id="tspan4771"
           y="0"
           x="0 7.8099999">10</tspan></text>
<text
         id="text4773"
         style="font-variant:normal;font-weight:normal;font-size:18px;font-family:sans-serif;-inkscape-font-specification:'sans-serif, Normal';writing-mode:lr;fill:#000000;fill-opacity:1;fill-rule:nonzero;stroke:none;font-style:normal;font-stretch:normal;text-anchor:start;text-align:start;line-height:125%;"
         transform="matrix(0,1,1,0,23.325,135.11609)"><tspan
           id="tspan4775"
           y="0"
           x="0 10.494 18.062 28.864 40.48 51.986 62.787998 74.293999 84.545998 95.106003 100.078 108.834 121.616 137.12601 147.004">Frequency (THz)</tspan></text>
</g><g
       id="g4777"><g
         clip-path="url(#clipPath4781)"
         id="g4779"><path
           id="path4785"
           style="fill:none;stroke:#000000;stroke-width:1.5;stroke-linecap:butt;stroke-linejoin:round;stroke-miterlimit:10;stroke-dasharray:none;stroke-opacity:1"
           d="m 59.746875,34.075 0,357.80094" /><path
           id="path4787"
           style="fill:none;stroke:#000000;stroke-width:1.5;stroke-linecap:butt;stroke-linejoin:round;stroke-miterlimit:10;stroke-dasharray:none;stroke-opacity:1"
           d="m 129.94523,34.075 0,357.80094" /><path
           id="path4789"
           style="fill:none;stroke:#000000;stroke-width:1.5;stroke-linecap:butt;stroke-linejoin:round;stroke-miterlimit:10;stroke-dasharray:none;stroke-opacity:1"
           d="m 187.26195,34.075 0,357.80094" /><path
           id="path4791"
           style="fill:none;stroke:#000000;stroke-width:1.5;stroke-linecap:butt;stroke-linejoin:round;stroke-miterlimit:10;stroke-dasharray:none;stroke-opacity:1"
           d="m 227.79098,34.075 0,357.80094" /><path
           id="path4793"
           style="fill:none;stroke:#000000;stroke-width:1.5;stroke-linecap:butt;stroke-linejoin:round;stroke-miterlimit:10;stroke-dasharray:none;stroke-opacity:1"
           d="m 308.84906,34.075 0,357.80094" /></g></g><path
       d="m 59.746875,34.075 0,357.80094"
       style="fill:none;stroke:#000000;stroke-width:1.5;stroke-linecap:square;stroke-linejoin:miter;stroke-miterlimit:10;stroke-dasharray:none;stroke-opacity:1"
       id="path4797" /><path
       d="m 308.84906,34.075 0,357.80094"
       style="fill:none;stroke:#000000;stroke-width:1.5;stroke-linecap:square;stroke-linejoin:miter;stroke-miterlimit:10;stroke-dasharray:none;stroke-opacity:1"
       id="path4799" /><path
       d="m 59.746875,34.075 249.102185,0"
       style="fill:none;stroke:#000000;stroke-width:1.5;stroke-linecap:square;stroke-linejoin:miter;stroke-miterlimit:10;stroke-dasharray:none;stroke-opacity:1"
       id="path4801" /><path
       d="m 59.746875,391.87594 249.102185,0"
       style="fill:none;stroke:#000000;stroke-width:1.5;stroke-linecap:square;stroke-linejoin:miter;stroke-miterlimit:10;stroke-dasharray:none;stroke-opacity:1"
       id="path4803" /><path
       d="m 308.84906,34.075 83.03406,0 0,357.80094 -83.03406,0 0,-357.80094 z"
       style="fill:#ffffff;fill-opacity:1;fill-rule:nonzero;stroke:none"
       id="path4805" /><g
       id="g4807"><g
         clip-path="url(#clipPath4811)"
         id="g4809"><path
           id="path4815"
           style="fill:#2ca02c;fill-opacity:0.5;fill-rule:nonzero;stroke:#2ca02c;stroke-width:1;stroke-linecap:butt;stroke-linejoin:round;stroke-miterlimit:10;stroke-dasharray:none;stroke-opacity:0.5"
           d="m 308.84906,23.906851 0,0 0,1.909335 0,1.909334 0,1.909334 0,1.909335 0,1.909334 0,1.909335 0,1.909334 0,1.909334 10e-6,1.909335 1.5e-4,1.909334 10e-4,1.909335 0.008,1.909334 0.0378,1.909334 0.11864,1.909335 0.25956,1.909334 0.38498,1.909335 0.34344,1.909334 0.0699,1.909335 -0.26749,1.909334 -0.41325,1.909334 -0.32112,1.909335 -0.15062,1.909334 -0.0123,1.909335 0.14245,1.909334 0.41945,1.909334 0.78903,1.909335 0.98543,1.909334 0.74246,1.909335 0.14329,1.909334 -0.42634,1.909334 -0.60611,1.909335 -0.34099,1.909334 0.0437,1.909335 0.22923,1.909334 0.27064,1.909334 0.31986,1.909335 0.34845,1.909334 0.32235,1.909335 0.32643,1.909334 0.45162,1.909337 0.70226,1.90933 0.90466,1.90934 0.71208,1.90933 0.15868,1.90934 -0.25107,1.90933 -0.37701,1.90933 -0.30737,1.90934 0.0734,1.90933 0.52484,1.90934 0.7619,1.90933 1.03755,1.90934 1.28669,1.90933 0.94018,1.90933 0.24927,1.90934 0.33093,1.90933 1.21352,1.90934 1.37442,1.90933 0.20357,1.90934 -0.87458,1.90933 -0.62721,1.90934 0.62735,1.90933 2.11916,1.90933 3.20273,1.90934 3.27025,1.90933 2.41482,1.90934 1.44364,1.90933 0.74315,1.90934 -0.0136,1.90933 -0.62368,1.90933 0.2431,1.90934 2.9903,1.90933 5.30739,1.90934 4.42083,1.90933 0.76633,1.90934 -2.14607,1.90933 -1.92017,1.90934 0.21674,1.90933 2.05065,1.90933 3.16573,1.90934 3.59273,1.90933 2.67439,1.90934 1.18938,1.90933 1.05747,1.90934 1.69167,1.90933 0.93741,1.90934 -0.89621,1.90933 -2.27924,1.90933 -3.64738,1.90934 -5.65125,1.90933 -6.7923,1.90934 -5.49485,1.90933 -2.67536,1.90934 -1.08448,1.90933 -2.0689,1.90933 -3.63209,1.90934 -3.52181,1.90933 -2.33689,1.90934 -1.64476,1.90933 -1.74736,1.90934 -2.139,1.90933 -2.28313,1.90934 -1.89695,1.90933 -1.16501,1.90933 -0.51603,1.90934 -0.16294,1.90933 -0.0365,1.90934 -0.006,1.90933 -6.5e-4,1.90934 -4e-5,1.90933 -10e-6,1.90934 0,1.90933 0,1.90933 0,1.90934 0,1.90933 0,1.90934 0,1.90933 0,1.90934 0,1.90933 0,1.90934 10e-6,1.90933 9e-5,1.90933 0.001,1.90934 0.0112,1.90933 0.0754,1.90934 0.36633,1.90933 1.30458,1.90934 3.46374,1.90933 6.92373,1.90933 10.40133,1.90934 11.66186,1.90933 9.89403,1.90934 6.81633,1.90933 4.31624,1.90934 3.2981,1.90933 4.49188,1.90934 6.4458,1.90933 5.43169,1.90933 0.58192,1.90934 -5.19733,1.90933 -9.1683,1.90934 -9.48245,1.90933 -6.22124,1.90934 -3.00912,1.90933 -2.74177,1.90934 -4.16755,1.90933 -4.87973,1.90933 -3.97772,1.90934 -1.93582,1.90933 -0.32017,1.90934 -0.69608,1.90933 -2.64076,1.90934 -3.90341,1.90933 -3.4386,1.90933 -2.30744,1.90934 -1.01048,1.90933 0.99746,1.90934 3.03035,1.90933 3.11663,1.90934 0.66732,1.90933 -2.13767,1.90934 -2.70907,1.90933 -1.11117,1.90933 0.8178,1.90934 2.22261,1.90933 2.78628,1.90934 1.57156,1.90933 -1.12662,1.90934 -3.03724,1.90933 -2.52439,1.90934 -0.40557,1.90933 0.99366,1.90933 0.1633,1.90934 -1.85885,1.90933 -2.69362,1.90934 -1.66645,1.90933 -0.25268,1.90934 0.12219,1.90933 -0.5403,1.90933 -1.16954,1.90934 -1.07997,1.90933 -0.76839,1.90934 -0.80842,1.90933 -0.97642,1.90934 -0.90009,1.90933 -0.61321,1.90934 -0.32,1.90933 -0.12845,1.90933 -0.0387,1.90934 -0.008,1.90933 -10e-4,1.90934 -1.5e-4,1.90933 -10e-6,1.90934 0,1.90933 0,1.90934 0,1.90933 0,1.90933 0,1.90934 0,1.90933 0,1.90934 0,1.90933 0,0 0,0 0,-1.90933 0,-1.90934 0,-1.90933 0,-1.90934 0,-1.90933 0,-1.90933 0,-1.90934 0,-1.90933 0,-1.90934 0,-1.90933 0,-1.90934 0,-1.90933 0,-1.90934 0,-1.90933 0,-1.90933 0,-1.90934 0,-1.90933 0,-1.90934 0,-1.90933 0,-1.90934 0,-1.90933 0,-1.90934 0,-1.90933 0,-1.90933 0,-1.90934 0,-1.90933 0,-1.90934 0,-1.90933 0,-1.90934 0,-1.90933 0,-1.90933 0,-1.90934 0,-1.90933 0,-1.90934 0,-1.90933 0,-1.90934 0,-1.90933 0,-1.90934 0,-1.90933 0,-1.90933 0,-1.90934 0,-1.90933 0,-1.90934 0,-1.90933 0,-1.90934 0,-1.90933 0,-1.90934 0,-1.90933 0,-1.90933 0,-1.90934 0,-1.90933 0,-1.90934 0,-1.90933 0,-1.90934 0,-1.90933 0,-1.90933 0,-1.90934 0,-1.90933 0,-1.90934 0,-1.90933 0,-1.90934 0,-1.90933 0,-1.90934 0,-1.90933 0,-1.90933 0,-1.90934 0,-1.90933 0,-1.90934 0,-1.90933 0,-1.90934 0,-1.90933 0,-1.90934 0,-1.90933 0,-1.90933 0,-1.90934 0,-1.90933 0,-1.90934 0,-1.90933 0,-1.90934 0,-1.90933 0,-1.90933 0,-1.90934 0,-1.90933 0,-1.90934 0,-1.90933 0,-1.90934 0,-1.90933 0,-1.90934 0,-1.90933 0,-1.90933 0,-1.90934 0,-1.90933 0,-1.90934 0,-1.90933 0,-1.90934 0,-1.90933 0,-1.90934 0,-1.90933 0,-1.90933 0,-1.90934 0,-1.90933 0,-1.90934 0,-1.90933 0,-1.90934 0,-1.90933 0,-1.90934 0,-1.90933 0,-1.90933 0,-1.90934 0,-1.90933 0,-1.90934 0,-1.90933 0,-1.90934 0,-1.90933 0,-1.90933 0,-1.90934 0,-1.90933 0,-1.90934 0,-1.90933 0,-1.90934 0,-1.90933 0,-1.90934 0,-1.90933 0,-1.90933 0,-1.90934 0,-1.90933 0,-1.90934 0,-1.90933 0,-1.90934 0,-1.90933 0,-1.90934 0,-1.90933 0,-1.90933 0,-1.90934 0,-1.90933 0,-1.90934 0,-1.90933 0,-1.90934 0,-1.90933 0,-1.90933 0,-1.90934 0,-1.90933 0,-1.90934 0,-1.90933 0,-1.90934 0,-1.90933 0,-1.90934 0,-1.90933 0,-1.90933 0,-1.90934 0,-1.90933 0,-1.90934 0,-1.90933 0,-1.90934 0,-1.90933 0,-1.90933 0,-1.90934 0,-1.90933 0,-1.90934 0,-1.90933 0,-1.909337 0,-1.909334 0,-1.909335 0,-1.909334 0,-1.909335 0,-1.909334 0,-1.909334 0,-1.909335 0,-1.909334 0,-1.909335 0,-1.909334 0,-1.909334 0,-1.909335 0,-1.909334 0,-1.909335 0,-1.909334 0,-1.909334 0,-1.909335 0,-1.909334 0,-1.909335 0,-1.909334 0,-1.909334 0,-1.909335 0,-1.909334 0,-1.909335 0,-1.909334 0,-1.909335 0,-1.909334 0,-1.909334 0,-1.909335 0,-1.909334 0,-1.909335 0,-1.909334 0,-1.909334 0,-1.909335 0,-1.909334 0,-1.909335 0,-1.909334 0,-1.909334 0,-1.909335 z" /></g></g><text
       y="-14.2625"
       x="328.82703"
       transform="scale(1,-1)"
       style="font-variant:normal;font-weight:normal;font-size:18px;font-family:sans-serif;-inkscape-font-specification:'sans-serif, Normal';writing-mode:lr;fill:#000000;fill-opacity:1;fill-rule:nonzero;stroke:none;font-style:normal;font-stretch:normal;text-anchor:start;text-align:start;line-height:125%;"
       id="text4819"><tspan
         x="328.82703 344.24902 360.63904"
         y="-14.2625"
         id="tspan4821">DOS</tspan></text>
<path
       d="m 308.84906,34.075 15,0"
       style="fill:#000000;fill-opacity:1;fill-rule:nonzero;stroke:#000000;stroke-width:1.5;stroke-linecap:butt;stroke-linejoin:round;stroke-miterlimit:10;stroke-dasharray:none;stroke-opacity:1"
       id="path4823" /><path
       d="m 391.88312,34.075 -15,0"
       style="fill:#000000;fill-opacity:1;fill-rule:nonzero;stroke:#000000;stroke-width:1.5;stroke-linecap:butt;stroke-linejoin:round;stroke-miterlimit:10;stroke-dasharray:none;stroke-opacity:1"
       id="path4825" /><path
       d="m 308.84906,101.02079 15,0"
       style="fill:#000000;fill-opacity:1;fill-rule:nonzero;stroke:#000000;stroke-width:1.5;stroke-linecap:butt;stroke-linejoin:round;stroke-miterlimit:10;stroke-dasharray:none;stroke-opacity:1"
       id="path4827" /><path
       d="m 391.88312,101.02079 -15,0"
       style="fill:#000000;fill-opacity:1;fill-rule:nonzero;stroke:#000000;stroke-width:1.5;stroke-linecap:butt;stroke-linejoin:round;stroke-miterlimit:10;stroke-dasharray:none;stroke-opacity:1"
       id="path4829" /><path
       d="m 308.84906,167.96657 15,0"
       style="fill:#000000;fill-opacity:1;fill-rule:nonzero;stroke:#000000;stroke-width:1.5;stroke-linecap:butt;stroke-linejoin:round;stroke-miterlimit:10;stroke-dasharray:none;stroke-opacity:1"
       id="path4831" /><path
       d="m 391.88312,167.96657 -15,0"
       style="fill:#000000;fill-opacity:1;fill-rule:nonzero;stroke:#000000;stroke-width:1.5;stroke-linecap:butt;stroke-linejoin:round;stroke-miterlimit:10;stroke-dasharray:none;stroke-opacity:1"
       id="path4833" /><path
       d="m 308.84906,234.91236 15,0"
       style="fill:#000000;fill-opacity:1;fill-rule:nonzero;stroke:#000000;stroke-width:1.5;stroke-linecap:butt;stroke-linejoin:round;stroke-miterlimit:10;stroke-dasharray:none;stroke-opacity:1"
       id="path4835" /><path
       d="m 391.88312,234.91236 -15,0"
       style="fill:#000000;fill-opacity:1;fill-rule:nonzero;stroke:#000000;stroke-width:1.5;stroke-linecap:butt;stroke-linejoin:round;stroke-miterlimit:10;stroke-dasharray:none;stroke-opacity:1"
       id="path4837" /><path
       d="m 308.84906,301.85815 15,0"
       style="fill:#000000;fill-opacity:1;fill-rule:nonzero;stroke:#000000;stroke-width:1.5;stroke-linecap:butt;stroke-linejoin:round;stroke-miterlimit:10;stroke-dasharray:none;stroke-opacity:1"
       id="path4839" /><path
       d="m 391.88312,301.85815 -15,0"
       style="fill:#000000;fill-opacity:1;fill-rule:nonzero;stroke:#000000;stroke-width:1.5;stroke-linecap:butt;stroke-linejoin:round;stroke-miterlimit:10;stroke-dasharray:none;stroke-opacity:1"
       id="path4841" /><path
       d="m 308.84906,368.80394 15,0"
       style="fill:#000000;fill-opacity:1;fill-rule:nonzero;stroke:#000000;stroke-width:1.5;stroke-linecap:butt;stroke-linejoin:round;stroke-miterlimit:10;stroke-dasharray:none;stroke-opacity:1"
       id="path4843" /><path
       d="m 391.88312,368.80394 -15,0"
       style="fill:#000000;fill-opacity:1;fill-rule:nonzero;stroke:#000000;stroke-width:1.5;stroke-linecap:butt;stroke-linejoin:round;stroke-miterlimit:10;stroke-dasharray:none;stroke-opacity:1"
       id="path4845" /><g
       id="g4847"><g
         clip-path="url(#clipPath4851)"
         id="g4849"><path
           id="path4855"
           style="fill:none;stroke:#2ca02c;stroke-width:2;stroke-linecap:square;stroke-linejoin:round;stroke-miterlimit:10;stroke-dasharray:none;stroke-opacity:1"
           d="m 308.84906,23.906851 0.0478,24.821347 0.11864,1.909335 0.25956,1.909334 0.72842,3.818669 0.0699,1.909335 -0.26749,1.909334 -0.73437,3.818669 -0.15062,1.909334 -0.0123,1.909335 0.14245,1.909334 0.41945,1.909334 0.78903,1.909335 0.98543,1.909334 0.74246,1.909335 0.14329,1.909334 -0.42634,1.909334 -0.60611,1.909335 -0.34099,1.909334 0.0437,1.909335 0.49987,3.818668 1.31709,7.637338 0.45162,1.909337 0.70226,1.90933 0.90466,1.90934 0.71208,1.90933 0.15868,1.90934 -0.25107,1.90933 -0.68438,3.81867 0.0734,1.90933 0.52484,1.90934 0.7619,1.90933 1.03755,1.90934 1.28669,1.90933 0.94018,1.90933 0.5802,3.81867 1.21352,1.90934 1.37442,1.90933 0.20357,1.90934 -0.87458,1.90933 -0.62721,1.90934 0.62735,1.90933 2.11916,1.90933 6.47298,3.81867 2.41482,1.90934 1.44364,1.90933 0.74315,1.90934 -0.0136,1.90933 -0.62368,1.90933 0.2431,1.90934 2.9903,1.90933 5.30739,1.90934 4.42083,1.90933 0.76633,1.90934 -2.14607,1.90933 -1.92017,1.90934 0.21674,1.90933 2.05065,1.90933 3.16573,1.90934 3.59273,1.90933 2.67439,1.90934 1.18938,1.90933 1.05747,1.90934 1.69167,1.90933 0.93741,1.90934 -0.89621,1.90933 -2.27924,1.90933 -3.64738,1.90934 -5.65125,1.90933 -6.7923,1.90934 -5.49485,1.90933 -2.67536,1.90934 -1.08448,1.90933 -2.0689,1.90933 -7.1539,3.81867 -2.33689,1.90934 -3.39212,3.81867 -6.31908,5.728 -1.16501,1.90933 -0.51603,1.90934 -0.16294,1.90933 -0.0429,7.63734 0.0879,28.64002 0.36633,1.90933 1.30458,1.90934 3.46374,1.90933 6.92373,1.90933 10.40133,1.90934 11.66186,1.90933 9.89403,1.90934 6.81633,1.90933 4.31624,1.90934 3.2981,1.90933 4.49188,1.90934 6.4458,1.90933 5.43169,1.90933 0.58192,1.90934 -5.19733,1.90933 -18.65075,3.81867 -6.22124,1.90934 -3.00912,1.90933 -2.74177,1.90934 -4.16755,1.90933 -4.87973,1.90933 -3.97772,1.90934 -1.93582,1.90933 -0.32017,1.90934 -0.69608,1.90933 -2.64076,1.90934 -3.90341,1.90933 -3.4386,1.90933 -2.30744,1.90934 -1.01048,1.90933 0.99746,1.90934 6.14698,3.81867 0.66732,1.90933 -2.13767,1.90934 -2.70907,1.90933 -1.11117,1.90933 0.8178,1.90934 2.22261,1.90933 2.78628,1.90934 1.57156,1.90933 -1.12662,1.90934 -3.03724,1.90933 -2.52439,1.90934 -0.40557,1.90933 0.99366,1.90933 0.1633,1.90934 -1.85885,1.90933 -2.69362,1.90934 -1.66645,1.90933 -0.25268,1.90934 0.12219,1.90933 -0.5403,1.90933 -2.24951,3.81867 -1.57681,3.81867 -1.87651,3.81867 -0.61321,1.90934 -0.32,1.90933 -0.1671,3.81867 -0.01,17.21422 0,0" /></g></g><g
       id="g4857"><path
         id="path4859"
         style="fill:none;stroke:#000000;stroke-width:1.5;stroke-linecap:square;stroke-linejoin:miter;stroke-miterlimit:10;stroke-dasharray:none;stroke-opacity:1"
         d="m 308.84906,34.075 0,357.80094" /><path
         id="path4861"
         style="fill:none;stroke:#000000;stroke-width:1.5;stroke-linecap:square;stroke-linejoin:miter;stroke-miterlimit:10;stroke-dasharray:none;stroke-opacity:1"
         d="m 391.88312,34.075 0,357.80094" /><path
         id="path4863"
         style="fill:none;stroke:#000000;stroke-width:1.5;stroke-linecap:square;stroke-linejoin:miter;stroke-miterlimit:10;stroke-dasharray:none;stroke-opacity:1"
         d="m 308.84906,34.075 83.03406,0" /><path
         id="path4865"
         style="fill:none;stroke:#000000;stroke-width:1.5;stroke-linecap:square;stroke-linejoin:miter;stroke-miterlimit:10;stroke-dasharray:none;stroke-opacity:1"
         d="m 308.84906,391.87594 83.03406,0" /></g></g></svg>