<?xml version="1.0" encoding="UTF-8" standalone="no"?>
<svg
   xmlns:dc="http://purl.org/dc/elements/1.1/"
   xmlns:cc="http://creativecommons.org/ns#"
   xmlns:rdf="http://www.w3.org/1999/02/22-rdf-syntax-ns#"
   xmlns:svg="http://www.w3.org/2000/svg"
   xmlns="http://www.w3.org/2000/svg"
   viewBox="0 0 501.6412 462.05136"
   height="462.05136"
   width="501.6412"
   xml:space="preserve"
   version="1.1"
   id="svg5875"><metadata
     id="metadata5881"><rdf:RDF><cc:Work
         rdf:about=""><dc:format>image/svg+xml</dc:format><dc:type
           rdf:resource="http://purl.org/dc/dcmitype/StillImage" /><dc:title></dc:title></cc:Work></rdf:RDF></metadata><defs
     id="defs5879"><clipPath
       id="clipPath5893"
       clipPathUnits="userSpaceOnUse"><path
         id="path5895"
         d="m 59.746875,34.075 328.366095,0 0,328.36609 -328.366095,0 0,-328.36609 z" /></clipPath><clipPath
       id="clipPath5903"
       clipPathUnits="userSpaceOnUse"><path
         id="path5905"
         d="m 59.746875,34.075 328.366095,0 0,328.36609 -328.366095,0 0,-328.36609 z" /></clipPath><clipPath
       id="clipPath5913"
       clipPathUnits="userSpaceOnUse"><path
         id="path5915"
         d="m 59.746875,34.075 328.366095,0 0,328.36609 -328.366095,0 0,-328.36609 z" /></clipPath><clipPath
       id="clipPath5923"
       clipPathUnits="userSpaceOnUse"><path
         id="path5925"
         d="m 59.746875,34.075 328.366095,0 0,328.36609 -328.366095,0 0,-328.36609 z" /></clipPath><clipPath
       id="clipPath5933"
       clipPathUnits="userSpaceOnUse"><path
         id="path5935"
         d="m 59.746875,34.075 328.366095,0 0,328.36609 -328.366095,0 0,-328.36609 z" /></clipPath><clipPath
       id="clipPath5943"
       clipPathUnits="userSpaceOnUse"><path
         id="path5945"
         d="m 59.746875,34.075 328.366095,0 0,328.36609 -328.366095,0 0,-328.36609 z" /></clipPath><clipPath
       id="clipPath5953"
       clipPathUnits="userSpaceOnUse"><path
         id="path5955"
         d="m 59.746875,34.075 328.366095,0 0,328.36609 -328.366095,0 0,-328.36609 z" /></clipPath><clipPath
       id="clipPath5963"
       clipPathUnits="userSpaceOnUse"><path
         id="path5965"
         d="m 59.746875,34.075 328.366095,0 0,328.36609 -328.366095,0 0,-328.36609 z" /></clipPath><clipPath
       id="clipPath5973"
       clipPathUnits="userSpaceOnUse"><path
         id="path5975"
         d="m 59.746875,34.075 328.366095,0 0,328.36609 -328.366095,0 0,-328.36609 z" /></clipPath><clipPath
       id="clipPath5983"
       clipPathUnits="userSpaceOnUse"><path
         id="path5985"
         d="m 59.746875,34.075 328.366095,0 0,328.36609 -328.366095,0 0,-328.36609 z" /></clipPath><clipPath
       id="clipPath5993"
       clipPathUnits="userSpaceOnUse"><path
         id="path5995"
         d="m 59.746875,34.075 328.366095,0 0,328.36609 -328.366095,0 0,-328.36609 z" /></clipPath><clipPath
       id="clipPath6003"
       clipPathUnits="userSpaceOnUse"><path
         id="path6005"
         d="m 59.746875,34.075 328.366095,0 0,328.36609 -328.366095,0 0,-328.36609 z" /></clipPath><clipPath
       id="clipPath6013"
       clipPathUnits="userSpaceOnUse"><path
         id="path6015"
         d="m 59.746875,34.075 328.366095,0 0,328.36609 -328.366095,0 0,-328.36609 z" /></clipPath><clipPath
       id="clipPath6023"
       clipPathUnits="userSpaceOnUse"><path
         id="path6025"
         d="m 59.746875,34.075 328.366095,0 0,328.36609 -328.366095,0 0,-328.36609 z" /></clipPath><clipPath
       id="clipPath6033"
       clipPathUnits="userSpaceOnUse"><path
         id="path6035"
         d="m 59.746875,34.075 328.366095,0 0,328.36609 -328.366095,0 0,-328.36609 z" /></clipPath><clipPath
       id="clipPath6043"
       clipPathUnits="userSpaceOnUse"><path
         id="path6045"
         d="m 59.746875,34.075 328.366095,0 0,328.36609 -328.366095,0 0,-328.36609 z" /></clipPath><clipPath
       id="clipPath6053"
       clipPathUnits="userSpaceOnUse"><path
         id="path6055"
         d="m 59.746875,34.075 328.366095,0 0,328.36609 -328.366095,0 0,-328.36609 z" /></clipPath><clipPath
       id="clipPath6063"
       clipPathUnits="userSpaceOnUse"><path
         id="path6065"
         d="m 59.746875,34.075 328.366095,0 0,328.36609 -328.366095,0 0,-328.36609 z" /></clipPath><clipPath
       id="clipPath6073"
       clipPathUnits="userSpaceOnUse"><path
         id="path6075"
         d="m 59.746875,34.075 328.366095,0 0,328.36609 -328.366095,0 0,-328.36609 z" /></clipPath><clipPath
       id="clipPath6083"
       clipPathUnits="userSpaceOnUse"><path
         id="path6085"
         d="m 59.746875,34.075 328.366095,0 0,328.36609 -328.366095,0 0,-328.36609 z" /></clipPath><clipPath
       id="clipPath6093"
       clipPathUnits="userSpaceOnUse"><path
         id="path6095"
         d="m 59.746875,34.075 328.366095,0 0,328.36609 -328.366095,0 0,-328.36609 z" /></clipPath><clipPath
       id="clipPath6103"
       clipPathUnits="userSpaceOnUse"><path
         id="path6105"
         d="m 59.746875,34.075 328.366095,0 0,328.36609 -328.366095,0 0,-328.36609 z" /></clipPath><clipPath
       id="clipPath6113"
       clipPathUnits="userSpaceOnUse"><path
         id="path6115"
         d="m 59.746875,34.075 328.366095,0 0,328.36609 -328.366095,0 0,-328.36609 z" /></clipPath><clipPath
       id="clipPath6123"
       clipPathUnits="userSpaceOnUse"><path
         id="path6125"
         d="m 59.746875,34.075 328.366095,0 0,328.36609 -328.366095,0 0,-328.36609 z" /></clipPath><clipPath
       id="clipPath6133"
       clipPathUnits="userSpaceOnUse"><path
         id="path6135"
         d="m 59.746875,34.075 328.366095,0 0,328.36609 -328.366095,0 0,-328.36609 z" /></clipPath><clipPath
       id="clipPath6151"
       clipPathUnits="userSpaceOnUse"><path
         id="path6153"
         d="m 59.746875,34.075 328.366095,0 0,328.36609 -328.366095,0 0,-328.36609 z" /></clipPath><clipPath
       id="clipPath6167"
       clipPathUnits="userSpaceOnUse"><path
         id="path6169"
         d="m 59.746875,34.075 328.366095,0 0,328.36609 -328.366095,0 0,-328.36609 z" /></clipPath><clipPath
       id="clipPath6183"
       clipPathUnits="userSpaceOnUse"><path
         id="path6185"
         d="m 59.746875,34.075 328.366095,0 0,328.36609 -328.366095,0 0,-328.36609 z" /></clipPath><clipPath
       id="clipPath6199"
       clipPathUnits="userSpaceOnUse"><path
         id="path6201"
         d="m 59.746875,34.075 328.366095,0 0,328.36609 -328.366095,0 0,-328.36609 z" /></clipPath><clipPath
       id="clipPath6269"
       clipPathUnits="userSpaceOnUse"><path
         id="path6271"
         d="m 59.746875,34.075 328.366095,0 0,328.36609 -328.366095,0 0,-328.36609 z" /></clipPath></defs><g
     transform="matrix(1.25,0,0,-1.25,0,462.05137)"
     id="g5883"><path
       id="path5885"
       style="fill:#ffffff;fill-opacity:1;fill-rule:nonzero;stroke:none"
       d="m 0,0 401.31297,0 0,369.64109 L 0,369.64109 0,0 Z" /><path
       id="path5887"
       style="fill:#ffffff;fill-opacity:1;fill-rule:nonzero;stroke:none"
       d="m 59.746875,34.075 328.366095,0 0,328.36609 -328.366095,0 0,-328.36609 z" /><g
       id="g5889"><g
         clip-path="url(#clipPath5893)"
         id="g5891"><path
           id="path5897"
           style="fill:none;stroke:#2ca02c;stroke-width:2;stroke-linecap:square;stroke-linejoin:round;stroke-miterlimit:10;stroke-dasharray:none;stroke-opacity:1"
           d="m 59.746875,34.074997 1.516969,2.952787 1.516969,2.473535 1.516988,2.537717 1.516969,2.567881 1.516969,2.577361 1.516969,2.578971 1.516969,2.576534 1.516988,2.571507 1.516969,2.564542 1.516969,2.555955 1.516969,2.545917 1.516988,2.534518 1.516969,2.521809 1.516969,2.507813 1.516969,2.492538 1.516969,2.475984 1.516988,2.458142 1.516969,2.438996 1.516969,2.418528 1.516969,2.396718 1.516969,2.373538 1.516988,2.348964 1.516969,2.322964 1.516969,2.295509 1.516969,2.266564 1.516988,2.236095 1.516967,2.204066 1.51697,2.17044 1.51697,2.13518 1.51697,2.09825 1.51699,2.05961 1.51697,2.0192 1.51696,1.97703 1.51697,1.933 1.51697,1.88713 1.51699,1.83935 1.51697,1.78964 1.51697,1.73796 1.51697,1.6843 1.51698,1.62863 1.51697,1.57092 1.51697,1.51118 1.51697,1.4494 1.51697,1.38557 1.51699,1.31972 1.51697,1.25186 1.51697,1.18203 1.51697,1.11026 1.51697,1.03663 1.51698,0.96117 1.51697,0.884 1.51697,0.80518 1.51697,0.72485 1.51699,0.64308 1.51697,0.56006 1.51697,0.47588 1.51697,0.39074 1.51696,0.30477 1.51699,0.21816 1.51697,0.13108 1.51697,0.0437" /></g></g><g
       id="g5899"><g
         clip-path="url(#clipPath5903)"
         id="g5901"><path
           id="path5907"
           style="fill:none;stroke:#2ca02c;stroke-width:2;stroke-linecap:square;stroke-linejoin:round;stroke-miterlimit:10;stroke-dasharray:none;stroke-opacity:1"
           d="m 59.746875,34.075001 1.516969,2.952784 1.516969,2.951913 1.516988,2.95017 1.516969,2.947554 1.516969,2.94406 1.516969,2.939682 1.516969,2.934419 1.516988,2.928259 1.516969,2.921196 1.516969,2.913221 1.516969,2.90432 1.516988,2.894485 1.516969,2.883696 1.516969,2.871942 1.516969,2.859201 1.516969,2.845455 1.516988,2.830682 1.516969,2.814857 1.516969,2.797951 1.516969,2.779938 1.516969,2.76078 1.516988,2.740445 1.516969,2.718889 1.516969,2.69607 1.516969,2.67194 1.516988,2.64645 1.516967,2.61954 1.51697,2.59113 1.51697,2.56117 1.51697,2.52958 1.51699,2.49628 1.51697,2.46116 1.51696,2.42414 1.51697,2.38511 1.51697,2.34394 1.51699,2.30052 1.51697,2.25469 1.51697,2.20634 1.51697,2.15527 1.51698,2.10133 1.51697,2.04435 1.51697,1.98415 1.51697,1.9205 1.51697,1.85325 1.51699,1.78216 1.51697,1.70708 1.51697,1.62777 1.51697,1.5441 1.51697,1.45591 1.51698,1.36308 1.51697,1.26553 1.51697,1.16327 1.51697,1.05631 1.51699,0.9448 1.51697,0.82895 1.51697,0.70906 1.51697,0.58553 1.51696,0.45886 1.51699,0.32966 1.51697,0.19856 1.51697,0.0663" /></g></g><g
       id="g5909"><g
         clip-path="url(#clipPath5913)"
         id="g5911"><path
           id="path5917"
           style="fill:none;stroke:#2ca02c;stroke-width:2;stroke-linecap:square;stroke-linejoin:round;stroke-miterlimit:10;stroke-dasharray:none;stroke-opacity:1"
           d="m 59.746875,35.567255 1.516969,1.513428 1.516969,2.899016 1.516988,2.950172 1.516969,2.947555 1.516969,2.94406 1.516969,2.939683 1.516969,2.93442 1.516988,2.928259 1.516969,2.921197 1.516969,2.913222 1.516969,2.904322 1.516988,2.894485 1.516969,2.883697 1.516969,2.871942 1.516969,2.859202 1.516969,2.845456 1.516988,2.830683 1.516969,2.814858 1.516969,2.797952 1.516969,2.779938 1.516969,2.760782 1.516988,2.740445 1.516969,2.718891 1.516969,2.69607 1.516969,2.67195 1.516988,2.64645 1.516967,2.61953 1.51697,2.59113 1.51697,2.56118 1.51697,2.52958 1.51699,2.49627 1.51697,2.46117 1.51696,2.42414 1.51697,2.38511 1.51697,2.34394 1.51699,2.30052 1.51697,2.2547 1.51697,2.20633 1.51697,2.15527 1.51698,2.10133 1.51697,2.04436 1.51697,1.98414 1.51697,1.92051 1.51697,1.85325 1.51699,1.78216 1.51697,1.70708 1.51697,1.62777 1.51697,1.5441 1.51697,1.45591 1.51698,1.36308 1.51697,1.26554 1.51697,1.16326 1.51697,1.05631 1.51699,0.9448 1.51697,0.82895 1.51697,0.70906 1.51697,0.58553 1.51696,0.45887 1.51699,0.32965 1.51697,0.19857 1.51697,0.0663" /></g></g><g
       id="g5919"><g
         clip-path="url(#clipPath5923)"
         id="g5921"><path
           id="path5927"
           style="fill:none;stroke:#2ca02c;stroke-width:2;stroke-linecap:square;stroke-linejoin:round;stroke-miterlimit:10;stroke-dasharray:none;stroke-opacity:1"
           d="m 59.746875,290.82523 1.516969,-0.0151 1.516969,-0.0453 1.516988,-0.0755 1.516969,-0.10559 1.516969,-0.13563 1.516969,-0.1656 1.516969,-0.19545 1.516988,-0.22518 1.516969,-0.25475 1.516969,-0.28415 1.516969,-0.31335 1.516988,-0.34234 1.516969,-0.37106 1.516969,-0.39951 1.516969,-0.42766 1.516969,-0.45546 1.516988,-0.48289 1.516969,-0.50993 1.516969,-0.5365 1.516969,-0.56259 1.516969,-0.58815 1.516988,-0.61314 1.516969,-0.63748 1.516969,-0.66116 1.516969,-0.68407 1.516988,-0.70618 1.516967,-0.72741 1.51697,-0.74768 1.51697,-0.76692 1.51697,-0.78503 1.51699,-0.80192 1.51697,-0.81749 1.51696,-0.83161 1.51697,-0.84418 1.51697,-0.85506 1.51699,-0.8641 1.51697,-0.87118 1.51697,-0.8761 1.51697,-0.87872 1.51698,-0.87883 1.51697,-0.87626 1.51697,-0.8708 1.51697,-0.86225 1.51697,-0.85037 1.51699,-0.83499 1.51697,-0.81587 1.51697,-0.7928 1.51697,-0.76563 1.51697,-0.73414 1.51698,-0.69825 1.51697,-0.65785 1.51697,-0.61289 1.51697,-0.56343 1.51699,-0.50955 1.51697,-0.45147 1.51697,-0.38945 1.51697,-0.3239 1.51696,-0.2553 1.51699,-0.1842 1.51697,-0.11128 1.51697,-0.0372" /></g></g><g
       id="g5929"><g
         clip-path="url(#clipPath5933)"
         id="g5931"><path
           id="path5937"
           style="fill:none;stroke:#2ca02c;stroke-width:2;stroke-linecap:square;stroke-linejoin:round;stroke-miterlimit:10;stroke-dasharray:none;stroke-opacity:1"
           d="m 59.746875,290.82523 1.516969,-0.0151 1.516969,-0.0453 1.516988,-0.0755 1.516969,-0.10559 1.516969,-0.13563 1.516969,-0.1656 1.516969,-0.19545 1.516988,-0.22518 1.516969,-0.25475 1.516969,-0.28415 1.516969,-0.31335 1.516988,-0.34234 1.516969,-0.37106 1.516969,-0.39951 1.516969,-0.42766 1.516969,-0.45546 1.516988,-0.48289 1.516969,-0.50992 1.516969,-0.53651 1.516969,-0.56259 1.516969,-0.58815 1.516988,-0.61314 1.516969,-0.63748 1.516969,-0.66116 1.516969,-0.68407 1.516988,-0.70618 1.516967,-0.72741 1.51697,-0.74768 1.51697,-0.76692 1.51697,-0.78503 1.51699,-0.80192 1.51697,-0.81749 1.51696,-0.83161 1.51697,-0.84418 1.51697,-0.85505 1.51699,-0.86411 1.51697,-0.87118 1.51697,-0.8761 1.51697,-0.87871 1.51698,-0.87883 1.51697,-0.87626 1.51697,-0.87081 1.51697,-0.86224 1.51697,-0.85038 1.51699,-0.83499 1.51697,-0.81586 1.51697,-0.79281 1.51697,-0.76562 1.51697,-0.73414 1.51698,-0.69825 1.51697,-0.65785 1.51697,-0.61289 1.51697,-0.56343 1.51699,-0.50955 1.51697,-0.45146 1.51697,-0.38946 1.51697,-0.3239 1.51696,-0.2553 1.51699,-0.1842 1.51697,-0.11127 1.51697,-0.0372" /></g></g><g
       id="g5939"><g
         clip-path="url(#clipPath5943)"
         id="g5941"><path
           id="path5947"
           style="fill:none;stroke:#2ca02c;stroke-width:2;stroke-linecap:square;stroke-linejoin:round;stroke-miterlimit:10;stroke-dasharray:none;stroke-opacity:1"
           d="m 59.746875,346.80461 1.516969,-0.0141 1.516969,-0.0423 1.516988,-0.0704 1.516969,-0.0984 1.516969,-0.1262 1.516969,-0.15384 1.516969,-0.1812 1.516988,-0.20829 1.516969,-0.23502 1.516969,-0.26136 1.516969,-0.28726 1.516988,-0.31268 1.516969,-0.33756 1.516969,-0.36186 1.516969,-0.38552 1.516969,-0.40851 1.516988,-0.43075 1.516969,-0.45222 1.516969,-0.47285 1.516969,-0.49259 1.516969,-0.51138 1.516988,-0.5292 1.516969,-0.54595 1.516969,-0.56161 1.516969,-0.5761 1.516988,-0.58938 1.516967,-0.60139 1.51697,-0.61208 1.51697,-0.62139 1.51697,-0.62925 1.51699,-0.63564 1.51697,-0.64046 1.51696,-0.64369 1.51697,-0.64527 1.51697,-0.64515 1.51699,-0.64328 1.51697,-0.63962 1.51697,-0.63411 1.51697,-0.62675 1.51698,-0.61747 1.51697,-0.60627 1.51697,-0.59312 1.51697,-0.57802 1.51697,-0.56093 1.51699,-0.5419 1.51697,-0.52092 1.51697,-0.49803 1.51697,-0.47324 1.51697,-0.44663 1.51698,-0.41826 1.51697,-0.38817 1.51697,-0.3565 1.51697,-0.32332 1.51699,-0.28875 1.51697,-0.25293 1.51697,-0.21597 1.51697,-0.17807 1.51696,-0.13935 1.51699,-0.1 1.51697,-0.0602 1.51697,-0.0201" /></g></g><g
       id="g5949"><g
         clip-path="url(#clipPath5953)"
         id="g5951"><path
           id="path5957"
           style="fill:none;stroke:#2ca02c;stroke-width:2;stroke-linecap:square;stroke-linejoin:round;stroke-miterlimit:10;stroke-dasharray:none;stroke-opacity:1"
           d="m 152.28223,143.79043 1.5111,0.0205 1.51109,0.0613 1.5111,0.10208 1.51109,0.14269 1.5111,0.18309 1.5111,0.22321 1.51109,0.26302 1.5111,0.30243 1.5111,0.34139 1.51109,0.37987 1.5111,0.4178 1.51109,0.45511 1.5111,0.49177 1.51109,0.52771 1.5111,0.56284 1.5111,0.59714 1.51109,0.63049 1.5111,0.66284 1.51109,0.69411 1.5111,0.7242 1.5111,0.75301 1.51109,0.78047 1.5111,0.80647 1.51109,0.83089 1.5111,0.85364 1.5111,0.87462 1.51109,0.89371 1.5111,0.9108 1.51109,0.92579 1.5111,0.93856 1.5111,0.949 1.51109,0.95698 1.5111,0.96241 1.51109,0.96514 1.5111,0.96503 1.5111,0.96194 1.51109,0.95571 1.5111,0.94611 1.51109,0.93291 1.5111,0.91577 1.5111,0.89423 1.51109,0.8677 1.5111,0.83516 1.5111,0.79517 1.51109,0.74525 1.5111,0.68136 1.51109,0.59667 1.5111,0.48061 1.5111,0.32072 1.51109,0.11418" /></g></g><g
       id="g5959"><g
         clip-path="url(#clipPath5963)"
         id="g5961"><path
           id="path5967"
           style="fill:none;stroke:#2ca02c;stroke-width:2;stroke-linecap:square;stroke-linejoin:round;stroke-miterlimit:10;stroke-dasharray:none;stroke-opacity:1"
           d="m 152.28223,166.49476 1.5111,0.0228 1.51109,0.0683 1.5111,0.11328 1.51109,0.1576 1.5111,0.20097 1.5111,0.24319 1.51109,0.28403 1.5111,0.32332 1.5111,0.36083 1.51109,0.39641 1.5111,0.42983 1.51109,0.46094 1.5111,0.48955 1.51109,0.5155 1.5111,0.53864 1.5111,0.55882 1.51109,0.57589 1.5111,0.58972 1.51109,0.60022 1.5111,0.60723 1.5111,0.6107 1.51109,0.6105 1.5111,0.60657 1.51109,0.59884 1.5111,0.58726 1.5111,0.57178 1.51109,0.55241 1.5111,0.52913 1.51109,0.50197 1.5111,0.47102 1.5111,0.43636 1.51109,0.39812 1.5111,0.3565 1.51109,0.31173 1.5111,0.26411 1.5111,0.21398 1.51109,0.16178 1.5111,0.10801 1.51109,0.0532 1.5111,-0.002 1.5111,-0.0563 1.51109,-0.10928 1.5111,-0.15925 1.5111,-0.20438 1.51109,-0.24178 1.5111,-0.26704 1.51109,-0.27295 1.5111,-0.24861 1.5111,-0.18122 1.51109,-0.0676" /></g></g><g
       id="g5969"><g
         clip-path="url(#clipPath5973)"
         id="g5971"><path
           id="path5977"
           style="fill:none;stroke:#2ca02c;stroke-width:2;stroke-linecap:square;stroke-linejoin:round;stroke-miterlimit:10;stroke-dasharray:none;stroke-opacity:1"
           d="m 152.28223,166.4948 1.5111,0.0236 1.51109,0.0707 1.5111,0.11774 1.51109,0.16476 1.5111,0.21163 1.5111,0.25826 1.51109,0.30452 1.5111,0.35028 1.5111,0.3954 1.51109,0.43975 1.5111,0.48314 1.51109,0.5254 1.5111,0.56638 1.51109,0.60586 1.5111,0.64367 1.5111,0.67958 1.51109,0.71344 1.5111,0.745 1.51109,0.77408 1.5111,0.80047 1.5111,0.824 1.51109,0.84446 1.5111,0.86168 1.51109,0.8755 1.5111,0.88577 1.5111,0.89232 1.51109,0.89508 1.5111,0.89391 1.51109,0.88877 1.5111,0.87958 1.5111,0.86634 1.51109,0.84905 1.5111,0.82778 1.51109,0.80259 1.5111,0.77358 1.5111,0.74094 1.51109,0.70481 1.5111,0.66543 1.51109,0.623 1.5111,0.57778 1.5111,0.53003 1.51109,0.48003 1.5111,0.42803 1.5111,0.37431 1.51109,0.31912 1.5111,0.2627 1.51109,0.20532 1.5111,0.14718 1.5111,0.0885 1.51109,0.0295" /></g></g><g
       id="g5979"><g
         clip-path="url(#clipPath5983)"
         id="g5981"><path
           id="path5987"
           style="fill:none;stroke:#2ca02c;stroke-width:2;stroke-linecap:square;stroke-linejoin:round;stroke-miterlimit:10;stroke-dasharray:none;stroke-opacity:1"
           d="m 152.28223,257.28743 1.5111,-0.009 1.51109,-0.0268 1.5111,-0.0446 1.51109,-0.062 1.5111,-0.0791 1.5111,-0.0956 1.51109,-0.11162 1.5111,-0.1269 1.5111,-0.14132 1.51109,-0.15479 1.5111,-0.16718 1.51109,-0.17834 1.5111,-0.18814 1.51109,-0.19644 1.5111,-0.20308 1.5111,-0.2079 1.51109,-0.21077 1.5111,-0.21148 1.51109,-0.20988 1.5111,-0.20578 1.5111,-0.19904 1.51109,-0.18942 1.5111,-0.1768 1.51109,-0.16098 1.5111,-0.1418 1.5111,-0.11913 1.51109,-0.0928 1.5111,-0.0628 1.51109,-0.029 1.5111,0.009 1.5111,0.0499 1.51109,0.0949 1.5111,0.14342 1.51109,0.19519 1.5111,0.24994 1.5111,0.30723 1.51109,0.36658 1.5111,0.42742 1.51109,0.48908 1.5111,0.5508 1.5111,0.61166 1.51109,0.67069 1.5111,0.72663 1.5111,0.778 1.51109,0.82281 1.5111,0.85834 1.51109,0.88044 1.5111,0.88206 1.5111,0.84467 1.51109,0.56581" /></g></g><g
       id="g5989"><g
         clip-path="url(#clipPath5993)"
         id="g5991"><path
           id="path5997"
           style="fill:none;stroke:#2ca02c;stroke-width:2;stroke-linecap:square;stroke-linejoin:round;stroke-miterlimit:10;stroke-dasharray:none;stroke-opacity:1"
           d="m 152.28223,257.28744 1.5111,0.0143 1.51109,0.0428 1.5111,0.0709 1.51109,0.0985 1.5111,0.12534 1.5111,0.15115 1.51109,0.1758 1.5111,0.19908 1.5111,0.22088 1.51109,0.24102 1.5111,0.2594 1.51109,0.27594 1.5111,0.29055 1.51109,0.30319 1.5111,0.31382 1.5111,0.32244 1.51109,0.32906 1.5111,0.33371 1.51109,0.33642 1.5111,0.33727 1.5111,0.33632 1.51109,0.33367 1.5111,0.32939 1.51109,0.32361 1.5111,0.3164 1.5111,0.30791 1.51109,0.29822 1.5111,0.28744 1.51109,0.2757 1.5111,0.26306 1.5111,0.24963 1.51109,0.23547 1.5111,0.22064 1.51109,0.20515 1.5111,0.18899 1.5111,0.1721 1.51109,0.1543 1.5111,0.13539 1.51109,0.11492 1.5111,0.0922 1.5111,0.0663 1.51109,0.0356 1.5111,-0.003 1.5111,-0.0517 1.51109,-0.11749 1.5111,-0.20595 1.51109,-0.32098 1.5111,-0.45607 1.5111,-0.58133 1.51109,-0.47733" /></g></g><g
       id="g5999"><g
         clip-path="url(#clipPath6003)"
         id="g6001"><path
           id="path6007"
           style="fill:none;stroke:#2ca02c;stroke-width:2;stroke-linecap:square;stroke-linejoin:round;stroke-miterlimit:10;stroke-dasharray:none;stroke-opacity:1"
           d="m 152.28223,321.76197 1.5111,-0.0334 1.51109,-0.1 1.5111,-0.16643 1.51109,-0.23252 1.5111,-0.2981 1.5111,-0.36308 1.51109,-0.42727 1.5111,-0.4906 1.5111,-0.5529 1.51109,-0.61407 1.5111,-0.67398 1.51109,-0.73253 1.5111,-0.7896 1.51109,-0.8451 1.5111,-0.89892 1.5111,-0.95099 1.51109,-1.00118 1.5111,-1.04946 1.51109,-1.09571 1.5111,-1.13987 1.5111,-1.18187 1.51109,-1.22164 1.5111,-1.2591 1.51109,-1.2942 1.5111,-1.32686 1.5111,-1.35701 1.51109,-1.38458 1.5111,-1.4095 1.51109,-1.43167 1.5111,-1.45099 1.5111,-1.46737 1.51109,-1.48067 1.5111,-1.49073 1.51109,-1.49739 1.5111,-1.50038 1.5111,-1.49942 1.51109,-1.49412 1.5111,-1.48396 1.51109,-1.46822 1.5111,-1.44588 1.5111,-1.41545 1.51109,-1.37479 1.5111,-1.32061 1.5111,-1.24809 1.51109,-1.15032 1.5111,-1.01875 1.51109,-0.84581 1.5111,-0.63124 1.5111,-0.38677 1.51109,-0.12967" /></g></g><g
       id="g6009"><g
         clip-path="url(#clipPath6013)"
         id="g6011"><path
           id="path6017"
           style="fill:none;stroke:#2ca02c;stroke-width:2;stroke-linecap:square;stroke-linejoin:round;stroke-miterlimit:10;stroke-dasharray:none;stroke-opacity:1"
           d="m 227.83703,175.98399 1.48403,1.1e-4 1.48405,3.3e-4 1.48402,5.6e-4 1.48405,7.7e-4 1.48403,9.8e-4 1.48405,0.001 1.48402,0.001 1.48405,0.002 1.48403,0.002 1.48403,0.002 1.48404,0.002 1.48403,0.002 1.48405,0.002 1.48403,0.002 1.48405,0.002 1.48402,0.003 1.48405,0.003 1.48403,0.003 1.48402,0.003 1.48405,0.003 1.48403,0.003 1.48405,0.002 1.48403,0.002 1.48404,0.002 1.48403,0.002 1.48405,0.002 1.48403,0.002 1.48402,0.002 1.48405,0.002 1.48403,0.001 1.48405,0.001 1.48402,9.8e-4 1.48405,7.7e-4 1.48403,5.6e-4 1.48405,3.3e-4 1.48402,1.1e-4" /></g></g><g
       id="g6019"><g
         clip-path="url(#clipPath6023)"
         id="g6021"><path
           id="path6027"
           style="fill:none;stroke:#2ca02c;stroke-width:2;stroke-linecap:square;stroke-linejoin:round;stroke-miterlimit:10;stroke-dasharray:none;stroke-opacity:1"
           d="m 227.83703,180.16551 1.48403,-0.0118 1.48405,-0.0352 1.48402,-0.0577 1.48405,-0.0791 1.48403,-0.0988 1.48405,-0.11652 1.48402,-0.13216 1.48405,-0.14559 1.48403,-0.15677 1.48403,-0.16575 1.48404,-0.17261 1.48403,-0.1775 1.48405,-0.18054 1.48403,-0.18188 1.48405,-0.18167 1.48402,-0.18008 1.48405,-0.17722 1.48403,-0.17325 1.48402,-0.16827 1.48405,-0.16239 1.48403,-0.15573 1.48405,-0.14836 1.48403,-0.14038 1.48404,-0.13184 1.48403,-0.12283 1.48405,-0.1134 1.48403,-0.10359 1.48402,-0.0935 1.48405,-0.0831 1.48403,-0.0724 1.48405,-0.0616 1.48402,-0.0506 1.48405,-0.0395 1.48403,-0.0283 1.48405,-0.017 1.48402,-0.006" /></g></g><g
       id="g6029"><g
         clip-path="url(#clipPath6033)"
         id="g6031"><path
           id="path6037"
           style="fill:none;stroke:#2ca02c;stroke-width:2;stroke-linecap:square;stroke-linejoin:round;stroke-miterlimit:10;stroke-dasharray:none;stroke-opacity:1"
           d="m 227.83703,194.40551 1.48403,0.0197 1.48405,0.0589 1.48402,0.0971 1.48405,0.13381 1.48403,0.1686 1.48405,0.20106 1.48402,0.23092 1.48405,0.25797 1.48403,0.28211 1.48403,0.3033 1.48404,0.32153 1.48403,0.33685 1.48405,0.34929 1.48403,0.35897 1.48405,0.3659 1.48402,0.37021 1.48405,0.37192 1.48403,0.37113 1.48402,0.36788 1.48405,0.36225 1.48403,0.35429 1.48405,0.34404 1.48403,0.33159 1.48404,0.317 1.48403,0.30034 1.48405,0.28169 1.48403,0.26117 1.48402,0.23889 1.48405,0.21494 1.48403,0.18952 1.48405,0.16274 1.48402,0.1348 1.48405,0.10588 1.48403,0.0762 1.48405,0.046 1.48402,0.0153" /></g></g><g
       id="g6039"><g
         clip-path="url(#clipPath6043)"
         id="g6041"><path
           id="path6047"
           style="fill:none;stroke:#2ca02c;stroke-width:2;stroke-linecap:square;stroke-linejoin:round;stroke-miterlimit:10;stroke-dasharray:none;stroke-opacity:1"
           d="m 227.83703,263.80899 1.48403,-0.0131 1.48405,-0.039 1.48402,-0.0638 1.48405,-0.0868 1.48403,-0.10763 1.48405,-0.12589 1.48402,-0.14153 1.48405,-0.15451 1.48403,-0.16494 1.48403,-0.17299 1.48404,-0.17885 1.48403,-0.18269 1.48405,-0.18476 1.48403,-0.18521 1.48405,-0.18422 1.48402,-0.18197 1.48405,-0.17857 1.48403,-0.17417 1.48402,-0.16886 1.48405,-0.16274 1.48403,-0.15591 1.48405,-0.14843 1.48403,-0.14039 1.48404,-0.13182 1.48403,-0.1228 1.48405,-0.11338 1.48403,-0.1036 1.48402,-0.0935 1.48405,-0.0831 1.48403,-0.0725 1.48405,-0.0617 1.48402,-0.0507 1.48405,-0.0396 1.48403,-0.0283 1.48405,-0.017 1.48402,-0.006" /></g></g><g
       id="g6049"><g
         clip-path="url(#clipPath6053)"
         id="g6051"><path
           id="path6057"
           style="fill:none;stroke:#2ca02c;stroke-width:2;stroke-linecap:square;stroke-linejoin:round;stroke-miterlimit:10;stroke-dasharray:none;stroke-opacity:1"
           d="m 227.83703,264.45817 1.48403,-0.008 1.48405,-0.0253 1.48402,-0.042 1.48405,-0.0585 1.48403,-0.0746 1.48405,-0.0903 1.48402,-0.10547 1.48405,-0.12 1.48403,-0.1338 1.48403,-0.14678 1.48404,-0.15885 1.48403,-0.16992 1.48405,-0.17989 1.48403,-0.18869 1.48405,-0.19622 1.48402,-0.2024 1.48405,-0.20718 1.48403,-0.21047 1.48402,-0.21222 1.48405,-0.21237 1.48403,-0.21089 1.48405,-0.20774 1.48403,-0.20291 1.48404,-0.19638 1.48403,-0.1882 1.48405,-0.17836 1.48403,-0.16693 1.48402,-0.15399 1.48405,-0.13961 1.48403,-0.12389 1.48405,-0.107 1.48402,-0.089 1.48405,-0.0702 1.48403,-0.0507 1.48405,-0.0306 1.48402,-0.0101" /></g></g><g
       id="g6059"><g
         clip-path="url(#clipPath6063)"
         id="g6061"><path
           id="path6067"
           style="fill:none;stroke:#2ca02c;stroke-width:2;stroke-linecap:square;stroke-linejoin:round;stroke-miterlimit:10;stroke-dasharray:none;stroke-opacity:1"
           d="m 227.83703,271.63924 1.48403,0.0148 1.48405,0.044 1.48402,0.072 1.48405,0.0982 1.48403,0.1221 1.48405,0.14337 1.48402,0.16186 1.48405,0.17756 1.48403,0.19053 1.48403,0.20093 1.48404,0.20892 1.48403,0.21468 1.48405,0.21841 1.48403,0.22029 1.48405,0.22045 1.48402,0.21907 1.48405,0.21627 1.48403,0.21217 1.48402,0.20689 1.48405,0.2005 1.48403,0.19312 1.48405,0.1848 1.48403,0.17562 1.48404,0.16568 1.48403,0.15501 1.48405,0.14369 1.48403,0.13177 1.48402,0.11933 1.48405,0.1064 1.48403,0.0931 1.48405,0.0794 1.48402,0.0653 1.48405,0.0511 1.48403,0.0366 1.48405,0.022 1.48402,0.007" /></g></g><g
       id="g6069"><g
         clip-path="url(#clipPath6073)"
         id="g6071"><path
           id="path6077"
           style="fill:none;stroke:#2ca02c;stroke-width:2;stroke-linecap:square;stroke-linejoin:round;stroke-miterlimit:10;stroke-dasharray:none;stroke-opacity:1"
           d="m 281.26234,176.04282 1.50495,-0.0518 1.50493,-0.15507 1.50495,-0.25768 1.50492,-0.35917 1.50495,-0.45914 1.50493,-0.5572 1.50495,-0.65303 1.50493,-0.74638 1.50494,-0.837 1.50493,-0.92474 1.50495,-1.00946 1.50493,-1.0911 1.50494,-1.16963 1.50493,-1.24503 1.50495,-1.31736 1.50495,-1.38666 1.50492,-1.45302 1.50495,-1.51651 1.50493,-1.57725 1.50495,-1.63535 1.50492,-1.69091 1.50495,-1.74405 1.50493,-1.7949 1.50495,-1.84354 1.50492,-1.89009 1.50495,-1.93467 1.50493,-1.97736 1.50495,-2.01825 1.50495,-2.05744 1.50492,-2.09501 1.50495,-2.13104 1.50493,-2.16557 1.50495,-2.19872 1.50492,-2.2305 1.50495,-2.261 1.50493,-2.29027 1.50495,-2.31833 1.50492,-2.34526 1.50495,-2.37108 1.50493,-2.39583 1.50495,-2.41956 1.50493,-2.44229 1.50494,-2.46404 1.50495,-2.48487 1.50493,-2.50475 1.50495,-2.52377 1.50492,-2.541902 1.50495,-2.559185 1.50493,-2.575634 1.50495,-2.591268 1.50492,-2.606099 1.50495,-2.620144 1.50493,-2.633416 1.50495,-2.645925 1.50492,-2.657685 1.50495,-2.668704 1.50495,-2.678992 1.50493,-2.688559 1.50495,-2.697411 1.50492,-2.705556 1.50495,-2.713 1.50493,-2.71975 1.50495,-2.725811 1.50492,-2.731186 1.50495,-2.735881 1.50493,-2.739899 1.50495,-2.743242 1.50492,-2.745914 1.50495,-2.747916 1.50493,-2.749251 1.50495,-2.749847" /></g></g><g
       id="g6079"><g
         clip-path="url(#clipPath6083)"
         id="g6081"><path
           id="path6087"
           style="fill:none;stroke:#2ca02c;stroke-width:2;stroke-linecap:square;stroke-linejoin:round;stroke-miterlimit:10;stroke-dasharray:none;stroke-opacity:1"
           d="m 281.26234,176.0429 1.50495,-0.0518 1.50493,-0.15507 1.50495,-0.25768 1.50492,-0.35917 1.50495,-0.45914 1.50493,-0.55719 1.50495,-0.65304 1.50493,-0.74637 1.50494,-0.837 1.50493,-0.92474 1.50495,-1.00946 1.50493,-1.0911 1.50494,-1.16962 1.50493,-1.24504 1.50495,-1.31736 1.50495,-1.38666 1.50492,-1.45301 1.50495,-1.51651 1.50493,-1.57725 1.50495,-1.63534 1.50492,-1.69091 1.50495,-1.74406 1.50493,-1.79489 1.50495,-1.84353 1.50492,-1.8901 1.50495,-1.93467 1.50493,-1.97735 1.50495,-2.01825 1.50495,-2.05745 1.50492,-2.09501 1.50495,-2.13103 1.50493,-2.16557 1.50495,-2.19872 1.50492,-2.2305 1.50495,-2.261 1.50493,-2.29026 1.50495,-2.31833 1.50492,-2.34526 1.50495,-2.37108 1.50493,-2.39584 1.50495,-2.41956 1.50493,-2.44228 1.50494,-2.46405 1.50495,-2.48486 1.50493,-2.50476 1.50495,-2.52376 1.50492,-2.541902 1.50495,-2.559184 1.50493,-2.575634 1.50495,-2.591268 1.50492,-2.606099 1.50495,-2.620144 1.50493,-2.633415 1.50495,-2.645926 1.50492,-2.657684 1.50495,-2.668704 1.50495,-2.678992 1.50493,-2.688558 1.50495,-2.697411 1.50492,-2.705556 1.50495,-2.713 1.50493,-2.71975 1.50495,-2.725811 1.50492,-2.731186 1.50495,-2.735881 1.50493,-2.739898 1.50495,-2.743243 1.50492,-2.745914 1.50495,-2.747916 1.50493,-2.74925 1.50495,-2.74998" /></g></g><g
       id="g6089"><g
         clip-path="url(#clipPath6093)"
         id="g6091"><path
           id="path6097"
           style="fill:none;stroke:#2ca02c;stroke-width:2;stroke-linecap:square;stroke-linejoin:round;stroke-miterlimit:10;stroke-dasharray:none;stroke-opacity:1"
           d="m 281.26234,203.10923 1.50495,-0.0947 1.50493,-0.28271 1.50495,-0.46707 1.50492,-0.64555 1.50495,-0.81633 1.50493,-0.97805 1.50495,-1.12976 1.50493,-1.27097 1.50494,-1.40157 1.50493,-1.52172 1.50495,-1.63186 1.50493,-1.73251 1.50494,-1.82434 1.50493,-1.90804 1.50495,-1.98431 1.50495,-2.05381 1.50492,-2.1172 1.50495,-2.1751 1.50493,-2.22802 1.50495,-2.27649 1.50492,-2.32097 1.50495,-2.36184 1.50493,-2.39948 1.50495,-2.43421 1.50492,-2.46632 1.50495,-2.49606 1.50493,-2.52365 1.50495,-2.54932 1.50495,-2.57321 1.50492,-2.59552 1.50495,-2.61637 1.50493,-2.63587 1.50495,-2.65417 1.50492,-2.67135 1.50495,-2.68748 1.50493,-2.70269 1.50495,-2.71699 1.50492,-2.7305 1.50495,-2.74325 1.50493,-2.75528 1.50495,-2.76667 1.50493,-2.77743 1.50494,-2.78761 1.50495,-2.79725 1.50493,-2.80635 1.50495,-2.81498 1.50492,-2.82313 1.50495,-2.83083 1.50493,-2.838099 1.50495,-2.844957 1.50492,-2.851413 1.50495,-2.857478 1.50493,-2.863164 1.50495,-2.868475 1.50492,-2.87342 1.50495,-2.877997 1.50495,-2.882208 1.50493,-2.886045 1.50495,-2.889499 1.50492,-2.892547 1.50495,-2.895159 1.50493,-2.897277 1.50495,-2.898811 1.50492,-2.8996 1.50495,-2.899348 1.50493,-2.897465 1.50495,-2.892628 1.50492,-2.881371 1.50495,-2.851982 1.50493,-2.74228 1.50495,-1.781995" /></g></g><g
       id="g6099"><g
         clip-path="url(#clipPath6103)"
         id="g6101"><path
           id="path6107"
           style="fill:none;stroke:#2ca02c;stroke-width:2;stroke-linecap:square;stroke-linejoin:round;stroke-miterlimit:10;stroke-dasharray:none;stroke-opacity:1"
           d="m 281.26234,259.58806 1.50495,0.0267 1.50493,0.0799 1.50495,0.13238 1.50492,0.18382 1.50495,0.2338 1.50493,0.28195 1.50495,0.32798 1.50493,0.37164 1.50494,0.41271 1.50493,0.45105 1.50495,0.48656 1.50493,0.51916 1.50494,0.54886 1.50493,0.57565 1.50495,0.59961 1.50495,0.62079 1.50492,0.6393 1.50495,0.65521 1.50493,0.66869 1.50495,0.67982 1.50492,0.68875 1.50495,0.69559 1.50493,0.70047 1.50495,0.70352 1.50492,0.70486 1.50495,0.70459 1.50493,0.70284 1.50495,0.69968 1.50495,0.69525 1.50492,0.68961 1.50495,0.68285 1.50493,0.67506 1.50495,0.6663 1.50492,0.65665 1.50495,0.64618 1.50493,0.63492 1.50495,0.62296 1.50492,0.61033 1.50495,0.59708 1.50493,0.58326 1.50495,0.56891 1.50493,0.55405 1.50494,0.53873 1.50495,0.52299 1.50493,0.50684 1.50495,0.49033 1.50492,0.47345 1.50495,0.45627 1.50493,0.43878 1.50495,0.421 1.50492,0.40298 1.50495,0.3847 1.50493,0.3662 1.50495,0.3475 1.50492,0.32859 1.50495,0.30952 1.50495,0.29028 1.50493,0.27088 1.50495,0.25135 1.50492,0.23168 1.50495,0.21192 1.50493,0.19204 1.50495,0.17206 1.50492,0.15201 1.50495,0.13189 1.50493,0.1117 1.50495,0.0915 1.50492,0.0712 1.50495,0.0509 1.50493,0.0305 1.50495,0.0102" /></g></g><g
       id="g6109"><g
         clip-path="url(#clipPath6113)"
         id="g6111"><path
           id="path6117"
           style="fill:none;stroke:#2ca02c;stroke-width:2;stroke-linecap:square;stroke-linejoin:round;stroke-miterlimit:10;stroke-dasharray:none;stroke-opacity:1"
           d="m 281.26234,259.58818 1.50495,0.0267 1.50493,0.0799 1.50495,0.13238 1.50492,0.18382 1.50495,0.2338 1.50493,0.28194 1.50495,0.32799 1.50493,0.37163 1.50494,0.41271 1.50493,0.45106 1.50495,0.48655 1.50493,0.51916 1.50494,0.54885 1.50493,0.57566 1.50495,0.5996 1.50495,0.62079 1.50492,0.6393 1.50495,0.65521 1.50493,0.66869 1.50495,0.67982 1.50492,0.68874 1.50495,0.69559 1.50493,0.70046 1.50495,0.70352 1.50492,0.70486 1.50495,0.70459 1.50493,0.70283 1.50495,0.69969 1.50495,0.69525 1.50492,0.6896 1.50495,0.68285 1.50493,0.67505 1.50495,0.6663 1.50492,0.65666 1.50495,0.64617 1.50493,0.63492 1.50495,0.62296 1.50492,0.61033 1.50495,0.59708 1.50493,0.58325 1.50495,0.5689 1.50493,0.55405 1.50494,0.53874 1.50495,0.52298 1.50493,0.50684 1.50495,0.49033 1.50492,0.47345 1.50495,0.45627 1.50493,0.43877 1.50495,0.421 1.50492,0.40298 1.50495,0.3847 1.50493,0.3662 1.50495,0.34749 1.50492,0.3286 1.50495,0.30951 1.50495,0.29028 1.50493,0.27088 1.50495,0.25134 1.50492,0.23169 1.50495,0.21191 1.50493,0.19204 1.50495,0.17206 1.50492,0.15201 1.50495,0.13189 1.50493,0.1117 1.50495,0.0915 1.50492,0.0712 1.50495,0.0509 1.50493,0.0305 1.50495,0.0102" /></g></g><g
       id="g6119"><g
         clip-path="url(#clipPath6123)"
         id="g6121"><path
           id="path6127"
           style="fill:none;stroke:#2ca02c;stroke-width:2;stroke-linecap:square;stroke-linejoin:round;stroke-miterlimit:10;stroke-dasharray:none;stroke-opacity:1"
           d="m 281.26234,276.73249 1.50495,0.077 1.50493,0.22975 1.50495,0.3788 1.50492,0.52191 1.50495,0.65727 1.50493,0.78347 1.50495,0.89959 1.50493,1.00509 1.50494,1.09986 1.50493,1.18405 1.50495,1.25806 1.50493,1.32242 1.50494,1.37778 1.50493,1.42481 1.50495,1.46421 1.50495,1.49663 1.50492,1.52271 1.50495,1.54305 1.50493,1.55819 1.50495,1.56862 1.50492,1.57479 1.50495,1.57711 1.50493,1.5759 1.50495,1.57154 1.50492,1.56426 1.50495,1.55435 1.50493,1.54201 1.50495,1.52747 1.50495,1.51089 1.50492,1.49243 1.50495,1.47225 1.50493,1.45047 1.50495,1.4272 1.50492,1.40257 1.50495,1.37666 1.50493,1.34955 1.50495,1.32133 1.50492,1.29208 1.50495,1.26184 1.50493,1.23071 1.50495,1.19872 1.50493,1.16592 1.50494,1.13238 1.50495,1.09812 1.50493,1.06321 1.50495,1.02768 1.50492,0.99155 1.50495,0.95487 1.50493,0.91769 1.50495,0.88001 1.50492,0.84187 1.50495,0.80332 1.50493,0.76437 1.50495,0.72504 1.50492,0.68537 1.50495,0.64537 1.50495,0.60507 1.50493,0.5645 1.50495,0.52368 1.50492,0.48262 1.50495,0.44134 1.50493,0.39988 1.50495,0.35825 1.50492,0.31645 1.50495,0.27453 1.50493,0.23249 1.50495,0.19035 1.50492,0.14813 1.50495,0.10586 1.50493,0.0635 1.50495,0.0212" /></g></g><g
       id="g6129"><g
         clip-path="url(#clipPath6133)"
         id="g6131"><path
           id="path6137"
           style="fill:none;stroke:#000000;stroke-width:1.5;stroke-linecap:square;stroke-linejoin:round;stroke-miterlimit:10;stroke-dasharray:none;stroke-opacity:1"
           d="m 59.746875,34.075 0,328.36609" /></g></g><g
       id="g6139"><g
         transform="translate(53.746875,11.2625)"
         id="g6141"><text
           id="text6143"
           style="font-variant:normal;font-weight:normal;font-size:22px;font-family:STIXNonUnicode;-inkscape-font-specification:STIXNonUnicode-Regular;writing-mode:lr-tb;fill:#000000;fill-opacity:1;fill-rule:nonzero;stroke:none"
           transform="matrix(1,0,0,-1,0,0.4375)"><tspan
             id="tspan6145"
             y="0"
             x="0"></tspan></text>
</g></g><g
       id="g6147"><g
         clip-path="url(#clipPath6151)"
         id="g6149"><path
           id="path6155"
           style="fill:none;stroke:#000000;stroke-width:1.5;stroke-linecap:square;stroke-linejoin:round;stroke-miterlimit:10;stroke-dasharray:none;stroke-opacity:1"
           d="m 152.28223,34.075 0,328.36609" /></g></g><g
       style=""
       id="g6157"><text
         id="text6159"
         style="font-variant:normal;font-weight:normal;font-size:22px;font-family:Whitney;-inkscape-font-specification:Whitney-Book;writing-mode:lr-tb;fill:#000000;fill-opacity:1;fill-rule:nonzero;stroke:none"
         transform="matrix(1,0,0,-1,147.15723,11.2625)"><tspan
           style="-inkscape-font-specification:sans-serif;font-family:sans-serif;font-weight:normal;font-style:normal;font-stretch:normal;font-variant:normal"
           id="tspan6161"
           y="0"
           x="0">L</tspan></text>
</g><g
       id="g6163"><g
         clip-path="url(#clipPath6167)"
         id="g6165"><path
           id="path6171"
           style="fill:none;stroke:#000000;stroke-width:1.5;stroke-linecap:square;stroke-linejoin:round;stroke-miterlimit:10;stroke-dasharray:none;stroke-opacity:1"
           d="m 227.83703,34.075 0,328.36609" /></g></g><g
       style=""
       id="g6173"><text
         id="text6175"
         style="font-variant:normal;font-weight:normal;font-size:22px;font-family:Whitney;-inkscape-font-specification:Whitney-Book;writing-mode:lr-tb;fill:#000000;fill-opacity:1;fill-rule:nonzero;stroke:none"
         transform="matrix(1,0,0,-1,216.54797,11.2625)"><tspan
           style="-inkscape-font-specification:sans-serif;font-family:sans-serif;font-weight:normal;font-style:normal;font-stretch:normal;font-variant:normal"
           id="tspan6177"
           y="0"
           x="0">W</tspan></text>
</g><g
       id="g6179"><g
         clip-path="url(#clipPath6183)"
         id="g6181"><path
           id="path6187"
           style="fill:none;stroke:#000000;stroke-width:1.5;stroke-linecap:square;stroke-linejoin:round;stroke-miterlimit:10;stroke-dasharray:none;stroke-opacity:1"
           d="m 281.26234,34.075 0,328.36609" /></g></g><g
       style=""
       id="g6189"><text
         id="text6191"
         style="font-variant:normal;font-weight:normal;font-size:22px;font-family:Whitney;-inkscape-font-specification:Whitney-Book;writing-mode:lr-tb;fill:#000000;fill-opacity:1;fill-rule:nonzero;stroke:none"
         transform="matrix(1,0,0,-1,274.27797,11.2625)"><tspan
           style="-inkscape-font-specification:sans-serif;font-family:sans-serif;font-weight:normal;font-style:normal;font-stretch:normal;font-variant:normal"
           id="tspan6193"
           y="0"
           x="0">X</tspan></text>
</g><g
       id="g6195"><g
         clip-path="url(#clipPath6199)"
         id="g6197"><path
           id="path6203"
           style="fill:none;stroke:#000000;stroke-width:1.5;stroke-linecap:square;stroke-linejoin:round;stroke-miterlimit:10;stroke-dasharray:none;stroke-opacity:1"
           d="m 388.11297,34.075 0,328.36609" /></g></g><g
       id="g6207"
       transform="translate(382.11297,11.2625)"><text
         transform="matrix(1,0,0,-1,0,0.4375)"
         style="font-variant:normal;font-weight:normal;font-size:22px;font-family:STIXNonUnicode;-inkscape-font-specification:STIXNonUnicode-Regular;writing-mode:lr-tb;fill:#000000;fill-opacity:1;fill-rule:nonzero;stroke:none"
         id="text6209"><tspan
           x="0"
           y="0"
           id="tspan6211"></tspan></text>
</g><path
       d="m 59.746875,34.075 15,0"
       style="fill:#000000;fill-opacity:1;fill-rule:nonzero;stroke:#000000;stroke-width:1.5;stroke-linecap:butt;stroke-linejoin:round;stroke-miterlimit:10;stroke-dasharray:none;stroke-opacity:1"
       id="path6213" /><path
       d="m 388.11297,34.075 -15,0"
       style="fill:#000000;fill-opacity:1;fill-rule:nonzero;stroke:#000000;stroke-width:1.5;stroke-linecap:butt;stroke-linejoin:round;stroke-miterlimit:10;stroke-dasharray:none;stroke-opacity:1"
       id="path6215" /><text
       y="-26.168751"
       x="39.200001"
       transform="scale(1,-1)"
       style="font-variant:normal;font-weight:normal;font-size:18px;font-family:sans-serif;-inkscape-font-specification:'sans-serif, Normal';writing-mode:lr;fill:#000000;fill-opacity:1;fill-rule:nonzero;stroke:none;font-style:normal;font-stretch:normal;text-anchor:start;text-align:start;line-height:125%;"
       id="text6217"><tspan
         style="-inkscape-font-specification:'sans-serif, Normal';font-family:sans-serif;font-weight:normal;font-style:normal;font-stretch:normal;font-variant:normal;font-size:18px;text-anchor:start;text-align:start;writing-mode:lr;line-height:125%;"
         x="39.200001"
         y="-26.168751"
         id="tspan6219">0</tspan></text>
<path
       d="m 59.746875,95.513427 15,0"
       style="fill:#000000;fill-opacity:1;fill-rule:nonzero;stroke:#000000;stroke-width:1.5;stroke-linecap:butt;stroke-linejoin:round;stroke-miterlimit:10;stroke-dasharray:none;stroke-opacity:1"
       id="path6221" /><path
       d="m 388.11297,95.513427 -15,0"
       style="fill:#000000;fill-opacity:1;fill-rule:nonzero;stroke:#000000;stroke-width:1.5;stroke-linecap:butt;stroke-linejoin:round;stroke-miterlimit:10;stroke-dasharray:none;stroke-opacity:1"
       id="path6223" /><text
       y="-87.607178"
       x="40.981251"
       transform="scale(1,-1)"
       style="font-variant:normal;font-weight:normal;font-size:18px;font-family:sans-serif;-inkscape-font-specification:'sans-serif, Normal';writing-mode:lr;fill:#000000;fill-opacity:1;fill-rule:nonzero;stroke:none;font-style:normal;font-stretch:normal;text-anchor:start;text-align:start;line-height:125%;"
       id="text6225"><tspan
         style="-inkscape-font-specification:'sans-serif, Normal';font-family:sans-serif;font-weight:normal;font-style:normal;font-stretch:normal;font-variant:normal;font-size:18px;text-anchor:start;text-align:start;writing-mode:lr;line-height:125%;"
         x="40.981251"
         y="-87.607178"
         id="tspan6227">2</tspan></text>
<path
       d="m 59.746875,156.95185 15,0"
       style="fill:#000000;fill-opacity:1;fill-rule:nonzero;stroke:#000000;stroke-width:1.5;stroke-linecap:butt;stroke-linejoin:round;stroke-miterlimit:10;stroke-dasharray:none;stroke-opacity:1"
       id="path6229" /><path
       d="m 388.11297,156.95185 -15,0"
       style="fill:#000000;fill-opacity:1;fill-rule:nonzero;stroke:#000000;stroke-width:1.5;stroke-linecap:butt;stroke-linejoin:round;stroke-miterlimit:10;stroke-dasharray:none;stroke-opacity:1"
       id="path6231" /><text
       y="-149.04559"
       x="39.700001"
       transform="scale(1,-1)"
       style="font-variant:normal;font-weight:normal;font-size:18px;font-family:sans-serif;-inkscape-font-specification:'sans-serif, Normal';writing-mode:lr;fill:#000000;fill-opacity:1;fill-rule:nonzero;stroke:none;font-style:normal;font-stretch:normal;text-anchor:start;text-align:start;line-height:125%;"
       id="text6233"><tspan
         style="-inkscape-font-specification:'sans-serif, Normal';font-family:sans-serif;font-weight:normal;font-style:normal;font-stretch:normal;font-variant:normal;font-size:18px;text-anchor:start;text-align:start;writing-mode:lr;line-height:125%;"
         x="39.700001"
         y="-149.04559"
         id="tspan6235">4</tspan></text>
<path
       d="m 59.746875,218.39028 15,0"
       style="fill:#000000;fill-opacity:1;fill-rule:nonzero;stroke:#000000;stroke-width:1.5;stroke-linecap:butt;stroke-linejoin:round;stroke-miterlimit:10;stroke-dasharray:none;stroke-opacity:1"
       id="path6237" /><path
       d="m 388.11297,218.39028 -15,0"
       style="fill:#000000;fill-opacity:1;fill-rule:nonzero;stroke:#000000;stroke-width:1.5;stroke-linecap:butt;stroke-linejoin:round;stroke-miterlimit:10;stroke-dasharray:none;stroke-opacity:1"
       id="path6239" /><text
       y="-210.48402"
       x="40.246876"
       transform="scale(1,-1)"
       style="font-variant:normal;font-weight:normal;font-size:18px;font-family:sans-serif;-inkscape-font-specification:'sans-serif, Normal';writing-mode:lr;fill:#000000;fill-opacity:1;fill-rule:nonzero;stroke:none;font-style:normal;font-stretch:normal;text-anchor:start;text-align:start;line-height:125%;"
       id="text6241"><tspan
         style="-inkscape-font-specification:'sans-serif, Normal';font-family:sans-serif;font-weight:normal;font-style:normal;font-stretch:normal;font-variant:normal;font-size:18px;text-anchor:start;text-align:start;writing-mode:lr;line-height:125%;"
         x="40.246876"
         y="-210.48402"
         id="tspan6243">6</tspan></text>
<path
       d="m 59.746875,279.82871 15,0"
       style="fill:#000000;fill-opacity:1;fill-rule:nonzero;stroke:#000000;stroke-width:1.5;stroke-linecap:butt;stroke-linejoin:round;stroke-miterlimit:10;stroke-dasharray:none;stroke-opacity:1"
       id="path6245" /><path
       d="m 388.11297,279.82871 -15,0"
       style="fill:#000000;fill-opacity:1;fill-rule:nonzero;stroke:#000000;stroke-width:1.5;stroke-linecap:butt;stroke-linejoin:round;stroke-miterlimit:10;stroke-dasharray:none;stroke-opacity:1"
       id="path6247" /><text
       y="-271.92245"
       x="40.184376"
       transform="scale(1,-1)"
       style="font-variant:normal;font-weight:normal;font-size:18px;font-family:sans-serif;-inkscape-font-specification:'sans-serif, Normal';writing-mode:lr;fill:#000000;fill-opacity:1;fill-rule:nonzero;stroke:none;font-style:normal;font-stretch:normal;text-anchor:start;text-align:start;line-height:125%;"
       id="text6249"><tspan
         style="-inkscape-font-specification:'sans-serif, Normal';font-family:sans-serif;font-weight:normal;font-style:normal;font-stretch:normal;font-variant:normal;font-size:18px;text-anchor:start;text-align:start;writing-mode:lr;line-height:125%;"
         x="40.184376"
         y="-271.92245"
         id="tspan6251">8</tspan></text>
<path
       d="m 59.746875,341.26713 15,0"
       style="fill:#000000;fill-opacity:1;fill-rule:nonzero;stroke:#000000;stroke-width:1.5;stroke-linecap:butt;stroke-linejoin:round;stroke-miterlimit:10;stroke-dasharray:none;stroke-opacity:1"
       id="path6253" /><path
       d="m 388.11297,341.26713 -15,0"
       style="fill:#000000;fill-opacity:1;fill-rule:nonzero;stroke:#000000;stroke-width:1.5;stroke-linecap:butt;stroke-linejoin:round;stroke-miterlimit:10;stroke-dasharray:none;stroke-opacity:1"
       id="path6255" /><text
       y="-333.36087"
       x="31.387501"
       transform="scale(1,-1)"
       style="font-variant:normal;font-weight:normal;font-size:18px;font-family:sans-serif;-inkscape-font-specification:'sans-serif, Normal';writing-mode:lr;fill:#000000;fill-opacity:1;fill-rule:nonzero;stroke:none;font-style:normal;font-stretch:normal;text-anchor:start;text-align:start;line-height:125%;"
       id="text6257"><tspan
         x="31.387501 39.197498"
         y="-333.36087"
         id="tspan6259">10</tspan></text>
<text
       y="23.325001"
       x="120.39867"
       transform="matrix(0,1,1,0,0,0)"
       style="font-variant:normal;font-weight:normal;font-size:18px;font-family:sans-serif;-inkscape-font-specification:'sans-serif, Normal';writing-mode:lr;fill:#000000;fill-opacity:1;fill-rule:nonzero;stroke:none;font-style:normal;font-stretch:normal;text-anchor:start;text-align:start;line-height:125%;"
       id="text6261"><tspan
         x="120.39867 130.89267 138.46066 149.26266 160.87866 172.38467 183.18666 194.69267 204.94467 215.50467 220.47667 229.23267 242.01466 257.52469 267.40268"
         y="23.325001"
         id="tspan6263">Frequency (THz)</tspan></text>
<g
       id="g6265"><g
         clip-path="url(#clipPath6269)"
         id="g6267"><path
           id="path6273"
           style="fill:none;stroke:#000000;stroke-width:1.5;stroke-linecap:butt;stroke-linejoin:round;stroke-miterlimit:10;stroke-dasharray:none;stroke-opacity:1"
           d="m 59.746875,34.075 0,328.36609" /><path
           id="path6275"
           style="fill:none;stroke:#000000;stroke-width:1.5;stroke-linecap:butt;stroke-linejoin:round;stroke-miterlimit:10;stroke-dasharray:none;stroke-opacity:1"
           d="m 152.28223,34.075 0,328.36609" /><path
           id="path6277"
           style="fill:none;stroke:#000000;stroke-width:1.5;stroke-linecap:butt;stroke-linejoin:round;stroke-miterlimit:10;stroke-dasharray:none;stroke-opacity:1"
           d="m 227.83703,34.075 0,328.36609" /><path
           id="path6279"
           style="fill:none;stroke:#000000;stroke-width:1.5;stroke-linecap:butt;stroke-linejoin:round;stroke-miterlimit:10;stroke-dasharray:none;stroke-opacity:1"
           d="m 281.26234,34.075 0,328.36609" /><path
           id="path6281"
           style="fill:none;stroke:#000000;stroke-width:1.5;stroke-linecap:butt;stroke-linejoin:round;stroke-miterlimit:10;stroke-dasharray:none;stroke-opacity:1"
           d="m 388.11297,34.075 0,328.36609" /></g></g><g
       id="g6283"><path
         id="path6285"
         style="fill:none;stroke:#000000;stroke-width:1.5;stroke-linecap:square;stroke-linejoin:miter;stroke-miterlimit:10;stroke-dasharray:none;stroke-opacity:1"
         d="m 59.746875,34.075 0,328.36609" /><path
         id="path6287"
         style="fill:none;stroke:#000000;stroke-width:1.5;stroke-linecap:square;stroke-linejoin:miter;stroke-miterlimit:10;stroke-dasharray:none;stroke-opacity:1"
         d="m 388.11297,34.075 0,328.36609" /><path
         id="path6289"
         style="fill:none;stroke:#000000;stroke-width:1.5;stroke-linecap:square;stroke-linejoin:miter;stroke-miterlimit:10;stroke-dasharray:none;stroke-opacity:1"
         d="m 59.746875,34.075 328.366095,0" /><path
         id="path6291"
         style="fill:none;stroke:#000000;stroke-width:1.5;stroke-linecap:square;stroke-linejoin:miter;stroke-miterlimit:10;stroke-dasharray:none;stroke-opacity:1"
         d="m 59.746875,362.44109 328.366095,0" /></g></g></svg>