<?xml version="1.0" encoding="UTF-8" standalone="no"?>
<svg
   xmlns:dc="http://purl.org/dc/elements/1.1/"
   xmlns:cc="http://creativecommons.org/ns#"
   xmlns:rdf="http://www.w3.org/1999/02/22-rdf-syntax-ns#"
   xmlns:svg="http://www.w3.org/2000/svg"
   xmlns="http://www.w3.org/2000/svg"
   viewBox="0 0 501.66229 448.88885"
   height="448.88885"
   width="501.66229"
   xml:space="preserve"
   version="1.1"
   id="svg6900"><metadata
     id="metadata6906"><rdf:RDF><cc:Work
         rdf:about=""><dc:format>image/svg+xml</dc:format><dc:type
           rdf:resource="http://purl.org/dc/dcmitype/StillImage" /><dc:title></dc:title></cc:Work></rdf:RDF></metadata><defs
     id="defs6904"><clipPath
       id="clipPath6918"
       clipPathUnits="userSpaceOnUse"><path
         id="path6920"
         d="m 70.29375,34.075 317.83609,0 0,317.83609 -317.83609,0 0,-317.83609 z" /></clipPath><clipPath
       id="clipPath6928"
       clipPathUnits="userSpaceOnUse"><path
         id="path6930"
         d="m 70.29375,34.075 317.83609,0 0,317.83609 -317.83609,0 0,-317.83609 z" /></clipPath><clipPath
       id="clipPath6938"
       clipPathUnits="userSpaceOnUse"><path
         id="path6940"
         d="m 70.29375,34.075 317.83609,0 0,317.83609 -317.83609,0 0,-317.83609 z" /></clipPath><clipPath
       id="clipPath6948"
       clipPathUnits="userSpaceOnUse"><path
         id="path6950"
         d="m 70.29375,34.075 317.83609,0 0,317.83609 -317.83609,0 0,-317.83609 z" /></clipPath><clipPath
       id="clipPath6958"
       clipPathUnits="userSpaceOnUse"><path
         id="path6960"
         d="m 70.29375,34.075 317.83609,0 0,317.83609 -317.83609,0 0,-317.83609 z" /></clipPath><clipPath
       id="clipPath6968"
       clipPathUnits="userSpaceOnUse"><path
         id="path6970"
         d="m 70.29375,34.075 317.83609,0 0,317.83609 -317.83609,0 0,-317.83609 z" /></clipPath><clipPath
       id="clipPath6978"
       clipPathUnits="userSpaceOnUse"><path
         id="path6980"
         d="m 70.29375,34.075 317.83609,0 0,317.83609 -317.83609,0 0,-317.83609 z" /></clipPath><clipPath
       id="clipPath6988"
       clipPathUnits="userSpaceOnUse"><path
         id="path6990"
         d="m 70.29375,34.075 317.83609,0 0,317.83609 -317.83609,0 0,-317.83609 z" /></clipPath><clipPath
       id="clipPath6998"
       clipPathUnits="userSpaceOnUse"><path
         id="path7000"
         d="m 70.29375,34.075 317.83609,0 0,317.83609 -317.83609,0 0,-317.83609 z" /></clipPath><clipPath
       id="clipPath7008"
       clipPathUnits="userSpaceOnUse"><path
         id="path7010"
         d="m 70.29375,34.075 317.83609,0 0,317.83609 -317.83609,0 0,-317.83609 z" /></clipPath><clipPath
       id="clipPath7018"
       clipPathUnits="userSpaceOnUse"><path
         id="path7020"
         d="m 70.29375,34.075 317.83609,0 0,317.83609 -317.83609,0 0,-317.83609 z" /></clipPath><clipPath
       id="clipPath7028"
       clipPathUnits="userSpaceOnUse"><path
         id="path7030"
         d="m 70.29375,34.075 317.83609,0 0,317.83609 -317.83609,0 0,-317.83609 z" /></clipPath><clipPath
       id="clipPath7038"
       clipPathUnits="userSpaceOnUse"><path
         id="path7040"
         d="m 70.29375,34.075 317.83609,0 0,317.83609 -317.83609,0 0,-317.83609 z" /></clipPath><clipPath
       id="clipPath7048"
       clipPathUnits="userSpaceOnUse"><path
         id="path7050"
         d="m 70.29375,34.075 317.83609,0 0,317.83609 -317.83609,0 0,-317.83609 z" /></clipPath><clipPath
       id="clipPath7058"
       clipPathUnits="userSpaceOnUse"><path
         id="path7060"
         d="m 70.29375,34.075 317.83609,0 0,317.83609 -317.83609,0 0,-317.83609 z" /></clipPath><clipPath
       id="clipPath7068"
       clipPathUnits="userSpaceOnUse"><path
         id="path7070"
         d="m 70.29375,34.075 317.83609,0 0,317.83609 -317.83609,0 0,-317.83609 z" /></clipPath><clipPath
       id="clipPath7078"
       clipPathUnits="userSpaceOnUse"><path
         id="path7080"
         d="m 70.29375,34.075 317.83609,0 0,317.83609 -317.83609,0 0,-317.83609 z" /></clipPath><clipPath
       id="clipPath7088"
       clipPathUnits="userSpaceOnUse"><path
         id="path7090"
         d="m 70.29375,34.075 317.83609,0 0,317.83609 -317.83609,0 0,-317.83609 z" /></clipPath><clipPath
       id="clipPath7098"
       clipPathUnits="userSpaceOnUse"><path
         id="path7100"
         d="m 70.29375,34.075 317.83609,0 0,317.83609 -317.83609,0 0,-317.83609 z" /></clipPath><clipPath
       id="clipPath7108"
       clipPathUnits="userSpaceOnUse"><path
         id="path7110"
         d="m 70.29375,34.075 317.83609,0 0,317.83609 -317.83609,0 0,-317.83609 z" /></clipPath><clipPath
       id="clipPath7118"
       clipPathUnits="userSpaceOnUse"><path
         id="path7120"
         d="m 70.29375,34.075 317.83609,0 0,317.83609 -317.83609,0 0,-317.83609 z" /></clipPath><clipPath
       id="clipPath7128"
       clipPathUnits="userSpaceOnUse"><path
         id="path7130"
         d="m 70.29375,34.075 317.83609,0 0,317.83609 -317.83609,0 0,-317.83609 z" /></clipPath><clipPath
       id="clipPath7138"
       clipPathUnits="userSpaceOnUse"><path
         id="path7140"
         d="m 70.29375,34.075 317.83609,0 0,317.83609 -317.83609,0 0,-317.83609 z" /></clipPath><clipPath
       id="clipPath7148"
       clipPathUnits="userSpaceOnUse"><path
         id="path7150"
         d="m 70.29375,34.075 317.83609,0 0,317.83609 -317.83609,0 0,-317.83609 z" /></clipPath><clipPath
       id="clipPath7158"
       clipPathUnits="userSpaceOnUse"><path
         id="path7160"
         d="m 70.29375,34.075 317.83609,0 0,317.83609 -317.83609,0 0,-317.83609 z" /></clipPath><clipPath
       id="clipPath7176"
       clipPathUnits="userSpaceOnUse"><path
         id="path7178"
         d="m 70.29375,34.075 317.83609,0 0,317.83609 -317.83609,0 0,-317.83609 z" /></clipPath><clipPath
       id="clipPath7192"
       clipPathUnits="userSpaceOnUse"><path
         id="path7194"
         d="m 70.29375,34.075 317.83609,0 0,317.83609 -317.83609,0 0,-317.83609 z" /></clipPath><clipPath
       id="clipPath7208"
       clipPathUnits="userSpaceOnUse"><path
         id="path7210"
         d="m 70.29375,34.075 317.83609,0 0,317.83609 -317.83609,0 0,-317.83609 z" /></clipPath><clipPath
       id="clipPath7224"
       clipPathUnits="userSpaceOnUse"><path
         id="path7226"
         d="m 70.29375,34.075 317.83609,0 0,317.83609 -317.83609,0 0,-317.83609 z" /></clipPath><clipPath
       id="clipPath7294"
       clipPathUnits="userSpaceOnUse"><path
         id="path7296"
         d="m 70.29375,34.075 317.83609,0 0,317.83609 -317.83609,0 0,-317.83609 z" /></clipPath></defs><g
     transform="matrix(1.25,0,0,-1.25,0,448.88887)"
     id="g6908"><path
       id="path6910"
       style="fill:#ffffff;fill-opacity:1;fill-rule:nonzero;stroke:none"
       d="m 0,0 401.32984,0 0,359.11109 L 0,359.11109 0,0 Z" /><path
       id="path6912"
       style="fill:#ffffff;fill-opacity:1;fill-rule:nonzero;stroke:none"
       d="m 70.29375,34.075 317.83609,0 0,317.83609 -317.83609,0 0,-317.83609 z" /><g
       id="g6914"><g
         clip-path="url(#clipPath6918)"
         id="g6916"><path
           id="path6922"
           style="fill:none;stroke:#2ca02c;stroke-width:2;stroke-linecap:square;stroke-linejoin:round;stroke-miterlimit:10;stroke-dasharray:none;stroke-opacity:1"
           d="m 70.29375,34.074998 1.468323,3.171679 1.468323,3.170618 1.468341,3.168499 1.468323,3.165316 1.468324,3.161066 1.468323,3.155741 1.468323,3.149334 1.468341,3.141836 1.468323,3.133235 1.468323,3.123519 1.468323,3.112673 1.468341,3.10068 1.468323,3.08752 1.468324,3.073176 1.468323,3.057621 1.468323,3.040832 1.468341,3.022779 1.468323,3.003434 1.468323,2.982763 1.468323,2.960727 1.468326,2.937291 1.46834,2.912413 1.46832,2.88603 1.46833,2.85812 1.46832,2.82861 1.46834,2.79745 1.46832,2.76456 1.46833,2.7299 1.46832,2.69339 1.46832,2.65494 1.46834,2.61449 1.46833,2.57192 1.46832,2.52718 1.46832,2.48015 1.46832,2.43072 1.46835,2.37882 1.46832,2.32431 1.46832,2.26708 1.46832,2.20703 1.46835,2.14404 1.46832,2.07798 1.46832,2.00876 1.46833,1.93625 1.46832,1.86037 1.46834,1.78101 1.46832,1.6981 1.46833,1.61158 1.46832,1.52141 1.46832,1.42757 1.46834,1.33008 1.46833,1.229 1.46832,1.1244 1.46832,1.01645 1.46834,0.90529 1.46833,0.79117 1.46832,0.67434 1.46832,0.55516 1.46833,0.43395 1.46834,0.31115 1.46832,0.18716 1.46832,0.0625" /></g></g><g
       id="g6924"><g
         clip-path="url(#clipPath6928)"
         id="g6926"><path
           id="path6932"
           style="fill:none;stroke:#2ca02c;stroke-width:2;stroke-linecap:square;stroke-linejoin:round;stroke-miterlimit:10;stroke-dasharray:none;stroke-opacity:1"
           d="m 70.29375,34.075 1.468323,3.171677 1.468323,3.170618 1.468341,3.168499 1.468323,3.165316 1.468324,3.161066 1.468323,3.155741 1.468323,3.149334 1.468341,3.141836 1.468323,3.133235 1.468323,3.123519 1.468323,3.112673 1.468341,3.10068 1.468323,3.08752 1.468324,3.073176 1.468323,3.057621 1.468323,3.040832 1.468341,3.022779 1.468323,3.003434 1.468323,2.982763 1.468323,2.960727 1.468326,2.937291 1.46834,2.912413 1.46832,2.88603 1.46833,2.85812 1.46832,2.82861 1.46834,2.79745 1.46832,2.76456 1.46833,2.7299 1.46832,2.69339 1.46832,2.65494 1.46834,2.61449 1.46833,2.57192 1.46832,2.52718 1.46832,2.48015 1.46832,2.43072 1.46835,2.37882 1.46832,2.32431 1.46832,2.26708 1.46832,2.20703 1.46835,2.14404 1.46832,2.07798 1.46832,2.00876 1.46833,1.93625 1.46832,1.86037 1.46834,1.78101 1.46832,1.6981 1.46833,1.61158 1.46832,1.52141 1.46832,1.42757 1.46834,1.33008 1.46833,1.229 1.46832,1.1244 1.46832,1.01645 1.46834,0.90529 1.46833,0.79117 1.46832,0.67434 1.46832,0.55516 1.46833,0.43395 1.46834,0.31115 1.46832,0.18716 1.46832,0.0625" /></g></g><g
       id="g6934"><g
         clip-path="url(#clipPath6938)"
         id="g6936"><path
           id="path6942"
           style="fill:none;stroke:#2ca02c;stroke-width:2;stroke-linecap:square;stroke-linejoin:round;stroke-miterlimit:10;stroke-dasharray:none;stroke-opacity:1"
           d="m 70.29375,34.075002 1.468323,3.171675 1.468323,3.170618 1.468341,3.168499 1.468323,3.165316 1.468324,3.161066 1.468323,3.155741 1.468323,3.149334 1.468341,3.141836 1.468323,3.133235 1.468323,3.123519 1.468323,3.112673 1.468341,3.10068 1.468323,3.08752 1.468324,3.073176 1.468323,3.057621 1.468323,3.040832 1.468341,3.022779 1.468323,3.003434 1.468323,2.982763 1.468323,2.960727 1.468326,2.937291 1.46834,2.912413 1.46832,2.88603 1.46833,2.85812 1.46832,2.82861 1.46834,2.79745 1.46832,2.76456 1.46833,2.7299 1.46832,2.69339 1.46832,2.65494 1.46834,2.61449 1.46833,2.57192 1.46832,2.52718 1.46832,2.48015 1.46832,2.43072 1.46835,2.37882 1.46832,2.32431 1.46832,2.26708 1.46832,2.20703 1.46835,2.14404 1.46832,2.07798 1.46832,2.00876 1.46833,1.93625 1.46832,1.86037 1.46834,1.78101 1.46832,1.6981 1.46833,1.61158 1.46832,1.52141 1.46832,1.42757 1.46834,1.33008 1.46833,1.229 1.46832,1.1244 1.46832,1.01645 1.46834,0.90529 1.46833,0.79117 1.46832,0.67434 1.46832,0.55516 1.46833,0.43395 1.46834,0.31115 1.46832,0.18716 1.46832,0.0625" /></g></g><g
       id="g6944"><g
         clip-path="url(#clipPath6948)"
         id="g6946"><path
           id="path6952"
           style="fill:none;stroke:#2ca02c;stroke-width:2;stroke-linecap:square;stroke-linejoin:round;stroke-miterlimit:10;stroke-dasharray:none;stroke-opacity:1"
           d="m 70.29375,336.77604 1.468323,-0.0166 1.468323,-0.0498 1.468341,-0.083 1.468323,-0.11608 1.468324,-0.14905 1.468323,-0.18186 1.468323,-0.21449 1.468341,-0.24688 1.468323,-0.27904 1.468323,-0.31088 1.468323,-0.3424 1.468341,-0.37353 1.468323,-0.40426 1.468324,-0.43453 1.468323,-0.4643 1.468323,-0.49353 1.468341,-0.52215 1.468323,-0.55014 1.468323,-0.57744 1.468323,-0.60397 1.468326,-0.62971 1.46834,-0.65457 1.46832,-0.67851 1.46833,-0.70145 1.46832,-0.72332 1.46834,-0.74404 1.46832,-0.76355 1.46833,-0.78175 1.46832,-0.79856 1.46832,-0.81388 1.46834,-0.82763 1.46833,-0.8397 1.46832,-0.84997 1.46832,-0.85835 1.46832,-0.86472 1.46835,-0.86895 1.46832,-0.87093 1.46832,-0.87052 1.46832,-0.86761 1.46835,-0.86204 1.46832,-0.85371 1.46832,-0.84249 1.46833,-0.82823 1.46832,-0.81086 1.46834,-0.79023 1.46832,-0.76628 1.46833,-0.73891 1.46832,-0.70809 1.46832,-0.67379 1.46834,-0.63599 1.46833,-0.59476 1.46832,-0.55015 1.46832,-0.50231 1.46834,-0.45137 1.46833,-0.39757 1.46832,-0.34116 1.46832,-0.28245 1.46833,-0.22179 1.46834,-0.15956 1.46832,-0.0962 1.46832,-0.0321" /></g></g><g
       id="g6954"><g
         clip-path="url(#clipPath6958)"
         id="g6956"><path
           id="path6962"
           style="fill:none;stroke:#2ca02c;stroke-width:2;stroke-linecap:square;stroke-linejoin:round;stroke-miterlimit:10;stroke-dasharray:none;stroke-opacity:1"
           d="m 70.29375,336.77604 1.468323,-0.0166 1.468323,-0.0498 1.468341,-0.083 1.468323,-0.11608 1.468324,-0.14905 1.468323,-0.18186 1.468323,-0.21449 1.468341,-0.24688 1.468323,-0.27904 1.468323,-0.31088 1.468323,-0.3424 1.468341,-0.37353 1.468323,-0.40426 1.468324,-0.43453 1.468323,-0.4643 1.468323,-0.49353 1.468341,-0.52215 1.468323,-0.55014 1.468323,-0.57744 1.468323,-0.60397 1.468326,-0.62971 1.46834,-0.65457 1.46832,-0.67851 1.46833,-0.70145 1.46832,-0.72332 1.46834,-0.74404 1.46832,-0.76355 1.46833,-0.78175 1.46832,-0.79856 1.46832,-0.81388 1.46834,-0.82763 1.46833,-0.8397 1.46832,-0.84997 1.46832,-0.85835 1.46832,-0.86472 1.46835,-0.86895 1.46832,-0.87093 1.46832,-0.87052 1.46832,-0.86761 1.46835,-0.86204 1.46832,-0.85371 1.46832,-0.84249 1.46833,-0.82823 1.46832,-0.81086 1.46834,-0.79023 1.46832,-0.76628 1.46833,-0.73891 1.46832,-0.70809 1.46832,-0.67379 1.46834,-0.63599 1.46833,-0.59476 1.46832,-0.55015 1.46832,-0.50231 1.46834,-0.45137 1.46833,-0.39757 1.46832,-0.34116 1.46832,-0.28245 1.46833,-0.22179 1.46834,-0.15956 1.46832,-0.0962 1.46832,-0.0321" /></g></g><g
       id="g6964"><g
         clip-path="url(#clipPath6968)"
         id="g6966"><path
           id="path6972"
           style="fill:none;stroke:#2ca02c;stroke-width:2;stroke-linecap:square;stroke-linejoin:round;stroke-miterlimit:10;stroke-dasharray:none;stroke-opacity:1"
           d="m 70.29375,336.77604 1.468323,-0.0166 1.468323,-0.0498 1.468341,-0.083 1.468323,-0.11608 1.468324,-0.14905 1.468323,-0.18186 1.468323,-0.21449 1.468341,-0.24688 1.468323,-0.27904 1.468323,-0.31088 1.468323,-0.3424 1.468341,-0.37353 1.468323,-0.40426 1.468324,-0.43453 1.468323,-0.4643 1.468323,-0.49353 1.468341,-0.52215 1.468323,-0.55014 1.468323,-0.57744 1.468323,-0.60397 1.468326,-0.62971 1.46834,-0.65457 1.46832,-0.67851 1.46833,-0.70145 1.46832,-0.72332 1.46834,-0.74404 1.46832,-0.76355 1.46833,-0.78175 1.46832,-0.79856 1.46832,-0.81388 1.46834,-0.82763 1.46833,-0.8397 1.46832,-0.84997 1.46832,-0.85835 1.46832,-0.86472 1.46835,-0.86895 1.46832,-0.87093 1.46832,-0.87052 1.46832,-0.86761 1.46835,-0.86204 1.46832,-0.85371 1.46832,-0.84249 1.46833,-0.82823 1.46832,-0.81086 1.46834,-0.79023 1.46832,-0.76628 1.46833,-0.73891 1.46832,-0.70809 1.46832,-0.67379 1.46834,-0.63599 1.46833,-0.59476 1.46832,-0.55015 1.46832,-0.50231 1.46834,-0.45137 1.46833,-0.39757 1.46832,-0.34116 1.46832,-0.28245 1.46833,-0.22179 1.46834,-0.15956 1.46832,-0.0962 1.46832,-0.0321" /></g></g><g
       id="g6974"><g
         clip-path="url(#clipPath6978)"
         id="g6976"><path
           id="path6982"
           style="fill:none;stroke:#2ca02c;stroke-width:2;stroke-linecap:square;stroke-linejoin:round;stroke-miterlimit:10;stroke-dasharray:none;stroke-opacity:1"
           d="m 159.86169,172.61014 1.46264,0.031 1.46264,0.0929 1.46264,0.15445 1.46264,0.2155 1.46264,0.27584 1.46263,0.33526 1.46264,0.39356 1.46264,0.45057 1.46264,0.50609 1.46264,0.55995 1.46264,0.61198 1.46263,0.66204 1.46264,0.70994 1.46264,0.75557 1.46264,0.79876 1.46264,0.8394 1.46264,0.87737 1.46263,0.91252 1.46264,0.94477 1.46264,0.974 1.46264,1.0001 1.46264,1.02296 1.46264,1.04249 1.46264,1.0586 1.46263,1.07116 1.46264,1.08009 1.46264,1.08529 1.46264,1.08665 1.46264,1.08407 1.46264,1.07745 1.46263,1.06668 1.46264,1.05165 1.46264,1.03226 1.46264,1.00843 1.46264,0.98006 1.46264,0.94706 1.46263,0.90941 1.46264,0.86704 1.46264,0.81997 1.46264,0.76822 1.46264,0.71187 1.46264,0.65107 1.46263,0.58601 1.46264,0.51693 1.46264,0.4442 1.46264,0.3682 1.46264,0.28941 1.46264,0.20837 1.46264,0.1257 1.46263,0.042" /></g></g><g
       id="g6984"><g
         clip-path="url(#clipPath6988)"
         id="g6986"><path
           id="path6992"
           style="fill:none;stroke:#2ca02c;stroke-width:2;stroke-linecap:square;stroke-linejoin:round;stroke-miterlimit:10;stroke-dasharray:none;stroke-opacity:1"
           d="m 159.86169,172.61014 1.46264,0.031 1.46264,0.0929 1.46264,0.15445 1.46264,0.2155 1.46264,0.27584 1.46263,0.33526 1.46264,0.39356 1.46264,0.45057 1.46264,0.50609 1.46264,0.55995 1.46264,0.61198 1.46263,0.66204 1.46264,0.70994 1.46264,0.75557 1.46264,0.79876 1.46264,0.8394 1.46264,0.87737 1.46263,0.91252 1.46264,0.94477 1.46264,0.974 1.46264,1.0001 1.46264,1.02296 1.46264,1.04249 1.46264,1.0586 1.46263,1.07116 1.46264,1.08009 1.46264,1.08529 1.46264,1.08665 1.46264,1.08407 1.46264,1.07745 1.46263,1.06668 1.46264,1.05165 1.46264,1.03226 1.46264,1.00843 1.46264,0.98006 1.46264,0.94706 1.46263,0.90941 1.46264,0.86704 1.46264,0.81997 1.46264,0.76822 1.46264,0.71187 1.46264,0.65107 1.46263,0.58601 1.46264,0.51693 1.46264,0.4442 1.46264,0.3682 1.46264,0.28941 1.46264,0.20837 1.46264,0.1257 1.46263,0.042" /></g></g><g
       id="g6994"><g
         clip-path="url(#clipPath6998)"
         id="g6996"><path
           id="path7002"
           style="fill:none;stroke:#2ca02c;stroke-width:2;stroke-linecap:square;stroke-linejoin:round;stroke-miterlimit:10;stroke-dasharray:none;stroke-opacity:1"
           d="m 159.86169,172.61014 1.46264,0.031 1.46264,0.0929 1.46264,0.15445 1.46264,0.2155 1.46264,0.27584 1.46263,0.33526 1.46264,0.39356 1.46264,0.45057 1.46264,0.50609 1.46264,0.55995 1.46264,0.61198 1.46263,0.66204 1.46264,0.70994 1.46264,0.75557 1.46264,0.79876 1.46264,0.8394 1.46264,0.87737 1.46263,0.91252 1.46264,0.94477 1.46264,0.974 1.46264,1.0001 1.46264,1.02296 1.46264,1.04249 1.46264,1.0586 1.46263,1.07116 1.46264,1.08009 1.46264,1.08529 1.46264,1.08665 1.46264,1.08407 1.46264,1.07745 1.46263,1.06668 1.46264,1.05165 1.46264,1.03226 1.46264,1.00843 1.46264,0.98006 1.46264,0.94706 1.46263,0.90941 1.46264,0.86704 1.46264,0.81997 1.46264,0.76822 1.46264,0.71187 1.46264,0.65107 1.46263,0.58601 1.46264,0.51693 1.46264,0.4442 1.46264,0.3682 1.46264,0.28941 1.46264,0.20837 1.46264,0.1257 1.46263,0.042" /></g></g><g
       id="g7004"><g
         clip-path="url(#clipPath7008)"
         id="g7006"><path
           id="path7012"
           style="fill:none;stroke:#2ca02c;stroke-width:2;stroke-linecap:square;stroke-linejoin:round;stroke-miterlimit:10;stroke-dasharray:none;stroke-opacity:1"
           d="m 159.86169,303.21425 1.46264,-0.016 1.46264,-0.0478 1.46264,-0.0796 1.46264,-0.11132 1.46264,-0.14281 1.46263,-0.17404 1.46264,-0.205 1.46264,-0.23559 1.46264,-0.26578 1.46264,-0.29548 1.46264,-0.32465 1.46263,-0.35323 1.46264,-0.38114 1.46264,-0.40832 1.46264,-0.43467 1.46264,-0.46016 1.46264,-0.48466 1.46263,-0.50812 1.46264,-0.53043 1.46264,-0.55152 1.46264,-0.57126 1.46264,-0.58955 1.46264,-0.6063 1.46264,-0.62137 1.46263,-0.63465 1.46264,-0.64598 1.46264,-0.65526 1.46264,-0.66232 1.46264,-0.66702 1.46264,-0.66919 1.46263,-0.66868 1.46264,-0.66534 1.46264,-0.65898 1.46264,-0.64947 1.46264,-0.63663 1.46264,-0.62034 1.46263,-0.60044 1.46264,-0.57687 1.46264,-0.54952 1.46264,-0.51837 1.46264,-0.48341 1.46264,-0.44472 1.46263,-0.4024 1.46264,-0.35666 1.46264,-0.30775 1.46264,-0.25598 1.46264,-0.20177 1.46264,-0.14559 1.46264,-0.088 1.46263,-0.0294" /></g></g><g
       id="g7014"><g
         clip-path="url(#clipPath7018)"
         id="g7016"><path
           id="path7022"
           style="fill:none;stroke:#2ca02c;stroke-width:2;stroke-linecap:square;stroke-linejoin:round;stroke-miterlimit:10;stroke-dasharray:none;stroke-opacity:1"
           d="m 159.86169,303.21425 1.46264,-0.016 1.46264,-0.0478 1.46264,-0.0796 1.46264,-0.11132 1.46264,-0.14281 1.46263,-0.17404 1.46264,-0.205 1.46264,-0.23559 1.46264,-0.26578 1.46264,-0.29548 1.46264,-0.32465 1.46263,-0.35323 1.46264,-0.38114 1.46264,-0.40832 1.46264,-0.43467 1.46264,-0.46016 1.46264,-0.48466 1.46263,-0.50812 1.46264,-0.53043 1.46264,-0.55152 1.46264,-0.57126 1.46264,-0.58955 1.46264,-0.6063 1.46264,-0.62137 1.46263,-0.63465 1.46264,-0.64598 1.46264,-0.65526 1.46264,-0.66232 1.46264,-0.66702 1.46264,-0.66919 1.46263,-0.66868 1.46264,-0.66534 1.46264,-0.65898 1.46264,-0.64947 1.46264,-0.63663 1.46264,-0.62034 1.46263,-0.60044 1.46264,-0.57687 1.46264,-0.54952 1.46264,-0.51837 1.46264,-0.48341 1.46264,-0.44472 1.46263,-0.4024 1.46264,-0.35666 1.46264,-0.30775 1.46264,-0.25598 1.46264,-0.20177 1.46264,-0.14559 1.46264,-0.088 1.46263,-0.0294" /></g></g><g
       id="g7024"><g
         clip-path="url(#clipPath7028)"
         id="g7026"><path
           id="path7032"
           style="fill:none;stroke:#2ca02c;stroke-width:2;stroke-linecap:square;stroke-linejoin:round;stroke-miterlimit:10;stroke-dasharray:none;stroke-opacity:1"
           d="m 159.86169,303.21425 1.46264,-0.016 1.46264,-0.0478 1.46264,-0.0796 1.46264,-0.11132 1.46264,-0.14281 1.46263,-0.17404 1.46264,-0.205 1.46264,-0.23559 1.46264,-0.26578 1.46264,-0.29548 1.46264,-0.32465 1.46263,-0.35323 1.46264,-0.38114 1.46264,-0.40832 1.46264,-0.43467 1.46264,-0.46016 1.46264,-0.48466 1.46263,-0.50812 1.46264,-0.53043 1.46264,-0.55152 1.46264,-0.57126 1.46264,-0.58955 1.46264,-0.6063 1.46264,-0.62137 1.46263,-0.63465 1.46264,-0.64598 1.46264,-0.65526 1.46264,-0.66232 1.46264,-0.66702 1.46264,-0.66919 1.46263,-0.66868 1.46264,-0.66534 1.46264,-0.65898 1.46264,-0.64947 1.46264,-0.63663 1.46264,-0.62034 1.46263,-0.60044 1.46264,-0.57687 1.46264,-0.54952 1.46264,-0.51837 1.46264,-0.48341 1.46264,-0.44472 1.46263,-0.4024 1.46264,-0.35666 1.46264,-0.30775 1.46264,-0.25598 1.46264,-0.20177 1.46264,-0.14559 1.46264,-0.088 1.46263,-0.0294" /></g></g><g
       id="g7034"><g
         clip-path="url(#clipPath7038)"
         id="g7036"><path
           id="path7042"
           style="fill:none;stroke:#2ca02c;stroke-width:2;stroke-linecap:square;stroke-linejoin:round;stroke-miterlimit:10;stroke-dasharray:none;stroke-opacity:1"
           d="m 232.99361,207.71499 1.43644,0 1.43646,0 1.43644,0 1.43645,0 1.43644,0 1.43646,0 1.43644,0 1.43646,0 1.43643,0 1.43644,0 1.43646,0 1.43644,0 1.43645,0 1.43644,0 1.43646,0 1.43644,0 1.43645,0 1.43644,0 1.43644,0 1.43646,0 1.43644,0 1.43645,0 1.43644,0 1.43646,0 1.43644,0 1.43645,0 1.43644,0 1.43644,0 1.43646,0 1.43643,0 1.43646,0 1.43644,0 1.43646,0 1.43643,0 1.43646,0 1.43644,0" /></g></g><g
       id="g7044"><g
         clip-path="url(#clipPath7048)"
         id="g7046"><path
           id="path7052"
           style="fill:none;stroke:#2ca02c;stroke-width:2;stroke-linecap:square;stroke-linejoin:round;stroke-miterlimit:10;stroke-dasharray:none;stroke-opacity:1"
           d="m 232.99361,207.71499 1.43644,0 1.43646,0 1.43644,0 1.43645,0 1.43644,0 1.43646,0 1.43644,0 1.43646,0 1.43643,0 1.43644,0 1.43646,0 1.43644,0 1.43645,0 1.43644,0 1.43646,0 1.43644,0 1.43645,0 1.43644,0 1.43644,0 1.43646,0 1.43644,0 1.43645,0 1.43644,0 1.43646,0 1.43644,0 1.43645,0 1.43644,0 1.43644,0 1.43646,0 1.43643,0 1.43646,0 1.43644,0 1.43646,0 1.43643,0 1.43646,0 1.43644,0" /></g></g><g
       id="g7054"><g
         clip-path="url(#clipPath7058)"
         id="g7056"><path
           id="path7062"
           style="fill:none;stroke:#2ca02c;stroke-width:2;stroke-linecap:square;stroke-linejoin:round;stroke-miterlimit:10;stroke-dasharray:none;stroke-opacity:1"
           d="m 232.99361,207.71499 1.43644,0 1.43646,0 1.43644,0 1.43645,0 1.43644,0 1.43646,0 1.43644,0 1.43646,0 1.43643,0 1.43644,0 1.43646,0 1.43644,0 1.43645,0 1.43644,0 1.43646,0 1.43644,0 1.43645,0 1.43644,0 1.43644,0 1.43646,0 1.43644,0 1.43645,0 1.43644,0 1.43646,0 1.43644,0 1.43645,0 1.43644,0 1.43644,0 1.43646,0 1.43643,0 1.43646,0 1.43644,0 1.43646,0 1.43643,0 1.43646,0 1.43644,0" /></g></g><g
       id="g7064"><g
         clip-path="url(#clipPath7068)"
         id="g7066"><path
           id="path7072"
           style="fill:none;stroke:#2ca02c;stroke-width:2;stroke-linecap:square;stroke-linejoin:round;stroke-miterlimit:10;stroke-dasharray:none;stroke-opacity:1"
           d="m 232.99361,282.02071 1.43644,0 1.43646,0 1.43644,0 1.43645,0 1.43644,0 1.43646,0 1.43644,0 1.43646,0 1.43643,0 1.43644,0 1.43646,0 1.43644,0 1.43645,0 1.43644,0 1.43646,0 1.43644,0 1.43645,0 1.43644,0 1.43644,0 1.43646,0 1.43644,0 1.43645,0 1.43644,0 1.43646,0 1.43644,0 1.43645,0 1.43644,0 1.43644,0 1.43646,0 1.43643,0 1.43646,0 1.43644,0 1.43646,0 1.43643,0 1.43646,0 1.43644,0" /></g></g><g
       id="g7074"><g
         clip-path="url(#clipPath7078)"
         id="g7076"><path
           id="path7082"
           style="fill:none;stroke:#2ca02c;stroke-width:2;stroke-linecap:square;stroke-linejoin:round;stroke-miterlimit:10;stroke-dasharray:none;stroke-opacity:1"
           d="m 232.99361,282.02071 1.43644,0 1.43646,0 1.43644,0 1.43645,0 1.43644,0 1.43646,0 1.43644,0 1.43646,0 1.43643,0 1.43644,0 1.43646,0 1.43644,0 1.43645,0 1.43644,0 1.43646,0 1.43644,0 1.43645,0 1.43644,0 1.43644,0 1.43646,0 1.43644,0 1.43645,0 1.43644,0 1.43646,0 1.43644,0 1.43645,0 1.43644,0 1.43644,0 1.43646,0 1.43643,0 1.43646,0 1.43644,0 1.43646,0 1.43643,0 1.43646,0 1.43644,0" /></g></g><g
       id="g7084"><g
         clip-path="url(#clipPath7088)"
         id="g7086"><path
           id="path7092"
           style="fill:none;stroke:#2ca02c;stroke-width:2;stroke-linecap:square;stroke-linejoin:round;stroke-miterlimit:10;stroke-dasharray:none;stroke-opacity:1"
           d="m 232.99361,282.02071 1.43644,0 1.43646,0 1.43644,0 1.43645,0 1.43644,0 1.43646,0 1.43644,0 1.43646,0 1.43643,0 1.43644,0 1.43646,0 1.43644,0 1.43645,0 1.43644,0 1.43646,0 1.43644,0 1.43645,0 1.43644,0 1.43644,0 1.43646,0 1.43644,0 1.43645,0 1.43644,0 1.43646,0 1.43644,0 1.43645,0 1.43644,0 1.43644,0 1.43646,0 1.43643,0 1.43646,0 1.43644,0 1.43646,0 1.43643,0 1.43646,0 1.43644,0" /></g></g><g
       id="g7094"><g
         clip-path="url(#clipPath7098)"
         id="g7096"><path
           id="path7102"
           style="fill:none;stroke:#2ca02c;stroke-width:2;stroke-linecap:square;stroke-linejoin:round;stroke-miterlimit:10;stroke-dasharray:none;stroke-opacity:1"
           d="m 284.70569,207.71499 1.45669,-0.0833 1.45667,-0.24914 1.45668,-0.41248 1.45667,-0.57184 1.45669,-0.72594 1.45667,-0.87374 1.45668,-1.01445 1.45667,-1.14761 1.45669,-1.27295 1.45666,-1.39043 1.45669,-1.5002 1.45667,-1.60252 1.45669,-1.69777 1.45666,-1.78633 1.45669,-1.86868 1.45669,-1.94527 1.45667,-2.01654 1.45669,-2.08295 1.45666,-2.14489 1.45669,-2.20276 1.45667,-2.2569 1.45669,-2.30764 1.45666,-2.35527 1.45669,-2.40007 1.45667,-2.44226 1.45669,-2.48207 1.45666,-2.51968 1.45669,-2.55529 1.45669,-2.58902 1.45667,-2.62104 1.45668,-2.65144 1.45667,-2.68037 1.45669,-2.70789 1.45667,-2.73412 1.45668,-2.75913 1.45667,-2.78298 1.45669,-2.80575 1.45667,-2.82748 1.45668,-2.84825 1.45667,-2.86807 1.45669,-2.88701 1.45667,-2.90511 1.45668,-2.92237 1.45669,-2.93886 1.45667,-2.95458 1.45669,-2.96957 1.45666,-2.98386 1.45669,-2.99744 1.45667,-3.01037 1.45669,-3.022622 1.45666,-3.03425 1.45669,-3.045248 1.45667,-3.055633 1.45669,-3.065416 1.45666,-3.074607 1.45669,-3.083217 1.45669,-3.091253 1.45667,-3.098722 1.45668,-3.105633 1.45667,-3.11199 1.45669,-3.1178 1.45667,-3.123068 1.45668,-3.127795 1.45667,-3.13199 1.45669,-3.135653 1.45667,-3.138788 1.45668,-3.141396 1.45667,-3.14348 1.45669,-3.145042 1.45667,-3.146084 1.45668,-3.146605" /></g></g><g
       id="g7104"><g
         clip-path="url(#clipPath7108)"
         id="g7106"><path
           id="path7112"
           style="fill:none;stroke:#2ca02c;stroke-width:2;stroke-linecap:square;stroke-linejoin:round;stroke-miterlimit:10;stroke-dasharray:none;stroke-opacity:1"
           d="m 284.70569,207.71499 1.45669,-0.0833 1.45667,-0.24914 1.45668,-0.41248 1.45667,-0.57184 1.45669,-0.72594 1.45667,-0.87374 1.45668,-1.01445 1.45667,-1.14761 1.45669,-1.27295 1.45666,-1.39043 1.45669,-1.5002 1.45667,-1.60252 1.45669,-1.69777 1.45666,-1.78633 1.45669,-1.86868 1.45669,-1.94527 1.45667,-2.01654 1.45669,-2.08295 1.45666,-2.14489 1.45669,-2.20276 1.45667,-2.2569 1.45669,-2.30764 1.45666,-2.35527 1.45669,-2.40007 1.45667,-2.44226 1.45669,-2.48207 1.45666,-2.51968 1.45669,-2.55529 1.45669,-2.58902 1.45667,-2.62104 1.45668,-2.65144 1.45667,-2.68037 1.45669,-2.70789 1.45667,-2.73412 1.45668,-2.75913 1.45667,-2.78298 1.45669,-2.80575 1.45667,-2.82748 1.45668,-2.84825 1.45667,-2.86807 1.45669,-2.88701 1.45667,-2.90511 1.45668,-2.92237 1.45669,-2.93886 1.45667,-2.95458 1.45669,-2.96957 1.45666,-2.98386 1.45669,-2.99744 1.45667,-3.01037 1.45669,-3.022622 1.45666,-3.03425 1.45669,-3.045248 1.45667,-3.055633 1.45669,-3.065416 1.45666,-3.074607 1.45669,-3.083217 1.45669,-3.091253 1.45667,-3.098722 1.45668,-3.105633 1.45667,-3.11199 1.45669,-3.1178 1.45667,-3.123068 1.45668,-3.127795 1.45667,-3.13199 1.45669,-3.135653 1.45667,-3.138788 1.45668,-3.141396 1.45667,-3.14348 1.45669,-3.145042 1.45667,-3.146084 1.45668,-3.146603" /></g></g><g
       id="g7114"><g
         clip-path="url(#clipPath7118)"
         id="g7116"><path
           id="path7122"
           style="fill:none;stroke:#2ca02c;stroke-width:2;stroke-linecap:square;stroke-linejoin:round;stroke-miterlimit:10;stroke-dasharray:none;stroke-opacity:1"
           d="m 284.70569,207.71499 1.45669,-0.0833 1.45667,-0.24914 1.45668,-0.41248 1.45667,-0.57184 1.45669,-0.72594 1.45667,-0.87374 1.45668,-1.01445 1.45667,-1.14761 1.45669,-1.27295 1.45666,-1.39043 1.45669,-1.5002 1.45667,-1.60252 1.45669,-1.69777 1.45666,-1.78633 1.45669,-1.86868 1.45669,-1.94527 1.45667,-2.01654 1.45669,-2.08295 1.45666,-2.14489 1.45669,-2.20276 1.45667,-2.2569 1.45669,-2.30764 1.45666,-2.35527 1.45669,-2.40007 1.45667,-2.44226 1.45669,-2.48207 1.45666,-2.51968 1.45669,-2.55529 1.45669,-2.58902 1.45667,-2.62104 1.45668,-2.65144 1.45667,-2.68037 1.45669,-2.70789 1.45667,-2.73412 1.45668,-2.75913 1.45667,-2.78298 1.45669,-2.80575 1.45667,-2.82748 1.45668,-2.84825 1.45667,-2.86807 1.45669,-2.88701 1.45667,-2.90511 1.45668,-2.92237 1.45669,-2.93886 1.45667,-2.95458 1.45669,-2.96957 1.45666,-2.98386 1.45669,-2.99744 1.45667,-3.01037 1.45669,-3.022622 1.45666,-3.03425 1.45669,-3.045248 1.45667,-3.055633 1.45669,-3.065416 1.45666,-3.074607 1.45669,-3.083217 1.45669,-3.091253 1.45667,-3.098722 1.45668,-3.105633 1.45667,-3.11199 1.45669,-3.1178 1.45667,-3.123068 1.45668,-3.127795 1.45667,-3.13199 1.45669,-3.135653 1.45667,-3.138788 1.45668,-3.141396 1.45667,-3.14348 1.45669,-3.145042 1.45667,-3.146084 1.45668,-3.146601" /></g></g><g
       id="g7124"><g
         clip-path="url(#clipPath7128)"
         id="g7126"><path
           id="path7132"
           style="fill:none;stroke:#2ca02c;stroke-width:2;stroke-linecap:square;stroke-linejoin:round;stroke-miterlimit:10;stroke-dasharray:none;stroke-opacity:1"
           d="m 284.70569,282.02071 1.45669,0.0583 1.45667,0.17416 1.45668,0.28753 1.45667,0.39695 1.45669,0.50111 1.45667,0.599 1.45668,0.68986 1.45667,0.77319 1.45669,0.84875 1.45666,0.91653 1.45669,0.97665 1.45667,1.02939 1.45669,1.07512 1.45666,1.11428 1.45669,1.14729 1.45669,1.17465 1.45667,1.19679 1.45669,1.21418 1.45666,1.22722 1.45669,1.23631 1.45667,1.2418 1.45669,1.24403 1.45666,1.2433 1.45669,1.23987 1.45667,1.23401 1.45669,1.22593 1.45666,1.21581 1.45669,1.20387 1.45669,1.19023 1.45667,1.17508 1.45668,1.15851 1.45667,1.14065 1.45669,1.12162 1.45667,1.10151 1.45668,1.08039 1.45667,1.05835 1.45669,1.03547 1.45667,1.0118 1.45668,0.98741 1.45667,0.96233 1.45669,0.93665 1.45667,0.91037 1.45668,0.88356 1.45669,0.85625 1.45667,0.82847 1.45669,0.80026 1.45666,0.77164 1.45669,0.74265 1.45667,0.7133 1.45669,0.68364 1.45666,0.65365 1.45669,0.6234 1.45667,0.59288 1.45669,0.56211 1.45666,0.53112 1.45669,0.49992 1.45669,0.46851 1.45667,0.43695 1.45668,0.40521 1.45667,0.37332 1.45669,0.3413 1.45667,0.30915 1.45668,0.2769 1.45667,0.24455 1.45669,0.21211 1.45667,0.1796 1.45668,0.14703 1.45667,0.11441 1.45669,0.0817 1.45667,0.0491 1.45668,0.0164" /></g></g><g
       id="g7134"><g
         clip-path="url(#clipPath7138)"
         id="g7136"><path
           id="path7142"
           style="fill:none;stroke:#2ca02c;stroke-width:2;stroke-linecap:square;stroke-linejoin:round;stroke-miterlimit:10;stroke-dasharray:none;stroke-opacity:1"
           d="m 284.70569,282.02071 1.45669,0.0583 1.45667,0.17416 1.45668,0.28753 1.45667,0.39695 1.45669,0.50111 1.45667,0.599 1.45668,0.68986 1.45667,0.77319 1.45669,0.84875 1.45666,0.91653 1.45669,0.97665 1.45667,1.02939 1.45669,1.07512 1.45666,1.11428 1.45669,1.14729 1.45669,1.17465 1.45667,1.19679 1.45669,1.21418 1.45666,1.22722 1.45669,1.23631 1.45667,1.2418 1.45669,1.24403 1.45666,1.2433 1.45669,1.23987 1.45667,1.23401 1.45669,1.22593 1.45666,1.21581 1.45669,1.20387 1.45669,1.19023 1.45667,1.17508 1.45668,1.15851 1.45667,1.14065 1.45669,1.12162 1.45667,1.10151 1.45668,1.08039 1.45667,1.05835 1.45669,1.03547 1.45667,1.0118 1.45668,0.98741 1.45667,0.96233 1.45669,0.93665 1.45667,0.91037 1.45668,0.88356 1.45669,0.85625 1.45667,0.82847 1.45669,0.80026 1.45666,0.77164 1.45669,0.74265 1.45667,0.7133 1.45669,0.68364 1.45666,0.65365 1.45669,0.6234 1.45667,0.59288 1.45669,0.56211 1.45666,0.53112 1.45669,0.49992 1.45669,0.46851 1.45667,0.43695 1.45668,0.40521 1.45667,0.37332 1.45669,0.3413 1.45667,0.30915 1.45668,0.2769 1.45667,0.24455 1.45669,0.21211 1.45667,0.1796 1.45668,0.14703 1.45667,0.11441 1.45669,0.0817 1.45667,0.0491 1.45668,0.0164" /></g></g><g
       id="g7144"><g
         clip-path="url(#clipPath7148)"
         id="g7146"><path
           id="path7152"
           style="fill:none;stroke:#2ca02c;stroke-width:2;stroke-linecap:square;stroke-linejoin:round;stroke-miterlimit:10;stroke-dasharray:none;stroke-opacity:1"
           d="m 284.70569,282.02071 1.45669,0.0583 1.45667,0.17416 1.45668,0.28753 1.45667,0.39695 1.45669,0.50111 1.45667,0.599 1.45668,0.68986 1.45667,0.77319 1.45669,0.84875 1.45666,0.91653 1.45669,0.97665 1.45667,1.02939 1.45669,1.07512 1.45666,1.11428 1.45669,1.14729 1.45669,1.17465 1.45667,1.19679 1.45669,1.21418 1.45666,1.22722 1.45669,1.23631 1.45667,1.2418 1.45669,1.24403 1.45666,1.2433 1.45669,1.23987 1.45667,1.23401 1.45669,1.22593 1.45666,1.21581 1.45669,1.20387 1.45669,1.19023 1.45667,1.17508 1.45668,1.15851 1.45667,1.14065 1.45669,1.12162 1.45667,1.10151 1.45668,1.08039 1.45667,1.05835 1.45669,1.03547 1.45667,1.0118 1.45668,0.98741 1.45667,0.96233 1.45669,0.93665 1.45667,0.91037 1.45668,0.88356 1.45669,0.85625 1.45667,0.82847 1.45669,0.80026 1.45666,0.77164 1.45669,0.74265 1.45667,0.7133 1.45669,0.68364 1.45666,0.65365 1.45669,0.6234 1.45667,0.59288 1.45669,0.56211 1.45666,0.53112 1.45669,0.49992 1.45669,0.46851 1.45667,0.43695 1.45668,0.40521 1.45667,0.37332 1.45669,0.3413 1.45667,0.30915 1.45668,0.2769 1.45667,0.24455 1.45669,0.21211 1.45667,0.1796 1.45668,0.14703 1.45667,0.11441 1.45669,0.0817 1.45667,0.0491 1.45668,0.0164" /></g></g><g
       id="g7154"><g
         clip-path="url(#clipPath7158)"
         id="g7156"><path
           id="path7162"
           style="fill:none;stroke:#000000;stroke-width:1.5;stroke-linecap:square;stroke-linejoin:round;stroke-miterlimit:10;stroke-dasharray:none;stroke-opacity:1"
           d="m 70.29375,34.075 0,317.83609" /></g></g><g
       id="g7164"><g
         transform="translate(64.29375,11.2625)"
         id="g7166"><text
           id="text7168"
           style="font-variant:normal;font-weight:normal;font-size:22px;font-family:STIXNonUnicode;-inkscape-font-specification:STIXNonUnicode-Regular;writing-mode:lr-tb;fill:#000000;fill-opacity:1;fill-rule:nonzero;stroke:none"
           transform="matrix(1,0,0,-1,0,0.4375)"><tspan
             id="tspan7170"
             y="0"
             x="0"></tspan></text>
</g></g><g
       id="g7172"><g
         clip-path="url(#clipPath7176)"
         id="g7174"><path
           id="path7180"
           style="fill:none;stroke:#000000;stroke-width:1.5;stroke-linecap:square;stroke-linejoin:round;stroke-miterlimit:10;stroke-dasharray:none;stroke-opacity:1"
           d="m 159.86169,34.075 0,317.83609" /></g></g><g
       id="g7182"><text
         id="text7184"
         style="font-variant:normal;font-weight:normal;font-size:22px;font-family:Whitney;-inkscape-font-specification:Whitney-Book;writing-mode:lr-tb;fill:#000000;fill-opacity:1;fill-rule:nonzero;stroke:none"
         transform="matrix(1,0,0,-1,154.73669,11.2625)"><tspan
           style="-inkscape-font-specification:'sans-serif, Normal';font-family:sans-serif;font-weight:normal;font-style:normal;font-stretch:normal;font-variant:normal;font-size:18px;text-anchor:start;text-align:start;writing-mode:lr;line-height:125%"
           id="tspan7186"
           y="0"
           x="0">L</tspan></text>
</g><g
       id="g7188"><g
         clip-path="url(#clipPath7192)"
         id="g7190"><path
           id="path7196"
           style="fill:none;stroke:#000000;stroke-width:1.5;stroke-linecap:square;stroke-linejoin:round;stroke-miterlimit:10;stroke-dasharray:none;stroke-opacity:1"
           d="m 232.99361,34.075 0,317.83609" /></g></g><g
       id="g7198"><text
         id="text7200"
         style="font-variant:normal;font-weight:normal;font-size:22px;font-family:Whitney;-inkscape-font-specification:Whitney-Book;writing-mode:lr-tb;fill:#000000;fill-opacity:1;fill-rule:nonzero;stroke:none"
         transform="matrix(1,0,0,-1,221.70455,11.2625)"><tspan
           style="-inkscape-font-specification:'sans-serif, Normal';font-family:sans-serif;font-weight:normal;font-style:normal;font-stretch:normal;font-variant:normal;font-size:18px;text-anchor:start;text-align:start;writing-mode:lr;line-height:125%"
           id="tspan7202"
           y="0"
           x="0">W</tspan></text>
</g><g
       id="g7204"><g
         clip-path="url(#clipPath7208)"
         id="g7206"><path
           id="path7212"
           style="fill:none;stroke:#000000;stroke-width:1.5;stroke-linecap:square;stroke-linejoin:round;stroke-miterlimit:10;stroke-dasharray:none;stroke-opacity:1"
           d="m 284.70569,34.075 0,317.83609" /></g></g><g
       id="g7214"><text
         id="text7216"
         style="font-variant:normal;font-weight:normal;font-size:22px;font-family:Whitney;-inkscape-font-specification:Whitney-Book;writing-mode:lr-tb;fill:#000000;fill-opacity:1;fill-rule:nonzero;stroke:none"
         transform="matrix(1,0,0,-1,277.72132,11.2625)"><tspan
           style="-inkscape-font-specification:'sans-serif, Normal';font-family:sans-serif;font-weight:normal;font-style:normal;font-stretch:normal;font-variant:normal;font-size:18px;text-anchor:start;text-align:start;writing-mode:lr;line-height:125%"
           id="tspan7218"
           y="0"
           x="0">X</tspan></text>
</g><g
       id="g7220"><g
         clip-path="url(#clipPath7224)"
         id="g7222"><path
           id="path7228"
           style="fill:none;stroke:#000000;stroke-width:1.5;stroke-linecap:square;stroke-linejoin:round;stroke-miterlimit:10;stroke-dasharray:none;stroke-opacity:1"
           d="m 388.12984,34.075 0,317.83609" /></g></g><g
       id="g7230"><g
         transform="translate(382.12984,11.2625)"
         id="g7232"><text
           id="text7234"
           style="font-variant:normal;font-weight:normal;font-size:22px;font-family:STIXNonUnicode;-inkscape-font-specification:STIXNonUnicode-Regular;writing-mode:lr-tb;fill:#000000;fill-opacity:1;fill-rule:nonzero;stroke:none"
           transform="matrix(1,0,0,-1,0,0.4375)"><tspan
             id="tspan7236"
             y="0"
             x="0"></tspan></text>
</g><path
         id="path7238"
         style="fill:#000000;fill-opacity:1;fill-rule:nonzero;stroke:#000000;stroke-width:1.5;stroke-linecap:butt;stroke-linejoin:round;stroke-miterlimit:10;stroke-dasharray:none;stroke-opacity:1"
         d="m 70.29375,34.075 15,0" /><path
         id="path7240"
         style="fill:#000000;fill-opacity:1;fill-rule:nonzero;stroke:#000000;stroke-width:1.5;stroke-linecap:butt;stroke-linejoin:round;stroke-miterlimit:10;stroke-dasharray:none;stroke-opacity:1"
         d="m 388.12984,34.075 -15,0" /><text
         id="text7242"
         style="font-variant:normal;font-weight:normal;font-size:18px;font-family:sans-serif;-inkscape-font-specification:'sans-serif, Normal';writing-mode:lr;fill:#000000;fill-opacity:1;fill-rule:nonzero;stroke:none;font-style:normal;font-stretch:normal;text-anchor:start;text-align:start;line-height:125%;"
         transform="matrix(1,0,0,-1,31.3875,26.16875)"><tspan
           id="tspan7244"
           y="0"
           x="0 13.552 18.370001">0.0</tspan></text>
<path
         id="path7246"
         style="fill:#000000;fill-opacity:1;fill-rule:nonzero;stroke:#000000;stroke-width:1.5;stroke-linecap:butt;stroke-linejoin:round;stroke-miterlimit:10;stroke-dasharray:none;stroke-opacity:1"
         d="m 70.29375,88.400598 15,0" /><path
         id="path7248"
         style="fill:#000000;fill-opacity:1;fill-rule:nonzero;stroke:#000000;stroke-width:1.5;stroke-linecap:butt;stroke-linejoin:round;stroke-miterlimit:10;stroke-dasharray:none;stroke-opacity:1"
         d="m 388.12984,88.400598 -15,0" /><text
         id="text7250"
         style="font-variant:normal;font-weight:normal;font-size:18px;font-family:sans-serif;-inkscape-font-specification:'sans-serif, Normal';writing-mode:lr;fill:#000000;fill-opacity:1;fill-rule:nonzero;stroke:none;font-style:normal;font-stretch:normal;text-anchor:start;text-align:start;line-height:125%;"
         transform="matrix(1,0,0,-1,38.91875,80.494348)"><tspan
           id="tspan7252"
           y="0"
           x="0 7.8099999 12.628">1.5</tspan></text>
<path
         id="path7254"
         style="fill:#000000;fill-opacity:1;fill-rule:nonzero;stroke:#000000;stroke-width:1.5;stroke-linecap:butt;stroke-linejoin:round;stroke-miterlimit:10;stroke-dasharray:none;stroke-opacity:1"
         d="m 70.29375,142.7262 15,0" /><path
         id="path7256"
         style="fill:#000000;fill-opacity:1;fill-rule:nonzero;stroke:#000000;stroke-width:1.5;stroke-linecap:butt;stroke-linejoin:round;stroke-miterlimit:10;stroke-dasharray:none;stroke-opacity:1"
         d="m 388.12984,142.7262 -15,0" /><text
         id="text7258"
         style="font-variant:normal;font-weight:normal;font-size:18px;font-family:sans-serif;-inkscape-font-specification:'sans-serif, Normal';writing-mode:lr;fill:#000000;fill-opacity:1;fill-rule:nonzero;stroke:none;font-style:normal;font-stretch:normal;text-anchor:start;text-align:start;line-height:125%;"
         transform="matrix(1,0,0,-1,33.434375,134.81995)"><tspan
           id="tspan7260"
           y="0"
           x="0 11.506 16.323999">3.0</tspan></text>
<path
         id="path7262"
         style="fill:#000000;fill-opacity:1;fill-rule:nonzero;stroke:#000000;stroke-width:1.5;stroke-linecap:butt;stroke-linejoin:round;stroke-miterlimit:10;stroke-dasharray:none;stroke-opacity:1"
         d="m 70.29375,197.05179 15,0" /><path
         id="path7264"
         style="fill:#000000;fill-opacity:1;fill-rule:nonzero;stroke:#000000;stroke-width:1.5;stroke-linecap:butt;stroke-linejoin:round;stroke-miterlimit:10;stroke-dasharray:none;stroke-opacity:1"
         d="m 388.12984,197.05179 -15,0" /><text
         id="text7266"
         style="font-variant:normal;font-weight:normal;font-size:18px;font-family:sans-serif;-inkscape-font-specification:'sans-serif, Normal';writing-mode:lr;fill:#000000;fill-opacity:1;fill-rule:nonzero;stroke:none;font-style:normal;font-stretch:normal;text-anchor:start;text-align:start;line-height:125%;"
         transform="matrix(1,0,0,-1,33.684375,189.14555)"><tspan
           id="tspan7268"
           y="0"
           x="0 13.046 17.864">4.5</tspan></text>
<path
         id="path7270"
         style="fill:#000000;fill-opacity:1;fill-rule:nonzero;stroke:#000000;stroke-width:1.5;stroke-linecap:butt;stroke-linejoin:round;stroke-miterlimit:10;stroke-dasharray:none;stroke-opacity:1"
         d="m 70.29375,251.37739 15,0" /><path
         id="path7272"
         style="fill:#000000;fill-opacity:1;fill-rule:nonzero;stroke:#000000;stroke-width:1.5;stroke-linecap:butt;stroke-linejoin:round;stroke-miterlimit:10;stroke-dasharray:none;stroke-opacity:1"
         d="m 388.12984,251.37739 -15,0" /><text
         id="text7274"
         style="font-variant:normal;font-weight:normal;font-size:18px;font-family:sans-serif;-inkscape-font-specification:'sans-serif, Normal';writing-mode:lr;fill:#000000;fill-opacity:1;fill-rule:nonzero;stroke:none;font-style:normal;font-stretch:normal;text-anchor:start;text-align:start;line-height:125%;"
         transform="matrix(1,0,0,-1,32.434375,243.47114)"><tspan
           id="tspan7276"
           y="0"
           x="0 12.496 17.313999">6.0</tspan></text>
<path
         id="path7278"
         style="fill:#000000;fill-opacity:1;fill-rule:nonzero;stroke:#000000;stroke-width:1.5;stroke-linecap:butt;stroke-linejoin:round;stroke-miterlimit:10;stroke-dasharray:none;stroke-opacity:1"
         d="m 70.29375,305.70299 15,0" /><path
         id="path7280"
         style="fill:#000000;fill-opacity:1;fill-rule:nonzero;stroke:#000000;stroke-width:1.5;stroke-linecap:butt;stroke-linejoin:round;stroke-miterlimit:10;stroke-dasharray:none;stroke-opacity:1"
         d="m 388.12984,305.70299 -15,0" /><text
         id="text7282"
         style="font-variant:normal;font-weight:normal;font-size:18px;font-family:sans-serif;-inkscape-font-specification:'sans-serif, Normal';writing-mode:lr;fill:#000000;fill-opacity:1;fill-rule:nonzero;stroke:none;font-style:normal;font-stretch:normal;text-anchor:start;text-align:start;line-height:125%;"
         transform="matrix(1,0,0,-1,35.028125,297.79674)"><tspan
           id="tspan7284"
           y="0"
           x="0 11.704 16.521999">7.5</tspan></text>
<text
         id="text7286"
         style="font-variant:normal;font-weight:normal;font-size:18px;font-family:sans-serif;-inkscape-font-specification:'sans-serif, Normal';writing-mode:lr;fill:#000000;fill-opacity:1;fill-rule:nonzero;stroke:none;font-style:normal;font-stretch:normal;text-anchor:start;text-align:start;line-height:125%;"
         transform="matrix(0,1,1,0,23.325,115.13367)"><tspan
           id="tspan7288"
           y="0"
           x="0 10.494 18.062 28.864 40.48 51.986 62.787998 74.293999 84.545998 95.106003 100.078 108.834 121.616 137.12601 147.004">Frequency (THz)</tspan></text>
</g><g
       id="g7290"><g
         clip-path="url(#clipPath7294)"
         id="g7292"><path
           id="path7298"
           style="fill:none;stroke:#000000;stroke-width:1.5;stroke-linecap:butt;stroke-linejoin:round;stroke-miterlimit:10;stroke-dasharray:none;stroke-opacity:1"
           d="m 70.29375,34.075 0,317.83609" /><path
           id="path7300"
           style="fill:none;stroke:#000000;stroke-width:1.5;stroke-linecap:butt;stroke-linejoin:round;stroke-miterlimit:10;stroke-dasharray:none;stroke-opacity:1"
           d="m 159.86169,34.075 0,317.83609" /><path
           id="path7302"
           style="fill:none;stroke:#000000;stroke-width:1.5;stroke-linecap:butt;stroke-linejoin:round;stroke-miterlimit:10;stroke-dasharray:none;stroke-opacity:1"
           d="m 232.99361,34.075 0,317.83609" /><path
           id="path7304"
           style="fill:none;stroke:#000000;stroke-width:1.5;stroke-linecap:butt;stroke-linejoin:round;stroke-miterlimit:10;stroke-dasharray:none;stroke-opacity:1"
           d="m 284.70569,34.075 0,317.83609" /><path
           id="path7306"
           style="fill:none;stroke:#000000;stroke-width:1.5;stroke-linecap:butt;stroke-linejoin:round;stroke-miterlimit:10;stroke-dasharray:none;stroke-opacity:1"
           d="m 388.12984,34.075 0,317.83609" /></g></g><g
       id="g7308"><path
         id="path7310"
         style="fill:none;stroke:#000000;stroke-width:1.5;stroke-linecap:square;stroke-linejoin:miter;stroke-miterlimit:10;stroke-dasharray:none;stroke-opacity:1"
         d="m 70.29375,34.075 0,317.83609" /><path
         id="path7312"
         style="fill:none;stroke:#000000;stroke-width:1.5;stroke-linecap:square;stroke-linejoin:miter;stroke-miterlimit:10;stroke-dasharray:none;stroke-opacity:1"
         d="m 388.12984,34.075 0,317.83609" /><path
         id="path7314"
         style="fill:none;stroke:#000000;stroke-width:1.5;stroke-linecap:square;stroke-linejoin:miter;stroke-miterlimit:10;stroke-dasharray:none;stroke-opacity:1"
         d="m 70.29375,34.075 317.83609,0" /><path
         id="path7316"
         style="fill:none;stroke:#000000;stroke-width:1.5;stroke-linecap:square;stroke-linejoin:miter;stroke-miterlimit:10;stroke-dasharray:none;stroke-opacity:1"
         d="m 70.29375,351.91109 317.83609,0" /></g></g></svg>