<?xml version="1.0" encoding="UTF-8" standalone="no"?>
<!-- Created with Inkscape (http://www.inkscape.org/) -->

<svg
   xmlns:dc="http://purl.org/dc/elements/1.1/"
   xmlns:cc="http://creativecommons.org/ns#"
   xmlns:rdf="http://www.w3.org/1999/02/22-rdf-syntax-ns#"
   xmlns:svg="http://www.w3.org/2000/svg"
   xmlns="http://www.w3.org/2000/svg"
   xmlns:xlink="http://www.w3.org/1999/xlink"
   xmlns:sodipodi="http://sodipodi.sourceforge.net/DTD/sodipodi-0.dtd"
   xmlns:inkscape="http://www.inkscape.org/namespaces/inkscape"
   inkscape:version="0.91 r"
   version="1.1"
   id="svg2"
   viewBox="0 0 376.43645 975.43303"
   height="275.28888mm"
   width="106.23873mm"
   sodipodi:docname="1d_high_freq.svg">
  <sodipodi:namedview
     inkscape:window-maximized="1"
     inkscape:window-y="360"
     inkscape:window-x="1080"
     inkscape:window-height="1169"
     inkscape:window-width="1916"
     showgrid="true"
     inkscape:current-layer="layer1"
     inkscape:document-units="px"
     inkscape:cy="312.29309"
     inkscape:cx="-326.7996"
     inkscape:zoom="0.7"
     inkscape:pageshadow="2"
     inkscape:pageopacity="0.0"
     borderopacity="1.0"
     bordercolor="#666666"
     pagecolor="#ffffff"
     id="base"
     fit-margin-top="5"
     fit-margin-left="5"
     fit-margin-right="5"
     fit-margin-bottom="5">
    <inkscape:grid
       id="grid4136"
       type="xygrid"
       originx="-91.781769"
       originy="-62.283488" />
  </sodipodi:namedview>
  <defs
     id="defs4">
    <linearGradient
       id="linearGradient4206"
       inkscape:collect="always">
      <stop
         id="stop4157"
         offset="0"
         style="stop-color:#ff6000;stop-opacity:1;" />
      <stop
         id="stop4159"
         offset="1"
         style="stop-color:#ffffff;stop-opacity:1" />
    </linearGradient>
    <marker
       id="marker4144"
       orient="auto"
       refY="10.5"
       refX="10.5"
       markerHeight="21"
       markerWidth="21">
      <circle
         style="fill:#ff6000;fill-opacity:1;stroke:#000000;stroke-width:1;stroke-linejoin:round;stroke-miterlimit:4;stroke-dasharray:none;stroke-dashoffset:0;stroke-opacity:1"
         id="path4142"
         cx="10.5"
         cy="10.5"
         r="10" />
    </marker>
    <linearGradient
       gradientTransform="translate(-49.500003,-191.8622)"
       gradientUnits="userSpaceOnUse"
       y2="192.3622"
       x2="50"
       y1="207.3622"
       x1="65"
       id="linearGradient4161"
       xlink:href="#linearGradient4206"
       inkscape:collect="always" />
    <marker
       id="marker4208"
       orient="auto"
       refY="10.5"
       refX="10.5"
       markerHeight="21"
       markerWidth="21">
      <circle
         style="fill:url(#linearGradient4161);fill-opacity:1;stroke:#000000;stroke-width:1;stroke-linejoin:round;stroke-miterlimit:4;stroke-dasharray:none;stroke-dashoffset:0;stroke-opacity:1"
         id="path4153"
         cx="10.5"
         cy="10.5"
         r="10" />
    </marker>
  </defs>
  <metadata
     id="metadata7">
    <rdf:RDF>
      <cc:Work
         rdf:about="">
        <dc:format>image/svg+xml</dc:format>
        <dc:type
           rdf:resource="http://purl.org/dc/dcmitype/StillImage" />
        <dc:title></dc:title>
      </cc:Work>
    </rdf:RDF>
  </metadata>
  <g
     id="layer1"
     inkscape:groupmode="layer"
     inkscape:label="Layer 1"
     transform="translate(-91.781772,-14.645648)">
    <path
       style="fill:none;fill-rule:evenodd;stroke:#000000;stroke-width:1px;stroke-linecap:butt;stroke-linejoin:miter;stroke-opacity:1"
       d="m 120,32.362183 0,939.999997"
       id="path10920"
       inkscape:connector-curvature="0" />
    <path
       style="fill:none;fill-rule:evenodd;stroke:#000000;stroke-width:1px;stroke-linecap:butt;stroke-linejoin:miter;stroke-opacity:1"
       d="M 440,972.36218 440,32.362183"
       id="path10922"
       inkscape:connector-curvature="0" />
    <g
       id="g4313">
      <path
         id="path4295"
         title="sin(0.5*x)"
         d="m 120,92.3622 c 2.17687,-0.83959 4.35374,-1.67917 6.53061,-2.51704 2.17687,-0.83787 4.35374,-1.674 6.53061,-2.5067 2.17688,-0.8327 4.35375,-1.66195 6.53062,-2.48606 2.17687,-0.82411 4.35374,-1.64306 6.53061,-2.4552 2.17687,-0.81214 4.35374,-1.61742 6.53061,-2.41425 2.17687,-0.79682 4.35374,-1.58514 6.53061,-2.36338 2.17687,-0.77824 4.35374,-1.54634 6.53062,-2.3028 2.17687,-0.75646 4.35374,-1.50119 6.53061,-2.23276 2.17687,-0.73156 4.35374,-1.44987 6.53061,-2.15353 2.17687,-0.70367 4.35374,-1.3926 6.53061,-2.06548 2.17687,-0.67287 4.35374,-1.32959 6.53061,-1.96891 2.17688,-0.63932 4.35375,-1.26113 6.53062,-1.86427 2.17687,-0.60314 4.35374,-1.18749 6.53061,-1.75197 2.17687,-0.56447 4.35374,-1.10896 6.53061,-1.63245 2.17687,-0.5235 4.35374,-1.02588 6.53061,-1.50625 2.17687,-0.48036 4.35375,-0.93858 6.53062,-1.37384 2.17687,-0.43526 4.35374,-0.84743 6.53061,-1.23579 2.17687,-0.38837 4.35374,-0.75279 6.53061,-1.09267 2.17687,-0.33988 4.35374,-0.65506 6.53061,-0.94505 2.17687,-0.28999 4.35374,-0.55463 6.53061,-0.79355 2.17688,-0.23891 4.35375,-0.45193 6.53062,-0.63879 2.17687,-0.18685 4.35374,-0.34737 6.53061,-0.4814 2.17687,-0.13402 4.35374,-0.24139 6.53061,-0.32204 2.17687,-0.0806 4.35374,-0.13441 6.53061,-0.16135 2.17687,-0.0269 4.35375,-0.0269 6.53062,0 2.17687,0.0269 4.35374,0.0808 6.53061,0.16135 2.17687,0.0806 4.35374,0.18807 6.53061,0.32204 2.17687,0.13397 4.35374,0.2946 6.53061,0.4814 2.17687,0.1868 4.35374,0.39993 6.53062,0.63879 2.17687,0.23886 4.35374,0.50361 6.53061,0.79355 2.17687,0.28994 4.35374,0.60522 6.53061,0.94505 2.17687,0.33983 4.35374,0.70435 6.53061,1.09267 2.17687,0.38832 4.35374,0.80058 6.53061,1.23579 2.17687,0.43521 4.35375,0.89352 6.53062,1.37384 2.17687,0.48032 4.35374,0.98279 6.53061,1.50625 2.17687,0.52345 4.35374,1.06802 6.53061,1.63245 2.17687,0.56444 4.35374,1.14887 6.53061,1.75197 2.17687,0.6031 4.35374,1.22498 6.53062,1.86427 2.17687,0.63928 4.35374,1.29607 6.53061,1.96891 2.17687,0.67285 4.35374,1.36184 6.53061,2.06548 2.17687,0.70363 4.35374,1.422 6.53061,2.15353 2.17687,0.73154 4.35374,1.47633 6.53061,2.23276 2.17688,0.75643 4.35375,1.52458 6.53062,2.3028 2.17687,0.77822 4.35374,1.56657 6.53061,2.36338 2.17687,0.79681 4.35374,1.60213 6.53061,2.41425 2.17687,0.81213 4.35374,1.6311 6.53061,2.4552 2.17687,0.8241 4.35374,1.65336 6.53062,2.48606 2.17687,0.83269 4.35374,1.66884 6.53061,2.5067 2.17687,0.83786 4.35374,1.67745 6.53061,2.51704"
         style="fill:none;fill-opacity:1;stroke:#000000;stroke-width:1;stroke-linejoin:round;stroke-miterlimit:4;stroke-dasharray:none;stroke-dashoffset:0;stroke-opacity:1"
         inkscape:connector-curvature="0" />
      <path
         inkscape:connector-curvature="0"
         style="fill:none;fill-opacity:1;stroke:none;stroke-width:1;stroke-linejoin:round;stroke-miterlimit:4;stroke-dasharray:none;stroke-dashoffset:0;stroke-opacity:1;marker-start:url(#marker4208);marker-mid:url(#marker4208);marker-end:url(#marker4208)"
         d="m 120,92.3622 c 15.2381,-5.87713 30.47619,-11.74975 45.71429,-17.04543 15.23809,-5.29568 30.47619,-10.00401 45.71428,-13.66937 15.2381,-3.66537 30.47619,-6.27687 45.71429,-7.58594 15.23809,-1.30907 30.47619,-1.30649 45.71428,0 15.2381,1.3065 30.47619,3.92264 45.71429,7.58594 15.23809,3.66329 30.47619,8.37483 45.71428,13.66937 15.2381,5.29454 30.47619,11.1683 45.71429,17.04543"
         title="sin(0.5*x)"
         id="path4261" />
    </g>
    <g
       transform="translate(0,-289.28571)"
       id="g4438">
      <path
         inkscape:connector-curvature="0"
         style="fill:none;fill-opacity:1;stroke:#000000;stroke-width:1;stroke-linejoin:round;stroke-miterlimit:4;stroke-dasharray:none;stroke-dashoffset:0;stroke-opacity:1"
         d="m 120,442.3622 c 2.17687,-1.67918 4.35374,-3.35833 6.53061,-5.02374 2.17687,-1.66541 4.35374,-3.31697 6.53061,-4.94126 2.17688,-1.62429 4.35375,-3.22113 6.53062,-4.77763 2.17687,-1.5565 4.35374,-3.0724 6.53061,-4.53556 2.17687,-1.46315 4.35374,-2.87322 6.53061,-4.21901 2.17687,-1.34578 4.35374,-2.62687 6.53061,-3.83318 2.17687,-1.20631 4.35374,-2.33739 6.53062,-3.38442 2.17687,-1.04704 4.35374,-2.00952 6.53061,-2.88009 2.17687,-0.87057 4.35374,-1.64866 6.53061,-2.32846 2.17687,-0.6798 4.35374,-1.26072 6.53061,-1.7386 2.17687,-0.47787 4.35374,-0.85208 6.53061,-1.12019 2.17688,-0.2681 4.35375,-0.42946 6.53062,-0.48339 2.17687,-0.0539 4.35374,2.2e-4 6.53061,0.16136 2.17687,0.16113 4.35374,0.42989 6.53061,0.80344 2.17687,0.37354 4.35374,0.8525 6.53061,1.43233 2.17687,0.57983 4.35375,1.26113 6.53062,2.03772 2.17687,0.77659 4.35374,1.64903 6.53061,2.60963 2.17687,0.9606 4.35374,2.00987 6.53061,3.1387 2.17687,1.12884 4.35374,2.3377 6.53061,3.61624 2.17687,1.27853 4.35374,2.62714 6.53061,4.03439 2.17688,1.40724 4.35375,2.87345 6.53062,4.38629 2.17687,1.51284 4.35374,3.07258 6.53061,4.66618 2.17687,1.5936 4.35374,3.22126 6.53061,4.86945 2.17687,1.64819 4.35374,3.31704 6.53061,4.99276 2.17687,1.67572 4.35375,3.35835 6.53062,5.03409 2.17687,1.67573 4.35374,3.34452 6.53061,4.99276 2.17687,1.64823 4.35374,3.27578 6.53061,4.86944 2.17687,1.59367 4.35374,3.15325 6.53061,4.66619 2.17687,1.51293 4.35374,2.97893 6.53062,4.38629 2.17687,1.40736 4.35374,2.75571 6.53061,4.03439 2.17687,1.27867 4.35374,2.48724 6.53061,3.61623 2.17687,1.129 4.35374,2.17793 6.53061,3.13871 2.17687,0.96077 4.35374,1.83285 6.53061,2.60963 2.17687,0.77678 4.35375,1.45768 6.53062,2.03771 2.17687,0.58004 4.35374,1.05858 6.53061,1.43234 2.17687,0.37376 4.35374,0.64209 6.53061,0.80344 2.17687,0.16135 4.35374,0.21506 6.53061,0.16135 2.17687,-0.0537 4.35374,-0.2155 6.53062,-0.48339 2.17687,-0.26789 4.35374,-0.64252 6.53061,-1.12019 2.17687,-0.47767 4.35374,-1.05899 6.53061,-1.73859 2.17687,-0.67961 4.35374,-1.45808 6.53061,-2.32846 2.17687,-0.87039 4.35374,-1.83322 6.53061,-2.88009 2.17688,-1.04687 4.35375,-2.17826 6.53062,-3.38442 2.17687,-1.20616 4.35374,-2.48754 6.53061,-3.83319 2.17687,-1.34565 4.35374,-2.75596 6.53061,-4.21901 2.17687,-1.46305 4.35374,-2.97914 6.53061,-4.53555 2.17687,-1.55642 4.35374,-3.1534 6.53062,-4.77764 2.17687,-1.62423 4.35374,-3.27587 6.53061,-4.94125 2.17687,-1.66538 4.35374,-3.34457 6.53061,-5.02375"
         title="sin(x)"
         id="path4336" />
      <path
         inkscape:connector-curvature="0"
         id="path4417"
         title="sin(x)"
         d="m 120,442.36222 c 15.2381,-11.75425 30.47619,-23.38202 45.71429,-30.7148 15.23809,-7.33279 30.47619,-10.19636 45.71428,-7.58594 15.2381,2.61043 30.47619,10.66738 45.71429,21.25531 15.23809,10.58793 30.47619,23.49836 45.71428,34.09087 15.2381,10.5925 30.47619,18.63459 45.71429,21.2553 15.23809,2.62071 30.47619,-0.2614 45.71428,-7.58593 C 409.52381,465.7525 424.7619,454.11648 440,442.36222"
         style="fill:none;fill-opacity:1;stroke:none;stroke-width:1;stroke-linejoin:round;stroke-miterlimit:4;stroke-dasharray:none;stroke-dashoffset:0;stroke-opacity:1;marker-start:url(#marker4208);marker-mid:url(#marker4208);marker-end:url(#marker4208)" />
    </g>
    <path
       id="path4464"
       title="sin(2x)"
       d=""
       style="fill:none;fill-opacity:1;stroke:#000000;stroke-width:1;stroke-linejoin:round;stroke-miterlimit:4;stroke-dasharray:none;stroke-dashoffset:0;stroke-opacity:1"
       inkscape:connector-curvature="0" />
    <g
       id="g4583"
       transform="translate(0,-188)">
      <path
         id="path4510"
         title="sin(2*x)"
         d="m 120,442.36222 c 2.17687,-3.35836 4.35374,-6.71637 6.53061,-9.965 2.17687,-3.24863 4.35374,-6.38677 6.53061,-9.31319 2.17688,-2.92641 4.35375,-5.63942 6.53062,-8.05219 2.17687,-2.41278 4.35374,-4.52319 6.53061,-6.26451 2.17687,-1.74132 4.35374,-3.1111 6.53061,-4.06706 2.17687,-0.95596 4.35374,-1.4955 6.53061,-1.60358 2.17687,-0.10807 4.35374,0.21791 6.53062,0.96479 2.17687,0.74689 4.35374,1.91707 6.53061,3.47006 2.17687,1.55299 4.35374,3.49082 6.53061,5.74833 2.17687,2.25751 4.35374,4.83626 6.53061,7.65063 2.17687,2.81436 4.35374,5.86534 6.53061,9.05247 2.17688,3.18714 4.35375,6.51078 6.53062,9.86221 2.17687,3.35143 4.35374,6.73034 6.53061,10.02685 2.17687,3.29651 4.35374,6.50966 6.53061,9.53563 2.17687,3.02596 4.35374,5.86319 6.53061,8.42068 2.17687,2.55749 4.35375,4.83321 6.53062,6.75493 2.17687,1.92173 4.35374,3.48709 6.53061,4.64735 2.17687,1.16027 4.35374,1.91287 6.53061,2.23578 2.17687,0.32291 4.35374,0.21353 6.53061,-0.32204 2.17687,-0.53557 4.35374,-1.49977 6.53061,-2.85879 2.17688,-1.35901 4.35375,-3.11497 6.53062,-5.20854 2.17687,-2.09357 4.35374,-4.52643 6.53061,-7.21761 2.17687,-2.69118 4.35374,-5.64181 6.53061,-8.75457 2.17687,-3.11275 4.35374,-6.38815 6.53061,-9.71888 2.17687,-3.33073 4.35375,-6.71665 6.53062,-10.04749 2.17687,-3.33084 4.35374,-6.60581 6.53061,-9.71889 2.17687,-3.11308 4.35374,-6.06287 6.53061,-8.75457 2.17687,-2.69169 4.35374,-5.12336 6.53061,-7.2176 2.17687,-2.09424 4.35374,-3.84875 6.53062,-5.20855 2.17687,-1.3598 4.35374,-2.32237 6.53061,-2.85879 2.17687,-0.53642 4.35374,-0.64409 6.53061,-0.32204 2.17687,0.32206 4.35374,1.07633 6.53061,2.23578 2.17687,1.15946 4.35374,2.72633 6.53061,4.64735 2.17687,1.92102 4.35375,4.19801 6.53062,6.75494 2.17687,2.55693 4.35374,5.39509 6.53061,8.42068 2.17687,3.02559 4.35374,6.23928 6.53061,9.53563 2.17687,3.29635 4.35374,6.67536 6.53061,10.02685 2.17687,3.35148 4.35374,6.6748 6.53062,9.8622 2.17687,3.18741 4.35374,6.23764 6.53061,9.05248 2.17687,2.81484 4.35374,5.39248 6.53061,7.65062 2.17687,2.25815 4.35374,4.19459 6.53061,5.74834 2.17687,1.55375 4.35374,2.72233 6.53061,3.47005 2.17688,0.74773 4.35375,1.072 6.53062,0.96479 2.17687,-0.10721 4.35374,-0.64844 6.53061,-1.60358 2.17687,-0.95513 4.35374,-2.32647 6.53061,-4.06705 2.17687,-1.74058 4.35374,-3.85234 6.53061,-6.26451 2.17687,-2.41218 4.35374,-5.12621 6.53062,-8.0522 2.17687,-2.92599 4.35374,-6.06477 6.53061,-9.31319 2.17687,-3.24841 4.35374,-6.60664 6.53061,-9.965"
         style="fill:none;fill-opacity:1;stroke:#000000;stroke-width:1;stroke-linejoin:round;stroke-miterlimit:4;stroke-dasharray:none;stroke-dashoffset:0;stroke-opacity:1"
         inkscape:connector-curvature="0" />
      <path
         inkscape:connector-curvature="0"
         style="fill:none;fill-opacity:1;stroke:none;stroke-width:1;stroke-linejoin:round;stroke-miterlimit:4;stroke-dasharray:none;stroke-dashoffset:0;stroke-opacity:1;marker-start:url(#marker4208);marker-mid:url(#marker4208);marker-end:url(#marker4208)"
         d="m 120,442.36222 c 15.2381,-23.5085 30.47619,-43.5113 45.71429,-38.30074 15.23809,5.21057 30.47619,34.15659 45.71428,55.34618 15.2381,21.18958 30.47619,28.31018 45.71429,13.66937 15.23809,-14.64081 30.47619,-46.7558 45.71428,-61.42961 15.2381,-14.67381 30.47619,-7.5019 45.71429,13.66937 15.23809,21.17127 30.47619,50.09446 45.71428,55.34617 15.2381,5.25171 30.47619,-14.79223 45.71429,-38.30074"
         title="sin(2*x)"
         id="path4558" />
    </g>
    <path
       id="path4667"
       title="sin(7*x)"
       d="m 120,786.36225 c 2.17687,-11.75425 4.35374,-23.38202 6.53061,-30.7148 2.17687,-7.33279 4.35374,-10.19636 6.53061,-7.58594 2.17688,2.61043 4.35375,10.66738 6.53062,21.25531 2.17687,10.58793 4.35374,23.49836 6.53061,34.09087 2.17687,10.5925 4.35374,18.63459 6.53061,21.2553 2.17687,2.62071 4.35374,-0.2614 6.53061,-7.58593 2.17687,-7.32453 4.35374,-18.96055 6.53062,-30.71481 2.17687,-11.75425 4.35374,-23.38202 6.53061,-30.7148 2.17687,-7.33279 4.35374,-10.19636 6.53061,-7.58594 2.17687,2.61043 4.35374,10.66738 6.53061,21.25531 2.17687,10.58793 4.35374,23.49836 6.53061,34.09087 2.17688,10.5925 4.35375,18.63459 6.53062,21.2553 2.17687,2.62071 4.35374,-0.2614 6.53061,-7.58593 2.17687,-7.32453 4.35374,-18.96055 6.53061,-30.71481 2.17687,-11.75425 4.35374,-23.38202 6.53061,-30.7148 2.17687,-7.33279 4.35375,-10.19636 6.53062,-7.58594 2.17687,2.61043 4.35374,10.66738 6.53061,21.25531 2.17687,10.58793 4.35374,23.49836 6.53061,34.09087 2.17687,10.5925 4.35374,18.63459 6.53061,21.2553 2.17687,2.62071 4.35374,-0.2614 6.53061,-7.58593 2.17688,-7.32453 4.35375,-18.96055 6.53062,-30.71481 2.17687,-11.75425 4.35374,-23.38202 6.53061,-30.7148 2.17687,-7.33279 4.35374,-10.19636 6.53061,-7.58594 2.17687,2.61043 4.35374,10.66738 6.53061,21.25531 2.17687,10.58793 4.35375,23.49836 6.53062,34.09087 2.17687,10.5925 4.35374,18.63459 6.53061,21.2553 2.17687,2.62071 4.35374,-0.2614 6.53061,-7.58593 2.17687,-7.32453 4.35374,-18.96055 6.53061,-30.71481 2.17687,-11.75425 4.35374,-23.38202 6.53062,-30.7148 2.17687,-7.33279 4.35374,-10.19636 6.53061,-7.58594 2.17687,2.61043 4.35374,10.66738 6.53061,21.25531 2.17687,10.58793 4.35374,23.49836 6.53061,34.09087 2.17687,10.5925 4.35374,18.63459 6.53061,21.2553 2.17687,2.62071 4.35375,-0.2614 6.53062,-7.58593 2.17687,-7.32453 4.35374,-18.96055 6.53061,-30.71481 2.17687,-11.75425 4.35374,-23.38202 6.53061,-30.7148 2.17687,-7.33279 4.35374,-10.19636 6.53061,-7.58594 2.17687,2.61043 4.35374,10.66738 6.53062,21.25531 2.17687,10.58793 4.35374,23.49836 6.53061,34.09087 2.17687,10.5925 4.35374,18.63459 6.53061,21.2553 2.17687,2.62071 4.35374,-0.2614 6.53061,-7.58593 2.17687,-7.32453 4.35374,-18.96055 6.53061,-30.71481 2.17688,-11.75425 4.35375,-23.38202 6.53062,-30.7148 2.17687,-7.33279 4.35374,-10.19636 6.53061,-7.58594 2.17687,2.61043 4.35374,10.66738 6.53061,21.25531 2.17687,10.58793 4.35374,23.49836 6.53061,34.09087 2.17687,10.5925 4.35374,18.63459 6.53062,21.2553 2.17687,2.62071 4.35374,-0.2614 6.53061,-7.58593 2.17687,-7.32453 4.35374,-18.96055 6.53061,-30.71481"
       style="fill:none;fill-opacity:1;stroke:#000000;stroke-width:1;stroke-linejoin:round;stroke-miterlimit:4;stroke-dasharray:none;stroke-dashoffset:0;stroke-opacity:1"
       inkscape:connector-curvature="0" />
    <path
       inkscape:connector-curvature="0"
       style="fill:none;fill-opacity:1;stroke:none;stroke-width:1;stroke-linejoin:round;stroke-miterlimit:4;stroke-dasharray:none;stroke-dashoffset:0;stroke-opacity:1;marker-start:url(#marker4208);marker-mid:url(#marker4208);marker-end:url(#marker4208)"
       d="m 120,786.36222 c 15.2381,-82.27926 30.47619,82.27927 45.71429,0 15.23809,-82.27926 30.47619,82.27927 45.71428,0 15.2381,-82.27926 30.47619,82.27927 45.71429,0 15.23809,-82.27926 30.47619,82.27927 45.71428,0 15.2381,-82.27926 30.47619,82.27927 45.71429,0 15.23809,-82.27926 30.47619,82.27927 45.71428,0 15.2381,-82.27926 30.47619,82.27927 45.71429,0"
       title="sin(7*x)"
       id="path4613" />
    <g
       id="g4811"
       transform="translate(0,322)">
      <path
         id="path4723"
         title="sin(8*x)"
         d="m 120,572.36225 c 2.17687,-13.43343 4.35374,-26.62521 6.53061,-33.59489 2.17687,-6.96969 4.35374,-7.44316 6.53061,-1.23579 2.17688,6.20737 4.35375,18.90825 6.53062,32.31364 2.17687,13.40539 4.35374,27.04695 6.53061,34.73809 2.17687,7.69115 4.35374,9.13364 6.53061,3.7023 2.17687,-5.43133 4.35374,-17.57734 6.53061,-30.8996 2.17687,-13.32227 4.35374,-27.35756 6.53062,-35.73855 2.17687,-8.381 4.35374,-10.78657 6.53061,-6.1536 2.17687,4.63297 4.35374,16.17421 6.53061,29.3586 2.17687,13.18439 4.35374,27.55574 6.53061,36.59215 2.17687,9.03641 4.35374,12.39518 6.53061,8.5796 2.17688,-3.81557 4.35375,-14.7046 6.53062,-27.69695 2.17687,-12.99234 4.35374,-27.64069 6.53061,-37.29538 2.17687,-9.65469 4.35374,-13.95286 6.53061,-10.97036 2.17687,2.98251 4.35374,13.17458 6.53061,25.92149 2.17687,12.74691 4.35375,27.61207 6.53062,37.84537 2.17687,10.2333 4.35374,15.4532 6.53061,13.31602 2.17687,-2.13717 4.35374,-11.59041 6.53061,-24.03951 2.17687,-12.44909 4.35374,-27.46997 6.53061,-38.23983 2.17687,-10.76985 4.35374,-16.89004 6.53061,-15.60698 2.17688,1.28307 4.35375,9.95863 6.53062,22.05875 2.17687,12.10012 4.35374,27.215 6.53061,38.47716 2.17687,11.26216 4.35374,18.25748 6.53061,17.8338 2.17687,-0.42367 4.35374,-8.28592 6.53061,-19.98734 2.17687,-11.70142 4.35375,-26.84819 6.53062,-38.55638 2.17687,-11.70818 4.35374,-19.54989 6.53061,-19.98734 2.17687,-0.43745 4.35374,6.57916 6.53061,17.83381 2.17687,11.25464 4.35374,26.37106 6.53061,38.47716 2.17687,12.10609 4.35374,20.76196 6.53062,22.05874 2.17687,1.29678 4.35374,-4.84536 6.53061,-15.60698 2.17687,-10.76162 4.35374,-25.78557 6.53061,-38.23983 2.17687,-12.45426 4.35374,-21.88873 6.53061,-24.03951 2.17687,-2.15077 4.35374,3.09166 6.53061,13.31603 2.17687,10.22437 4.35375,25.09411 6.53062,37.84536 2.17687,12.75125 4.35374,22.92555 6.53061,25.92149 2.17687,2.99594 4.35374,-1.32525 6.53061,-10.97035 2.17687,-9.64511 4.35374,-24.29955 6.53061,-37.29539 2.17687,-12.99584 4.35374,-23.86816 6.53062,-27.69695 2.17687,-3.82879 4.35374,-0.44661 6.53061,8.5796 2.17687,9.02621 4.35374,23.40513 6.53061,36.59216 2.17687,13.18702 4.35374,24.71269 6.53061,29.35859 2.17687,4.64591 4.35374,2.21663 6.53061,-6.15359 2.17688,-8.37022 4.35375,-22.41452 6.53062,-35.73855 2.17687,-13.32403 4.35374,-25.45568 6.53061,-30.89961 2.17687,-5.44393 4.35374,-3.97754 6.53061,3.7023 2.17687,7.67984 4.35374,21.33182 6.53061,34.7381 2.17687,13.40627 4.35374,26.09405 6.53062,32.31364 2.17687,6.21959 4.35374,5.72211 6.53061,-1.23579 2.17687,-6.9579 4.35374,-20.16146 6.53061,-33.5949"
         style="fill:none;fill-opacity:1;stroke:#000000;stroke-width:1;stroke-linejoin:round;stroke-miterlimit:4;stroke-dasharray:none;stroke-dashoffset:0;stroke-opacity:1"
         inkscape:connector-curvature="0" />
      <path
         style="fill:none;fill-opacity:1;stroke:none;stroke-width:1;stroke-linejoin:round;stroke-miterlimit:4;stroke-dasharray:none;stroke-dashoffset:0;stroke-opacity:1;marker-start:url(#marker4208);marker-mid:url(#marker4208);marker-end:url(#marker4208)"
         d="m 120,572.36225 c 15.2381,-94.03325 30.47619,28.17793 45.71429,-30.7148 15.23809,-58.89274 30.47619,-28.18115 45.71428,-7.58594 15.2381,20.59522 30.47619,-63.31924 45.71429,21.25531 15.23809,84.57455 30.47619,-50.77666 45.71428,34.09087 15.2381,84.86752 30.47619,0.002 45.71429,21.2553 15.23809,21.25352 30.47619,50.77889 45.71428,-7.58593 15.2381,-58.36481 30.47619,63.31845 45.71429,-30.71481"
         title="sin(8*x)"
         id="path4781"
         inkscape:connector-curvature="0" />
    </g>
    <g
       id="g4943"
       transform="translate(0,-10)">
      <path
         id="path4846"
         title="sin(6*x)"
         d="m 120,692.36225 c 2.17687,-10.07507 4.35374,-20.09026 6.53061,-27.33038 2.17687,-7.24012 4.35374,-11.60835 6.53061,-11.93515 2.17688,-0.32679 4.35375,3.41257 6.53062,10.18318 2.17687,6.77062 4.35374,16.51118 6.53061,26.56531 2.17687,10.05413 4.35374,20.30902 6.53061,27.98316 2.17687,7.67414 4.35374,12.66676 6.53061,13.63806 2.17687,0.9713 4.35374,-2.11069 6.53062,-8.38937 2.17687,-6.27868 4.35374,-15.6992 6.53061,-25.69106 2.17687,-9.99187 4.35374,-20.44432 6.53061,-28.52095 2.17687,-8.07662 4.35374,-13.67313 6.53061,-15.28494 2.17687,-1.6118 4.35374,0.80015 6.53061,6.56109 2.17688,5.76094 4.35375,14.82271 6.53062,24.71125 2.17687,9.88854 4.35374,20.49561 6.53061,28.94153 2.17687,8.44592 4.35374,14.62332 6.53061,16.86901 2.17687,2.2457 4.35374,0.51369 6.53061,-4.70584 2.17687,-5.21953 4.35375,-13.88531 6.53062,-23.6299 2.17687,-9.74458 4.35374,-20.46268 6.53061,-29.24319 2.17687,-8.7805 4.35374,-15.5134 6.53061,-18.38376 2.17687,-2.87035 4.35374,-1.82541 6.53061,2.83127 2.17687,4.65667 4.35374,12.89084 6.53061,22.45143 2.17688,9.56059 4.35375,20.34567 6.53062,29.42469 2.17687,9.07901 4.35374,16.33975 6.53061,19.82296 2.17687,3.48322 4.35374,3.12963 6.53061,-0.94505 2.17687,-4.07467 4.35374,-11.84341 6.53061,-21.18072 2.17687,-9.3373 4.35375,-20.14505 6.53062,-29.48526 2.17687,-9.34021 4.35374,-17.09895 6.53061,-21.18072 2.17687,-4.08177 4.35374,-4.42099 6.53061,-0.94505 2.17687,3.47594 4.35374,10.74732 6.53061,19.82297 2.17687,9.07565 4.35374,19.86165 6.53062,29.42468 2.17687,9.56304 4.35374,17.78789 6.53061,22.45144 2.17687,4.66354 4.35374,5.69418 6.53061,2.83126 2.17687,-2.86292 4.35374,-9.60706 6.53061,-18.38376 2.17687,-8.7767 4.35374,-19.49663 6.53061,-29.24319 2.17687,-9.74655 4.35375,-18.40373 6.53062,-23.62989 2.17687,-5.22616 4.35374,-6.94398 6.53061,-4.70585 2.17687,2.23814 4.35374,8.42733 6.53061,16.86902 2.17687,8.44168 4.35374,19.0515 6.53061,28.94153 2.17687,9.89002 4.35374,18.94395 6.53062,24.71124 2.17687,5.7673 4.35374,8.16525 6.53061,6.56109 2.17687,-1.60415 4.35374,-7.21295 6.53061,-15.28494 2.17687,-8.07198 4.35374,-18.52809 6.53061,-28.52094 2.17687,-9.99286 4.35374,-19.40633 6.53061,-25.69106 2.17688,-6.28474 4.35375,-9.35296 6.53062,-8.38938 2.17687,0.96359 4.35374,5.96895 6.53061,13.63807 2.17687,7.66911 4.35374,17.92853 6.53061,27.98316 2.17687,10.05462 4.35374,19.78895 6.53061,26.5653 2.17687,6.77635 4.35374,10.50223 6.53062,10.18318 2.17687,-0.31905 4.35374,-4.70041 6.53061,-11.93514 2.17687,-7.23473 4.35374,-17.25531 6.53061,-27.33039"
         style="fill:none;fill-opacity:1;stroke:#000000;stroke-width:1;stroke-linejoin:round;stroke-miterlimit:4;stroke-dasharray:none;stroke-dashoffset:0;stroke-opacity:1"
         inkscape:connector-curvature="0" />
      <path
         style="fill:none;fill-opacity:1;stroke:none;stroke-width:1;stroke-linejoin:round;stroke-miterlimit:4;stroke-dasharray:none;stroke-dashoffset:0;stroke-opacity:1;marker-start:url(#marker4208);marker-mid:url(#marker4208);marker-end:url(#marker4208)"
         d="m 120,692.36225 c 15.2381,-70.5252 30.47619,74.53808 45.71429,30.71481 15.23809,-43.82327 30.47619,-8.29255 45.71428,7.58593 15.2381,15.87848 30.47619,-84.87872 45.71429,-21.2553 15.23809,63.62341 30.47619,-97.54949 45.71428,-34.09087 15.2381,63.45862 30.47619,-36.76349 45.71429,-21.25531 15.23809,15.50819 30.47619,51.70616 45.71428,7.58594 15.2381,-44.12023 30.47619,101.24001 45.71429,30.7148"
         title="sin(6*x)"
         id="path4910"
         inkscape:connector-curvature="0" />
    </g>
    <g
       id="g5087"
       transform="translate(0,-496)">
      <path
         id="path4981"
         title="sin(3*x)"
         d="m 120,862.36225 c 2.17687,-5.03754 4.35374,-10.07289 6.53061,-14.74263 2.17687,-4.66974 4.35374,-8.96837 6.53061,-12.58775 2.17688,-3.61939 4.35375,-6.55297 6.53062,-8.59297 2.17687,-2.04 4.35374,-3.17975 6.53061,-3.34218 2.17687,-0.16243 4.35374,0.65825 6.53061,2.39713 2.17687,1.73888 4.35374,4.40003 6.53061,7.78605 2.17687,3.38603 4.35374,7.49868 6.53062,12.03692 2.17687,4.53825 4.35374,9.50126 6.53061,14.52839 2.17687,5.02713 4.35374,10.11508 6.53061,14.89629 2.17687,4.78121 4.35374,9.25043 6.53061,13.08687 2.17687,3.83644 4.35374,7.03366 6.53061,9.36457 2.17688,2.33091 4.35375,3.78881 6.53062,4.27349 2.17687,0.48469 4.35374,-0.01 6.53061,-1.44223 2.17687,-1.43239 4.35374,-3.80704 6.53061,-6.94714 2.17687,-3.1401 4.35374,-7.04779 6.53061,-11.43662 2.17687,-4.38882 4.35375,-9.25838 6.53062,-14.25444 2.17687,-4.99606 4.35374,-10.11572 6.53061,-14.98875 2.17687,-4.87303 4.35374,-9.49446 6.53061,-13.5322 2.17687,-4.03773 4.35374,-7.48544 6.53061,-10.09769 2.17687,-2.61225 4.35374,-4.3823 6.53061,-5.18725 2.17688,-0.80494 4.35375,-0.63861 6.53062,0.4814 2.17687,1.12002 4.35374,3.19843 6.53061,6.07969 2.17687,2.88127 4.35374,6.56795 6.53061,10.78933 2.17687,4.22137 4.35374,8.97746 6.53061,13.92192 2.17687,4.94446 4.35375,10.07478 6.53062,15.01961 2.17687,4.94482 4.35374,9.69949 6.53061,13.92192 2.17687,4.22243 4.35374,7.90647 6.53061,10.78932 2.17687,2.88286 4.35374,4.95779 6.53061,6.07969 2.17687,1.1219 4.35374,1.28444 6.53062,0.4814 2.17687,-0.80303 4.35374,-2.57665 6.53061,-5.18724 2.17687,-2.6106 4.35374,-6.06113 6.53061,-10.0977 2.17687,-4.03657 4.35374,-8.65966 6.53061,-13.5322 2.17687,-4.87254 4.35374,-9.99244 6.53061,-14.98874 2.17687,-4.99631 4.35375,-9.86467 6.53062,-14.25445 2.17687,-4.38977 4.35374,-8.295 6.53061,-11.43661 2.17687,-3.14162 4.35374,-5.5129 6.53061,-6.94715 2.17687,-1.43424 4.35374,-1.92498 6.53061,-1.44223 2.17687,0.48276 4.35374,1.9443 6.53062,4.2735 2.17687,2.32919 4.35374,5.52938 6.53061,9.36457 2.17687,3.83518 4.35374,8.30626 6.53061,13.08686 2.17687,4.7806 4.35374,9.86905 6.53061,14.8963 2.17687,5.02725 4.35374,9.9893 6.53061,14.52839 2.17688,4.53908 4.35375,8.64945 6.53062,12.03691 2.17687,3.38746 4.35374,6.04535 6.53061,7.78605 2.17687,1.7407 4.35374,2.55762 6.53061,2.39713 2.17687,-0.16049 4.35374,-1.30395 6.53061,-3.34218 2.17687,-2.03822 4.35374,-4.97492 6.53062,-8.59296 2.17687,-3.61804 4.35374,-7.91874 6.53061,-12.58776 2.17687,-4.66901 4.35374,-9.70509 6.53061,-14.74263"
         style="fill:none;fill-opacity:1;stroke:#000000;stroke-width:1;stroke-linejoin:round;stroke-miterlimit:4;stroke-dasharray:none;stroke-dashoffset:0;stroke-opacity:1"
         inkscape:connector-curvature="0" />
      <path
         style="fill:none;fill-opacity:1;stroke:none;stroke-width:1;stroke-linejoin:round;stroke-miterlimit:4;stroke-dasharray:none;stroke-dashoffset:0;stroke-opacity:1;marker-start:url(#marker4208);marker-mid:url(#marker4208);marker-end:url(#marker4208)"
         d="m 120,862.36225 c 15.2381,-35.26273 30.47619,-48.79545 45.71429,-17.04543 15.23809,31.75002 30.47619,69.70907 45.71428,47.76024 15.2381,-21.94883 30.47619,-76.81595 45.71429,-69.01555 15.23809,7.80041 30.47619,68.7085 45.71428,76.60148 15.2381,7.89298 30.47619,-46.99247 45.71429,-69.01554 15.23809,-22.02308 30.47619,15.96901 45.71428,47.76024 15.2381,31.79122 30.47619,18.21729 45.71429,-17.04544"
         title="sin(3*x)"
         id="path5051"
         inkscape:connector-curvature="0" />
    </g>
    <g
       id="g5243"
       transform="translate(0,-516.14734)">
      <path
         id="path5128"
         title="sin(4*x)"
         d="m 120,996.36225 c 2.17687,-6.71672 4.35374,-13.42494 6.53061,-19.27819 2.17687,-5.85324 4.35374,-10.83333 6.53061,-14.3167 2.17688,-3.48337 4.35375,-5.45363 6.53062,-5.67064 2.17687,-0.217 4.35374,1.32963 6.53061,4.43485 2.17687,3.10521 4.35374,7.77069 6.53061,13.39896 2.17687,5.62826 4.35374,12.21187 6.53061,18.91468 2.17687,6.70279 4.35374,13.51019 6.53062,19.56249 2.17687,6.0523 4.35374,11.3314 6.53061,15.1756 2.17687,3.8442 4.35374,6.2365 6.53061,6.8831 2.17687,0.6467 4.35374,-0.4636 6.53061,-3.1808 2.17687,-2.7172 4.35374,-7.0443 6.53061,-12.4261 2.17688,-5.3819 4.35375,-11.8121 6.53062,-18.4735 2.17687,-6.66136 4.35374,-13.53989 6.53061,-19.76638 2.17687,-6.22648 4.35374,-11.78302 6.53061,-15.97217 2.17687,-4.18916 4.35374,-6.99365 6.53061,-8.06734 2.17687,-1.07369 4.35375,-0.40436 6.53062,1.91374 2.17687,2.31811 4.35374,6.28899 6.53061,11.40229 2.17687,5.1133 4.35374,11.36378 6.53061,17.95631 2.17687,6.59253 4.35374,13.51395 6.53061,19.88905 2.17687,6.3751 4.35374,12.1862 6.53061,16.7031 2.17688,4.5169 4.35375,7.7221 6.53062,9.2184 2.17687,1.4963 4.35374,1.2706 6.53061,-0.6388 2.17687,-1.9094 4.35374,-5.5078 6.53061,-10.3316 2.17687,-4.8237 4.35374,-10.8687 6.53061,-17.3653 2.17687,-6.49666 4.35375,-13.43256 6.53062,-19.93005 2.17687,-6.49748 4.35374,-12.53923 6.53061,-17.36538 2.17687,-4.82615 4.35374,-8.41882 6.53061,-10.33157 2.17687,-1.91274 4.35374,-2.13172 6.53061,-0.63879 2.17687,1.49294 4.35374,4.70401 6.53062,9.21839 2.17687,4.51438 4.35374,10.3291 6.53061,16.7031 2.17687,6.374 4.35374,13.29587 6.53061,19.8891 2.17687,6.5931 4.35374,12.8407 6.53061,17.9563 2.17687,5.1155 4.35374,9.0809 6.53061,11.4023 2.17687,2.3213 4.35375,2.984 6.53062,1.9137 2.17687,-1.0703 4.35374,-3.8809 6.53061,-8.0673 2.17687,-4.1865 4.35374,-9.747 6.53061,-15.9722 2.17687,-6.2252 4.35374,-13.1046 6.53061,-19.76639 2.17687,-6.6618 4.35374,-13.08956 6.53062,-18.47346 2.17687,-5.3839 4.35374,-9.70576 6.53061,-12.42615 2.17687,-2.72039 4.35374,-3.82407 6.53061,-3.18083 2.17687,0.64325 4.35374,3.0418 6.53061,6.88313 2.17687,3.84133 4.35374,9.12481 6.53061,15.17562 2.17688,6.05081 4.35375,12.85945 6.53062,19.56248 2.17687,6.703 4.35374,13.2845 6.53061,18.9147 2.17687,5.6301 4.35374,10.2907 6.53061,13.3989 2.17687,3.1083 4.35374,4.6484 6.53061,4.4349 2.17687,-0.2136 4.35374,-2.1902 6.53062,-5.6707 2.17687,-3.4804 4.35374,-8.4651 6.53061,-14.3167 2.17687,-5.8515 4.35374,-12.5614 6.53061,-19.27815"
         style="fill:none;fill-opacity:1;stroke:#000000;stroke-width:1;stroke-linejoin:round;stroke-miterlimit:4;stroke-dasharray:none;stroke-dashoffset:0;stroke-opacity:1"
         inkscape:connector-curvature="0" />
      <path
         style="fill:none;fill-opacity:1;stroke:none;stroke-width:1;stroke-linejoin:round;stroke-miterlimit:4;stroke-dasharray:none;stroke-dashoffset:0;stroke-opacity:1;marker-start:url(#marker4208);marker-mid:url(#marker4208);marker-end:url(#marker4208)"
         d="m 120,996.36225 c 15.2381,-47.01693 30.47619,-25.35198 45.71429,17.04545 15.23809,42.3974 30.47619,-18.37969 45.71428,-47.76025 15.2381,-29.38057 30.47619,58.47105 45.71429,69.01555 15.23809,10.5445 30.47619,-86.98145 45.71428,-76.60149 15.2381,10.37997 30.47619,98.26409 45.71429,69.01559 15.23809,-29.24863 30.47619,-90.08445 45.71428,-47.76028 15.2381,42.32418 30.47619,64.06238 45.71429,17.04543"
         title="sin(4*x)"
         id="path5204"
         inkscape:connector-curvature="0" />
    </g>
    <g
       id="g5411"
       transform="translate(0,-414)">
      <path
         id="path5287"
         title="sin(5*x)"
         d="m 120,996.36225 c 2.17687,-8.39589 4.35374,-16.767 6.53061,-23.4972 2.17687,-6.73019 4.35374,-11.7733 6.53061,-14.16475 2.17688,-2.39144 4.35375,-2.10357 6.53062,0.79355 2.17687,2.89713 4.35374,8.40164 6.53061,15.43668 2.17687,7.03503 4.35374,15.56995 6.53061,23.94877 2.17687,8.3788 4.35374,16.5543 6.53061,22.9491 2.17687,6.3947 4.35374,10.9637 6.53062,12.8346 2.17687,1.8709 4.35374,1.0187 6.53061,-2.3774 2.17687,-3.3961 4.35374,-9.331 6.53061,-16.6452 2.17687,-7.3141 4.35374,-15.97458 6.53061,-24.30189 2.17687,-8.32731 4.35374,-16.27358 6.53061,-22.30664 2.17688,-6.03306 4.35375,-10.10912 6.53062,-11.45176 2.17687,-1.34264 4.35374,0.0704 6.53061,3.95146 2.17687,3.88104 4.35374,10.22198 6.53061,17.78525 2.17687,7.56328 4.35374,16.31365 6.53061,24.55528 2.17687,8.2415 4.35375,15.9259 6.53062,21.5725 2.17687,5.6466 4.35374,9.213 6.53061,10.0218 2.17687,0.8089 4.35374,-1.1592 6.53061,-5.5093 2.17687,-4.35 4.35374,-11.0709 6.53061,-18.8522 2.17687,-7.7813 4.35374,-16.58566 6.53061,-24.70765 2.17688,-8.12199 4.35375,-15.51294 6.53062,-20.7498 2.17687,-5.23687 4.35374,-8.27893 6.53061,-8.55073 2.17687,-0.27179 4.35374,2.24326 6.53061,7.04448 2.17687,4.80123 4.35374,11.87447 6.53061,19.8418 2.17687,7.96733 4.35375,16.7895 6.53062,24.7585 2.17687,7.969 4.35374,15.0362 6.53061,19.8418 2.17687,4.8056 4.35374,7.3109 6.53061,7.0445 2.17687,-0.2664 4.35374,-3.3181 6.53061,-8.5507 2.17687,-5.2327 4.35374,-12.6292 6.53062,-20.7498 2.17687,-8.12067 4.35374,-16.92437 6.53061,-24.70768 2.17687,-7.78331 4.35374,-14.49759 6.53061,-18.85226 2.17687,-4.35467 4.35374,-6.31281 6.53061,-5.50929 2.17687,0.80353 4.35374,4.37926 6.53061,10.02183 2.17687,5.64258 4.35375,13.33199 6.53062,21.57255 2.17687,8.24056 4.35374,16.98965 6.53061,24.55525 2.17687,7.5656 4.35374,13.8994 6.53061,17.7852 2.17687,3.8858 4.35374,5.2888 6.53061,3.9515 2.17687,-1.3373 4.35374,-5.4224 6.53062,-11.4518 2.17687,-6.0293 4.35374,-13.98 6.53061,-22.3066 2.17687,-8.32663 4.35374,-16.98511 6.53061,-24.30194 2.17687,-7.31682 4.35374,-13.24418 6.53061,-16.64516 2.17687,-3.40098 4.35374,-4.24302 6.53061,-2.37739 2.17688,1.86564 4.35375,6.44335 6.53062,12.83463 2.17687,6.39128 4.35374,14.57059 6.53061,22.94907 2.17687,8.37849 4.35374,16.91079 6.53061,23.94879 2.17687,7.038 4.35374,12.5345 6.53061,15.4367 2.17687,2.9021 4.35374,3.1798 6.53062,0.7935 2.17687,-2.3863 4.35374,-7.4378 6.53061,-14.1647 2.17687,-6.727 4.35374,-15.1013 6.53061,-23.49725"
         style="fill:none;fill-opacity:1;stroke:#000000;stroke-width:1;stroke-linejoin:round;stroke-miterlimit:4;stroke-dasharray:none;stroke-dashoffset:0;stroke-opacity:1"
         inkscape:connector-curvature="0" />
      <path
         style="fill:none;fill-opacity:1;stroke:none;stroke-width:1;stroke-linejoin:round;stroke-miterlimit:4;stroke-dasharray:none;stroke-dashoffset:0;stroke-opacity:1;marker-start:url(#marker4208);marker-mid:url(#marker4208);marker-end:url(#marker4208)"
         d="m 120,996.36225 c 15.2381,-58.77109 30.47619,25.09435 45.71429,38.30075 15.23809,13.2064 30.47619,-108.23988 45.71428,-55.34618 15.2381,52.89368 30.47619,23.07688 45.71429,-13.66937 15.23809,-36.74629 30.47619,97.96965 45.71428,61.42965 15.2381,-36.54011 30.47619,-66.67756 45.71429,-13.6694 15.23809,53.0081 30.47619,-68.29541 45.71428,-55.34619 15.2381,12.94923 30.47619,97.07179 45.71429,38.30074"
         title="sin(5*x)"
         id="path5369"
         inkscape:connector-curvature="0" />
    </g>
  </g>
</svg>
