<?xml version="1.0" encoding="UTF-8" standalone="no"?>
<!-- Created with Inkscape (http://www.inkscape.org/) -->

<svg
   xmlns:dc="http://purl.org/dc/elements/1.1/"
   xmlns:cc="http://creativecommons.org/ns#"
   xmlns:rdf="http://www.w3.org/1999/02/22-rdf-syntax-ns#"
   xmlns:svg="http://www.w3.org/2000/svg"
   xmlns="http://www.w3.org/2000/svg"
   xmlns:xlink="http://www.w3.org/1999/xlink"
   xmlns:sodipodi="http://sodipodi.sourceforge.net/DTD/sodipodi-0.dtd"
   xmlns:inkscape="http://www.inkscape.org/namespaces/inkscape"
   inkscape:version="0.91 r"
   version="1.1"
   id="svg2"
   viewBox="0 0 658.3216 464.92545"
   height="131.2123mm"
   width="185.79298mm"
   sodipodi:docname="1d_low_freq.svg">
  <sodipodi:namedview
     inkscape:window-maximized="1"
     inkscape:window-y="360"
     inkscape:window-x="1080"
     inkscape:window-height="1169"
     inkscape:window-width="1916"
     showgrid="true"
     inkscape:current-layer="layer1"
     inkscape:document-units="px"
     inkscape:cy="168.98687"
     inkscape:cx="419.14397"
     inkscape:zoom="0.9899495"
     inkscape:pageshadow="2"
     inkscape:pageopacity="0.0"
     borderopacity="1.0"
     bordercolor="#666666"
     pagecolor="#ffffff"
     id="base"
     fit-margin-top="5"
     fit-margin-left="5"
     fit-margin-bottom="5"
     fit-margin-right="5">
    <inkscape:grid
       id="grid4136"
       type="xygrid"
       originx="-31.152725"
       originy="-572.58805" />
  </sodipodi:namedview>
  <defs
     id="defs4">
    <marker
       inkscape:isstock="true"
       style="overflow:visible"
       id="marker10028"
       refX="0"
       refY="0"
       orient="auto"
       inkscape:stockid="Arrow1Lend">
      <path
         transform="matrix(-0.8,0,0,-0.8,-10,0)"
         style="fill:#000000;fill-opacity:1;fill-rule:evenodd;stroke:#000000;stroke-width:1pt;stroke-opacity:1"
         d="M 0,0 5,-5 -12.5,0 5,5 0,0 Z"
         id="path10030"
         inkscape:connector-curvature="0" />
    </marker>
    <marker
       inkscape:stockid="Arrow1Lend"
       orient="auto"
       refY="0"
       refX="0"
       id="marker9458"
       style="overflow:visible"
       inkscape:isstock="true"
       inkscape:collect="always">
      <path
         id="path9460"
         d="M 0,0 5,-5 -12.5,0 5,5 0,0 Z"
         style="fill:#000000;fill-opacity:1;fill-rule:evenodd;stroke:#000000;stroke-width:1pt;stroke-opacity:1"
         transform="matrix(-0.8,0,0,-0.8,-10,0)"
         inkscape:connector-curvature="0" />
    </marker>
    <marker
       inkscape:isstock="true"
       style="overflow:visible"
       id="marker8906"
       refX="0"
       refY="0"
       orient="auto"
       inkscape:stockid="Arrow1Lend"
       inkscape:collect="always">
      <path
         transform="matrix(-0.8,0,0,-0.8,-10,0)"
         style="fill:#000000;fill-opacity:1;fill-rule:evenodd;stroke:#000000;stroke-width:1pt;stroke-opacity:1"
         d="M 0,0 5,-5 -12.5,0 5,5 0,0 Z"
         id="path8908"
         inkscape:connector-curvature="0" />
    </marker>
    <marker
       inkscape:stockid="Arrow1Lend"
       orient="auto"
       refY="0"
       refX="0"
       id="marker8774"
       style="overflow:visible"
       inkscape:isstock="true"
       inkscape:collect="always">
      <path
         id="path8776"
         d="M 0,0 5,-5 -12.5,0 5,5 0,0 Z"
         style="fill:#000000;fill-opacity:1;fill-rule:evenodd;stroke:#000000;stroke-width:1pt;stroke-opacity:1"
         transform="matrix(-0.8,0,0,-0.8,-10,0)"
         inkscape:connector-curvature="0" />
    </marker>
    <marker
       inkscape:isstock="true"
       style="overflow:visible"
       id="marker8160"
       refX="0"
       refY="0"
       orient="auto"
       inkscape:stockid="Arrow1Lend"
       inkscape:collect="always">
      <path
         transform="matrix(-0.8,0,0,-0.8,-10,0)"
         style="fill:#000000;fill-opacity:1;fill-rule:evenodd;stroke:#000000;stroke-width:1pt;stroke-opacity:1"
         d="M 0,0 5,-5 -12.5,0 5,5 0,0 Z"
         id="path8162"
         inkscape:connector-curvature="0" />
    </marker>
    <marker
       inkscape:stockid="Arrow1Lend"
       orient="auto"
       refY="0"
       refX="0"
       id="marker7770"
       style="overflow:visible"
       inkscape:isstock="true"
       inkscape:collect="always">
      <path
         id="path7772"
         d="M 0,0 5,-5 -12.5,0 5,5 0,0 Z"
         style="fill:#000000;fill-opacity:1;fill-rule:evenodd;stroke:#000000;stroke-width:1pt;stroke-opacity:1"
         transform="matrix(-0.8,0,0,-0.8,-10,0)"
         inkscape:connector-curvature="0" />
    </marker>
    <marker
       inkscape:isstock="true"
       style="overflow:visible"
       id="marker7320"
       refX="0"
       refY="0"
       orient="auto"
       inkscape:stockid="Arrow1Lend"
       inkscape:collect="always">
      <path
         transform="matrix(-0.8,0,0,-0.8,-10,0)"
         style="fill:#000000;fill-opacity:1;fill-rule:evenodd;stroke:#000000;stroke-width:1pt;stroke-opacity:1"
         d="M 0,0 5,-5 -12.5,0 5,5 0,0 Z"
         id="path7322"
         inkscape:connector-curvature="0" />
    </marker>
    <marker
       inkscape:stockid="Arrow1Lend"
       orient="auto"
       refY="0"
       refX="0"
       id="Arrow1Lend"
       style="overflow:visible"
       inkscape:isstock="true"
       inkscape:collect="always">
      <path
         id="path7015"
         d="M 0,0 5,-5 -12.5,0 5,5 0,0 Z"
         style="fill:#000000;fill-opacity:1;fill-rule:evenodd;stroke:#000000;stroke-width:1pt;stroke-opacity:1"
         transform="matrix(-0.8,0,0,-0.8,-10,0)"
         inkscape:connector-curvature="0" />
    </marker>
    <linearGradient
       id="linearGradient4206"
       inkscape:collect="always">
      <stop
         id="stop4157"
         offset="0"
         style="stop-color:#ff6000;stop-opacity:1;" />
      <stop
         id="stop4159"
         offset="1"
         style="stop-color:#ffffff;stop-opacity:1" />
    </linearGradient>
    <marker
       id="marker4144"
       orient="auto"
       refY="10.5"
       refX="10.5"
       markerHeight="21"
       markerWidth="21">
      <circle
         style="fill:#ff6000;fill-opacity:1;stroke:#000000;stroke-width:1;stroke-linejoin:round;stroke-miterlimit:4;stroke-dasharray:none;stroke-dashoffset:0;stroke-opacity:1"
         id="path4142"
         cx="10.5"
         cy="10.5"
         r="10" />
    </marker>
    <linearGradient
       gradientTransform="translate(-49.500003,-191.8622)"
       gradientUnits="userSpaceOnUse"
       y2="192.3622"
       x2="50"
       y1="207.3622"
       x1="65"
       id="linearGradient4161"
       xlink:href="#linearGradient4206"
       inkscape:collect="always" />
    <marker
       id="marker4208"
       orient="auto"
       refY="10.5"
       refX="10.5"
       markerHeight="21"
       markerWidth="21">
      <circle
         style="fill:url(#linearGradient4161);fill-opacity:1;stroke:#000000;stroke-width:1;stroke-linejoin:round;stroke-miterlimit:4;stroke-dasharray:none;stroke-dashoffset:0;stroke-opacity:1"
         id="path4153"
         cx="10.5"
         cy="10.5"
         r="10" />
    </marker>
  </defs>
  <metadata
     id="metadata7">
    <rdf:RDF>
      <cc:Work
         rdf:about="">
        <dc:format>image/svg+xml</dc:format>
        <dc:type
           rdf:resource="http://purl.org/dc/dcmitype/StillImage" />
        <dc:title></dc:title>
      </cc:Work>
    </rdf:RDF>
  </metadata>
  <g
     id="layer1"
     inkscape:groupmode="layer"
     inkscape:label="Layer 1"
     transform="translate(-31.152725,-14.848721)">
    <path
       inkscape:connector-curvature="0"
       id="path6992"
       d="m 379.37054,32.565256 0,429.492364"
       style="fill:none;fill-rule:evenodd;stroke:#000000;stroke-width:1px;stroke-linecap:butt;stroke-linejoin:miter;stroke-opacity:1"
       sodipodi:nodetypes="cc" />
    <path
       style="fill:none;fill-rule:evenodd;stroke:#000000;stroke-width:1px;stroke-linecap:butt;stroke-linejoin:miter;stroke-opacity:1"
       d="m 59.370541,32.565256 0,429.492364"
       id="path6990"
       inkscape:connector-curvature="0"
       sodipodi:nodetypes="cc" />
    <g
       id="g4313"
       transform="translate(-60.629457,20.203051)">
      <path
         id="path4295"
         title="sin(0.5*x)"
         d="m 120,92.3622 c 2.17687,-0.83959 4.35374,-1.67917 6.53061,-2.51704 2.17687,-0.83787 4.35374,-1.674 6.53061,-2.5067 2.17688,-0.8327 4.35375,-1.66195 6.53062,-2.48606 2.17687,-0.82411 4.35374,-1.64306 6.53061,-2.4552 2.17687,-0.81214 4.35374,-1.61742 6.53061,-2.41425 2.17687,-0.79682 4.35374,-1.58514 6.53061,-2.36338 2.17687,-0.77824 4.35374,-1.54634 6.53062,-2.3028 2.17687,-0.75646 4.35374,-1.50119 6.53061,-2.23276 2.17687,-0.73156 4.35374,-1.44987 6.53061,-2.15353 2.17687,-0.70367 4.35374,-1.3926 6.53061,-2.06548 2.17687,-0.67287 4.35374,-1.32959 6.53061,-1.96891 2.17688,-0.63932 4.35375,-1.26113 6.53062,-1.86427 2.17687,-0.60314 4.35374,-1.18749 6.53061,-1.75197 2.17687,-0.56447 4.35374,-1.10896 6.53061,-1.63245 2.17687,-0.5235 4.35374,-1.02588 6.53061,-1.50625 2.17687,-0.48036 4.35375,-0.93858 6.53062,-1.37384 2.17687,-0.43526 4.35374,-0.84743 6.53061,-1.23579 2.17687,-0.38837 4.35374,-0.75279 6.53061,-1.09267 2.17687,-0.33988 4.35374,-0.65506 6.53061,-0.94505 2.17687,-0.28999 4.35374,-0.55463 6.53061,-0.79355 2.17688,-0.23891 4.35375,-0.45193 6.53062,-0.63879 2.17687,-0.18685 4.35374,-0.34737 6.53061,-0.4814 2.17687,-0.13402 4.35374,-0.24139 6.53061,-0.32204 2.17687,-0.0806 4.35374,-0.13441 6.53061,-0.16135 2.17687,-0.0269 4.35375,-0.0269 6.53062,0 2.17687,0.0269 4.35374,0.0808 6.53061,0.16135 2.17687,0.0806 4.35374,0.18807 6.53061,0.32204 2.17687,0.13397 4.35374,0.2946 6.53061,0.4814 2.17687,0.1868 4.35374,0.39993 6.53062,0.63879 2.17687,0.23886 4.35374,0.50361 6.53061,0.79355 2.17687,0.28994 4.35374,0.60522 6.53061,0.94505 2.17687,0.33983 4.35374,0.70435 6.53061,1.09267 2.17687,0.38832 4.35374,0.80058 6.53061,1.23579 2.17687,0.43521 4.35375,0.89352 6.53062,1.37384 2.17687,0.48032 4.35374,0.98279 6.53061,1.50625 2.17687,0.52345 4.35374,1.06802 6.53061,1.63245 2.17687,0.56444 4.35374,1.14887 6.53061,1.75197 2.17687,0.6031 4.35374,1.22498 6.53062,1.86427 2.17687,0.63928 4.35374,1.29607 6.53061,1.96891 2.17687,0.67285 4.35374,1.36184 6.53061,2.06548 2.17687,0.70363 4.35374,1.422 6.53061,2.15353 2.17687,0.73154 4.35374,1.47633 6.53061,2.23276 2.17688,0.75643 4.35375,1.52458 6.53062,2.3028 2.17687,0.77822 4.35374,1.56657 6.53061,2.36338 2.17687,0.79681 4.35374,1.60213 6.53061,2.41425 2.17687,0.81213 4.35374,1.6311 6.53061,2.4552 2.17687,0.8241 4.35374,1.65336 6.53062,2.48606 2.17687,0.83269 4.35374,1.66884 6.53061,2.5067 2.17687,0.83786 4.35374,1.67745 6.53061,2.51704"
         style="fill:none;fill-opacity:1;stroke:#000000;stroke-width:1;stroke-linejoin:round;stroke-miterlimit:4;stroke-dasharray:none;stroke-dashoffset:0;stroke-opacity:1"
         inkscape:connector-curvature="0" />
      <path
         inkscape:connector-curvature="0"
         style="fill:none;fill-opacity:1;stroke:none;stroke-width:1;stroke-linejoin:round;stroke-miterlimit:4;stroke-dasharray:none;stroke-dashoffset:0;stroke-opacity:1;marker-start:url(#marker4208);marker-mid:url(#marker4208);marker-end:url(#marker4208)"
         d="m 120,92.3622 c 15.2381,-5.87713 30.47619,-11.74975 45.71429,-17.04543 15.23809,-5.29568 30.47619,-10.00401 45.71428,-13.66937 15.2381,-3.66537 30.47619,-6.27687 45.71429,-7.58594 15.23809,-1.30907 30.47619,-1.30649 45.71428,0 15.2381,1.3065 30.47619,3.92264 45.71429,7.58594 15.23809,3.66329 30.47619,8.37483 45.71428,13.66937 15.2381,5.29454 30.47619,11.1683 45.71429,17.04543"
         title="sin(0.5*x)"
         id="path4261" />
    </g>
    <g
       transform="translate(-60.629457,-269.08266)"
       id="g4438">
      <path
         inkscape:connector-curvature="0"
         style="fill:none;fill-opacity:1;stroke:#000000;stroke-width:1;stroke-linejoin:round;stroke-miterlimit:4;stroke-dasharray:none;stroke-dashoffset:0;stroke-opacity:1"
         d="m 120,442.3622 c 2.17687,-1.67918 4.35374,-3.35833 6.53061,-5.02374 2.17687,-1.66541 4.35374,-3.31697 6.53061,-4.94126 2.17688,-1.62429 4.35375,-3.22113 6.53062,-4.77763 2.17687,-1.5565 4.35374,-3.0724 6.53061,-4.53556 2.17687,-1.46315 4.35374,-2.87322 6.53061,-4.21901 2.17687,-1.34578 4.35374,-2.62687 6.53061,-3.83318 2.17687,-1.20631 4.35374,-2.33739 6.53062,-3.38442 2.17687,-1.04704 4.35374,-2.00952 6.53061,-2.88009 2.17687,-0.87057 4.35374,-1.64866 6.53061,-2.32846 2.17687,-0.6798 4.35374,-1.26072 6.53061,-1.7386 2.17687,-0.47787 4.35374,-0.85208 6.53061,-1.12019 2.17688,-0.2681 4.35375,-0.42946 6.53062,-0.48339 2.17687,-0.0539 4.35374,2.2e-4 6.53061,0.16136 2.17687,0.16113 4.35374,0.42989 6.53061,0.80344 2.17687,0.37354 4.35374,0.8525 6.53061,1.43233 2.17687,0.57983 4.35375,1.26113 6.53062,2.03772 2.17687,0.77659 4.35374,1.64903 6.53061,2.60963 2.17687,0.9606 4.35374,2.00987 6.53061,3.1387 2.17687,1.12884 4.35374,2.3377 6.53061,3.61624 2.17687,1.27853 4.35374,2.62714 6.53061,4.03439 2.17688,1.40724 4.35375,2.87345 6.53062,4.38629 2.17687,1.51284 4.35374,3.07258 6.53061,4.66618 2.17687,1.5936 4.35374,3.22126 6.53061,4.86945 2.17687,1.64819 4.35374,3.31704 6.53061,4.99276 2.17687,1.67572 4.35375,3.35835 6.53062,5.03409 2.17687,1.67573 4.35374,3.34452 6.53061,4.99276 2.17687,1.64823 4.35374,3.27578 6.53061,4.86944 2.17687,1.59367 4.35374,3.15325 6.53061,4.66619 2.17687,1.51293 4.35374,2.97893 6.53062,4.38629 2.17687,1.40736 4.35374,2.75571 6.53061,4.03439 2.17687,1.27867 4.35374,2.48724 6.53061,3.61623 2.17687,1.129 4.35374,2.17793 6.53061,3.13871 2.17687,0.96077 4.35374,1.83285 6.53061,2.60963 2.17687,0.77678 4.35375,1.45768 6.53062,2.03771 2.17687,0.58004 4.35374,1.05858 6.53061,1.43234 2.17687,0.37376 4.35374,0.64209 6.53061,0.80344 2.17687,0.16135 4.35374,0.21506 6.53061,0.16135 2.17687,-0.0537 4.35374,-0.2155 6.53062,-0.48339 2.17687,-0.26789 4.35374,-0.64252 6.53061,-1.12019 2.17687,-0.47767 4.35374,-1.05899 6.53061,-1.73859 2.17687,-0.67961 4.35374,-1.45808 6.53061,-2.32846 2.17687,-0.87039 4.35374,-1.83322 6.53061,-2.88009 2.17688,-1.04687 4.35375,-2.17826 6.53062,-3.38442 2.17687,-1.20616 4.35374,-2.48754 6.53061,-3.83319 2.17687,-1.34565 4.35374,-2.75596 6.53061,-4.21901 2.17687,-1.46305 4.35374,-2.97914 6.53061,-4.53555 2.17687,-1.55642 4.35374,-3.1534 6.53062,-4.77764 2.17687,-1.62423 4.35374,-3.27587 6.53061,-4.94125 2.17687,-1.66538 4.35374,-3.34457 6.53061,-5.02375"
         title="sin(x)"
         id="path4336" />
      <path
         inkscape:connector-curvature="0"
         id="path4417"
         title="sin(x)"
         d="m 120,442.36222 c 15.2381,-11.75425 30.47619,-23.38202 45.71429,-30.7148 15.23809,-7.33279 30.47619,-10.19636 45.71428,-7.58594 15.2381,2.61043 30.47619,10.66738 45.71429,21.25531 15.23809,10.58793 30.47619,23.49836 45.71428,34.09087 15.2381,10.5925 30.47619,18.63459 45.71429,21.2553 15.23809,2.62071 30.47619,-0.2614 45.71428,-7.58593 C 409.52381,465.7525 424.7619,454.11648 440,442.36222"
         style="fill:none;fill-opacity:1;stroke:none;stroke-width:1;stroke-linejoin:round;stroke-miterlimit:4;stroke-dasharray:none;stroke-dashoffset:0;stroke-opacity:1;marker-start:url(#marker4208);marker-mid:url(#marker4208);marker-end:url(#marker4208)" />
    </g>
    <path
       id="path4464"
       title="sin(2x)"
       d=""
       style="fill:none;fill-opacity:1;stroke:#000000;stroke-width:1;stroke-linejoin:round;stroke-miterlimit:4;stroke-dasharray:none;stroke-dashoffset:0;stroke-opacity:1"
       inkscape:connector-curvature="0" />
    <g
       id="g4583"
       transform="translate(-60.629457,-167.79695)">
      <path
         id="path4510"
         title="sin(2*x)"
         d="m 120,442.36222 c 2.17687,-3.35836 4.35374,-6.71637 6.53061,-9.965 2.17687,-3.24863 4.35374,-6.38677 6.53061,-9.31319 2.17688,-2.92641 4.35375,-5.63942 6.53062,-8.05219 2.17687,-2.41278 4.35374,-4.52319 6.53061,-6.26451 2.17687,-1.74132 4.35374,-3.1111 6.53061,-4.06706 2.17687,-0.95596 4.35374,-1.4955 6.53061,-1.60358 2.17687,-0.10807 4.35374,0.21791 6.53062,0.96479 2.17687,0.74689 4.35374,1.91707 6.53061,3.47006 2.17687,1.55299 4.35374,3.49082 6.53061,5.74833 2.17687,2.25751 4.35374,4.83626 6.53061,7.65063 2.17687,2.81436 4.35374,5.86534 6.53061,9.05247 2.17688,3.18714 4.35375,6.51078 6.53062,9.86221 2.17687,3.35143 4.35374,6.73034 6.53061,10.02685 2.17687,3.29651 4.35374,6.50966 6.53061,9.53563 2.17687,3.02596 4.35374,5.86319 6.53061,8.42068 2.17687,2.55749 4.35375,4.83321 6.53062,6.75493 2.17687,1.92173 4.35374,3.48709 6.53061,4.64735 2.17687,1.16027 4.35374,1.91287 6.53061,2.23578 2.17687,0.32291 4.35374,0.21353 6.53061,-0.32204 2.17687,-0.53557 4.35374,-1.49977 6.53061,-2.85879 2.17688,-1.35901 4.35375,-3.11497 6.53062,-5.20854 2.17687,-2.09357 4.35374,-4.52643 6.53061,-7.21761 2.17687,-2.69118 4.35374,-5.64181 6.53061,-8.75457 2.17687,-3.11275 4.35374,-6.38815 6.53061,-9.71888 2.17687,-3.33073 4.35375,-6.71665 6.53062,-10.04749 2.17687,-3.33084 4.35374,-6.60581 6.53061,-9.71889 2.17687,-3.11308 4.35374,-6.06287 6.53061,-8.75457 2.17687,-2.69169 4.35374,-5.12336 6.53061,-7.2176 2.17687,-2.09424 4.35374,-3.84875 6.53062,-5.20855 2.17687,-1.3598 4.35374,-2.32237 6.53061,-2.85879 2.17687,-0.53642 4.35374,-0.64409 6.53061,-0.32204 2.17687,0.32206 4.35374,1.07633 6.53061,2.23578 2.17687,1.15946 4.35374,2.72633 6.53061,4.64735 2.17687,1.92102 4.35375,4.19801 6.53062,6.75494 2.17687,2.55693 4.35374,5.39509 6.53061,8.42068 2.17687,3.02559 4.35374,6.23928 6.53061,9.53563 2.17687,3.29635 4.35374,6.67536 6.53061,10.02685 2.17687,3.35148 4.35374,6.6748 6.53062,9.8622 2.17687,3.18741 4.35374,6.23764 6.53061,9.05248 2.17687,2.81484 4.35374,5.39248 6.53061,7.65062 2.17687,2.25815 4.35374,4.19459 6.53061,5.74834 2.17687,1.55375 4.35374,2.72233 6.53061,3.47005 2.17688,0.74773 4.35375,1.072 6.53062,0.96479 2.17687,-0.10721 4.35374,-0.64844 6.53061,-1.60358 2.17687,-0.95513 4.35374,-2.32647 6.53061,-4.06705 2.17687,-1.74058 4.35374,-3.85234 6.53061,-6.26451 2.17687,-2.41218 4.35374,-5.12621 6.53062,-8.0522 2.17687,-2.92599 4.35374,-6.06477 6.53061,-9.31319 2.17687,-3.24841 4.35374,-6.60664 6.53061,-9.965"
         style="fill:none;fill-opacity:1;stroke:#000000;stroke-width:1;stroke-linejoin:round;stroke-miterlimit:4;stroke-dasharray:none;stroke-dashoffset:0;stroke-opacity:1"
         inkscape:connector-curvature="0" />
      <path
         inkscape:connector-curvature="0"
         style="fill:none;fill-opacity:1;stroke:none;stroke-width:1;stroke-linejoin:round;stroke-miterlimit:4;stroke-dasharray:none;stroke-dashoffset:0;stroke-opacity:1;marker-start:url(#marker4208);marker-mid:url(#marker4208);marker-end:url(#marker4208)"
         d="m 120,442.36222 c 15.2381,-23.5085 30.47619,-43.5113 45.71429,-38.30074 15.23809,5.21057 30.47619,34.15659 45.71428,55.34618 15.2381,21.18958 30.47619,28.31018 45.71429,13.66937 15.23809,-14.64081 30.47619,-46.7558 45.71428,-61.42961 15.2381,-14.67381 30.47619,-7.5019 45.71429,13.66937 15.23809,21.17127 30.47619,50.09446 45.71428,55.34617 15.2381,5.25171 30.47619,-14.79223 45.71429,-38.30074"
         title="sin(2*x)"
         id="path4558" />
    </g>
    <g
       id="g5087"
       transform="translate(-60.629457,-475.79695)">
      <path
         id="path4981"
         title="sin(3*x)"
         d="m 120,862.36225 c 2.17687,-5.03754 4.35374,-10.07289 6.53061,-14.74263 2.17687,-4.66974 4.35374,-8.96837 6.53061,-12.58775 2.17688,-3.61939 4.35375,-6.55297 6.53062,-8.59297 2.17687,-2.04 4.35374,-3.17975 6.53061,-3.34218 2.17687,-0.16243 4.35374,0.65825 6.53061,2.39713 2.17687,1.73888 4.35374,4.40003 6.53061,7.78605 2.17687,3.38603 4.35374,7.49868 6.53062,12.03692 2.17687,4.53825 4.35374,9.50126 6.53061,14.52839 2.17687,5.02713 4.35374,10.11508 6.53061,14.89629 2.17687,4.78121 4.35374,9.25043 6.53061,13.08687 2.17687,3.83644 4.35374,7.03366 6.53061,9.36457 2.17688,2.33091 4.35375,3.78881 6.53062,4.27349 2.17687,0.48469 4.35374,-0.01 6.53061,-1.44223 2.17687,-1.43239 4.35374,-3.80704 6.53061,-6.94714 2.17687,-3.1401 4.35374,-7.04779 6.53061,-11.43662 2.17687,-4.38882 4.35375,-9.25838 6.53062,-14.25444 2.17687,-4.99606 4.35374,-10.11572 6.53061,-14.98875 2.17687,-4.87303 4.35374,-9.49446 6.53061,-13.5322 2.17687,-4.03773 4.35374,-7.48544 6.53061,-10.09769 2.17687,-2.61225 4.35374,-4.3823 6.53061,-5.18725 2.17688,-0.80494 4.35375,-0.63861 6.53062,0.4814 2.17687,1.12002 4.35374,3.19843 6.53061,6.07969 2.17687,2.88127 4.35374,6.56795 6.53061,10.78933 2.17687,4.22137 4.35374,8.97746 6.53061,13.92192 2.17687,4.94446 4.35375,10.07478 6.53062,15.01961 2.17687,4.94482 4.35374,9.69949 6.53061,13.92192 2.17687,4.22243 4.35374,7.90647 6.53061,10.78932 2.17687,2.88286 4.35374,4.95779 6.53061,6.07969 2.17687,1.1219 4.35374,1.28444 6.53062,0.4814 2.17687,-0.80303 4.35374,-2.57665 6.53061,-5.18724 2.17687,-2.6106 4.35374,-6.06113 6.53061,-10.0977 2.17687,-4.03657 4.35374,-8.65966 6.53061,-13.5322 2.17687,-4.87254 4.35374,-9.99244 6.53061,-14.98874 2.17687,-4.99631 4.35375,-9.86467 6.53062,-14.25445 2.17687,-4.38977 4.35374,-8.295 6.53061,-11.43661 2.17687,-3.14162 4.35374,-5.5129 6.53061,-6.94715 2.17687,-1.43424 4.35374,-1.92498 6.53061,-1.44223 2.17687,0.48276 4.35374,1.9443 6.53062,4.2735 2.17687,2.32919 4.35374,5.52938 6.53061,9.36457 2.17687,3.83518 4.35374,8.30626 6.53061,13.08686 2.17687,4.7806 4.35374,9.86905 6.53061,14.8963 2.17687,5.02725 4.35374,9.9893 6.53061,14.52839 2.17688,4.53908 4.35375,8.64945 6.53062,12.03691 2.17687,3.38746 4.35374,6.04535 6.53061,7.78605 2.17687,1.7407 4.35374,2.55762 6.53061,2.39713 2.17687,-0.16049 4.35374,-1.30395 6.53061,-3.34218 2.17687,-2.03822 4.35374,-4.97492 6.53062,-8.59296 2.17687,-3.61804 4.35374,-7.91874 6.53061,-12.58776 2.17687,-4.66901 4.35374,-9.70509 6.53061,-14.74263"
         style="fill:none;fill-opacity:1;stroke:#000000;stroke-width:1;stroke-linejoin:round;stroke-miterlimit:4;stroke-dasharray:none;stroke-dashoffset:0;stroke-opacity:1"
         inkscape:connector-curvature="0" />
      <path
         style="fill:none;fill-opacity:1;stroke:none;stroke-width:1;stroke-linejoin:round;stroke-miterlimit:4;stroke-dasharray:none;stroke-dashoffset:0;stroke-opacity:1;marker-start:url(#marker4208);marker-mid:url(#marker4208);marker-end:url(#marker4208)"
         d="m 120,862.36225 c 15.2381,-35.26273 30.47619,-48.79545 45.71429,-17.04543 15.23809,31.75002 30.47619,69.70907 45.71428,47.76024 15.2381,-21.94883 30.47619,-76.81595 45.71429,-69.01555 15.23809,7.80041 30.47619,68.7085 45.71428,76.60148 15.2381,7.89298 30.47619,-46.99247 45.71429,-69.01554 15.23809,-22.02308 30.47619,15.96901 45.71428,47.76024 15.2381,31.79122 30.47619,18.21729 45.71429,-17.04544"
         title="sin(3*x)"
         id="path5051"
         inkscape:connector-curvature="0" />
    </g>
    <g
       style="font-style:normal;font-weight:normal;font-size:15px;line-height:125%;font-family:sans-serif;letter-spacing:0px;word-spacing:0px;fill:#000000;fill-opacity:1;stroke:none;stroke-width:1px;stroke-linecap:butt;stroke-linejoin:miter;stroke-opacity:1"
       id="flowRoot6998">
      <path
         d="m 422.45117,51.687566 -4.1748,-10.935059 1.54541,0 3.46435,9.206543 3.47168,-9.206543 1.53809,0 -4.16748,10.935059 -1.67725,0 z"
         style="text-align:center;text-anchor:middle"
         id="path10746" />
      <path
         d="m 429.50439,43.484441 1.34766,0 0,8.203125 -1.34766,0 0,-8.203125 z m 0,-3.19336 1.34766,0 0,1.706543 -1.34766,0 0,-1.706543 z"
         style="text-align:center;text-anchor:middle"
         id="path10748" />
      <path
         d="m 439.55322,47.593327 q 0,-1.486816 -0.61523,-2.329101 -0.60791,-0.84961 -1.67725,-0.84961 -1.06933,0 -1.68457,0.84961 -0.60791,0.842285 -0.60791,2.329101 0,1.486817 0.60791,2.336426 0.61524,0.842285 1.68457,0.842285 1.06934,0 1.67725,-0.842285 0.61523,-0.849609 0.61523,-2.336426 z m -4.58496,-2.863769 q 0.42481,-0.732422 1.06934,-1.083985 0.65185,-0.358886 1.55273,-0.358886 1.49414,0 2.42432,1.186523 0.9375,1.186524 0.9375,3.120117 0,1.933594 -0.9375,3.120117 -0.93018,1.186524 -2.42432,1.186524 -0.90088,0 -1.55273,-0.351563 -0.64453,-0.358886 -1.06934,-1.091308 l 0,1.230469 -1.35498,0 0,-11.396485 1.35498,0 0,4.438477 z"
         style="text-align:center;text-anchor:middle"
         id="path10750" />
      <path
         d="m 452.11426,40.291081 0,1.120606 -1.28906,0 q -0.7251,0 -1.01075,0.292968 -0.27832,0.292969 -0.27832,1.054688 l 0,0.725098 2.21924,0 0,1.047363 -2.21924,0 0,7.155762 -1.35498,0 0,-7.155762 -1.28906,0 0,-1.047363 1.28906,0 0,-0.57129 q 0,-1.369628 0.63721,-1.992187 0.63721,-0.629883 2.02148,-0.629883 l 1.27442,0 z"
         style="text-align:center;text-anchor:middle"
         id="path10752" />
      <path
         d="m 457.98828,44.744206 q -0.22705,-0.131836 -0.49805,-0.19043 -0.26367,-0.06592 -0.58593,-0.06592 -1.14258,0 -1.75782,0.74707 -0.60791,0.739746 -0.60791,2.131347 l 0,4.32129 -1.35498,0 0,-8.203125 1.35498,0 0,1.274414 q 0.42481,-0.747071 1.10596,-1.105957 0.68115,-0.366211 1.65527,-0.366211 0.13916,0 0.30762,0.02197 0.16846,0.01465 0.37354,0.05127 l 0.007,1.384277 z"
         style="text-align:center;text-anchor:middle"
         id="path10754" />
      <path
         d="m 466.11084,47.249089 0,0.65918 -6.19629,0 q 0.0879,1.391601 0.83496,2.124023 0.7544,0.725098 2.09473,0.725098 0.77637,0 1.50146,-0.19043 0.73242,-0.19043 1.4502,-0.571289 l 0,1.274414 q -0.7251,0.307617 -1.48682,0.46875 -0.76172,0.161133 -1.54541,0.161133 -1.96289,0 -3.11279,-1.142578 -1.14258,-1.142578 -1.14258,-3.090821 0,-2.01416 1.08399,-3.193359 1.0913,-1.186523 2.93701,-1.186523 1.65527,0 2.61474,1.069336 0.9668,1.062011 0.9668,2.893066 z m -1.34766,-0.395508 q -0.0146,-1.105957 -0.62256,-1.765137 -0.60058,-0.659179 -1.59667,-0.659179 -1.12793,0 -1.80909,0.637207 -0.67382,0.637207 -0.77636,1.794433 l 4.80468,-0.0073 z"
         style="text-align:center;text-anchor:middle"
         id="path10756" />
      <path
         d="m 469.12842,47.593327 q 0,1.486817 0.60791,2.336426 0.61523,0.842285 1.68457,0.842285 1.06933,0 1.68457,-0.842285 0.61523,-0.849609 0.61523,-2.336426 0,-1.486816 -0.61523,-2.329101 -0.61524,-0.84961 -1.68457,-0.84961 -1.06934,0 -1.68457,0.84961 -0.60791,0.842285 -0.60791,2.329101 z m 4.59228,2.86377 q -0.4248,0.732422 -1.07666,1.091308 -0.64453,0.351563 -1.55273,0.351563 -1.48682,0 -2.42432,-1.186524 -0.93017,-1.186523 -0.93017,-3.120117 0,-1.933593 0.93017,-3.120117 0.9375,-1.186523 2.42432,-1.186523 0.9082,0 1.55273,0.358886 0.65186,0.351563 1.07666,1.083985 l 0,-1.245117 1.34766,0 0,11.323242 -1.34766,0 0,-4.350586 z"
         style="text-align:center;text-anchor:middle"
         id="path10758" />
      <path
         d="m 477.70508,48.450261 0,-4.96582 1.34765,0 0,4.91455 q 0,1.164551 0.45411,1.750489 0.4541,0.578613 1.3623,0.578613 1.09131,0 1.72119,-0.695801 0.63721,-0.695801 0.63721,-1.896973 l 0,-4.650878 1.34766,0 0,8.203125 -1.34766,0 0,-1.259766 q -0.49072,0.74707 -1.14258,1.113281 -0.64453,0.358887 -1.50146,0.358887 -1.41358,0 -2.146,-0.878906 -0.73242,-0.878907 -0.73242,-2.570801 z m 3.39111,-5.163574 0,0 z"
         style="text-align:center;text-anchor:middle"
         id="path10760" />
      <path
         d="m 494.38232,47.249089 0,0.65918 -6.19628,0 q 0.0879,1.391601 0.83496,2.124023 0.75439,0.725098 2.09472,0.725098 0.77637,0 1.50147,-0.19043 0.73242,-0.19043 1.45019,-0.571289 l 0,1.274414 q -0.72509,0.307617 -1.48681,0.46875 -0.76172,0.161133 -1.54541,0.161133 -1.96289,0 -3.1128,-1.142578 -1.14257,-1.142578 -1.14257,-3.090821 0,-2.01416 1.08398,-3.193359 1.09131,-1.186523 2.93701,-1.186523 1.65527,0 2.61475,1.069336 0.96679,1.062011 0.96679,2.893066 z m -1.34765,-0.395508 q -0.0147,-1.105957 -0.62256,-1.765137 -0.60059,-0.659179 -1.59668,-0.659179 -1.12793,0 -1.80908,0.637207 -0.67383,0.637207 -0.77637,1.794433 l 4.80469,-0.0073 z"
         style="text-align:center;text-anchor:middle"
         id="path10762" />
      <path
         d="m 503.41309,46.736394 0,4.951172 -1.34766,0 0,-4.907227 q 0,-1.164551 -0.4541,-1.743164 -0.4541,-0.578613 -1.36231,-0.578613 -1.09131,0 -1.72119,0.6958 -0.62988,0.695801 -0.62988,1.896973 l 0,4.636231 -1.35498,0 0,-8.203125 1.35498,0 0,1.274414 q 0.4834,-0.739746 1.13525,-1.105957 0.65918,-0.366211 1.51612,-0.366211 1.41357,0 2.13867,0.878906 0.7251,0.871582 0.7251,2.570801 z"
         style="text-align:center;text-anchor:middle"
         id="path10764" />
      <path
         d="m 512.01904,43.799382 0,1.259766 q -0.57129,-0.314942 -1.1499,-0.46875 -0.57129,-0.161133 -1.15723,-0.161133 -1.31103,0 -2.03613,0.834961 -0.7251,0.827636 -0.7251,2.329101 0,1.501465 0.7251,2.336426 0.7251,0.827637 2.03613,0.827637 0.58594,0 1.15723,-0.153809 0.57861,-0.161133 1.1499,-0.476074 l 0,1.245117 q -0.56396,0.263672 -1.17187,0.395508 -0.60059,0.131836 -1.28174,0.131836 -1.85303,0 -2.94434,-1.164551 -1.0913,-1.164551 -1.0913,-3.14209 0,-2.006836 1.09863,-3.156738 1.10595,-1.149902 3.0249,-1.149902 0.62256,0 1.21582,0.131836 0.59326,0.124511 1.1499,0.380859 z"
         style="text-align:center;text-anchor:middle"
         id="path10766" />
      <path
         d="m 517.79053,52.449284 q -0.57129,1.464844 -1.11328,1.911621 -0.542,0.446778 -1.4502,0.446778 l -1.07666,0 0,-1.12793 0.79102,0 q 0.55664,0 0.86425,-0.263672 0.30762,-0.263672 0.68116,-1.245117 l 0.2417,-0.615234 -3.31788,-8.071289 1.42823,0 2.56347,6.416015 2.56348,-6.416015 1.42822,0 -3.60351,8.964843 z"
         style="text-align:center;text-anchor:middle"
         id="path10768" />
      <path
         d="m 442.64404,59.05573 q -0.98144,1.68457 -1.45752,3.332519 -0.47607,1.647949 -0.47607,3.339844 0,1.691894 0.47607,3.354492 0.4834,1.655274 1.45752,3.33252 l -1.17187,0 q -1.09863,-1.721192 -1.64795,-3.383789 -0.54199,-1.662598 -0.54199,-3.303223 0,-1.633301 0.54199,-3.288574 0.54199,-1.655274 1.64795,-3.383789 l 1.17187,0 z"
         style="text-align:center;text-anchor:middle"
         id="path10770" />
      <path
         d="m 452.28271,65.999089 0,0.65918 -6.19628,0 q 0.0879,1.391601 0.83496,2.124023 0.75439,0.725098 2.09472,0.725098 0.77637,0 1.50147,-0.19043 0.73242,-0.19043 1.45019,-0.571289 l 0,1.274414 q -0.72509,0.307617 -1.48681,0.46875 -0.76172,0.161133 -1.54541,0.161133 -1.96289,0 -3.1128,-1.142578 -1.14257,-1.142578 -1.14257,-3.090821 0,-2.01416 1.08398,-3.193359 1.09131,-1.186523 2.93701,-1.186523 1.65528,0 2.61475,1.069336 0.96679,1.062011 0.96679,2.893066 z m -1.34765,-0.395508 q -0.0147,-1.105957 -0.62256,-1.765137 -0.60059,-0.659179 -1.59668,-0.659179 -1.12793,0 -1.80908,0.637207 -0.67383,0.637207 -0.77637,1.794433 l 4.80469,-0.0073 z"
         style="text-align:center;text-anchor:middle"
         id="path10772" />
      <path
         d="m 461.31348,65.486394 0,4.951172 -1.34766,0 0,-4.907227 q 0,-1.164551 -0.4541,-1.743164 -0.4541,-0.578613 -1.36231,-0.578613 -1.0913,0 -1.72119,0.6958 -0.62988,0.695801 -0.62988,1.896973 l 0,4.636231 -1.35498,0 0,-8.203125 1.35498,0 0,1.274414 q 0.4834,-0.739746 1.13525,-1.105957 0.65918,-0.366211 1.51612,-0.366211 1.41357,0 2.13867,0.878906 0.7251,0.871582 0.7251,2.570801 z"
         style="text-align:center;text-anchor:middle"
         id="path10774" />
      <path
         d="m 471.03271,65.999089 0,0.65918 -6.19628,0 q 0.0879,1.391601 0.83496,2.124023 0.75439,0.725098 2.09472,0.725098 0.77637,0 1.50147,-0.19043 0.73242,-0.19043 1.45019,-0.571289 l 0,1.274414 q -0.72509,0.307617 -1.48681,0.46875 -0.76172,0.161133 -1.54541,0.161133 -1.96289,0 -3.1128,-1.142578 -1.14257,-1.142578 -1.14257,-3.090821 0,-2.01416 1.08398,-3.193359 1.09131,-1.186523 2.93701,-1.186523 1.65528,0 2.61475,1.069336 0.96679,1.062011 0.96679,2.893066 z m -1.34765,-0.395508 q -0.0147,-1.105957 -0.62256,-1.765137 -0.60059,-0.659179 -1.59668,-0.659179 -1.12793,0 -1.80908,0.637207 -0.67383,0.637207 -0.77637,1.794433 l 4.80469,-0.0073 z"
         style="text-align:center;text-anchor:middle"
         id="path10776" />
      <path
         d="M 477.99805,63.494206 Q 477.771,63.36237 477.5,63.303776 q -0.26367,-0.06592 -0.58594,-0.06592 -1.14258,0 -1.75781,0.74707 -0.60791,0.739746 -0.60791,2.131347 l 0,4.32129 -1.35498,0 0,-8.203125 1.35498,0 0,1.274414 q 0.4248,-0.747071 1.10596,-1.105957 0.68115,-0.366211 1.65527,-0.366211 0.13916,0 0.30762,0.02197 0.16845,0.01465 0.37353,0.05127 l 0.007,1.384277 z"
         style="text-align:center;text-anchor:middle"
         id="path10778" />
      <path
         d="m 484.56055,66.240788 q 0,-1.464844 -0.60791,-2.270508 -0.60059,-0.805664 -1.6919,-0.805664 -1.08398,0 -1.69189,0.805664 -0.60059,0.805664 -0.60059,2.270508 0,1.45752 0.60059,2.263184 0.60791,0.805664 1.69189,0.805664 1.09131,0 1.6919,-0.805664 0.60791,-0.805664 0.60791,-2.263184 z m 1.34765,3.178711 q 0,2.094727 -0.93017,3.112793 -0.93018,1.025391 -2.84912,1.025391 -0.71045,0 -1.34034,-0.109864 -0.62988,-0.102539 -1.22314,-0.322265 l 0,-1.311035 q 0.59326,0.322265 1.17187,0.476074 0.57862,0.153808 1.1792,0.153808 1.32569,0 1.98487,-0.6958 0.65918,-0.688477 0.65918,-2.087403 l 0,-0.666504 q -0.41748,0.725098 -1.06934,1.083985 -0.65185,0.358887 -1.56006,0.358887 -1.50879,0 -2.43164,-1.149903 -0.92285,-1.149902 -0.92285,-3.046875 0,-1.904297 0.92285,-3.054199 0.92285,-1.149902 2.43164,-1.149902 0.90821,0 1.56006,0.358886 0.65186,0.358887 1.06934,1.083985 l 0,-1.245117 1.34765,0 0,7.185058 z"
         style="text-align:center;text-anchor:middle"
         id="path10780" />
      <path
         d="m 492.09717,71.199284 q -0.57129,1.464844 -1.11328,1.911621 -0.542,0.446778 -1.4502,0.446778 l -1.07666,0 0,-1.12793 0.79102,0 q 0.55664,0 0.86425,-0.263672 0.30762,-0.263672 0.68116,-1.245117 l 0.2417,-0.615234 -3.31787,-8.071289 1.42822,0 2.56347,6.416015 2.56348,-6.416015 1.42822,0 -3.60351,8.964843 z"
         style="text-align:center;text-anchor:middle"
         id="path10782" />
      <path
         d="m 497.34863,59.05573 1.17188,0 q 1.09863,1.728515 1.64062,3.383789 0.54932,1.655273 0.54932,3.288574 0,1.640625 -0.54932,3.303223 -0.54199,1.662597 -1.64062,3.383789 l -1.17188,0 q 0.97412,-1.677246 1.4502,-3.33252 0.4834,-1.662598 0.4834,-3.354492 0,-1.691895 -0.4834,-3.339844 -0.47608,-1.647949 -1.4502,-3.332519 z"
         style="text-align:center;text-anchor:middle"
         id="path10784" />
    </g>
    <path
       style="fill:none;fill-rule:evenodd;stroke:#000000;stroke-width:1px;stroke-linecap:butt;stroke-linejoin:miter;stroke-opacity:1;marker-end:url(#Arrow1Lend)"
       d="m 470,112.3622 0,-19.999995"
       id="path7006"
       inkscape:connector-curvature="0" />
    <path
       inkscape:connector-curvature="0"
       id="path7318"
       d="m 470,188.99166 0,-29.09137"
       style="fill:none;fill-rule:evenodd;stroke:#000000;stroke-width:1px;stroke-linecap:butt;stroke-linejoin:miter;stroke-opacity:1;marker-end:url(#marker7320)"
       sodipodi:nodetypes="cc" />
    <path
       sodipodi:nodetypes="cc"
       style="fill:none;fill-rule:evenodd;stroke:#000000;stroke-width:1px;stroke-linecap:butt;stroke-linejoin:miter;stroke-opacity:1;marker-end:url(#marker7770)"
       d="m 470,287.98661 0,-38.18274"
       id="path7768"
       inkscape:connector-curvature="0" />
    <path
       inkscape:connector-curvature="0"
       id="path8158"
       d="m 470,406.09324 0,-50.30457"
       style="fill:none;fill-rule:evenodd;stroke:#000000;stroke-width:1px;stroke-linecap:butt;stroke-linejoin:miter;stroke-opacity:1;marker-end:url(#marker8160)"
       sodipodi:nodetypes="cc" />
    <g
       transform="translate(-10,-4)"
       style="font-style:normal;font-weight:normal;font-size:15px;line-height:125%;font-family:sans-serif;letter-spacing:0px;word-spacing:0px;fill:#000000;fill-opacity:1;stroke:none;stroke-width:1px;stroke-linecap:butt;stroke-linejoin:miter;stroke-opacity:1"
       id="flowRoot8754">
      <path
         d="m 588.72559,46.377507 1.49414,0 2.2998,9.243164 2.29248,-9.243164 1.6626,0 2.2998,9.243164 2.29248,-9.243164 1.50147,0 -2.74658,10.935059 -1.86035,0 -2.30713,-9.492188 -2.3291,9.492188 -1.86036,0 -2.73925,-10.935059 z"
         style="text-align:center;text-anchor:middle"
         id="path10787" />
      <path
         d="m 607.22656,53.18903 q -1.6333,0 -2.26318,0.373536 -0.62988,0.373535 -0.62988,1.274414 0,0.717773 0.46875,1.142578 0.47607,0.41748 1.28906,0.41748 1.1206,0 1.79443,-0.791015 0.68115,-0.79834 0.68115,-2.1167 l 0,-0.300293 -1.34033,0 z m 2.68799,-0.55664 0,4.680176 -1.34766,0 0,-1.245118 q -0.46142,0.747071 -1.1499,1.105957 -0.68847,0.351563 -1.68457,0.351563 -1.25976,0 -2.00683,-0.703125 -0.73975,-0.710449 -0.73975,-1.896973 0,-1.384277 0.92285,-2.087402 0.93018,-0.703125 2.76856,-0.703125 l 1.88964,0 0,-0.131836 q 0,-0.930176 -0.61523,-1.435547 -0.60791,-0.512695 -1.71387,-0.512695 -0.70312,0 -1.36963,0.168457 -0.6665,0.168457 -1.28173,0.505371 l 0,-1.245117 q 0.73974,-0.285645 1.43554,-0.424805 0.6958,-0.146484 1.35498,-0.146484 1.77979,0 2.65869,0.922851 0.87891,0.922852 0.87891,2.797852 z"
         style="text-align:center;text-anchor:middle"
         id="path10789" />
      <path
         d="m 611.73096,49.109441 1.42822,0 2.56348,6.884765 2.56347,-6.884765 1.42823,0 -3.07618,8.203125 -1.83105,0 -3.07617,-8.203125 z"
         style="text-align:center;text-anchor:middle"
         id="path10791" />
      <path
         d="m 628.59131,52.874089 0,0.65918 -6.19629,0 q 0.0879,1.391601 0.83496,2.124023 0.75439,0.725098 2.09473,0.725098 0.77636,0 1.50146,-0.19043 0.73242,-0.19043 1.4502,-0.571289 l 0,1.274414 q -0.7251,0.307617 -1.48682,0.46875 -0.76172,0.161133 -1.54541,0.161133 -1.96289,0 -3.11279,-1.142578 -1.14258,-1.142578 -1.14258,-3.090821 0,-2.01416 1.08398,-3.193359 1.09131,-1.186523 2.93702,-1.186523 1.65527,0 2.61474,1.069336 0.9668,1.062011 0.9668,2.893066 z m -1.34766,-0.395508 q -0.0146,-1.105957 -0.62256,-1.765137 -0.60058,-0.659179 -1.59668,-0.659179 -1.12793,0 -1.80908,0.637207 -0.67383,0.637207 -0.77637,1.794433 l 4.80469,-0.0073 z"
         style="text-align:center;text-anchor:middle"
         id="path10793" />
      <path
         d="m 634.61182,49.109441 1.42822,0 2.56348,6.884765 2.56347,-6.884765 1.42822,0 -3.07617,8.203125 -1.83105,0 -3.07617,-8.203125 z"
         style="text-align:center;text-anchor:middle"
         id="path10795" />
      <path
         d="m 651.47217,52.874089 0,0.65918 -6.19629,0 q 0.0879,1.391601 0.83496,2.124023 0.75439,0.725098 2.09473,0.725098 0.77636,0 1.50146,-0.19043 0.73242,-0.19043 1.4502,-0.571289 l 0,1.274414 q -0.7251,0.307617 -1.48682,0.46875 -0.76172,0.161133 -1.54541,0.161133 -1.96289,0 -3.11279,-1.142578 -1.14258,-1.142578 -1.14258,-3.090821 0,-2.01416 1.08398,-3.193359 1.09131,-1.186523 2.93701,-1.186523 1.65528,0 2.61475,1.069336 0.9668,1.062011 0.9668,2.893066 z m -1.34766,-0.395508 q -0.0146,-1.105957 -0.62256,-1.765137 -0.60058,-0.659179 -1.59668,-0.659179 -1.12793,0 -1.80908,0.637207 -0.67383,0.637207 -0.77637,1.794433 l 4.80469,-0.0073 z"
         style="text-align:center;text-anchor:middle"
         id="path10797" />
      <path
         d="m 659.5874,49.424382 0,1.259766 q -0.57129,-0.314942 -1.1499,-0.46875 -0.57129,-0.161133 -1.15723,-0.161133 -1.31103,0 -2.03613,0.834961 -0.7251,0.827636 -0.7251,2.329101 0,1.501465 0.7251,2.336426 0.7251,0.827637 2.03613,0.827637 0.58594,0 1.15723,-0.153809 0.57861,-0.161133 1.1499,-0.476074 l 0,1.245117 q -0.56396,0.263672 -1.17187,0.395508 -0.60059,0.131836 -1.28174,0.131836 -1.85303,0 -2.94434,-1.164551 -1.09131,-1.164551 -1.09131,-3.14209 0,-2.006836 1.09864,-3.156738 1.10595,-1.149902 3.0249,-1.149902 0.62256,0 1.21582,0.131836 0.59326,0.124511 1.1499,0.380859 z"
         style="text-align:center;text-anchor:middle"
         id="path10799" />
      <path
         d="m 663.27881,46.780339 0,2.329102 2.77588,0 0,1.047363 -2.77588,0 0,4.453125 q 0,1.003418 0.27099,1.289062 0.27832,0.285645 1.12061,0.285645 l 1.38428,0 0,1.12793 -1.38428,0 q -1.56006,0 -2.15332,-0.578614 -0.59326,-0.585937 -0.59326,-2.124023 l 0,-4.453125 -0.98877,0 0,-1.047363 0.98877,0 0,-2.329102 1.35498,0 z"
         style="text-align:center;text-anchor:middle"
         id="path10801" />
      <path
         d="m 671.01318,50.054265 q -1.08398,0 -1.71386,0.849609 -0.62989,0.842285 -0.62989,2.314453 0,1.472168 0.62256,2.321778 0.62988,0.842285 1.72119,0.842285 1.07666,0 1.70655,-0.84961 0.62988,-0.849609 0.62988,-2.314453 0,-1.457519 -0.62988,-2.307129 -0.62989,-0.856933 -1.70655,-0.856933 z m 0,-1.142578 q 1.75782,0 2.76123,1.142578 1.00342,1.142578 1.00342,3.164062 0,2.01416 -1.00342,3.164063 -1.00341,1.142578 -2.76123,1.142578 -1.76513,0 -2.76855,-1.142578 -0.99609,-1.149903 -0.99609,-3.164063 0,-2.021484 0.99609,-3.164062 1.00342,-1.142578 2.76855,-1.142578 z"
         style="text-align:center;text-anchor:middle"
         id="path10803" />
      <path
         d="m 681.75781,50.369206 q -0.22705,-0.131836 -0.49804,-0.19043 -0.26368,-0.06592 -0.58594,-0.06592 -1.14258,0 -1.75781,0.74707 -0.60791,0.739746 -0.60791,2.131347 l 0,4.32129 -1.35499,0 0,-8.203125 1.35499,0 0,1.274414 q 0.4248,-0.747071 1.10595,-1.105957 0.68115,-0.366211 1.65528,-0.366211 0.13916,0 0.30761,0.02197 0.16846,0.01465 0.37354,0.05127 l 0.007,1.384277 z"
         style="text-align:center;text-anchor:middle"
         id="path10805" />
      <path
         d="m 628.41553,64.68073 q -0.98145,1.68457 -1.45752,3.332519 -0.47608,1.647949 -0.47608,3.339844 0,1.691894 0.47608,3.354492 0.4834,1.655274 1.45752,3.33252 l -1.17188,0 q -1.09863,-1.721192 -1.64795,-3.383789 -0.54199,-1.662598 -0.54199,-3.303223 0,-1.633301 0.54199,-3.288574 0.542,-1.655274 1.64795,-3.383789 l 1.17188,0 z"
         style="text-align:center;text-anchor:middle"
         id="path10807" />
      <path
         d="m 634.73633,69.565984 q -0.83496,0 -1.28174,0.615234 -0.43945,0.615234 -0.43945,1.787109 0,1.171875 0.43945,1.78711 0.44678,0.615234 1.28174,0.615234 0.84228,0 1.28174,-0.615234 0.44677,-0.615235 0.44677,-1.78711 0,-1.171875 -0.44677,-1.787109 -0.43946,-0.615234 -1.28174,-0.615234 z m 1.72851,5.310058 q -0.54199,0.725098 -1.19384,1.062012 -0.65186,0.336914 -1.50879,0.336914 -1.51612,0 -2.49024,-1.201172 -0.97412,-1.208496 -0.97412,-3.105469 0,-1.896972 0.97412,-3.09082 0.97412,-1.201172 2.49024,-1.201172 0.85693,0 1.50879,0.336914 0.65185,0.336914 1.19384,1.062012 l 0,-1.21582 2.63672,0 0,11.323242 -2.63672,0 0,-4.306641 z"
         style="font-weight:bold;text-align:center;text-anchor:middle"
         id="path10809" />
      <path
         d="m 641.57715,64.68073 1.17187,0 q 1.09864,1.728515 1.64063,3.383789 0.54931,1.655273 0.54931,3.288574 0,1.640625 -0.54931,3.303223 -0.54199,1.662597 -1.64063,3.383789 l -1.17187,0 q 0.97412,-1.677246 1.45019,-3.33252 0.4834,-1.662598 0.4834,-3.354492 0,-1.691895 -0.4834,-3.339844 -0.47607,-1.647949 -1.45019,-3.332519 z"
         style="text-align:center;text-anchor:middle"
         id="path10811" />
    </g>
    <path
       style="fill:none;fill-rule:evenodd;stroke:#000000;stroke-width:1px;stroke-linecap:butt;stroke-linejoin:miter;stroke-opacity:1;marker-end:url(#marker8774)"
       d="m 610,102.3622 23.13198,0"
       id="path8766"
       inkscape:connector-curvature="0"
       sodipodi:nodetypes="cc" />
    <path
       sodipodi:nodetypes="cc"
       inkscape:connector-curvature="0"
       id="path8904"
       d="m 612.0203,172.06273 29.1929,0"
       style="fill:none;fill-rule:evenodd;stroke:#000000;stroke-width:1px;stroke-linecap:butt;stroke-linejoin:miter;stroke-opacity:1;marker-end:url(#marker8906)"
       inkscape:transform-center-x="0.91001374"
       inkscape:transform-center-y="-70.710678" />
    <path
       inkscape:transform-center-y="-70.710678"
       inkscape:transform-center-x="0.91001374"
       style="fill:none;fill-rule:evenodd;stroke:#000000;stroke-width:1px;stroke-linecap:butt;stroke-linejoin:miter;stroke-opacity:1;marker-end:url(#marker9458)"
       d="m 608.98984,272.08814 42.32488,0"
       id="path9456"
       inkscape:connector-curvature="0"
       sodipodi:nodetypes="cc" />
    <path
       sodipodi:nodetypes="cc"
       inkscape:connector-curvature="0"
       id="path10026"
       d="m 608.98984,382.08814 53.43656,0"
       style="fill:none;fill-rule:evenodd;stroke:#000000;stroke-width:1px;stroke-linecap:butt;stroke-linejoin:miter;stroke-opacity:1;marker-end:url(#marker10028)"
       inkscape:transform-center-x="0.91001374"
       inkscape:transform-center-y="-70.710678" />
  </g>
</svg>
