<?xml version="1.0" encoding="UTF-8" standalone="no"?>
<!-- Created with Inkscape (http://www.inkscape.org/) -->

<svg
   xmlns:dc="http://purl.org/dc/elements/1.1/"
   xmlns:cc="http://creativecommons.org/ns#"
   xmlns:rdf="http://www.w3.org/1999/02/22-rdf-syntax-ns#"
   xmlns:svg="http://www.w3.org/2000/svg"
   xmlns="http://www.w3.org/2000/svg"
   xmlns:xlink="http://www.w3.org/1999/xlink"
   xmlns:sodipodi="http://sodipodi.sourceforge.net/DTD/sodipodi-0.dtd"
   xmlns:inkscape="http://www.inkscape.org/namespaces/inkscape"
   inkscape:version="0.91 r"
   version="1.1"
   id="svg2"
   viewBox="0 0 1016.4354 344.23429"
   height="97.150566mm"
   width="286.86066mm"
   sodipodi:docname="1d_lowest_freq.svg">
  <sodipodi:namedview
     inkscape:window-maximized="1"
     inkscape:window-y="360"
     inkscape:window-x="1080"
     inkscape:window-height="1169"
     inkscape:window-width="1916"
     showgrid="true"
     inkscape:current-layer="layer1"
     inkscape:document-units="px"
     inkscape:cy="135.75115"
     inkscape:cx="145.81227"
     inkscape:zoom="0.7"
     inkscape:pageshadow="2"
     inkscape:pageopacity="0.0"
     borderopacity="1.0"
     bordercolor="#666666"
     pagecolor="#ffffff"
     id="base"
     fit-margin-top="5"
     fit-margin-left="5"
     fit-margin-right="5"
     fit-margin-bottom="5">
    <inkscape:grid
       originy="-682.28347"
       originx="-91.782016"
       type="xygrid"
       id="grid4136" />
  </sodipodi:namedview>
  <defs
     id="defs4">
    <linearGradient
       inkscape:collect="always"
       id="linearGradient4206">
      <stop
         style="stop-color:#ff6000;stop-opacity:1;"
         offset="0"
         id="stop4157" />
      <stop
         style="stop-color:#ffffff;stop-opacity:1"
         offset="1"
         id="stop4159" />
    </linearGradient>
    <marker
       markerWidth="21"
       markerHeight="21"
       refX="10.5"
       refY="10.5"
       orient="auto"
       id="marker4144">
      <circle
         r="10"
         cy="10.5"
         cx="10.5"
         id="path4142"
         style="fill:#ff6000;fill-opacity:1;stroke:#000000;stroke-width:1;stroke-linejoin:round;stroke-miterlimit:4;stroke-dasharray:none;stroke-dashoffset:0;stroke-opacity:1" />
    </marker>
    <linearGradient
       inkscape:collect="always"
       xlink:href="#linearGradient4206"
       id="linearGradient4161"
       x1="65"
       y1="207.3622"
       x2="50"
       y2="192.3622"
       gradientUnits="userSpaceOnUse"
       gradientTransform="translate(-49.500003,-191.8622)" />
    <marker
       markerWidth="21"
       markerHeight="21"
       refX="10.5"
       refY="10.5"
       orient="auto"
       id="marker4208">
      <circle
         r="10"
         cy="10.5"
         cx="10.5"
         id="path4153"
         style="fill:url(#linearGradient4161);fill-opacity:1;stroke:#000000;stroke-width:1;stroke-linejoin:round;stroke-miterlimit:4;stroke-dasharray:none;stroke-dashoffset:0;stroke-opacity:1" />
    </marker>
  </defs>
  <metadata
     id="metadata7">
    <rdf:RDF>
      <cc:Work
         rdf:about="">
        <dc:format>image/svg+xml</dc:format>
        <dc:type
           rdf:resource="http://purl.org/dc/dcmitype/StillImage" />
        <dc:title></dc:title>
      </cc:Work>
    </rdf:RDF>
  </metadata>
  <g
     transform="translate(-91.782019,-25.84443)"
     inkscape:label="Layer 1"
     inkscape:groupmode="layer"
     id="layer1">
    <path
       style="fill:none;fill-rule:evenodd;stroke:#000000;stroke-width:1px;stroke-linecap:butt;stroke-linejoin:miter;stroke-opacity:1"
       d="m 1080,272.36218 0,80"
       id="path11311"
       inkscape:connector-curvature="0" />
    <path
       style="fill:none;fill-rule:evenodd;stroke:#000000;stroke-width:1px;stroke-linecap:butt;stroke-linejoin:miter;stroke-opacity:1"
       d="m 760,152.36218 0,80"
       id="path11309"
       inkscape:connector-curvature="0" />
    <path
       style="fill:none;fill-rule:evenodd;stroke:#000000;stroke-width:1px;stroke-linecap:butt;stroke-linejoin:miter;stroke-opacity:1"
       d="m 440,52.362181 0,79.999999"
       id="path11307"
       inkscape:connector-curvature="0" />
    <path
       style="fill:none;fill-rule:evenodd;stroke:#000000;stroke-width:1px;stroke-linecap:butt;stroke-linejoin:miter;stroke-opacity:1"
       d="m 120,52.362181 0,299.999999"
       id="path11305"
       inkscape:connector-curvature="0"
       sodipodi:nodetypes="cc" />
    <g
       id="g4313">
      <path
         inkscape:connector-curvature="0"
         style="fill:none;fill-opacity:1;stroke:#000000;stroke-width:1;stroke-linejoin:round;stroke-miterlimit:4;stroke-dasharray:none;stroke-dashoffset:0;stroke-opacity:1"
         d="m 120,92.3622 c 2.17687,-0.83959 4.35374,-1.67917 6.53061,-2.51704 2.17687,-0.83787 4.35374,-1.674 6.53061,-2.5067 2.17688,-0.8327 4.35375,-1.66195 6.53062,-2.48606 2.17687,-0.82411 4.35374,-1.64306 6.53061,-2.4552 2.17687,-0.81214 4.35374,-1.61742 6.53061,-2.41425 2.17687,-0.79682 4.35374,-1.58514 6.53061,-2.36338 2.17687,-0.77824 4.35374,-1.54634 6.53062,-2.3028 2.17687,-0.75646 4.35374,-1.50119 6.53061,-2.23276 2.17687,-0.73156 4.35374,-1.44987 6.53061,-2.15353 2.17687,-0.70367 4.35374,-1.3926 6.53061,-2.06548 2.17687,-0.67287 4.35374,-1.32959 6.53061,-1.96891 2.17688,-0.63932 4.35375,-1.26113 6.53062,-1.86427 2.17687,-0.60314 4.35374,-1.18749 6.53061,-1.75197 2.17687,-0.56447 4.35374,-1.10896 6.53061,-1.63245 2.17687,-0.5235 4.35374,-1.02588 6.53061,-1.50625 2.17687,-0.48036 4.35375,-0.93858 6.53062,-1.37384 2.17687,-0.43526 4.35374,-0.84743 6.53061,-1.23579 2.17687,-0.38837 4.35374,-0.75279 6.53061,-1.09267 2.17687,-0.33988 4.35374,-0.65506 6.53061,-0.94505 2.17687,-0.28999 4.35374,-0.55463 6.53061,-0.79355 2.17688,-0.23891 4.35375,-0.45193 6.53062,-0.63879 2.17687,-0.18685 4.35374,-0.34737 6.53061,-0.4814 2.17687,-0.13402 4.35374,-0.24139 6.53061,-0.32204 2.17687,-0.0806 4.35374,-0.13441 6.53061,-0.16135 2.17687,-0.0269 4.35375,-0.0269 6.53062,0 2.17687,0.0269 4.35374,0.0808 6.53061,0.16135 2.17687,0.0806 4.35374,0.18807 6.53061,0.32204 2.17687,0.13397 4.35374,0.2946 6.53061,0.4814 2.17687,0.1868 4.35374,0.39993 6.53062,0.63879 2.17687,0.23886 4.35374,0.50361 6.53061,0.79355 2.17687,0.28994 4.35374,0.60522 6.53061,0.94505 2.17687,0.33983 4.35374,0.70435 6.53061,1.09267 2.17687,0.38832 4.35374,0.80058 6.53061,1.23579 2.17687,0.43521 4.35375,0.89352 6.53062,1.37384 2.17687,0.48032 4.35374,0.98279 6.53061,1.50625 2.17687,0.52345 4.35374,1.06802 6.53061,1.63245 2.17687,0.56444 4.35374,1.14887 6.53061,1.75197 2.17687,0.6031 4.35374,1.22498 6.53062,1.86427 2.17687,0.63928 4.35374,1.29607 6.53061,1.96891 2.17687,0.67285 4.35374,1.36184 6.53061,2.06548 2.17687,0.70363 4.35374,1.422 6.53061,2.15353 2.17687,0.73154 4.35374,1.47633 6.53061,2.23276 2.17688,0.75643 4.35375,1.52458 6.53062,2.3028 2.17687,0.77822 4.35374,1.56657 6.53061,2.36338 2.17687,0.79681 4.35374,1.60213 6.53061,2.41425 2.17687,0.81213 4.35374,1.6311 6.53061,2.4552 2.17687,0.8241 4.35374,1.65336 6.53062,2.48606 2.17687,0.83269 4.35374,1.66884 6.53061,2.5067 2.17687,0.83786 4.35374,1.67745 6.53061,2.51704"
         title="sin(0.5*x)"
         id="path4295" />
      <path
         id="path4261"
         title="sin(0.5*x)"
         d="m 120,92.3622 c 15.2381,-5.87713 30.47619,-11.74975 45.71429,-17.04543 15.23809,-5.29568 30.47619,-10.00401 45.71428,-13.66937 15.2381,-3.66537 30.47619,-6.27687 45.71429,-7.58594 15.23809,-1.30907 30.47619,-1.30649 45.71428,0 15.2381,1.3065 30.47619,3.92264 45.71429,7.58594 15.23809,3.66329 30.47619,8.37483 45.71428,13.66937 15.2381,5.29454 30.47619,11.1683 45.71429,17.04543"
         style="fill:none;fill-opacity:1;stroke:none;stroke-width:1;stroke-linejoin:round;stroke-miterlimit:4;stroke-dasharray:none;stroke-dashoffset:0;stroke-opacity:1;marker-start:url(#marker4208);marker-mid:url(#marker4208);marker-end:url(#marker4208)"
         inkscape:connector-curvature="0" />
    </g>
    <path
       inkscape:connector-curvature="0"
       style="fill:none;fill-opacity:1;stroke:#000000;stroke-width:1;stroke-linejoin:round;stroke-miterlimit:4;stroke-dasharray:none;stroke-dashoffset:0;stroke-opacity:1"
       d=""
       title="sin(2x)"
       id="path4464" />
    <g
       id="g11301"
       transform="translate(0,-20)">
      <path
         inkscape:connector-curvature="0"
         id="path11136"
         title="sin(0.5*x)"
         d="m 120,214.36218 c 2.15488,-0.42311 4.30976,-0.84622 6.46465,-1.26912 2.15488,-0.42289 4.30976,-0.84558 6.46464,-1.26784 2.15489,-0.42226 4.30977,-0.84409 6.46465,-1.26528 2.15488,-0.4212 4.30976,-0.84175 6.46465,-1.26146 2.15488,-0.41971 4.30976,-0.83856 6.46464,-1.25636 2.15488,-0.41779 4.30977,-0.83452 6.46465,-1.24999 2.15488,-0.41547 4.30976,-0.82966 6.46465,-1.24237 2.15488,-0.41272 4.30976,-0.82395 6.46464,-1.2335 2.15488,-0.40955 4.30977,-0.81741 6.46465,-1.22338 2.15488,-0.40598 4.30976,-0.81005 6.46464,-1.21204 2.15489,-0.40198 4.30977,-0.80187 6.46465,-1.19947 2.15488,-0.39759 4.30977,-0.79288 6.46465,-1.18569 2.15488,-0.3928 4.30976,-0.7831 6.46464,-1.17072 2.15489,-0.38762 4.30977,-0.77254 6.46465,-1.15458 2.15488,-0.38204 4.30976,-0.76118 6.46465,-1.13726 2.15488,-0.37608 4.30976,-0.74907 6.46464,-1.11881 2.15489,-0.36974 4.30977,-0.7362 6.46465,-1.09923 2.15488,-0.36302 4.30976,-0.72259 6.46465,-1.07853 2.15488,-0.35595 4.30976,-0.70825 6.46464,-1.05676 2.15488,-0.34851 4.30977,-0.69321 6.46465,-1.03393 2.15488,-0.34072 4.30976,-0.67745 6.46465,-1.01004 2.15488,-0.33259 4.30976,-0.66102 6.46464,-0.98514 2.15488,-0.32413 4.30977,-0.64393 6.46465,-0.95926 2.15488,-0.31533 4.30976,-0.62618 6.46465,-0.9324 2.15488,-0.30622 4.30976,-0.6078 6.46464,-0.90461 2.15488,-0.2968 4.30977,-0.58881 6.46465,-0.8759 2.15488,-0.28709 4.30976,-0.56923 6.46464,-0.84631 2.15489,-0.27709 4.30977,-0.54908 6.46465,-0.81588 2.15488,-0.2668 4.30977,-0.52837 6.46465,-0.78461 2.15488,-0.25625 4.30976,-0.50713 6.46464,-0.75257 2.15489,-0.24543 4.30977,-0.48538 6.46465,-0.71975 2.15488,-0.23438 4.30976,-0.46315 6.46465,-0.68623 2.15488,-0.22308 4.30976,-0.44044 6.46464,-0.652 2.15489,-0.21156 4.30977,-0.41729 6.46465,-0.61711 2.15488,-0.19983 4.30976,-0.39373 6.46465,-0.58162 2.15488,-0.1879 4.30976,-0.36976 6.46464,-0.54553 2.15488,-0.17577 4.30977,-0.34542 6.46465,-0.50889 2.15488,-0.16347 4.30976,-0.32074 6.46465,-0.47174 2.15488,-0.15101 4.30976,-0.29573 6.46464,-0.43412 2.15488,-0.13839 4.30977,-0.27042 6.46465,-0.39606 2.15488,-0.12564 4.30976,-0.24484 6.46465,-0.3576 2.15488,-0.11275 4.30976,-0.21901 6.46464,-0.31877 2.15488,-0.0998 4.30977,-0.19298 6.46465,-0.27964 2.15488,-0.0867 4.30976,-0.16673 6.46464,-0.24021 2.15489,-0.0735 4.30977,-0.14033 6.46465,-0.20055 2.15488,-0.0602 4.30977,-0.11378 6.46465,-0.16068 2.15488,-0.0469 4.30976,-0.0871 6.46464,-0.12065 2.15489,-0.0335 4.30977,-0.0604 6.46465,-0.0805 2.15488,-0.0201 4.30976,-0.0336 6.46465,-0.0403 2.15488,-0.007 4.30976,-0.007 6.46464,0 2.15489,0.007 4.30977,0.0202 6.46465,0.0403 2.15488,0.0201 4.30976,0.047 6.46465,0.0805 2.15488,0.0335 4.30976,0.0738 6.46464,0.12065 2.15488,0.0469 4.30977,0.10047 6.46465,0.16068 2.15488,0.0602 4.30976,0.12708 6.46465,0.20055 2.15488,0.0735 4.30976,0.15356 6.46464,0.24021 2.15488,0.0867 4.30977,0.17989 6.46465,0.27964 2.15488,0.0997 4.30976,0.20603 6.46464,0.31877 2.15489,0.11274 4.30977,0.23198 6.46465,0.3576 2.15488,0.12562 4.30977,0.25768 6.46465,0.39606 2.15488,0.13838 4.30976,0.28312 6.46464,0.43412 2.15489,0.15099 4.30977,0.30828 6.46465,0.47174 2.15488,0.16346 4.30977,0.33313 6.46465,0.50889 2.15488,0.17576 4.30976,0.35765 6.46464,0.54553 2.15489,0.18788 4.30977,0.3818 6.46465,0.58162 2.15488,0.19981 4.30976,0.40556 6.46465,0.61711 2.15488,0.21155 4.30976,0.42893 6.46464,0.652 2.15489,0.22307 4.30977,0.45186 6.46465,0.68623 2.15488,0.23436 4.30976,0.47433 6.46465,0.71975 2.15488,0.24542 4.30976,0.49633 6.46464,0.75257 2.15488,0.25623 4.30977,0.51782 6.46465,0.78461 2.15488,0.26679 4.30976,0.5388 6.46465,0.81588 2.15488,0.27707 4.30976,0.55923 6.46464,0.84631 2.15488,0.28708 4.30977,0.57911 6.46465,0.8759 2.15488,0.2968 4.30976,0.59839 6.46464,0.90461 2.15489,0.30621 4.30977,0.61708 6.46465,0.9324 2.15488,0.31532 4.30977,0.63514 6.46465,0.95926 2.15488,0.32411 4.30976,0.65256 6.46464,0.98514 2.15489,0.33258 4.30977,0.66933 6.46465,1.01004 2.15488,0.34072 4.30977,0.68542 6.46465,1.03393 2.15488,0.3485 4.30976,0.70082 6.46464,1.05676 2.15489,0.35594 4.30977,0.71552 6.46465,1.07853 2.15488,0.36302 4.30976,0.7295 6.46465,1.09923 2.15488,0.36973 4.30976,0.74274 6.46464,1.11881 2.15489,0.37607 4.30977,0.75523 6.46465,1.13726 2.15488,0.38204 4.30976,0.76697 6.46465,1.15458 2.15488,0.38761 4.30976,0.77792 6.46464,1.17072 2.15488,0.3928 4.30977,0.7881 6.46465,1.18569 2.15488,0.3976 4.30976,0.79749 6.46465,1.19947 2.15488,0.40198 4.30976,0.80607 6.46464,1.21204 2.15488,0.40597 4.30977,0.81383 6.46465,1.22338 2.15488,0.40955 4.30976,0.82079 6.46464,1.2335 2.15489,0.41271 4.30977,0.82691 6.46465,1.24237 2.15488,0.41546 4.30977,0.8322 6.46465,1.24999 2.15488,0.4178 4.30976,0.83666 6.46464,1.25636 2.15489,0.41971 4.30977,0.84026 6.46465,1.26146 2.15488,0.42119 4.30976,0.84303 6.46465,1.26528 2.15488,0.42226 4.30976,0.84495 6.46464,1.26784 2.15489,0.4229 4.30977,0.84601 6.46465,1.26912"
         style="fill:none;fill-opacity:1;stroke:#000000;stroke-width:1;stroke-linejoin:round;stroke-miterlimit:4;stroke-dasharray:none;stroke-dashoffset:0;stroke-opacity:1" />
      <path
         inkscape:connector-curvature="0"
         style="fill:none;fill-opacity:1;stroke:none;stroke-width:1;stroke-linejoin:round;stroke-miterlimit:4;stroke-dasharray:none;stroke-dashoffset:0;stroke-opacity:1;marker-start:url(#marker4208);marker-mid:url(#marker4208);marker-end:url(#marker4208)"
         d="m 120,214.36218 c 15.2381,-2.99199 30.47619,-5.98379 45.71429,-8.90084 15.23809,-2.91705 30.47619,-5.75867 45.71428,-8.45451 15.2381,-2.69584 30.47619,-5.2448 45.71429,-7.58424 15.23809,-2.33945 30.47619,-4.46793 45.71428,-6.33367 15.2381,-1.86574 30.47619,-3.46702 45.71429,-4.76549 15.23809,-1.29848 30.47619,-2.29226 45.71428,-2.95837 15.2381,-0.6661 30.47619,-1.00254 45.71429,-1.00288 15.2381,-3.4e-4 30.47619,0.33743 45.71429,1.00288 15.23809,0.66546 30.47619,1.66049 45.71428,2.95837 15.2381,1.29787 30.47619,2.90028 45.71429,4.76549 15.23809,1.86522 30.47619,3.99464 45.71428,6.33367 15.2381,2.33902 30.47619,4.88869 45.71429,7.58424 15.23809,2.69555 30.47619,5.53761 45.71428,8.45451 15.2381,2.91691 30.47619,5.90885 45.71429,8.90084"
         title="sin(0.5*x)"
         id="path11184" />
    </g>
    <g
       id="g11297"
       transform="translate(0,-80)">
      <path
         inkscape:connector-curvature="0"
         id="path11230"
         title="sin(0.5*x)"
         d="m 120,393.79074 c 6.53061,-0.85486 13.06122,-1.70971 19.59184,-2.56281 6.53061,-0.8531 13.06122,-1.70444 19.59183,-2.55228 6.53062,-0.84784 13.06123,-1.69216 19.59184,-2.53126 6.53061,-0.83909 13.06122,-1.67293 19.59184,-2.49983 6.53061,-0.82691 13.06122,-1.64683 19.59183,-2.45815 6.53062,-0.81131 13.06123,-1.61396 19.59184,-2.40635 6.53061,-0.79239 13.06122,-1.57446 19.59184,-2.34467 6.53061,-0.77021 13.06122,-1.52849 19.59183,-2.27335 6.53062,-0.74487 13.06123,-1.47624 19.59184,-2.1927 6.53061,-0.71645 13.06123,-1.41791 19.59184,-2.10302 6.53061,-0.68511 13.06122,-1.35377 19.59183,-2.00472 6.53062,-0.65094 13.06123,-1.28406 19.59184,-1.89816 6.53061,-0.61411 13.06123,-1.20908 19.59184,-1.78382 6.53061,-0.57474 13.06122,-1.12912 19.59183,-1.66214 6.53062,-0.53301 13.06123,-1.04453 19.59184,-1.53363 6.53061,-0.4891 13.06123,-0.95565 19.59184,-1.39882 6.53061,-0.44317 13.06122,-0.86283 19.59183,-1.25826 6.53062,-0.39543 13.06123,-0.76648 19.59184,-1.11253 6.53061,-0.34606 13.06123,-0.66697 19.59184,-0.96224 6.53061,-0.29526 13.06122,-0.56472 19.59183,-0.80797 6.53062,-0.24326 13.06123,-0.46016 19.59184,-0.65041 6.53061,-0.19025 13.06123,-0.35369 19.59184,-0.49015 6.53061,-0.13646 13.06122,-0.24578 19.59183,-0.32789 6.53062,-0.0821 13.06123,-0.13686 19.59184,-0.16429 6.53061,-0.0274 13.06123,-0.0274 19.59184,0 6.53061,0.0274 13.06122,0.0822 19.59184,0.16429 6.53061,0.0821 13.06122,0.19148 19.59183,0.32789 6.53061,0.13641 13.06123,0.29996 19.59184,0.49015 6.53061,0.1902 13.06122,0.4072 19.59184,0.65041 6.53061,0.2432 13.06122,0.51276 19.59183,0.80797 6.53061,0.29521 13.06123,0.61623 19.59184,0.96224 6.53061,0.346 13.06122,0.71715 19.59184,1.11253 6.53061,0.39538 13.06122,0.81513 19.59183,1.25826 6.53061,0.44313 13.06123,0.90977 19.59184,1.39882 6.53061,0.48905 13.06122,1.00066 19.59184,1.53363 6.53061,0.53297 13.06122,1.08744 19.59183,1.66214 6.53061,0.5747 13.06123,1.16975 19.59184,1.78382 6.53061,0.61406 13.06122,1.24726 19.59184,1.89816 6.53061,0.65091 13.06122,1.31964 19.59183,2.00472 6.53061,0.68507 13.06123,1.38659 19.59184,2.10302 6.53061,0.71643 13.06122,1.44786 19.59184,2.1927 6.53061,0.74484 13.06122,1.50316 19.59183,2.27335 6.53062,0.77019 13.06123,1.5523 19.59184,2.34467 6.53061,0.79237 13.06122,1.59505 19.59184,2.40635 6.53061,0.8113 13.06122,1.63126 19.59188,2.45815 6.5306,0.82689 13.0612,1.66075 19.5918,2.49983 6.5306,0.83909 13.0612,1.68343 19.5918,2.53126 6.5306,0.84784 13.0613,1.69918 19.5919,2.55228 6.5306,0.8531 13.0612,1.70795 19.5918,2.56281"
         style="fill:none;fill-opacity:1;stroke:#000000;stroke-width:1;stroke-linejoin:round;stroke-miterlimit:4;stroke-dasharray:none;stroke-dashoffset:0;stroke-opacity:1" />
      <path
         style="fill:none;fill-opacity:1;stroke:none;stroke-width:1;stroke-linejoin:round;stroke-miterlimit:4;stroke-dasharray:none;stroke-dashoffset:0;stroke-opacity:1;marker-start:url(#marker4208);marker-mid:url(#marker4208);marker-end:url(#marker4208)"
         d="m 120,393.79074 c 15.2381,-1.99466 30.47619,-3.98929 45.71429,-5.96169 15.23809,-1.97241 30.47619,-3.92243 45.71428,-5.82852 15.2381,-1.90609 30.47619,-3.76795 45.71429,-5.56514 15.23809,-1.79719 30.47619,-3.5293 45.71428,-5.17745 15.2381,-1.64815 30.47619,-3.21182 45.71429,-4.67411 15.23809,-1.46229 30.47619,-2.82258 45.71428,-4.06635 15.2381,-1.24377 30.47619,-2.3703 45.71429,-3.36776 15.2381,-0.99746 30.47619,-1.86506 45.71429,-2.59393 15.23809,-0.72887 30.47619,-1.31817 45.71428,-1.76217 15.2381,-0.444 30.47619,-0.74182 45.71429,-0.89103 15.23809,-0.14921 30.47619,-0.14891 45.71428,0 15.2381,0.14891 30.47619,0.44732 45.71429,0.89103 15.23809,0.44371 30.47619,1.03358 45.71428,1.76217 15.2381,0.72859 30.47619,1.59673 45.71429,2.59393 15.2381,0.99721 30.47619,2.12423 45.71429,3.36776 15.23809,1.24354 30.47619,2.60426 45.71428,4.06635 15.2381,1.46209 30.47619,3.02612 45.71429,4.67411 15.23809,1.64798 30.47619,3.38039 45.71428,5.17745 15.2381,1.79706 30.47619,3.65914 45.71429,5.56514 15.23807,1.906 30.47617,3.85616 45.71427,5.82852 15.2381,1.97236 30.4762,3.96703 45.7143,5.96169"
         title="sin(0.5*x)"
         id="path11274"
         inkscape:connector-curvature="0" />
    </g>
  </g>
</svg>
