<?xml version="1.0" encoding="UTF-8" standalone="no"?>
<svg
   xmlns:dc="http://purl.org/dc/elements/1.1/"
   xmlns:cc="http://creativecommons.org/ns#"
   xmlns:rdf="http://www.w3.org/1999/02/22-rdf-syntax-ns#"
   xmlns:svg="http://www.w3.org/2000/svg"
   xmlns="http://www.w3.org/2000/svg"
   xmlns:xlink="http://www.w3.org/1999/xlink"
   version="1.1"
   id="svg2"
   viewBox="0 0 646.43306 465.97548"
   height="131.50864mm"
   width="182.43777mm">
  <defs
     id="defs4">
    <linearGradient
       id="linearGradient4188">
      <stop
         id="stop4190"
         offset="0"
         style="stop-color:#000080;stop-opacity:1;" />
      <stop
         id="stop4192"
         offset="1"
         style="stop-color:#ffffff;stop-opacity:1" />
    </linearGradient>
    <linearGradient
       id="linearGradient4144">
      <stop
         style="stop-color:#ff6600;stop-opacity:1;"
         offset="0"
         id="stop4174" />
      <stop
         style="stop-color:#ffffff;stop-opacity:1"
         offset="1"
         id="stop4176" />
    </linearGradient>
    <linearGradient
       gradientUnits="userSpaceOnUse"
       y2="202.3622"
       x2="90"
       y1="222.3622"
       x1="70"
       id="linearGradient4150"
       xlink:href="#linearGradient4144" />
    <linearGradient
       gradientTransform="translate(80.000003,6.848433e-6)"
       y2="202.3622"
       x2="90"
       y1="222.3622"
       x1="70"
       gradientUnits="userSpaceOnUse"
       id="linearGradient4158"
       xlink:href="#linearGradient4144" />
    <linearGradient
       y2="202.3622"
       x2="90"
       y1="222.3622"
       x1="70"
       gradientTransform="translate(80.000003,-79.999991)"
       gradientUnits="userSpaceOnUse"
       id="linearGradient4162"
       xlink:href="#linearGradient4144" />
    <linearGradient
       y2="202.3622"
       x2="90"
       y1="222.3622"
       x1="70"
       gradientTransform="translate(2.2383789e-6,-79.999991)"
       gradientUnits="userSpaceOnUse"
       id="linearGradient4166"
       xlink:href="#linearGradient4144" />
    <linearGradient
       gradientUnits="userSpaceOnUse"
       y2="162.3622"
       x2="130"
       y1="182.3622"
       x1="110"
       id="linearGradient4194"
       xlink:href="#linearGradient4188" />
    <linearGradient
       gradientTransform="translate(185,0)"
       y2="202.3622"
       x2="90"
       y1="222.3622"
       x1="70"
       gradientUnits="userSpaceOnUse"
       id="linearGradient4216"
       xlink:href="#linearGradient4144" />
    <linearGradient
       y2="202.3622"
       x2="90"
       y1="222.3622"
       x1="70"
       gradientTransform="translate(265,6.848433e-6)"
       gradientUnits="userSpaceOnUse"
       id="linearGradient4218"
       xlink:href="#linearGradient4144" />
    <linearGradient
       y2="202.3622"
       x2="90"
       y1="222.3622"
       x1="70"
       gradientTransform="translate(265,-79.999991)"
       gradientUnits="userSpaceOnUse"
       id="linearGradient4220"
       xlink:href="#linearGradient4144" />
    <linearGradient
       y2="202.3622"
       x2="90"
       y1="222.3622"
       x1="70"
       gradientTransform="translate(185,-79.999991)"
       gradientUnits="userSpaceOnUse"
       id="linearGradient4222"
       xlink:href="#linearGradient4144" />
    <linearGradient
       gradientTransform="translate(185,0)"
       y2="162.3622"
       x2="130"
       y1="182.3622"
       x1="110"
       gradientUnits="userSpaceOnUse"
       id="linearGradient4224"
       xlink:href="#linearGradient4188" />
    <linearGradient
       y2="202.3622"
       x2="90"
       y1="222.3622"
       x1="70"
       gradientTransform="translate(345,2.0545299e-5)"
       gradientUnits="userSpaceOnUse"
       id="linearGradient4240"
       xlink:href="#linearGradient4144" />
    <linearGradient
       y2="202.3622"
       x2="90"
       y1="222.3622"
       x1="70"
       gradientTransform="translate(345,-79.999977)"
       gradientUnits="userSpaceOnUse"
       id="linearGradient4242"
       xlink:href="#linearGradient4144" />
    <linearGradient
       y2="162.3622"
       x2="130"
       y1="182.3622"
       x1="110"
       gradientTransform="translate(265,1.3696866e-5)"
       gradientUnits="userSpaceOnUse"
       id="linearGradient4246"
       xlink:href="#linearGradient4188" />
    <linearGradient
       y2="202.3622"
       x2="90"
       y1="222.3622"
       x1="70"
       gradientTransform="translate(185,80.000007)"
       gradientUnits="userSpaceOnUse"
       id="linearGradient4268"
       xlink:href="#linearGradient4144" />
    <linearGradient
       y2="162.3622"
       x2="130"
       y1="182.3622"
       x1="110"
       gradientTransform="translate(185,80.000007)"
       gradientUnits="userSpaceOnUse"
       id="linearGradient4272"
       xlink:href="#linearGradient4188" />
    <linearGradient
       y2="202.3622"
       x2="90"
       y1="222.3622"
       x1="70"
       gradientTransform="translate(345,80.000027)"
       gradientUnits="userSpaceOnUse"
       id="linearGradient4274"
       xlink:href="#linearGradient4144" />
    <linearGradient
       y2="162.3622"
       x2="130"
       y1="182.3622"
       x1="110"
       gradientTransform="translate(265,80.000021)"
       gradientUnits="userSpaceOnUse"
       id="linearGradient4278"
       xlink:href="#linearGradient4188" />
    <linearGradient
       y2="202.3622"
       x2="90"
       y1="222.3622"
       x1="70"
       gradientTransform="translate(265,80.000014)"
       gradientUnits="userSpaceOnUse"
       id="linearGradient4280"
       xlink:href="#linearGradient4144" />
    <linearGradient
       y2="202.3622"
       x2="90"
       y1="222.3622"
       x1="70"
       gradientTransform="translate(430,-79.999984)"
       gradientUnits="userSpaceOnUse"
       id="linearGradient4318"
       xlink:href="#linearGradient4144" />
    <linearGradient
       y2="162.3622"
       x2="130"
       y1="182.3622"
       x1="110"
       gradientTransform="translate(430,6.848433e-6)"
       gradientUnits="userSpaceOnUse"
       id="linearGradient4320"
       xlink:href="#linearGradient4188" />
    <linearGradient
       y2="202.3622"
       x2="90"
       y1="222.3622"
       x1="70"
       gradientTransform="translate(590,-79.99997)"
       gradientUnits="userSpaceOnUse"
       id="linearGradient4322"
       xlink:href="#linearGradient4144" />
    <linearGradient
       y2="162.3622"
       x2="130"
       y1="182.3622"
       x1="110"
       gradientTransform="translate(510,2.0545299e-5)"
       gradientUnits="userSpaceOnUse"
       id="linearGradient4324"
       xlink:href="#linearGradient4188" />
    <linearGradient
       y2="202.3622"
       x2="90"
       y1="222.3622"
       x1="70"
       gradientTransform="translate(510,-79.999984)"
       gradientUnits="userSpaceOnUse"
       id="linearGradient4326"
       xlink:href="#linearGradient4144" />
    <linearGradient
       y2="202.3622"
       x2="90"
       y1="222.3622"
       x1="70"
       gradientTransform="translate(430,80.000014)"
       gradientUnits="userSpaceOnUse"
       id="linearGradient4328"
       xlink:href="#linearGradient4144" />
    <linearGradient
       y2="162.3622"
       x2="130"
       y1="182.3622"
       x1="110"
       gradientTransform="translate(430,80.000014)"
       gradientUnits="userSpaceOnUse"
       id="linearGradient4330"
       xlink:href="#linearGradient4188" />
    <linearGradient
       y2="202.3622"
       x2="90"
       y1="222.3622"
       x1="70"
       gradientTransform="translate(590,80.000034)"
       gradientUnits="userSpaceOnUse"
       id="linearGradient4332"
       xlink:href="#linearGradient4144" />
    <linearGradient
       y2="162.3622"
       x2="130"
       y1="182.3622"
       x1="110"
       gradientTransform="translate(510,80.000028)"
       gradientUnits="userSpaceOnUse"
       id="linearGradient4334"
       xlink:href="#linearGradient4188" />
    <linearGradient
       y2="202.3622"
       x2="90"
       y1="222.3622"
       x1="70"
       gradientTransform="translate(510,80.000021)"
       gradientUnits="userSpaceOnUse"
       id="linearGradient4336"
       xlink:href="#linearGradient4144" />
    <linearGradient
       y2="202.3622"
       x2="90"
       y1="222.3622"
       x1="70"
       gradientTransform="translate(430,6.848433e-6)"
       gradientUnits="userSpaceOnUse"
       id="linearGradient4338"
       xlink:href="#linearGradient4144" />
    <linearGradient
       y2="202.3622"
       x2="90"
       y1="222.3622"
       x1="70"
       gradientTransform="translate(590,2.7393732e-5)"
       gradientUnits="userSpaceOnUse"
       id="linearGradient4340"
       xlink:href="#linearGradient4144" />
    <linearGradient
       y2="202.3622"
       x2="90"
       y1="222.3622"
       x1="70"
       gradientTransform="translate(430,130.00002)"
       gradientUnits="userSpaceOnUse"
       id="linearGradient4378"
       xlink:href="#linearGradient4144" />
    <linearGradient
       y2="202.3622"
       x2="90"
       y1="222.3622"
       x1="70"
       gradientTransform="translate(590,130.00004)"
       gradientUnits="userSpaceOnUse"
       id="linearGradient4382"
       xlink:href="#linearGradient4144" />
    <linearGradient
       y2="162.3622"
       x2="130"
       y1="182.3622"
       x1="110"
       gradientTransform="translate(510,210.00003)"
       gradientUnits="userSpaceOnUse"
       id="linearGradient4384"
       xlink:href="#linearGradient4188" />
    <linearGradient
       y2="202.3622"
       x2="90"
       y1="222.3622"
       x1="70"
       gradientTransform="translate(510,130.00002)"
       gradientUnits="userSpaceOnUse"
       id="linearGradient4386"
       xlink:href="#linearGradient4144" />
    <linearGradient
       y2="202.3622"
       x2="90"
       y1="222.3622"
       x1="70"
       gradientTransform="translate(430,290.00002)"
       gradientUnits="userSpaceOnUse"
       id="linearGradient4388"
       xlink:href="#linearGradient4144" />
    <linearGradient
       y2="162.3622"
       x2="130"
       y1="182.3622"
       x1="110"
       gradientTransform="translate(430,290.00002)"
       gradientUnits="userSpaceOnUse"
       id="linearGradient4390"
       xlink:href="#linearGradient4188" />
    <linearGradient
       y2="202.3622"
       x2="90"
       y1="222.3622"
       x1="70"
       gradientTransform="translate(590,290.00004)"
       gradientUnits="userSpaceOnUse"
       id="linearGradient4392"
       xlink:href="#linearGradient4144" />
    <linearGradient
       y2="162.3622"
       x2="130"
       y1="182.3622"
       x1="110"
       gradientTransform="translate(510,290.00003)"
       gradientUnits="userSpaceOnUse"
       id="linearGradient4394"
       xlink:href="#linearGradient4188" />
    <linearGradient
       y2="202.3622"
       x2="90"
       y1="222.3622"
       x1="70"
       gradientTransform="translate(510,290.00003)"
       gradientUnits="userSpaceOnUse"
       id="linearGradient4396"
       xlink:href="#linearGradient4144" />
    <linearGradient
       y2="202.3622"
       x2="90"
       y1="222.3622"
       x1="70"
       gradientTransform="translate(430,210.00001)"
       gradientUnits="userSpaceOnUse"
       id="linearGradient4398"
       xlink:href="#linearGradient4144" />
    <linearGradient
       y2="202.3622"
       x2="90"
       y1="222.3622"
       x1="70"
       gradientTransform="translate(590,210.00003)"
       gradientUnits="userSpaceOnUse"
       id="linearGradient4400"
       xlink:href="#linearGradient4144" />
    <linearGradient
       y2="202.3622"
       x2="90"
       y1="222.3622"
       x1="70"
       gradientTransform="translate(510,210.00002)"
       gradientUnits="userSpaceOnUse"
       id="linearGradient4402"
       xlink:href="#linearGradient4144" />
  </defs>
  <metadata
     id="metadata7">
    <rdf:RDF>
      <cc:Work
         rdf:about="">
        <dc:format>image/svg+xml</dc:format>
        <dc:type
           rdf:resource="http://purl.org/dc/dcmitype/StillImage" />
        <dc:title></dc:title>
      </cc:Work>
    </rdf:RDF>
  </metadata>
  <g
     transform="translate(-51.783465,-64.603258)"
     id="layer1">
    <rect
       y="342.36221"
       x="510"
       height="160"
       width="160"
       id="rect4410"
       style="fill:none;fill-opacity:1;stroke:#000000;stroke-width:1;stroke-linejoin:round;stroke-miterlimit:4;stroke-dasharray:none;stroke-dashoffset:0;stroke-opacity:1" />
    <rect
       style="fill:none;fill-opacity:1;stroke:#000000;stroke-width:1;stroke-linejoin:round;stroke-miterlimit:4;stroke-dasharray:none;stroke-dashoffset:0;stroke-opacity:1"
       id="rect4408"
       width="160"
       height="160"
       x="510"
       y="132.36221" />
    <rect
       y="132.3622"
       x="80"
       height="80"
       width="80"
       id="rect4138"
       style="fill:none;fill-opacity:1;stroke:#000000;stroke-width:1;stroke-linejoin:round;stroke-miterlimit:4;stroke-dasharray:none;stroke-dashoffset:0;stroke-opacity:1" />
    <circle
       transform="translate(0,6.848433e-6)"
       r="10"
       cy="212.3622"
       cx="80"
       id="path4142"
       style="fill:url(#linearGradient4150);fill-opacity:1;stroke:#000000;stroke-width:1;stroke-linejoin:round;stroke-miterlimit:4;stroke-dasharray:none;stroke-dashoffset:0;stroke-opacity:1" />
    <circle
       style="fill:url(#linearGradient4158);fill-opacity:1;stroke:#000000;stroke-width:1;stroke-linejoin:round;stroke-miterlimit:4;stroke-dasharray:none;stroke-dashoffset:0;stroke-opacity:1"
       id="circle4156"
       cx="160"
       cy="212.3622"
       r="10" />
    <circle
       r="10"
       cy="132.3622"
       cx="160"
       id="circle4160"
       style="fill:url(#linearGradient4162);fill-opacity:1;stroke:#000000;stroke-width:1;stroke-linejoin:round;stroke-miterlimit:4;stroke-dasharray:none;stroke-dashoffset:0;stroke-opacity:1" />
    <circle
       style="fill:url(#linearGradient4166);fill-opacity:1;stroke:#000000;stroke-width:1;stroke-linejoin:round;stroke-miterlimit:4;stroke-dasharray:none;stroke-dashoffset:0;stroke-opacity:1"
       id="circle4164"
       cx="80"
       cy="132.3622"
       r="10" />
    <circle
       style="fill:url(#linearGradient4194);fill-opacity:1;stroke:#000000;stroke-width:1;stroke-linejoin:round;stroke-miterlimit:4;stroke-dasharray:none;stroke-dashoffset:0;stroke-opacity:1"
       id="circle4168"
       cx="120"
       cy="172.3622"
       r="10" />
    <g
       id="text4196"
       style="font-style:normal;font-weight:normal;font-size:15px;line-height:125%;font-family:sans-serif;letter-spacing:0px;word-spacing:0px;fill:#000000;fill-opacity:1;stroke:none;stroke-width:1px;stroke-linecap:butt;stroke-linejoin:miter;stroke-opacity:1">
      <path
         id="path4471"
         style=""
         d="m 90.466148,87.781212 1.486817,0 0,6.643066 q 0,1.757813 0.637207,2.53418 0.637207,0.769043 2.06543,0.769043 1.420898,0 2.058105,-0.769043 0.637207,-0.776367 0.637207,-2.53418 l 0,-6.643066 1.486816,0 0,6.826172 q 0,2.138672 -1.062011,3.22998 -1.054688,1.091309 -3.120117,1.091309 -2.072754,0 -3.134766,-1.091309 -1.054688,-1.091308 -1.054688,-3.22998 l 0,-6.826172 z" />
      <path
         id="path4473"
         style=""
         d="m 108.38119,93.765099 0,4.951171 -1.34766,0 0,-4.907226 q 0,-1.164551 -0.4541,-1.743164 -0.4541,-0.578613 -1.36231,-0.578613 -1.0913,0 -1.72119,0.6958 -0.62988,0.695801 -0.62988,1.896973 l 0,4.63623 -1.35498,0 0,-8.203125 1.35498,0 0,1.274415 q 0.4834,-0.739747 1.13525,-1.105958 0.65918,-0.36621 1.51612,-0.36621 1.41357,0 2.13867,0.878906 0.7251,0.871582 0.7251,2.570801 z" />
      <path
         id="path4475"
         style=""
         d="m 111.08382,90.513145 1.34766,0 0,8.203125 -1.34766,0 0,-8.203125 z m 0,-3.193359 1.34766,0 0,1.706543 -1.34766,0 0,-1.706543 z" />
      <path
         id="path4477"
         style=""
         d="m 116.57699,88.184044 0,2.329101 2.77588,0 0,1.047364 -2.77588,0 0,4.453125 q 0,1.003418 0.27099,1.289062 0.27832,0.285645 1.12061,0.285645 l 1.38428,0 0,1.127929 -1.38428,0 q -1.56006,0 -2.15332,-0.578613 -0.59326,-0.585937 -0.59326,-2.124023 l 0,-4.453125 -0.98877,0 0,-1.047364 0.98877,0 0,-2.329101 1.35498,0 z" />
      <path
         id="path4479"
         style=""
         d="m 131.81136,90.828087 0,1.259765 q -0.57129,-0.314941 -1.1499,-0.46875 -0.57129,-0.161132 -1.15723,-0.161132 -1.31103,0 -2.03613,0.834961 -0.7251,0.827636 -0.7251,2.329101 0,1.501465 0.7251,2.336426 0.7251,0.827637 2.03613,0.827637 0.58594,0 1.15723,-0.153809 0.57861,-0.161133 1.1499,-0.476074 l 0,1.245117 q -0.56396,0.263672 -1.17187,0.395508 -0.60059,0.131836 -1.28174,0.131836 -1.85303,0 -2.94434,-1.164551 -1.0913,-1.164551 -1.0913,-3.14209 0,-2.006836 1.09863,-3.156738 1.10596,-1.149902 3.0249,-1.149902 0.62256,0 1.21582,0.131835 0.59326,0.124512 1.1499,0.38086 z" />
      <path
         id="path4481"
         style=""
         d="m 141.18636,94.277794 0,0.65918 -6.19629,0 q 0.0879,1.391601 0.83497,2.124023 0.75439,0.725098 2.09472,0.725098 0.77637,0 1.50147,-0.19043 0.73242,-0.19043 1.45019,-0.571289 l 0,1.274414 q -0.7251,0.307617 -1.48681,0.46875 -0.76172,0.161133 -1.54541,0.161133 -1.9629,0 -3.1128,-1.142578 -1.14258,-1.142578 -1.14258,-3.090821 0,-2.01416 1.08399,-3.193359 1.09131,-1.186523 2.93701,-1.186523 1.65527,0 2.61475,1.069335 0.96679,1.062012 0.96679,2.893067 z m -1.34765,-0.395508 q -0.0146,-1.105957 -0.62256,-1.765137 -0.60059,-0.659179 -1.59668,-0.659179 -1.12793,0 -1.80908,0.637207 -0.67383,0.637207 -0.77637,1.794433 l 4.80469,-0.0073 z" />
      <path
         id="path4483"
         style=""
         d="m 143.39828,87.319786 1.34765,0 0,11.396484 -1.34765,0 0,-11.396484 z" />
      <path
         id="path4485"
         style=""
         d="m 147.55843,87.319786 1.34766,0 0,11.396484 -1.34766,0 0,-11.396484 z" />
    </g>
    <circle
       r="10"
       cy="172.3622"
       cx="305"
       id="circle4210"
       style="fill:url(#linearGradient4224);fill-opacity:1;stroke:#000000;stroke-width:1;stroke-linejoin:round;stroke-miterlimit:4;stroke-dasharray:none;stroke-dashoffset:0;stroke-opacity:1" />
    <g
       id="text4212"
       style="font-style:normal;font-weight:normal;font-size:15px;line-height:125%;font-family:sans-serif;letter-spacing:0px;word-spacing:0px;fill:#000000;fill-opacity:1;stroke:none;stroke-width:1px;stroke-linecap:butt;stroke-linejoin:miter;stroke-opacity:1">
      <path
         id="path4452"
         style=""
         d="m 316.47549,85.282959 0,1.442871 q -0.84228,-0.402832 -1.58935,-0.600586 -0.74707,-0.197754 -1.44287,-0.197754 -1.2085,0 -1.86768,0.46875 -0.65185,0.46875 -0.65185,1.333008 0,0.725098 0.43213,1.098633 0.43945,0.366211 1.65527,0.593262 l 0.89355,0.183105 q 1.65528,0.314941 2.43897,1.113281 0.79101,0.791016 0.79101,2.124024 0,1.589355 -1.06933,2.409668 -1.06201,0.820312 -3.12012,0.820312 -0.77637,0 -1.65527,-0.175781 -0.87158,-0.175781 -1.80908,-0.52002 l 0,-1.523437 q 0.90087,0.505371 1.76513,0.761719 0.86426,0.256347 1.69922,0.256347 1.26709,0 1.95557,-0.498047 0.68847,-0.498046 0.68847,-1.420898 0,-0.805664 -0.49804,-1.259766 -0.49073,-0.454101 -1.61866,-0.681152 l -0.90087,-0.175781 q -1.65528,-0.32959 -2.39502,-1.032715 -0.73975,-0.703125 -0.73975,-1.955566 0,-1.450196 1.01807,-2.285157 1.02539,-0.834961 2.81982,-0.834961 0.76904,0 1.56738,0.139161 0.79834,0.13916 1.6333,0.41748 z" />
      <path
         id="path4454"
         style=""
         d="m 319.24405,92.621826 0,-4.96582 1.34766,0 0,4.914551 q 0,1.16455 0.4541,1.750488 0.4541,0.578613 1.3623,0.578613 1.09131,0 1.72119,-0.695801 0.63721,-0.6958 0.63721,-1.896972 l 0,-4.650879 1.34766,0 0,8.203125 -1.34766,0 0,-1.259766 q -0.49072,0.747071 -1.14258,1.113281 -0.64453,0.358887 -1.50146,0.358887 -1.41358,0 -2.146,-0.878906 -0.73242,-0.878906 -0.73242,-2.570801 z m 3.39111,-5.163574 0,0 z" />
      <path
         id="path4456"
         style=""
         d="m 330.2084,94.628662 0,4.350586 -1.35498,0 0,-11.323242 1.35498,0 0,1.245117 q 0.42481,-0.732422 1.06934,-1.083984 0.65186,-0.358887 1.55273,-0.358887 1.49415,0 2.42432,1.186523 0.9375,1.186524 0.9375,3.120118 0,1.933593 -0.9375,3.120117 -0.93017,1.186523 -2.42432,1.186523 -0.90087,0 -1.55273,-0.351562 -0.64453,-0.358887 -1.06934,-1.091309 z m 4.58497,-2.863769 q 0,-1.486817 -0.61524,-2.329102 -0.60791,-0.849609 -1.67724,-0.849609 -1.06934,0 -1.68458,0.849609 -0.60791,0.842285 -0.60791,2.329102 0,1.486816 0.60791,2.336425 0.61524,0.842286 1.68458,0.842286 1.06933,0 1.67724,-0.842286 0.61524,-0.849609 0.61524,-2.336425 z" />
      <path
         id="path4458"
         style=""
         d="m 345.44278,91.420654 0,0.65918 -6.19629,0 q 0.0879,1.391602 0.83496,2.124023 0.7544,0.725098 2.09473,0.725098 0.77637,0 1.50146,-0.19043 0.73242,-0.190429 1.4502,-0.571289 l 0,1.274414 q -0.7251,0.307618 -1.48682,0.46875 -0.76172,0.161133 -1.54541,0.161133 -1.96289,0 -3.11279,-1.142578 -1.14258,-1.142578 -1.14258,-3.09082 0,-2.01416 1.08398,-3.19336 1.09131,-1.186523 2.93702,-1.186523 1.65527,0 2.61474,1.069336 0.9668,1.062012 0.9668,2.893066 z m -1.34766,-0.395508 q -0.0147,-1.105957 -0.62256,-1.765136 -0.60058,-0.65918 -1.59667,-0.65918 -1.12793,0 -1.80909,0.637207 -0.67383,0.637207 -0.77636,1.794434 l 4.80468,-0.0073 z" />
      <path
         id="path4460"
         style=""
         d="m 352.40811,88.915771 q -0.22705,-0.131835 -0.49805,-0.190429 -0.26367,-0.06592 -0.58593,-0.06592 -1.14258,0 -1.75782,0.74707 -0.60791,0.739746 -0.60791,2.131348 l 0,4.321289 -1.35498,0 0,-8.203125 1.35498,0 0,1.274414 q 0.42481,-0.74707 1.10596,-1.105957 0.68115,-0.366211 1.65528,-0.366211 0.13916,0 0.30761,0.02197 0.16846,0.01465 0.37354,0.05127 l 0.007,1.384277 z" />
      <path
         id="path4462"
         style=""
         d="m 359.41739,87.970947 0,1.259766 q -0.57129,-0.314942 -1.1499,-0.46875 -0.57129,-0.161133 -1.15723,-0.161133 -1.31104,0 -2.03613,0.834961 -0.7251,0.827637 -0.7251,2.329102 0,1.501464 0.7251,2.336425 0.72509,0.827637 2.03613,0.827637 0.58594,0 1.15723,-0.153809 0.57861,-0.161132 1.1499,-0.476074 l 0,1.245117 q -0.56397,0.263672 -1.17188,0.395508 -0.60058,0.131836 -1.28173,0.131836 -1.85303,0 -2.94434,-1.164551 -1.09131,-1.16455 -1.09131,-3.142089 0,-2.006836 1.09863,-3.156739 1.10596,-1.149902 3.02491,-1.149902 0.62255,0 1.21582,0.131836 0.59326,0.124512 1.1499,0.380859 z" />
      <path
         id="path4464"
         style=""
         d="m 368.79239,91.420654 0,0.65918 -6.19629,0 q 0.0879,1.391602 0.83496,2.124023 0.7544,0.725098 2.09473,0.725098 0.77636,0 1.50146,-0.19043 0.73242,-0.190429 1.4502,-0.571289 l 0,1.274414 q -0.7251,0.307618 -1.48682,0.46875 -0.76172,0.161133 -1.54541,0.161133 -1.96289,0 -3.11279,-1.142578 -1.14258,-1.142578 -1.14258,-3.09082 0,-2.01416 1.08398,-3.19336 1.09131,-1.186523 2.93702,-1.186523 1.65527,0 2.61474,1.069336 0.9668,1.062012 0.9668,2.893066 z m -1.34766,-0.395508 q -0.0147,-1.105957 -0.62256,-1.765136 -0.60058,-0.65918 -1.59668,-0.65918 -1.12793,0 -1.80908,0.637207 -0.67383,0.637207 -0.77636,1.794434 l 4.80468,-0.0073 z" />
      <path
         id="path4466"
         style=""
         d="m 371.0043,84.462646 1.34766,0 0,11.396485 -1.34766,0 0,-11.396485 z" />
      <path
         id="path4468"
         style=""
         d="m 375.16446,84.462646 1.34766,0 0,11.396485 -1.34766,0 0,-11.396485 z" />
    </g>
    <rect
       y="132.3622"
       x="265"
       height="160"
       width="160"
       id="rect4226"
       style="fill:none;fill-opacity:1;stroke:#000000;stroke-width:1;stroke-linejoin:round;stroke-miterlimit:4;stroke-dasharray:none;stroke-dashoffset:0;stroke-opacity:1" />
    <circle
       r="10"
       cy="132.3622"
       cx="425"
       id="circle4232"
       style="fill:url(#linearGradient4242);fill-opacity:1;stroke:#000000;stroke-width:1;stroke-linejoin:round;stroke-miterlimit:4;stroke-dasharray:none;stroke-dashoffset:0;stroke-opacity:1" />
    <circle
       style="fill:url(#linearGradient4246);fill-opacity:1;stroke:#000000;stroke-width:1;stroke-linejoin:round;stroke-miterlimit:4;stroke-dasharray:none;stroke-dashoffset:0;stroke-opacity:1"
       id="circle4236"
       cx="385"
       cy="172.3622"
       r="10" />
    <circle
       style="fill:url(#linearGradient4220);fill-opacity:1;stroke:#000000;stroke-width:1;stroke-linejoin:round;stroke-miterlimit:4;stroke-dasharray:none;stroke-dashoffset:0;stroke-opacity:1"
       id="circle4206"
       cx="345"
       cy="132.3622"
       r="10" />
    <circle
       r="10"
       cy="292.36221"
       cx="265"
       id="circle4250"
       style="fill:url(#linearGradient4268);fill-opacity:1;stroke:#000000;stroke-width:1;stroke-linejoin:round;stroke-miterlimit:4;stroke-dasharray:none;stroke-dashoffset:0;stroke-opacity:1" />
    <circle
       style="fill:url(#linearGradient4272);fill-opacity:1;stroke:#000000;stroke-width:1;stroke-linejoin:round;stroke-miterlimit:4;stroke-dasharray:none;stroke-dashoffset:0;stroke-opacity:1"
       id="circle4254"
       cx="305"
       cy="252.3622"
       r="10" />
    <circle
       r="10"
       cy="292.36221"
       cx="425"
       id="circle4258"
       style="fill:url(#linearGradient4274);fill-opacity:1;stroke:#000000;stroke-width:1;stroke-linejoin:round;stroke-miterlimit:4;stroke-dasharray:none;stroke-dashoffset:0;stroke-opacity:1" />
    <circle
       r="10"
       cy="252.3622"
       cx="385"
       id="circle4262"
       style="fill:url(#linearGradient4278);fill-opacity:1;stroke:#000000;stroke-width:1;stroke-linejoin:round;stroke-miterlimit:4;stroke-dasharray:none;stroke-dashoffset:0;stroke-opacity:1" />
    <circle
       style="fill:url(#linearGradient4280);fill-opacity:1;stroke:#000000;stroke-width:1;stroke-linejoin:round;stroke-miterlimit:4;stroke-dasharray:none;stroke-dashoffset:0;stroke-opacity:1"
       id="circle4264"
       cx="345"
       cy="292.36221"
       r="10" />
    <circle
       style="fill:url(#linearGradient4216);fill-opacity:1;stroke:#000000;stroke-width:1;stroke-linejoin:round;stroke-miterlimit:4;stroke-dasharray:none;stroke-dashoffset:0;stroke-opacity:1"
       id="circle4202"
       cx="265"
       cy="212.3622"
       r="10" />
    <circle
       style="fill:url(#linearGradient4240);fill-opacity:1;stroke:#000000;stroke-width:1;stroke-linejoin:round;stroke-miterlimit:4;stroke-dasharray:none;stroke-dashoffset:0;stroke-opacity:1"
       id="circle4230"
       cx="425"
       cy="212.3622"
       r="10" />
    <circle
       r="10"
       cy="212.3622"
       cx="345"
       id="circle4204"
       style="fill:url(#linearGradient4218);fill-opacity:1;stroke:#000000;stroke-width:1;stroke-linejoin:round;stroke-miterlimit:4;stroke-dasharray:none;stroke-dashoffset:0;stroke-opacity:1" />
    <circle
       style="fill:url(#linearGradient4318);fill-opacity:1;stroke:#000000;stroke-width:1;stroke-linejoin:round;stroke-miterlimit:4;stroke-dasharray:none;stroke-dashoffset:0;stroke-opacity:1"
       id="circle4286"
       cx="510"
       cy="132.3622"
       r="10" />
    <circle
       style="fill:url(#linearGradient4320);fill-opacity:1;stroke:#000000;stroke-width:1;stroke-linejoin:round;stroke-miterlimit:4;stroke-dasharray:none;stroke-dashoffset:0;stroke-opacity:1"
       id="circle4288"
       cx="550"
       cy="172.3622"
       r="10" />
    <circle
       style="fill:url(#linearGradient4322);fill-opacity:1;stroke:#000000;stroke-width:1;stroke-linejoin:round;stroke-miterlimit:4;stroke-dasharray:none;stroke-dashoffset:0;stroke-opacity:1"
       id="circle4292"
       cx="670"
       cy="132.3622"
       r="10" />
    <circle
       r="10"
       cy="172.3622"
       cx="630"
       id="circle4294"
       style="fill:url(#linearGradient4324);fill-opacity:1;stroke:#000000;stroke-width:1;stroke-linejoin:round;stroke-miterlimit:4;stroke-dasharray:none;stroke-dashoffset:0;stroke-opacity:1" />
    <circle
       r="10"
       cy="132.3622"
       cx="590"
       id="circle4296"
       style="fill:url(#linearGradient4326);fill-opacity:1;stroke:#000000;stroke-width:1;stroke-linejoin:round;stroke-miterlimit:4;stroke-dasharray:none;stroke-dashoffset:0;stroke-opacity:1" />
    <circle
       style="fill:url(#linearGradient4328);fill-opacity:1;stroke:#000000;stroke-width:1;stroke-linejoin:round;stroke-miterlimit:4;stroke-dasharray:none;stroke-dashoffset:0;stroke-opacity:1"
       id="circle4300"
       cx="510"
       cy="292.36221"
       r="10" />
    <circle
       r="10"
       cy="252.3622"
       cx="550"
       id="circle4302"
       style="fill:url(#linearGradient4330);fill-opacity:1;stroke:#000000;stroke-width:1;stroke-linejoin:round;stroke-miterlimit:4;stroke-dasharray:none;stroke-dashoffset:0;stroke-opacity:1" />
    <circle
       style="fill:url(#linearGradient4332);fill-opacity:1;stroke:#000000;stroke-width:1;stroke-linejoin:round;stroke-miterlimit:4;stroke-dasharray:none;stroke-dashoffset:0;stroke-opacity:1"
       id="circle4306"
       cx="670"
       cy="292.36221"
       r="10" />
    <circle
       style="fill:url(#linearGradient4334);fill-opacity:1;stroke:#000000;stroke-width:1;stroke-linejoin:round;stroke-miterlimit:4;stroke-dasharray:none;stroke-dashoffset:0;stroke-opacity:1"
       id="circle4308"
       cx="630"
       cy="252.3622"
       r="10" />
    <circle
       r="10"
       cy="292.36221"
       cx="590"
       id="circle4310"
       style="fill:url(#linearGradient4336);fill-opacity:1;stroke:#000000;stroke-width:1;stroke-linejoin:round;stroke-miterlimit:4;stroke-dasharray:none;stroke-dashoffset:0;stroke-opacity:1" />
    <circle
       r="10"
       cy="212.3622"
       cx="510"
       id="circle4312"
       style="fill:url(#linearGradient4338);fill-opacity:1;stroke:#000000;stroke-width:1;stroke-linejoin:round;stroke-miterlimit:4;stroke-dasharray:none;stroke-dashoffset:0;stroke-opacity:1" />
    <circle
       r="10"
       cy="212.3622"
       cx="670"
       id="circle4314"
       style="fill:url(#linearGradient4340);fill-opacity:1;stroke:#000000;stroke-width:1;stroke-linejoin:round;stroke-miterlimit:4;stroke-dasharray:none;stroke-dashoffset:0;stroke-opacity:1" />
    <circle
       style="fill:#ff6600;fill-opacity:1;stroke:#000000;stroke-width:1;stroke-linejoin:round;stroke-miterlimit:4;stroke-dasharray:none;stroke-dashoffset:0;stroke-opacity:1"
       id="circle4316"
       cx="600"
       cy="212.3622"
       r="10" />
    <circle
       r="10"
       cy="342.36221"
       cx="510"
       id="circle4346"
       style="fill:url(#linearGradient4378);fill-opacity:1;stroke:#000000;stroke-width:1;stroke-linejoin:round;stroke-miterlimit:4;stroke-dasharray:none;stroke-dashoffset:0;stroke-opacity:1" />
    <circle
       r="10"
       cy="382.36221"
       cx="558"
       id="circle4348"
       style="fill:#000080;fill-opacity:1;stroke:#000000;stroke-width:1;stroke-linejoin:round;stroke-miterlimit:4;stroke-dasharray:none;stroke-dashoffset:0;stroke-opacity:1" />
    <circle
       r="10"
       cy="342.36221"
       cx="670"
       id="circle4352"
       style="fill:url(#linearGradient4382);fill-opacity:1;stroke:#000000;stroke-width:1;stroke-linejoin:round;stroke-miterlimit:4;stroke-dasharray:none;stroke-dashoffset:0;stroke-opacity:1" />
    <circle
       style="fill:url(#linearGradient4384);fill-opacity:1;stroke:#000000;stroke-width:1;stroke-linejoin:round;stroke-miterlimit:4;stroke-dasharray:none;stroke-dashoffset:0;stroke-opacity:1"
       id="circle4354"
       cx="630"
       cy="382.36221"
       r="10" />
    <circle
       style="fill:url(#linearGradient4386);fill-opacity:1;stroke:#000000;stroke-width:1;stroke-linejoin:round;stroke-miterlimit:4;stroke-dasharray:none;stroke-dashoffset:0;stroke-opacity:1"
       id="circle4356"
       cx="590"
       cy="342.36221"
       r="10" />
    <circle
       r="10"
       cy="502.36221"
       cx="510"
       id="circle4360"
       style="fill:url(#linearGradient4388);fill-opacity:1;stroke:#000000;stroke-width:1;stroke-linejoin:round;stroke-miterlimit:4;stroke-dasharray:none;stroke-dashoffset:0;stroke-opacity:1" />
    <circle
       style="fill:url(#linearGradient4390);fill-opacity:1;stroke:#000000;stroke-width:1;stroke-linejoin:round;stroke-miterlimit:4;stroke-dasharray:none;stroke-dashoffset:0;stroke-opacity:1"
       id="circle4362"
       cx="550"
       cy="462.36221"
       r="10" />
    <circle
       r="10"
       cy="502.36221"
       cx="670"
       id="circle4366"
       style="fill:url(#linearGradient4392);fill-opacity:1;stroke:#000000;stroke-width:1;stroke-linejoin:round;stroke-miterlimit:4;stroke-dasharray:none;stroke-dashoffset:0;stroke-opacity:1" />
    <circle
       r="10"
       cy="462.36221"
       cx="630"
       id="circle4368"
       style="fill:url(#linearGradient4394);fill-opacity:1;stroke:#000000;stroke-width:1;stroke-linejoin:round;stroke-miterlimit:4;stroke-dasharray:none;stroke-dashoffset:0;stroke-opacity:1" />
    <circle
       style="fill:url(#linearGradient4396);fill-opacity:1;stroke:#000000;stroke-width:1;stroke-linejoin:round;stroke-miterlimit:4;stroke-dasharray:none;stroke-dashoffset:0;stroke-opacity:1"
       id="circle4370"
       cx="590"
       cy="502.36221"
       r="10" />
    <circle
       style="fill:url(#linearGradient4398);fill-opacity:1;stroke:#000000;stroke-width:1;stroke-linejoin:round;stroke-miterlimit:4;stroke-dasharray:none;stroke-dashoffset:0;stroke-opacity:1"
       id="circle4372"
       cx="510"
       cy="422.36221"
       r="10" />
    <circle
       style="fill:url(#linearGradient4400);fill-opacity:1;stroke:#000000;stroke-width:1;stroke-linejoin:round;stroke-miterlimit:4;stroke-dasharray:none;stroke-dashoffset:0;stroke-opacity:1"
       id="circle4374"
       cx="670"
       cy="422.36221"
       r="10" />
    <circle
       r="10"
       cy="422.36221"
       cx="590"
       id="circle4376"
       style="fill:url(#linearGradient4402);fill-opacity:1;stroke:#000000;stroke-width:1;stroke-linejoin:round;stroke-miterlimit:4;stroke-dasharray:none;stroke-dashoffset:0;stroke-opacity:1" />
    <g
       id="text4404"
       style="font-style:normal;font-weight:normal;font-size:15px;line-height:125%;font-family:sans-serif;letter-spacing:0px;word-spacing:0px;fill:#000000;fill-opacity:1;stroke:none;stroke-width:1px;stroke-linecap:butt;stroke-linejoin:miter;stroke-opacity:1">
      <path
         id="path4413"
         style=""
         d="m 506.03754,82.781219 1.48681,0 0,6.643067 q 0,1.757812 0.63721,2.53418 0.63721,0.769043 2.06543,0.769043 1.4209,0 2.05811,-0.769043 0.6372,-0.776368 0.6372,-2.53418 l 0,-6.643067 1.48682,0 0,6.826172 q 0,2.138672 -1.06201,3.229981 -1.05469,1.091308 -3.12012,1.091308 -2.07275,0 -3.13477,-1.091308 -1.05468,-1.091309 -1.05468,-3.229981 l 0,-6.826172 z" />
      <path
         id="path4415"
         style=""
         d="m 523.95258,88.765106 0,4.951172 -1.34766,0 0,-4.907226 q 0,-1.164551 -0.4541,-1.743165 -0.4541,-0.578613 -1.36231,-0.578613 -1.09131,0 -1.72119,0.695801 -0.62988,0.695801 -0.62988,1.896973 l 0,4.63623 -1.35498,0 0,-8.203125 1.35498,0 0,1.274414 q 0.4834,-0.739746 1.13525,-1.105957 0.65918,-0.366211 1.51612,-0.366211 1.41357,0 2.13867,0.878906 0.7251,0.871582 0.7251,2.570801 z" />
      <path
         id="path4417"
         style=""
         d="m 526.65521,85.513153 1.34766,0 0,8.203125 -1.34766,0 0,-8.203125 z m 0,-3.193359 1.34766,0 0,1.706543 -1.34766,0 0,-1.706543 z" />
      <path
         id="path4419"
         style=""
         d="m 531.62103,89.62204 q 0,1.486816 0.60791,2.336426 0.61524,0.842285 1.68457,0.842285 1.06934,0 1.68457,-0.842285 0.61524,-0.84961 0.61524,-2.336426 0,-1.486817 -0.61524,-2.329102 -0.61523,-0.849609 -1.68457,-0.849609 -1.06933,0 -1.68457,0.849609 -0.60791,0.842285 -0.60791,2.329102 z m 4.59229,2.863769 q -0.42481,0.732422 -1.07666,1.091309 -0.64453,0.351562 -1.55274,0.351562 -1.48681,0 -2.42431,-1.186523 -0.93018,-1.186523 -0.93018,-3.120117 0,-1.933594 0.93018,-3.120117 0.9375,-1.186524 2.42431,-1.186524 0.90821,0 1.55274,0.358887 0.65185,0.351562 1.07666,1.083984 l 0,-1.245117 1.34765,0 0,11.323242 -1.34765,0 0,-4.350586 z" />
      <path
         id="path4421"
         style=""
         d="m 540.19769,90.478973 0,-4.96582 1.34766,0 0,4.914551 q 0,1.164551 0.4541,1.750488 0.4541,0.578613 1.36231,0.578613 1.0913,0 1.72119,-0.6958 0.6372,-0.695801 0.6372,-1.896973 l 0,-4.650879 1.34766,0 0,8.203125 -1.34766,0 0,-1.259766 q -0.49072,0.747071 -1.14257,1.113282 -0.64454,0.358886 -1.50147,0.358886 -1.41357,0 -2.146,-0.878906 -0.73242,-0.878906 -0.73242,-2.570801 z m 3.39112,-5.163574 0,0 z" />
      <path
         id="path4423"
         style=""
         d="m 556.87494,89.277802 0,0.659179 -6.19629,0 q 0.0879,1.391602 0.83496,2.124024 0.7544,0.725097 2.09473,0.725097 0.77636,0 1.50146,-0.190429 0.73242,-0.19043 1.4502,-0.571289 l 0,1.274414 q -0.7251,0.307617 -1.48682,0.46875 -0.76172,0.161132 -1.54541,0.161132 -1.96289,0 -3.11279,-1.142578 -1.14258,-1.142578 -1.14258,-3.09082 0,-2.01416 1.08398,-3.193359 1.09131,-1.186524 2.93702,-1.186524 1.65527,0 2.61474,1.069336 0.9668,1.062012 0.9668,2.893067 z m -1.34766,-0.395508 q -0.0147,-1.105957 -0.62256,-1.765137 -0.60058,-0.65918 -1.59668,-0.65918 -1.12793,0 -1.80908,0.637207 -0.67383,0.637207 -0.77636,1.794434 l 4.80468,-0.0073 z" />
      <path
         id="path4425"
         style=""
         d="m 569.26019,86.75827 0,-4.438476 1.34766,0 0,11.396484 -1.34766,0 0,-1.230469 q -0.4248,0.732422 -1.07666,1.091309 -0.64453,0.351562 -1.55273,0.351562 -1.48682,0 -2.42432,-1.186523 -0.93017,-1.186523 -0.93017,-3.120117 0,-1.933594 0.93017,-3.120117 0.9375,-1.186524 2.42432,-1.186524 0.9082,0 1.55273,0.358887 0.65186,0.351562 1.07666,1.083984 z m -4.59228,2.86377 q 0,1.486816 0.60791,2.336426 0.61523,0.842285 1.68457,0.842285 1.06933,0 1.68457,-0.842285 0.61523,-0.84961 0.61523,-2.336426 0,-1.486817 -0.61523,-2.329102 -0.61524,-0.849609 -1.68457,-0.849609 -1.06934,0 -1.68457,0.849609 -0.60791,0.842285 -0.60791,2.329102 z" />
      <path
         id="path4427"
         style=""
         d="m 573.38373,85.513153 1.34765,0 0,8.203125 -1.34765,0 0,-8.203125 z m 0,-3.193359 1.34765,0 0,1.706543 -1.34765,0 0,-1.706543 z" />
      <path
         id="path4429"
         style=""
         d="m 582.77338,85.754852 0,1.274414 q -0.57129,-0.292968 -1.18653,-0.439453 -0.61523,-0.146484 -1.27441,-0.146484 -1.00342,0 -1.50879,0.307617 -0.49805,0.307617 -0.49805,0.922852 0,0.46875 0.35889,0.739746 0.35889,0.263672 1.44287,0.505371 l 0.46143,0.102539 q 1.43554,0.307617 2.03613,0.871582 0.60791,0.556641 0.60791,1.560058 0,1.142579 -0.9082,1.809083 -0.90088,0.666503 -2.48291,0.666503 -0.65918,0 -1.37696,-0.131836 -0.71045,-0.124511 -1.50146,-0.380859 l 0,-1.391601 q 0.74707,0.388183 1.47217,0.585937 0.72509,0.19043 1.43554,0.19043 0.95215,0 1.46485,-0.322266 0.51269,-0.32959 0.51269,-0.922851 0,-0.549317 -0.37353,-0.842286 -0.36621,-0.292968 -1.61866,-0.563964 l -0.46875,-0.109864 q -1.25244,-0.263672 -1.80908,-0.805664 -0.55664,-0.549316 -0.55664,-1.501465 0,-1.157226 0.82031,-1.787109 0.82032,-0.629883 2.32911,-0.629883 0.74707,0 1.40625,0.109863 0.65918,0.109864 1.21582,0.32959 z" />
      <path
         id="path4431"
         style=""
         d="m 586.66986,92.485809 0,4.350586 -1.35498,0 0,-11.323242 1.35498,0 0,1.245117 q 0.42481,-0.732422 1.06934,-1.083984 0.65185,-0.358887 1.55273,-0.358887 1.49414,0 2.42432,1.186524 0.9375,1.186523 0.9375,3.120117 0,1.933594 -0.9375,3.120117 -0.93018,1.186523 -2.42432,1.186523 -0.90088,0 -1.55273,-0.351562 -0.64453,-0.358887 -1.06934,-1.091309 z m 4.58496,-2.863769 q 0,-1.486817 -0.61523,-2.329102 -0.60791,-0.849609 -1.67725,-0.849609 -1.06933,0 -1.68457,0.849609 -0.60791,0.842285 -0.60791,2.329102 0,1.486816 0.60791,2.336426 0.61524,0.842285 1.68457,0.842285 1.06934,0 1.67725,-0.842285 0.61523,-0.84961 0.61523,-2.336426 z" />
      <path
         id="path4433"
         style=""
         d="m 594.88763,82.319794 1.34766,0 0,11.396484 -1.34766,0 0,-11.396484 z" />
      <path
         id="path4435"
         style=""
         d="m 602.77582,89.592743 q -1.6333,0 -2.26319,0.373535 -0.62988,0.373535 -0.62988,1.274414 0,0.717774 0.46875,1.142578 0.47608,0.417481 1.28906,0.417481 1.12061,0 1.79444,-0.791016 0.68115,-0.79834 0.68115,-2.116699 l 0,-0.300293 -1.34033,0 z m 2.68799,-0.556641 0,4.680176 -1.34766,0 0,-1.245117 q -0.46143,0.74707 -1.1499,1.105957 -0.68848,0.351562 -1.68457,0.351562 -1.25977,0 -2.00684,-0.703125 -0.73974,-0.710449 -0.73974,-1.896972 0,-1.384278 0.92285,-2.087403 0.93017,-0.703125 2.76855,-0.703125 l 1.88965,0 0,-0.131836 q 0,-0.930175 -0.61523,-1.435546 -0.60791,-0.512696 -1.71387,-0.512696 -0.70313,0 -1.36963,0.168457 -0.6665,0.168457 -1.28174,0.505371 l 0,-1.245117 q 0.73975,-0.285644 1.43555,-0.424804 0.6958,-0.146485 1.35498,-0.146485 1.77978,0 2.65869,0.922852 0.87891,0.922851 0.87891,2.797851 z" />
      <path
         id="path4437"
         style=""
         d="m 614.15033,85.828094 0,1.259766 q -0.57129,-0.314941 -1.1499,-0.46875 -0.57129,-0.161133 -1.15723,-0.161133 -1.31103,0 -2.03613,0.834961 -0.7251,0.827637 -0.7251,2.329102 0,1.501465 0.7251,2.336426 0.7251,0.827636 2.03613,0.827636 0.58594,0 1.15723,-0.153808 0.57861,-0.161133 1.1499,-0.476075 l 0,1.245118 q -0.56397,0.263672 -1.17188,0.395507 -0.60058,0.131836 -1.28173,0.131836 -1.85303,0 -2.94434,-1.16455 -1.09131,-1.164551 -1.09131,-3.14209 0,-2.006836 1.09863,-3.156738 1.10596,-1.149903 3.02491,-1.149903 0.62256,0 1.21582,0.131836 0.59326,0.124512 1.1499,0.380859 z" />
      <path
         id="path4439"
         style=""
         d="m 623.52533,89.277802 0,0.659179 -6.19629,0 q 0.0879,1.391602 0.83496,2.124024 0.7544,0.725097 2.09473,0.725097 0.77637,0 1.50146,-0.190429 0.73242,-0.19043 1.4502,-0.571289 l 0,1.274414 q -0.7251,0.307617 -1.48682,0.46875 -0.76172,0.161132 -1.54541,0.161132 -1.96289,0 -3.11279,-1.142578 -1.14258,-1.142578 -1.14258,-3.09082 0,-2.01416 1.08398,-3.193359 1.09131,-1.186524 2.93702,-1.186524 1.65527,0 2.61474,1.069336 0.9668,1.062012 0.9668,2.893067 z m -1.34766,-0.395508 q -0.0147,-1.105957 -0.62256,-1.765137 -0.60058,-0.65918 -1.59667,-0.65918 -1.12793,0 -1.80909,0.637207 -0.67383,0.637207 -0.77636,1.794434 l 4.80468,-0.0073 z" />
      <path
         id="path4441"
         style=""
         d="m 632.12396,87.08786 q 0.50537,-0.908203 1.2085,-1.340332 0.70312,-0.432129 1.65527,-0.432129 1.28174,0 1.97754,0.900879 0.6958,0.893555 0.6958,2.548828 l 0,4.951172 -1.35498,0 0,-4.907226 q 0,-1.1792 -0.41748,-1.750489 -0.41748,-0.571289 -1.27441,-0.571289 -1.04737,0 -1.65528,0.695801 -0.60791,0.695801 -0.60791,1.896973 l 0,4.63623 -1.35498,0 0,-4.907226 q 0,-1.186524 -0.41748,-1.750489 -0.41748,-0.571289 -1.28906,-0.571289 -1.03272,0 -1.64063,0.703125 -0.60791,0.695801 -0.60791,1.889649 l 0,4.63623 -1.35498,0 0,-8.203125 1.35498,0 0,1.274414 q 0.46143,-0.754394 1.10596,-1.113281 0.64453,-0.358887 1.53076,-0.358887 0.89356,0 1.51612,0.454102 0.62988,0.454101 0.93017,1.318359 z" />
      <path
         id="path4443"
         style=""
         d="m 647.37299,89.277802 0,0.659179 -6.19629,0 q 0.0879,1.391602 0.83496,2.124024 0.75439,0.725097 2.09472,0.725097 0.77637,0 1.50147,-0.190429 0.73242,-0.19043 1.45019,-0.571289 l 0,1.274414 q -0.72509,0.307617 -1.48681,0.46875 -0.76172,0.161132 -1.54541,0.161132 -1.96289,0 -3.1128,-1.142578 -1.14257,-1.142578 -1.14257,-3.09082 0,-2.01416 1.08398,-3.193359 1.09131,-1.186524 2.93701,-1.186524 1.65528,0 2.61475,1.069336 0.9668,1.062012 0.9668,2.893067 z m -1.34766,-0.395508 q -0.0147,-1.105957 -0.62256,-1.765137 -0.60058,-0.65918 -1.59668,-0.65918 -1.12793,0 -1.80908,0.637207 -0.67383,0.637207 -0.77637,1.794434 l 4.80469,-0.0073 z" />
      <path
         id="path4445"
         style=""
         d="m 656.40375,88.765106 0,4.951172 -1.34766,0 0,-4.907226 q 0,-1.164551 -0.4541,-1.743165 -0.4541,-0.578613 -1.3623,-0.578613 -1.09131,0 -1.7212,0.695801 -0.62988,0.695801 -0.62988,1.896973 l 0,4.63623 -1.35498,0 0,-8.203125 1.35498,0 0,1.274414 q 0.4834,-0.739746 1.13525,-1.105957 0.65918,-0.366211 1.51612,-0.366211 1.41357,0 2.13867,0.878906 0.7251,0.871582 0.7251,2.570801 z" />
      <path
         id="path4447"
         style=""
         d="m 660.43939,83.184052 0,2.329101 2.77588,0 0,1.047363 -2.77588,0 0,4.453125 q 0,1.003418 0.271,1.289063 0.27832,0.285644 1.1206,0.285644 l 1.38428,0 0,1.12793 -1.38428,0 q -1.56005,0 -2.15332,-0.578613 -0.59326,-0.585938 -0.59326,-2.124024 l 0,-4.453125 -0.98877,0 0,-1.047363 0.98877,0 0,-2.329101 1.35498,0 z" />
      <path
         id="path4449"
         style=""
         d="m 670.22455,85.754852 0,1.274414 q -0.57129,-0.292968 -1.18653,-0.439453 -0.61523,-0.146484 -1.27441,-0.146484 -1.00342,0 -1.50879,0.307617 -0.49805,0.307617 -0.49805,0.922852 0,0.46875 0.35889,0.739746 0.35889,0.263672 1.44287,0.505371 l 0.46143,0.102539 q 1.43555,0.307617 2.03613,0.871582 0.60791,0.556641 0.60791,1.560058 0,1.142579 -0.9082,1.809083 -0.90088,0.666503 -2.48291,0.666503 -0.65918,0 -1.37695,-0.131836 -0.71045,-0.124511 -1.50147,-0.380859 l 0,-1.391601 q 0.74707,0.388183 1.47217,0.585937 0.7251,0.19043 1.43555,0.19043 0.95214,0 1.46484,-0.322266 0.51269,-0.32959 0.51269,-0.922851 0,-0.549317 -0.37353,-0.842286 -0.36621,-0.292968 -1.61865,-0.563964 l -0.46875,-0.109864 q -1.25244,-0.263672 -1.80909,-0.805664 -0.55664,-0.549316 -0.55664,-1.501465 0,-1.157226 0.82032,-1.787109 0.82031,-0.629883 2.3291,-0.629883 0.74707,0 1.40625,0.109863 0.65918,0.109864 1.21582,0.32959 z" />
    </g>
    <circle
       r="10"
       cy="132.3622"
       cx="265"
       id="circle4208"
       style="fill:url(#linearGradient4222);fill-opacity:1;stroke:#000000;stroke-width:1;stroke-linejoin:round;stroke-miterlimit:4;stroke-dasharray:none;stroke-dashoffset:0;stroke-opacity:1" />
  </g>
</svg>
